<svg width="80" height="80" fill="none" xmlns="http://www.w3.org/2000/svg"><rect width="80" height="80" rx="16" fill="#F4F5F6"/><path d="M41 23v6.8c0 .11.09.2.2.2h7.6a.2.2 0 00.2-.2V23" stroke="#393939" stroke-linecap="round"/><path d="M32 36V23.2c0-.11.09-.2.2-.2h25.6c.11 0 .2.09.2.2V39" stroke="#83C150" stroke-width="2" stroke-linecap="round"/><path d="M24 53h3.449c.033 0 .062.006.092.022.696.38 10.09 5.46 13.459 4.978 3.416-.488 20.173-9.552 20.97-9.984a.138.138 0 00.054-.05c.188-.272 1.361-2.12-.024-3.966-1.452-1.936-3.84-1.061-3.992-1.003a.134.134 0 00-.015.007L46 49" stroke="#393939" stroke-width="2" stroke-linecap="round"/><path d="M24 40.5v-2.3a.2.2 0 00-.2-.2h-6.6a.2.2 0 00-.2.2v16.6c0 .11.09.2.2.2h6.6a.2.2 0 00.2-.2V40.5zm0 0l5.432-1.481a.2.2 0 01.132.009l14.933 6.47.004.002c.056.023 2.482 1.035.999 4-1.477 2.955-4.895 1.059-4.998 1.001l-.007-.003L33.5 47" stroke="#393939" stroke-width="2" stroke-linecap="round"/></svg>