<svg width="48" height="48" fill="none" xmlns="http://www.w3.org/2000/svg"><circle cx="24" cy="24" r="24" fill="#25D366"/><path fill-rule="evenodd" clip-rule="evenodd" d="M31.803 15.597a11.336 11.336 0 00-8.05-3.321c-6.274 0-11.38 5.08-11.382 11.323 0 1.997.524 3.945 1.52 5.662l-1.615 5.869 6.033-1.575a11.412 11.412 0 005.439 1.378h.004c6.273 0 11.379-5.08 11.381-11.324a11.227 11.227 0 00-3.33-8.012zm-8.05 17.424h-.004a9.483 9.483 0 01-4.815-1.312l-.345-.204-3.58.934.955-3.473-.225-.357a9.354 9.354 0 01-1.446-5.009c.002-5.19 4.246-9.412 9.463-9.412a9.42 9.42 0 016.688 2.76 9.333 9.333 0 012.768 6.66c-.002 5.19-4.246 9.413-9.46 9.413zm5.19-7.05c-.285-.142-1.683-.826-1.944-.92-.26-.095-.45-.142-.64.141-.19.284-.734.921-.9 1.11-.166.189-.332.212-.616.07-.285-.141-1.201-.44-2.287-1.404-.846-.75-1.416-1.677-1.582-1.96-.166-.284-.002-.422.125-.578.307-.38.616-.779.71-.967.095-.19.048-.355-.023-.496-.071-.142-.64-1.535-.877-2.101-.23-.552-.465-.477-.64-.486-.165-.008-.355-.01-.545-.01-.19 0-.497.07-.758.354-.26.284-.995.968-.995 2.36 0 1.394 1.019 2.74 1.16 2.928.143.189 2.006 3.047 4.858 4.273.679.291 1.209.465 1.622.596.681.215 1.3.185 1.79.112.547-.081 1.683-.685 1.92-1.346.237-.66.237-1.227.166-1.345-.071-.118-.26-.189-.545-.33z" fill="#fff"/></svg>