<svg width="25" height="33" fill="none" xmlns="http://www.w3.org/2000/svg"><path d="M5.667 22.864l-.378.267c-1.474-2.093-2.425-3.654-3.254-5.35-.86-1.76-1.226-2.802-1.452-4.19-.29-1.786.201-4.45 1.136-6.33 1.388-2.788 3.811-4.996 6.628-6.02l-2.68 21.623zm0 0l-.378.267c1.557 2.208 4.448 5.719 6.262 7.6l.593.616.36.374m-6.837-8.857l6.837 8.857m0 0l.36-.374m-.36.374l.36-.374m0 0l.593-.616-.36-.346m-.233.962l.233-.962m0 0l.36.346c1.286-1.334 3.591-4.05 4.993-5.883 2-2.612 3.455-4.883 4.523-7.068 1.172-2.399 1.594-3.911 1.519-5.698-.13-3.095-1.367-5.906-3.563-8.099l-.331.332m-7.5 26.07l7.5-26.07m0 0l.331-.332c-1.775-1.772-4.04-2.929-6.556-3.352m6.225 3.684L14.373.631m0 0c-.293-.049-.9-.089-1.46-.111m1.46.111L12.913.52m0 0c-.553-.022-1.148-.03-1.403 0h1.403zm3.68 13.224h0c-.425 1.368-1.393 2.37-2.792 2.872h0c-.24.086-.329.113-.458.129-.153.019-.362.021-.839.021s-.686-.002-.839-.021c-.13-.016-.218-.043-.458-.13h0c-1.4-.501-2.367-1.503-2.792-2.87h0c-.096-.308-.114-.424-.114-1.202 0-.776.019-.896.113-1.202h0c.519-1.677 1.963-2.874 3.645-3.047h0a7.307 7.307 0 01.48-.031c.093.012.319.034.519.052 1.252.11 2.537.986 3.203 2.235l.44-.235-.44.235c.196.369.3.62.36.888.063.274.086.592.086 1.105 0 .778-.018.894-.114 1.201zM11.51.52c-1.23.146-2.162.357-3.163.721L11.51.52z" fill="#569F29" stroke="#fff"/></svg>