<svg width="101" height="100" fill="none" xmlns="http://www.w3.org/2000/svg"><circle cx="50.5" cy="50" r="44" fill="#fff"/><path d="M50.515 60.408c-3.876 0-6.97-1.371-9.282-4.114l3.604-3.434c1.7 1.904 3.616 2.856 5.746 2.856.998 0 1.802-.26 2.414-.782.635-.544.952-1.27.952-2.176 0-.975-.408-1.723-1.224-2.244-.816-.521-1.96-.782-3.434-.782h-2.176L46.3 46.4l5.678-5.712h-9.35V36.2H58.71v3.944l-6.018 5.746c4.262.725 6.392 2.97 6.392 6.732 0 2.29-.782 4.16-2.346 5.61-1.54 1.45-3.615 2.176-6.222 2.176z" fill="#686868"/><path d="M50.5 0a50 50 0 11-50 50h5.994A44.005 44.005 0 1050.5 5.994V0z" fill="url(#paint0_linear_270_4920)"/><path d="M50.5 0a50 50 0 010 100v-5.994a44.006 44.006 0 100-88.012V0z" fill="#83C150"/><path d="M50.5 100a50 50 0 1150-50h-5.994A44.005 44.005 0 1050.5 94.006V100z" fill="url(#paint1_linear_270_4920)"/><defs><linearGradient id="paint0_linear_270_4920" x1="50.5" y1="1.5" x2="3.5" y2="50" gradientUnits="userSpaceOnUse"><stop offset=".004" stop-color="#9CD365"/><stop offset=".486" stop-color="#9CD365" stop-opacity=".437"/><stop offset=".858" stop-color="#9CD365" stop-opacity=".12"/><stop offset="1" stop-color="#9CD365" stop-opacity="0"/></linearGradient><linearGradient id="paint1_linear_270_4920" x1="50.5" y1="98.5" x2="50.5" y2="50" gradientUnits="userSpaceOnUse"><stop offset=".004" stop-color="#83C150"/><stop offset="1" stop-color="#9CD365" stop-opacity="0"/></linearGradient></defs></svg>