<svg width="80" height="80" fill="none" xmlns="http://www.w3.org/2000/svg"><rect width="80" height="80" rx="16" fill="#F4F5F6"/><path d="M40 49s7.619-7.583 9.143-11.917c1.524-4.333 1.016-7.583-1.524-10.833S40 23 40 23m0 26s-7.619-7.583-9.143-11.917c-1.524-4.333-1.016-7.583 1.524-10.833S40 23 40 23" stroke="#83C150" stroke-width="2" stroke-linecap="round"/><circle cx="40" cy="33" r="4.5" stroke="#393939"/><path d="M31 43l-1.93.965a.2.2 0 00-.098.107l-4.834 12.569a.2.2 0 00.235.266L32 55m0 0l2-8m-2 8l7.752 1.938a.2.2 0 00.248-.194V52m9-9l1.93.965a.2.2 0 01.098.107l4.834 12.569a.2.2 0 01-.235.266L48 55m0 0l-2-8m2 8l-7.752 1.938a.2.2 0 01-.248-.194V52" stroke="#393939" stroke-width="2" stroke-linecap="round"/></svg>