<svg width="48" height="48" fill="none" xmlns="http://www.w3.org/2000/svg"><g clip-path="url(#clip0_85_3280)" fill-rule="evenodd" clip-rule="evenodd"><path d="M24.002 0C37.256.001 48 10.746 48 24.001S37.254 48.001 24 48C10.744 48 0 37.255 0 24A24 24 0 0124.002 0z" fill="#7360F2"/><path d="M29.738 12.826a31.268 31.268 0 00-11.677 0c-1.695.375-3.827 2.408-4.244 4.043a22.116 22.116 0 000 9.536c.417 1.636 2.549 3.669 4.244 4.044a.16.16 0 01.131.157v4.635a.26.26 0 00.446.178l2.213-2.26 2.08-2.124a.159.159 0 01.118-.048c2.234.062 4.47-.118 6.689-.538 1.695-.375 3.828-2.408 4.244-4.044a22.092 22.092 0 000-9.535c-.416-1.636-2.549-3.669-4.244-4.044zm.058 13.815c-.339.717-.832 1.312-1.543 1.693-.138.073-.293.112-.45.152a4.597 4.597 0 00-.218.059 9.868 9.868 0 00-.248-.07 4.174 4.174 0 01-.491-.157c-2.39-.986-4.588-2.259-6.33-4.21-.99-1.11-1.766-2.361-2.421-3.687a27.03 27.03 0 01-.758-1.73l-.082-.2c-.244-.592.115-1.204.492-1.65.355-.418.81-.738 1.304-.974.386-.185.766-.078 1.047.247.609.702 1.167 1.44 1.62 2.255.278.501.202 1.114-.302 1.455-.099.066-.19.142-.282.218a16.4 16.4 0 01-.067.055 1.15 1.15 0 00-.263.276.752.752 0 00-.05.664c.621 1.7 1.67 3.023 3.39 3.736l.074.03c.25.106.506.213.795.18.343-.04.537-.297.731-.556.106-.14.212-.282.344-.389.364-.296.828-.3 1.22-.053s.772.512 1.15.78l.076.054c.345.244.687.486 1.006.765.328.288.441.666.256 1.057zm-3.119-5.543a.477.477 0 00.034.002.31.31 0 00.28-.254.958.958 0 00.003-.293v-.01c-.124-1.419-.99-2.042-2.202-2.13a.375.375 0 00-.396.301c-.033.194.082.362.29.412.09.022.181.03.273.039a1.339 1.339 0 01.732.251c.27.195.44.49.518.809.035.14.05.284.066.427l.008.07c.025.227.155.367.394.376zm-.719-3.245a4.278 4.278 0 00-1.182-.361 8.947 8.947 0 00-.334-.046 12.65 12.65 0 01-.203-.026c-.217-.03-.332-.168-.322-.38.01-.2.156-.343.374-.33.717.04 1.41.194 2.048.53 1.297.683 2.037 1.762 2.254 3.202l.011.07c.008.041.016.083.019.126.009.113.015.226.022.357l.01.18-.003.038c-.004.046-.01.113-.027.177-.083.313-.559.352-.669.037a.935.935 0 01-.037-.3c-.001-.66-.145-1.318-.479-1.89a3.528 3.528 0 00-1.482-1.384zm3.626 4.021c.017.224.13.433.38.43.242-.003.37-.216.352-.44l-.015-.196a13.834 13.834 0 00-.153-1.395c-.548-3.06-3.093-5.118-6.197-5.224a91.169 91.169 0 00-.1-.002h-.127c-.222.013-.418.197-.377.429.047.26.31.287.528.309l.037.004.33.03c.245.021.489.042.73.085 2.317.411 4.173 2.328 4.497 4.644.048.35.073.704.097 1.057l.018.27z" fill="#fff"/></g><defs><clipPath id="clip0_85_3280"><path fill="#fff" d="M0 0h48v48H0z"/></clipPath></defs></svg>