<svg width="96" height="97" fill="none" xmlns="http://www.w3.org/2000/svg"><rect width="96" height="97" rx="16" fill="#F4F5F6"/><g clip-path="url(#clip0_746_16610)"><path d="M44.875 44.75c-5.17 0-9.375-4.206-9.375-9.375 0-5.17 4.206-9.375 9.375-9.375 5.17 0 9.375 4.206 9.375 9.375 0 5.17-4.206 9.375-9.375 9.375zm0-16.875c-4.136 0-7.5 3.364-7.5 7.5s3.364 7.5 7.5 7.5 7.5-3.364 7.5-7.5-3.364-7.5-7.5-7.5zm-.937 37.5h-15a.938.938 0 01-.938-.938v-7.5c0-4.651 3.786-8.437 8.438-8.437h11.25a.938.938 0 010 1.875h-11.25a6.57 6.57 0 00-6.563 6.563V63.5h14.063a.938.938 0 010 1.875z" fill="#393939"/><path d="M59.875 63.25a4.444 4.444 0 01-4.438-4.438 4.444 4.444 0 014.438-4.437 4.444 4.444 0 014.438 4.438 4.444 4.444 0 01-4.438 4.437zm0-7.5a3.066 3.066 0 00-3.063 3.063 3.066 3.066 0 003.063 3.062 3.066 3.066 0 003.063-3.063 3.066 3.066 0 00-3.063-3.062z" fill="#393939" stroke="#fff" stroke-width=".5"/><path d="M64.472 70.198l-2.888.774a1.868 1.868 0 01-2.24-1.15l-.846-2.24a8.81 8.81 0 01-1.811-.49l-1.86 1.52a1.865 1.865 0 01-2.512-.126L50.2 66.372a1.87 1.87 0 01-.126-2.513l1.505-1.84a7.457 7.457 0 01-.308-.901 7.44 7.44 0 01-.184-.935l-2.223-.841a1.87 1.87 0 01-1.148-2.24l.774-2.887a1.868 1.868 0 012.112-1.366l2.372.387a8.798 8.798 0 011.322-1.33l-.387-2.364a1.868 1.868 0 011.366-2.113l2.888-.774a1.868 1.868 0 012.24 1.15l.846 2.24a8.79 8.79 0 011.811.49l1.86-1.52a1.87 1.87 0 012.512.126l2.114 2.114a1.87 1.87 0 01.126 2.513l-1.504 1.84c.111.27.22.576.307.902.088.326.146.646.185.934l2.222.841a1.87 1.87 0 011.148 2.24l-.772 2.885a1.868 1.868 0 01-2.113 1.366l-2.371-.388c-.398.495-.84.94-1.323 1.331l.386 2.366a1.868 1.868 0 01-1.365 2.113zM56.29 65.1a.938.938 0 01.638.056c.752.35 1.536.561 2.33.632a.938.938 0 01.794.603L61.1 69.16l2.89-.774-.479-2.921a.939.939 0 01.387-.92 7.02 7.02 0 001.701-1.711.937.937 0 01.918-.386l2.932.48.773-2.887-2.76-1.043a.943.943 0 01-.603-.795 7.008 7.008 0 00-.193-1.206 7.011 7.011 0 00-.436-1.141.941.941 0 01.124-.99l1.87-2.284-2.114-2.114-2.3 1.88a.94.94 0 01-.989.125 6.915 6.915 0 00-2.33-.631.938.938 0 01-.794-.603l-1.048-2.774-2.889.773.478 2.922a.938.938 0 01-.386.919 7.025 7.025 0 00-1.702 1.712.932.932 0 01-.918.385l-2.931-.48-.774 2.888 2.76 1.043c.337.127.57.437.604.795.035.4.085.804.193 1.206.108.402.266.777.436 1.141a.941.941 0 01-.125.99l-1.87 2.283 2.114 2.115 2.3-1.88a.978.978 0 01.35-.176z" fill="#83C150"/></g><defs><clipPath id="clip0_746_16610"><path fill="#fff" transform="translate(28 26)" d="M0 0h45v45H0z"/></clipPath></defs></svg>