<svg width="80" height="80" fill="none" xmlns="http://www.w3.org/2000/svg"><rect width="80" height="80" rx="16" fill="#F4F5F6"/><path d="M21 53V22.7c0-.11.09-.2.2-.2h38.6c.11 0 .2.09.2.2V53" stroke="#393939" stroke-width="2" stroke-linecap="round"/><path d="M40.5 58.5H21c-4.013 0-4.05-4.374-4.01-5.32a.189.189 0 01.193-.18H40.5m0 5.5H60c4.013 0 4.05-4.374 4.01-5.32a.189.189 0 00-.193-.18H40.5" stroke="#393939" stroke-width="2" stroke-linecap="round"/><path d="M31.726 32.5a.81.81 0 01-.58-.288l-1.94-1.662a.881.881 0 01.07-1.206.797.797 0 011.156.073l1.327 1.133 2.855-2.812a.797.797 0 011.158.024.882.882 0 01-.024 1.21l-3.423 3.29a.798.798 0 01-.566.238h-.033zm0 7a.81.81 0 01-.58-.288l-1.94-1.662a.881.881 0 01.07-1.206.797.797 0 011.156.073l1.327 1.133 2.855-2.812a.797.797 0 011.158.024.882.882 0 01-.024 1.21l-3.423 3.29a.798.798 0 01-.566.238h-.033zm0 7a.81.81 0 01-.58-.288l-1.94-1.662a.881.881 0 01.07-1.206.797.797 0 011.156.073l1.327 1.133 2.855-2.812a.797.797 0 011.158.024.882.882 0 01-.024 1.21l-3.423 3.29a.798.798 0 01-.566.238h-.033z" fill="#83C150"/><path d="M40 30.5h11.5m-11.5 7h11.5m-11.5 7h11.5" stroke="#393939" stroke-linecap="round"/></svg>