<svg width="101" height="100" fill="none" xmlns="http://www.w3.org/2000/svg"><circle cx="50.5" cy="50" r="44" fill="#fff"/><path d="M41.574 60v-4.148l7.922-6.494c1.564-1.292 2.64-2.323 3.23-3.094.59-.793.884-1.666.884-2.618 0-.975-.294-1.734-.884-2.278-.59-.544-1.36-.816-2.312-.816A4.17 4.17 0 0048 41.3c-.703.476-1.519 1.292-2.448 2.448L41.88 40.79c1.247-1.7 2.527-2.947 3.842-3.74 1.337-.793 3.015-1.19 5.032-1.19 2.47 0 4.454.68 5.95 2.04 1.496 1.337 2.244 3.128 2.244 5.372 0 1.292-.25 2.46-.748 3.502a10.078 10.078 0 01-1.938 2.72c-.793.77-1.983 1.768-3.57 2.992l-3.876 2.992h10.37V60H41.574z" fill="#686868"/><path d="M50.5 0a50 50 0 11-50 50h5.994A44.005 44.005 0 1050.5 5.994V0z" fill="url(#paint0_linear_270_4820)"/><defs><linearGradient id="paint0_linear_270_4820" x1="50.5" y1="1.5" x2="3.5" y2="50" gradientUnits="userSpaceOnUse"><stop offset=".004" stop-color="#83C150"/><stop offset=".486" stop-color="#9CD365" stop-opacity=".437"/><stop offset=".858" stop-color="#9CD365" stop-opacity=".12"/><stop offset="1" stop-color="#9CD365" stop-opacity="0"/></linearGradient></defs></svg>