<svg width="100" height="100" fill="none" xmlns="http://www.w3.org/2000/svg"><circle cx="50" cy="50" r="50" fill="#F4F5F6"/><path fill-rule="evenodd" clip-rule="evenodd" d="M50 29.044c-11.555 0-20.956 9.402-20.956 20.956 0 11.556 9.4 20.956 20.956 20.956 11.555 0 20.956-9.4 20.956-20.956 0-11.553-9.4-20.956-20.956-20.956zM50 73c-12.682 0-23-10.317-23-23s10.318-23 23-23c12.683 0 23 10.317 23 23S62.683 73 50 73z" fill="#393939"/><path d="M57.825 44.71a1.036 1.036 0 111.42 1.51l-10.97 10.32-5.52-5.191a1.036 1.036 0 011.42-1.51l4.098 3.855 9.552-8.984z" fill="#83C150"/></svg>