<svg width="80" height="80" fill="none" xmlns="http://www.w3.org/2000/svg"><path d="M30 54v-6.8c0-.11.09-.2.2-.2H40m10 7v-6.8a.2.2 0 00-.2-.2H40m0 7v-7m-5 0v-7.8c0-.11.09-.2.2-.2h9.6c.11 0 .2.09.2.2V47" stroke="#83C150" stroke-width="2"/><path d="M25 56V35.2c0-.11.09-.2.2-.2h29.6c.11 0 .2.09.2.2V56m5 .8V31.13a.2.2 0 00-.118-.183l-19.8-8.91a.2.2 0 00-.164 0l-19.8 8.91a.2.2 0 00-.118.182V56.8c0 .11.09.2.2.2h39.6a.2.2 0 00.2-.2z" stroke="#393939" stroke-width="2"/><path d="M25 54a.5.5 0 000 1v-1zm30.5 1a.5.5 0 000-1v1zM25 55h30.5v-1H25v1z" fill="#393939"/><path d="M36.5 30h7" stroke="#393939" stroke-linecap="round"/></svg>