<svg width="456" height="160" fill="none" xmlns="http://www.w3.org/2000/svg"><path d="M82.48 157v-29.92H7.9L.86 96.94 80.72 1.9h43.119v93.28h19.58v31.9h-19.58V157h-41.36zM45.74 95.4h36.74V51.18L45.74 95.4zm235.719 41.58c-13.053 15.4-30.287 23.1-51.7 23.1-21.413 0-38.647-7.627-51.7-22.88-12.907-15.4-19.36-34.467-19.36-57.2 0-22.44 6.6-41.36 19.8-56.76 13.2-15.547 30.433-23.32 51.7-23.32 21.413 0 38.573 7.7 51.48 23.1 13.053 15.4 19.58 34.393 19.58 56.98 0 22.44-6.6 41.433-19.8 56.98zm-71.94-26.4c5.28 7.773 12.173 11.66 20.68 11.66s15.327-3.887 20.46-11.66c5.133-7.92 7.7-18.113 7.7-30.58 0-12.32-2.713-22.44-8.14-30.36-5.28-7.92-12.1-11.88-20.46-11.88-8.507 0-15.327 3.887-20.46 11.66-5.133 7.773-7.7 17.967-7.7 30.58 0 12.467 2.64 22.66 7.92 30.58zM394.862 157v-29.92h-74.58l-7.04-30.14 79.86-95.04h43.12v93.28h19.58v31.9h-19.58V157h-41.36zm-36.74-61.6h36.74V51.18l-36.74 44.22z" fill="#E1E1E1"/></svg>