<svg width="96" height="97" fill="none" xmlns="http://www.w3.org/2000/svg"><rect width="96" height="97" rx="16" fill="#F4F5F6"/><path d="M32 45V32.05a.05.05 0 01.05-.05h31.9a.05.05 0 01.05.05V45" stroke="#83C150" stroke-width="2" stroke-linecap="round"/><path d="M27 64V50a1 1 0 011-1h6a1 1 0 011 1v6a1 1 0 001 1h24a1 1 0 001-1v-6a1 1 0 011-1h6a1 1 0 011 1v14a1 1 0 01-1 1H28a1 1 0 01-1-1z" stroke="#393939" stroke-width="2"/><path d="M35 52.5h26" stroke="#393939"/><path d="M30 67h4m28 0h4" stroke="#393939" stroke-width="2"/></svg>