<svg width="80" height="80" fill="none" xmlns="http://www.w3.org/2000/svg"><rect width="80" height="80" rx="16" fill="#F4F5F6"/><path d="M21.5 37h-1a1.5 1.5 0 00-1.5 1.5v7a1.5 1.5 0 001.5 1.5h1m37-10h1a1.5 1.5 0 011.5 1.5v7a1.5 1.5 0 01-1.5 1.5h-1" stroke="#83C150" stroke-width="2" stroke-linecap="round"/><path d="M53.5 50v4.5A1.5 1.5 0 0152 56H42" stroke="#393939" stroke-linecap="round"/><path d="M53 34s0-12.5-13-12.5S27 34 27 34" stroke="#393939" stroke-width="2" stroke-linecap="round"/><rect x="24" y="35" width="5" height="14" rx="2.5" stroke="#393939" stroke-width="2"/><rect x="1" y="-1" width="5" height="14" rx="2.5" transform="matrix(-1 0 0 1 57 36)" stroke="#393939" stroke-width="2"/><circle cx="40" cy="56" r="1.5" stroke="#393939"/></svg>