<svg width="80" height="80" fill="none" xmlns="http://www.w3.org/2000/svg"><path fill-rule="evenodd" clip-rule="evenodd" d="M64.891 53h-5.178c-.25 2.246-2.16 4-4.472 4a4.508 4.508 0 01-4.473-4h-4.179c-.468 0-.589-.39-.589-.87V26.87c0-.48.12-.87.59-.87h9.154c3.511 0 4.652 2.202 5.971 4.753l3.917 8.113a.91.91 0 01.108.428V52.13c0 .48-.38.87-.849.87zm-9.65-5a4.51 4.51 0 014.326 3.26h4.476V39.521l-.734-1.525a.497.497 0 01-.06.004H52.232a.496.496 0 01-.492-.5v-9.76h-4.302v23.52h3.476A4.51 4.51 0 0155.24 48zm2.139-19.99c.921.375 1.518 1.147 2.204 2.373L62.74 37h-10v-9h4.393c.085 0 .167.003.246.01zM52.74 52.5c0-1.378 1.123-2.5 2.5-2.5s2.5 1.122 2.5 2.5c0 1.379-1.123 2.5-2.5 2.5a2.504 2.504 0 01-2.5-2.5zM31.5 50a2.503 2.503 0 00-2.5 2.5c0 1.379 1.121 2.5 2.5 2.5s2.5-1.121 2.5-2.5c0-1.378-1.121-2.5-2.5-2.5zm0 7c-2.48 0-4.5-2.02-4.5-4.5 0-2.482 2.02-4.5 4.5-4.5s4.5 2.018 4.5 4.5c0 2.48-2.02 4.5-4.5 4.5z" fill="#393939"/><path d="M35 52h10a2 2 0 002-2V25a2 2 0 00-2-2H23a2 2 0 00-2 2v2.5M28 52h-5a2 2 0 01-2-2v-5.5m0-10v3" stroke="#393939" stroke-width="2" stroke-linecap="round"/><path d="M12 31h11m-8 10h11M8 36h8" stroke="#83C150" stroke-width="2" stroke-linecap="round"/><path d="M37 52h14" stroke="#393939" stroke-width="2" stroke-linecap="round"/></svg>