<svg width="25" height="32" fill="none" xmlns="http://www.w3.org/2000/svg"><path fill-rule="evenodd" clip-rule="evenodd" d="M11.57 1.016c-1.2.143-2.093.346-3.053.695-2.69.978-5.017 3.094-6.35 5.773-.898 1.804-1.36 4.363-1.09 6.027.215 1.323.56 2.317 1.407 4.05.814 1.666 1.75 3.204 3.214 5.282 1.542 2.188 4.418 5.679 6.213 7.541l.593.616.593-.616c1.27-1.318 3.563-4.019 4.956-5.84 1.986-2.594 3.422-4.837 4.47-6.983 1.156-2.364 1.54-3.789 1.469-5.458-.125-2.97-1.31-5.662-3.416-7.766-1.7-1.697-3.871-2.807-6.286-3.213-.513-.086-2.305-.157-2.72-.108zm1.531 6.8c1.438.127 2.864 1.116 3.6 2.499.414.775.506 1.183.506 2.228 0 .79-.018.968-.137 1.35-.473 1.522-1.558 2.64-3.1 3.193-.483.174-.538.18-1.466.18-.928 0-.983-.006-1.466-.18-1.542-.553-2.627-1.67-3.1-3.193-.12-.382-.137-.56-.137-1.35 0-.787.018-.969.136-1.35.575-1.861 2.183-3.202 4.071-3.396.257-.026.52-.04.584-.031.064.009.293.032.51.05z" fill="#83C150"/></svg>