<svg width="103" height="101" fill="none" xmlns="http://www.w3.org/2000/svg"><circle cx="50.881" cy="50" r="44" fill="#fff"/><path d="M52.693 60v-5.134H41.065l-.85-3.706L53.27 36.03h4.42v14.586h3.196v4.25H57.69V60h-4.998zm-6.324-9.384h6.324v-7.412l-6.324 7.412z" fill="#686868"/><path d="M50.881 0a50 50 0 1050 50h-5.994A44.006 44.006 0 1150.881 5.994V0z" fill="url(#paint0_linear_270_4964)"/><path d="M51.881 0a50 50 0 1050 50h-5.994A44.006 44.006 0 1151.881 5.994V0z" fill="url(#paint1_linear_270_4964)"/><path d="M52.119 100.237a50 50 0 10-50-50h5.994a44.006 44.006 0 1144.006 44.006v5.994z" fill="url(#paint2_linear_270_4964)"/><path d="M2.119 50.237a50 50 0 1050-50v5.994A44.006 44.006 0 118.113 50.237H2.119z" fill="url(#paint3_linear_270_4964)"/><path d="M50.881 0c27.615 0 50 22.386 50 50s-22.385 50-50 50c-27.614 0-50-22.386-50-50s22.386-50 50-50zm0 94.006c24.304 0 44.006-19.702 44.006-44.006S75.185 5.994 50.881 5.994C26.578 5.994 6.875 25.696 6.875 50s19.703 44.006 44.006 44.006z" fill="#83C150"/><defs><linearGradient id="paint0_linear_270_4964" x1="50.881" y1="1.5" x2="97.881" y2="50" gradientUnits="userSpaceOnUse"><stop offset=".004" stop-color="#9CD365"/><stop offset=".486" stop-color="#9CD365" stop-opacity=".437"/><stop offset=".858" stop-color="#9CD365" stop-opacity=".12"/><stop offset="1" stop-color="#9CD365" stop-opacity="0"/></linearGradient><linearGradient id="paint1_linear_270_4964" x1="51.881" y1="1.5" x2="98.881" y2="50" gradientUnits="userSpaceOnUse"><stop offset=".004" stop-color="#9CD365"/><stop offset=".486" stop-color="#9CD365" stop-opacity=".437"/><stop offset=".858" stop-color="#9CD365" stop-opacity=".12"/><stop offset="1" stop-color="#9CD365" stop-opacity="0"/></linearGradient><linearGradient id="paint2_linear_270_4964" x1="52.119" y1="98.737" x2="5.119" y2="50.237" gradientUnits="userSpaceOnUse"><stop offset=".004" stop-color="#9CD365"/><stop offset=".486" stop-color="#9CD365" stop-opacity=".437"/><stop offset=".858" stop-color="#9CD365" stop-opacity=".12"/><stop offset="1" stop-color="#9CD365" stop-opacity="0"/></linearGradient><linearGradient id="paint3_linear_270_4964" x1="3.619" y1="50.237" x2="52.119" y2="3.237" gradientUnits="userSpaceOnUse"><stop offset=".004" stop-color="#9CD365"/><stop offset=".486" stop-color="#9CD365" stop-opacity=".437"/><stop offset=".858" stop-color="#9CD365" stop-opacity=".12"/><stop offset="1" stop-color="#9CD365" stop-opacity="0"/></linearGradient></defs></svg>