<svg width="80" height="81" fill="none" xmlns="http://www.w3.org/2000/svg"><g filter="url(#filter0_d_1041_13753)"><circle cx="40" cy="35.949" r="25" fill="#fff"/></g><circle cx="40" cy="35.949" r="20" fill="#83C150"/><path fill-rule="evenodd" clip-rule="evenodd" d="M45.793 25.863l-9.5 9.5a1 1 0 00-.263.465l-1 4a1 1 0 001.212 1.213l4-1a1 1 0 00.465-.263l9.5-9.5a3.121 3.121 0 10-4.414-4.415zm3.087 1.512a1.12 1.12 0 01-.087 1.488l-9.305 9.304-2.114.53.529-2.116 9.304-9.303a1.121 1.121 0 011.586 0l.087.097zM41 27.95a1 1 0 00-1-1h-6.222l-.17.005A2.778 2.778 0 0031 29.727v12.444l.005.17a2.778 2.778 0 002.773 2.608h12.444l.17-.005A2.778 2.778 0 0049 42.171V35.95l-.007-.116A1 1 0 0047 35.95v6.222l-.007.106a.778.778 0 01-.77.672H33.777l-.106-.007a.778.778 0 01-.672-.77V29.726l.007-.105a.778.778 0 01.77-.673H40l.117-.007A1 1 0 0041 27.95z" fill="#fff"/><defs><filter id="filter0_d_1041_13753" x="0" y=".949" width="80" height="80" filterUnits="userSpaceOnUse" color-interpolation-filters="sRGB"><feFlood flood-opacity="0" result="BackgroundImageFix"/><feColorMatrix in="SourceAlpha" values="0 0 0 0 0 0 0 0 0 0 0 0 0 0 0 0 0 0 127 0" result="hardAlpha"/><feOffset dy="5"/><feGaussianBlur stdDeviation="7.5"/><feColorMatrix values="0 0 0 0 0 0 0 0 0 0 0 0 0 0 0 0 0 0 0.1 0"/><feBlend in2="BackgroundImageFix" result="effect1_dropShadow_1041_13753"/><feBlend in="SourceGraphic" in2="effect1_dropShadow_1041_13753" result="shape"/></filter></defs></svg>