<svg width="96" height="97" fill="none" xmlns="http://www.w3.org/2000/svg"><rect width="96" height="97" rx="16" fill="#F4F5F6"/><path fill-rule="evenodd" clip-rule="evenodd" d="M64.437 34.49C57.53 34.15 51.76 31.554 46.97 27c-4.523 4.314-10.191 6.927-16.97 7.512v14.743C30 59.969 37.602 69.138 48.03 71l.373-.074C58.049 68.913 65 60.312 65 50.31V34.512l-.563-.022zm-17.706-4.428l.238-.2.239.202c4.456 3.678 9.598 5.844 15.418 6.44l.253.024V50.31l-.004.384c-.172 8.68-6.175 16.127-14.53 18.049l-.327.07-.357-.073c-9.033-1.971-15.54-10.067-15.54-19.485v-12.83l.404-.059c5.383-.847 10.15-2.974 14.206-6.304z" fill="#393939"/><circle cx="48" cy="49" r="8" stroke="#83C150" stroke-width="2"/><path d="M46.533 50.875l-1.83-1.556a.609.609 0 01-.086-.814.514.514 0 01.756-.094l1.475 1.256 3.756-3.522a.514.514 0 01.76.05.609.609 0 01-.046.817l-4.093 3.843a.52.52 0 01-.357.145.52.52 0 01-.335-.125z" fill="#393939"/></svg>