<svg width="80" height="80" fill="none" xmlns="http://www.w3.org/2000/svg"><path d="M47 21L28.5 32.5" stroke="#393939"/><path d="M40.5 40v22" stroke="#393939" stroke-width="1.8"/><path d="M52.5 24L34 35.5M28 33v5.881a.2.2 0 00.104.176l5.1 2.782a.2.2 0 00.296-.176V36.5" stroke="#393939"/><path d="M49 51.5l6.5-3.5m-4-2l4-2" stroke="#83C150" stroke-width="1.7" stroke-linecap="round"/><path d="M21 28.5l19.4 11.44a.2.2 0 00.201.002L60.5 28.5" stroke="#393939" stroke-width="1.8"/><path d="M21 28.614v22.27a.2.2 0 00.102.173l19.3 10.888a.2.2 0 00.196 0l19.3-10.888a.2.2 0 00.102-.174V28.614a.2.2 0 00-.098-.172l-19.3-11.382a.2.2 0 00-.204 0l-19.3 11.382a.2.2 0 00-.098.172z" stroke="#393939" stroke-width="1.8"/></svg>