<svg width="386" height="288" fill="none" xmlns="http://www.w3.org/2000/svg"><g clip-path="url(#clip0_5_153)"><path d="M0 48c0-17.673 14.327-32 32-32h322c17.673 0 32 14.327 32 32v240H0V48z" fill="#fff"/><path d="M276 133c0 14.359-11.641 26-26 26s-26-11.641-26-26 11.641-26 26-26 26 11.641 26 26zm-47.207 0c0 11.712 9.495 21.207 21.207 21.207 11.712 0 21.207-9.495 21.207-21.207 0-11.712-9.495-21.207-21.207-21.207-11.712 0-21.207 9.495-21.207 21.207z" fill="#569F29"/><path d="M250 107a25.994 25.994 0 00-23.444 14.759 25.996 25.996 0 0014.962 35.818 26.002 26.002 0 0033.869-18.965l-4.68-1.034a21.204 21.204 0 01-15.882 16.072 21.2 21.2 0 01-21.36-7.371 21.215 21.215 0 01-2.587-22.448A21.206 21.206 0 01250 111.793V107z" fill="#9CD365"/><path d="M241.707 136.132c1.617 0 2.86-1.089 2.86-2.618 0-1.562-1.199-2.442-2.695-2.442-.902 0-1.43.374-1.837.77.066-1.408.704-2.442 1.848-2.442.671 0 1.133.253 1.672.671l.726-1.045c-.671-.539-1.353-.858-2.354-.858-2.178 0-3.3 1.837-3.3 4.191 0 1.573.352 2.376.946 2.97.506.506 1.188.803 2.134.803zm-.033-1.166c-.968 0-1.595-.605-1.595-1.386 0-.759.605-1.375 1.562-1.375.957 0 1.573.572 1.573 1.342 0 .814-.583 1.419-1.54 1.419zm6.889 1.166c1.705 0 2.849-1.034 2.849-2.607 0-1.65-1.177-2.442-2.673-2.442-.517 0-.858.088-1.221.22l.121-1.804h3.432V128.3h-4.598l-.22 3.773.814.539a3.29 3.29 0 011.419-.341c.935 0 1.595.495 1.595 1.276 0 .825-.605 1.353-1.529 1.353-.715 0-1.364-.352-1.98-.924l-.836.979c.726.704 1.65 1.177 2.827 1.177zm5.831-3.982c1.089 0 1.826-.902 1.826-1.969 0-1.078-.726-1.969-1.804-1.969-1.089 0-1.826.902-1.826 1.969 0 1.078.726 1.969 1.804 1.969zm-1.023 3.85h1.089l5.632-7.7h-1.089l-5.632 7.7zm5.676.088c1.089 0 1.826-.902 1.826-1.969 0-1.078-.726-1.969-1.804-1.969-1.089 0-1.826.902-1.826 1.969 0 1.078.726 1.969 1.804 1.969zm-4.631-4.785c-.495 0-.847-.495-.847-1.122 0-.616.308-1.122.825-1.122.495 0 .847.506.847 1.122 0 .616-.308 1.122-.825 1.122zm4.653 3.938c-.495 0-.847-.495-.847-1.122 0-.616.308-1.122.825-1.122.495 0 .847.506.847 1.122 0 .616-.308 1.122-.825 1.122z" fill="#F4F5F6"/><path d="M290 133a26.002 26.002 0 0044.385 18.385 25.998 25.998 0 005.636-28.335A25.997 25.997 0 00316 107v4.793a21.211 21.211 0 0119.592 13.092 21.208 21.208 0 01-15.455 28.914A21.208 21.208 0 01294.793 133H290z" fill="#569F29"/><path d="M316 107c-3.414 0-6.795.673-9.95 1.979a26.023 26.023 0 00-8.435 5.636 26.023 26.023 0 00-5.636 8.435A26.016 26.016 0 00290 133h4.793a21.196 21.196 0 016.212-14.995A21.196 21.196 0 01316 111.793V107z" fill="#9CD365"/><path d="M304.539 136h5.566v-1.188h-3.663l1.584-1.32c1.353-1.122 2.002-1.771 2.002-2.981 0-1.397-1.034-2.321-2.541-2.321-1.375 0-2.101.583-2.838 1.617l.957.748c.594-.77 1.078-1.155 1.782-1.155s1.243.44 1.243 1.199c0 .693-.385 1.188-1.441 2.079l-2.651 2.255V136zm9.551.132c1.705 0 2.849-1.034 2.849-2.607 0-1.65-1.177-2.442-2.673-2.442-.517 0-.858.088-1.221.22l.121-1.804h3.432V128.3H312l-.22 3.773.814.539a3.29 3.29 0 011.419-.341c.935 0 1.595.495 1.595 1.276 0 .825-.605 1.353-1.529 1.353-.715 0-1.364-.352-1.98-.924l-.836.979c.726.704 1.65 1.177 2.827 1.177zm5.831-3.982c1.089 0 1.826-.902 1.826-1.969 0-1.078-.726-1.969-1.804-1.969-1.089 0-1.826.902-1.826 1.969 0 1.078.726 1.969 1.804 1.969zm-1.023 3.85h1.089l5.632-7.7h-1.089l-5.632 7.7zm5.676.088c1.089 0 1.826-.902 1.826-1.969 0-1.078-.726-1.969-1.804-1.969-1.089 0-1.826.902-1.826 1.969 0 1.078.726 1.969 1.804 1.969zm-4.631-4.785c-.495 0-.847-.495-.847-1.122 0-.616.308-1.122.825-1.122.495 0 .847.506.847 1.122 0 .616-.308 1.122-.825 1.122zm4.653 3.938c-.495 0-.847-.495-.847-1.122 0-.616.308-1.122.825-1.122.495 0 .847.506.847 1.122 0 .616-.308 1.122-.825 1.122z" fill="#F4F5F6"/><path d="M346 80H222c-8.837 0-16 7.163-16 16v60c0 8.837 7.163 16 16 16h124c8.837 0 16-7.163 16-16V96c0-8.837-7.163-16-16-16zm-170 0H40c-8.837 0-16 7.163-16 16v60c0 8.837 7.163 16 16 16h136c8.837 0 16-7.163 16-16V96c0-8.837-7.163-16-16-16z" fill="#F4F5F6"/><path d="M48 118a4 4 0 00-8 0v38a4 4 0 008 0v-38zm16-6a4 4 0 00-8 0v44a4 4 0 008 0v-44zm16 10a4 4 0 00-8 0v34a4 4 0 008 0v-34zm16-26a4 4 0 00-8 0v60a4 4 0 008 0V96zm16 40a4 4 0 00-8 0v20a4 4 0 008 0v-20zm16-34a4 4 0 00-8 0v54a4 4 0 008 0v-54zm16 27a4 4 0 00-8 0v27a4 4 0 008 0v-27zm16-17a4 4 0 00-8 0v44a4 4 0 008 0v-44zm16 15a4 4 0 00-8 0v29a4 4 0 008 0v-29z" fill="#9CD365"/><path d="M346 186H40c-8.837 0-16 7.163-16 16v79c0 8.837 7.163 16 16 16h306c8.837 0 16-7.163 16-16v-79c0-8.837-7.163-16-16-16z" fill="#F4F5F6"/><path d="M277 126c0 14.359-11.641 26-26 26s-26-11.641-26-26 11.641-26 26-26 26 11.641 26 26zm-47.207 0c0 11.712 9.495 21.207 21.207 21.207 11.712 0 21.207-9.495 21.207-21.207 0-11.712-9.495-21.207-21.207-21.207-11.712 0-21.207 9.495-21.207 21.207z" fill="#9CD365"/><path d="M251 100a26.002 26.002 0 00-18.385 44.385 25.998 25.998 0 0028.335 5.636A25.997 25.997 0 00277 126h-4.793a21.211 21.211 0 01-13.092 19.592 21.208 21.208 0 01-28.914-15.455A21.208 21.208 0 01251 104.793V100z" fill="#fff"/><path d="M242.663 129.132c-.924 0-1.654-.304-2.189-.913-.535-.609-.803-1.566-.803-2.871 0-1.203.286-2.2.858-2.992.579-.792 1.36-1.188 2.343-1.188.799 0 1.558.293 2.277.88l-.506.671c-.601-.506-1.206-.759-1.815-.759-.682 0-1.228.312-1.639.935-.411.623-.616 1.434-.616 2.431v.033c.535-.785 1.265-1.177 2.189-1.177.741 0 1.368.22 1.881.66.521.44.781 1.016.781 1.727 0 .741-.264 1.353-.792 1.837s-1.184.726-1.969.726zm.011-.77c.557 0 1.005-.169 1.342-.506.345-.337.517-.763.517-1.276 0-.477-.176-.869-.528-1.177-.352-.315-.803-.473-1.353-.473-.557 0-1.019.172-1.386.517-.359.337-.539.733-.539 1.188 0 .491.183.902.55 1.232.367.33.832.495 1.397.495zm6.781.77c-1.019 0-1.936-.407-2.75-1.221l.572-.627c.726.704 1.456 1.056 2.189 1.056.55 0 .997-.161 1.342-.484.345-.323.517-.737.517-1.243 0-.477-.18-.865-.539-1.166-.352-.301-.81-.451-1.375-.451-.528 0-1.067.147-1.617.44l-.583-.385.22-3.751h4.433v.803h-3.674l-.165 2.464c.521-.227 1.027-.341 1.518-.341.77 0 1.404.216 1.903.649.506.425.759 1.001.759 1.727 0 .748-.257 1.357-.77 1.826-.513.469-1.173.704-1.98.704zm6.966-4.565c-.33.389-.748.583-1.254.583s-.924-.191-1.254-.572c-.322-.389-.484-.854-.484-1.397 0-.535.165-.997.495-1.386.33-.389.752-.583 1.265-.583.506 0 .921.194 1.243.583.323.381.484.843.484 1.386 0 .535-.165.997-.495 1.386zm-2.2 4.433l5.654-7.7h.781l-5.643 7.7h-.792zm5.478.088c-.506 0-.92-.191-1.243-.572-.322-.389-.484-.854-.484-1.397 0-.535.165-.997.495-1.386.33-.389.748-.583 1.254-.583s.921.194 1.243.583c.323.381.484.843.484 1.386 0 .543-.165 1.008-.495 1.397-.322.381-.74.572-1.254.572zm-4.51-4.554c.294 0 .532-.128.715-.385.191-.264.286-.587.286-.968s-.099-.7-.297-.957c-.198-.264-.44-.396-.726-.396-.293 0-.535.132-.726.396-.183.257-.275.576-.275.957s.099.704.297.968c.198.257.44.385.726.385zm4.532 3.938a.85.85 0 00.726-.385c.184-.257.275-.579.275-.968 0-.381-.099-.7-.297-.957-.198-.264-.44-.396-.726-.396-.293 0-.535.132-.726.396-.183.257-.275.576-.275.957s.099.704.297.968c.198.257.44.385.726.385z" fill="#A1A1A1"/><path d="M274.5 129a2.5 2.5 0 100-5 2.5 2.5 0 000 5zm-24-24a2.5 2.5 0 100-5 2.5 2.5 0 000 5z" fill="#FEFEFE"/><path d="M291 126a26.002 26.002 0 0044.385 18.385 25.998 25.998 0 005.636-28.335A25.997 25.997 0 00317 100v4.793a21.211 21.211 0 0119.592 13.092 21.208 21.208 0 01-15.455 28.914A21.208 21.208 0 01295.793 126H291z" fill="#9CD365"/><path d="M317 100c-3.414 0-6.795.673-9.95 1.979a26.023 26.023 0 00-8.435 5.636 26.023 26.023 0 00-5.636 8.435A26.016 26.016 0 00291 126h4.793a21.196 21.196 0 016.212-14.995A21.196 21.196 0 01317 104.793V100z" fill="#fff"/><path d="M305.528 129v-.671l2.794-2.464c.601-.528 1.019-.968 1.254-1.32.235-.352.352-.719.352-1.1 0-.44-.15-.796-.451-1.067a1.584 1.584 0 00-1.1-.407 1.97 1.97 0 00-1.111.319c-.315.213-.634.546-.957 1.001l-.638-.462c.374-.557.77-.968 1.188-1.232.418-.271.946-.407 1.584-.407.689 0 1.258.209 1.705.627.455.411.682.935.682 1.573 0 .528-.143.997-.429 1.408-.286.411-.792.939-1.518 1.584l-2.057 1.826h4.081V129h-5.379zm9.39.132c-1.019 0-1.936-.407-2.75-1.221l.572-.627c.726.704 1.456 1.056 2.189 1.056.55 0 .997-.161 1.342-.484.345-.323.517-.737.517-1.243 0-.477-.18-.865-.539-1.166-.352-.301-.81-.451-1.375-.451-.528 0-1.067.147-1.617.44l-.583-.385.22-3.751h4.433v.803h-3.674l-.165 2.464c.521-.227 1.027-.341 1.518-.341.77 0 1.404.216 1.903.649.506.425.759 1.001.759 1.727 0 .748-.257 1.357-.77 1.826-.513.469-1.173.704-1.98.704zm6.966-4.565c-.33.389-.748.583-1.254.583s-.924-.191-1.254-.572c-.322-.389-.484-.854-.484-1.397 0-.535.165-.997.495-1.386.33-.389.752-.583 1.265-.583.506 0 .921.194 1.243.583.323.381.484.843.484 1.386 0 .535-.165.997-.495 1.386zm-2.2 4.433l5.654-7.7h.781l-5.643 7.7h-.792zm5.478.088c-.506 0-.92-.191-1.243-.572-.322-.389-.484-.854-.484-1.397 0-.535.165-.997.495-1.386.33-.389.748-.583 1.254-.583s.921.194 1.243.583c.323.381.484.843.484 1.386 0 .543-.165 1.008-.495 1.397-.322.381-.74.572-1.254.572zm-4.51-4.554c.294 0 .532-.128.715-.385.191-.264.286-.587.286-.968s-.099-.7-.297-.957c-.198-.264-.44-.396-.726-.396-.293 0-.535.132-.726.396-.183.257-.275.576-.275.957s.099.704.297.968c.198.257.44.385.726.385zm4.532 3.938a.85.85 0 00.726-.385c.184-.257.275-.579.275-.968 0-.381-.099-.7-.297-.957-.198-.264-.44-.396-.726-.396-.293 0-.535.132-.726.396-.183.257-.275.576-.275.957s.099.704.297.968c.198.257.44.385.726.385z" fill="#A1A1A1"/><path d="M293.5 129a2.5 2.5 0 100-5 2.5 2.5 0 000 5zm24-24a2.5 2.5 0 100-5 2.5 2.5 0 000 5z" fill="#FEFEFE"/><path d="M50.491 215.966c-.741.777-1.683 1.166-2.827 1.166s-2.083-.389-2.816-1.166c-.733-.777-1.1-1.716-1.1-2.816 0-1.093.37-2.028 1.111-2.805.741-.785 1.683-1.177 2.827-1.177s2.083.389 2.816 1.166c.733.777 1.1 1.716 1.1 2.816 0 1.093-.37 2.031-1.111 2.816zm-4.983-.561c.579.616 1.305.924 2.178.924s1.591-.304 2.156-.913c.572-.616.858-1.371.858-2.266 0-.887-.29-1.639-.869-2.255-.572-.616-1.294-.924-2.167-.924-.873 0-1.595.308-2.167.924-.565.609-.847 1.36-.847 2.255 0 .887.286 1.639.858 2.255zM54.667 217v-4.939h-2.035v-.748h4.928v.748h-2.035V217h-.858zm4.125 0v-5.687h3.861v.748h-3.014V217h-.847zm5.092 1.76v-7.447h.847v1.144c.572-.843 1.298-1.265 2.178-1.265.726 0 1.36.271 1.903.814.542.535.814 1.254.814 2.156 0 .887-.272 1.602-.814 2.145-.543.543-1.177.814-1.903.814-.895 0-1.621-.403-2.178-1.21v2.849h-.847zm2.871-2.398c.572 0 1.048-.198 1.43-.594.381-.403.572-.942.572-1.617 0-.653-.195-1.181-.583-1.584a1.88 1.88 0 00-1.419-.616c-.55 0-1.031.209-1.441.627-.411.418-.616.946-.616 1.584 0 .638.205 1.166.616 1.584.41.411.891.616 1.441.616zm5.313 2.431a2.76 2.76 0 01-1.21-.286l.286-.671c.272.139.569.209.891.209a.926.926 0 00.649-.242c.176-.154.349-.429.517-.825l-2.585-5.665h.935l2.068 4.741 1.826-4.741h.902l-2.387 5.874c-.242.579-.509.99-.803 1.232-.293.249-.656.374-1.089.374zm7.423-1.661a3.641 3.641 0 01-2.354-.847l.429-.627c.58.491 1.214.737 1.903.737.389 0 .719-.088.99-.264.279-.183.418-.433.418-.748a.766.766 0 00-.374-.682c-.249-.169-.601-.253-1.056-.253h-.759v-.693h.77c.374 0 .679-.088.913-.264a.865.865 0 00.352-.715c0-.257-.117-.462-.352-.616-.227-.154-.52-.231-.88-.231-.674 0-1.25.191-1.727.572l-.418-.594c.616-.477 1.35-.715 2.2-.715.631 0 1.13.143 1.496.429.374.279.561.642.561 1.089 0 .623-.304 1.06-.913 1.309.704.249 1.056.715 1.056 1.397 0 .477-.205.884-.616 1.221-.41.33-.957.495-1.639.495zm3.825-.132v-5.687h.847v3.278l3.113-3.278h1.045l-2.376 2.464L88.387 217h-1.001l-2.024-2.607-1.199 1.232V217h-.847zm7.935.121c-.579 0-1.078-.158-1.496-.473-.418-.315-.627-.755-.627-1.32 0-.594.22-1.052.66-1.375.44-.323 1.031-.484 1.771-.484.587 0 1.166.081 1.738.242v-.176c0-.499-.146-.88-.44-1.144-.293-.264-.707-.396-1.243-.396-.557 0-1.133.136-1.727.407l-.253-.693c.704-.323 1.394-.484 2.068-.484.807 0 1.419.209 1.837.627.396.396.594.953.594 1.672V217h-.836v-.847c-.506.645-1.188.968-2.046.968zm.165-.682c.528 0 .976-.143 1.342-.429.367-.286.55-.653.55-1.1v-.528a5.961 5.961 0 00-1.661-.242c-.52 0-.927.106-1.221.319a.98.98 0 00-.44.847c0 .345.136.62.407.825.279.205.62.308 1.023.308zm41.806.693a2.78 2.78 0 01-1.298-.319l.341-.693c.286.154.612.231.979.231.623 0 1.137-.385 1.54-1.155l-3.388-5.896h.99l2.838 5.027 2.453-5.027h.946l-3.047 6.083c-.579 1.166-1.364 1.749-2.354 1.749zm6.738-.132v-5.687h4.928V217h-.847v-4.939h-3.234V217h-.847zm8.515.121c-.579 0-1.078-.158-1.496-.473-.418-.315-.627-.755-.627-1.32 0-.594.22-1.052.66-1.375.44-.323 1.03-.484 1.771-.484.587 0 1.166.081 1.738.242v-.176c0-.499-.147-.88-.44-1.144-.293-.264-.708-.396-1.243-.396-.557 0-1.133.136-1.727.407l-.253-.693c.704-.323 1.393-.484 2.068-.484.807 0 1.419.209 1.837.627.396.396.594.953.594 1.672V217h-.836v-.847c-.506.645-1.188.968-2.046.968zm.165-.682c.528 0 .975-.143 1.342-.429.367-.286.55-.653.55-1.1v-.528a5.961 5.961 0 00-1.661-.242c-.521 0-.928.106-1.221.319a.98.98 0 00-.44.847c0 .345.136.62.407.825.279.205.62.308 1.023.308zm4.511.561v-5.687h.847v3.278l3.113-3.278h1.045l-2.376 2.464 2.442 3.223h-1.001l-2.024-2.607-1.199 1.232V217h-.847zm10.96-.737c-.572.579-1.279.869-2.123.869-.843 0-1.547-.29-2.112-.869-.557-.579-.836-1.28-.836-2.101 0-.814.283-1.511.847-2.09.572-.587 1.28-.88 2.123-.88.844 0 1.548.29 2.112.869.565.579.847 1.28.847 2.101 0 .814-.286 1.514-.858 2.101zm-2.101.11c.609 0 1.108-.213 1.496-.638.396-.425.594-.95.594-1.573a2.2 2.2 0 00-.616-1.573 1.962 1.962 0 00-1.496-.649c-.608 0-1.107.216-1.496.649-.388.425-.583.95-.583 1.573 0 .616.202 1.14.605 1.573.404.425.902.638 1.496.638zm4.494.627v-5.687h2.75c.564 0 1.015.128 1.353.385.337.257.506.601.506 1.034 0 .609-.316 1.045-.946 1.309.836.227 1.254.697 1.254 1.408 0 .477-.187.854-.561 1.133-.374.279-.877.418-1.507.418h-2.849zm.847-.726h1.892c.403 0 .722-.084.957-.253a.82.82 0 00.352-.704c0-.279-.125-.495-.374-.649-.242-.154-.591-.231-1.045-.231h-1.782v1.837zm0-2.519h1.749c.352 0 .63-.077.836-.231.212-.161.319-.389.319-.682a.691.691 0 00-.297-.583c-.198-.147-.477-.22-.836-.22h-1.771v1.716zm5.598 3.245v-5.687h.847v3.278l3.113-3.278h1.045l-2.376 2.464L178.02 217h-1.001l-2.024-2.607-1.199 1.232V217h-.847zm7.935.121c-.579 0-1.078-.158-1.496-.473-.418-.315-.627-.755-.627-1.32 0-.594.22-1.052.66-1.375.44-.323 1.03-.484 1.771-.484.587 0 1.166.081 1.738.242v-.176c0-.499-.147-.88-.44-1.144-.293-.264-.708-.396-1.243-.396-.557 0-1.133.136-1.727.407l-.253-.693c.704-.323 1.393-.484 2.068-.484.807 0 1.419.209 1.837.627.396.396.594.953.594 1.672V217h-.836v-.847c-.506.645-1.188.968-2.046.968zm.165-.682c.528 0 .975-.143 1.342-.429.367-.286.55-.653.55-1.1v-.528a5.961 5.961 0 00-1.661-.242c-.521 0-.928.106-1.221.319a.98.98 0 00-.44.847c0 .345.136.62.407.825.279.205.62.308 1.023.308zm33.061 2.277v-2.508h.792c.777-1.239 1.166-3.095 1.166-5.566V209.3h5.038v6.908h1.001l-.132 2.508h-.726V217h-6.248l-.154 1.716h-.737zm1.771-2.508h4.356v-6.116h-3.333v1.001c0 1.012-.092 1.987-.275 2.926-.183.939-.433 1.668-.748 2.189zm12.077.055c-.572.579-1.28.869-2.123.869-.843 0-1.547-.29-2.112-.869-.557-.579-.836-1.28-.836-2.101 0-.814.282-1.511.847-2.09.572-.587 1.28-.88 2.123-.88.843 0 1.547.29 2.112.869.565.579.847 1.28.847 2.101 0 .814-.286 1.514-.858 2.101zm-2.101.11c.609 0 1.107-.213 1.496-.638.396-.425.594-.95.594-1.573a2.2 2.2 0 00-.616-1.573 1.962 1.962 0 00-1.496-.649c-.609 0-1.107.216-1.496.649-.389.425-.583.95-.583 1.573 0 .616.202 1.14.605 1.573a1.98 1.98 0 001.496.638zm7.056.759c-.821 0-1.514-.29-2.079-.869a2.946 2.946 0 01-.836-2.101c0-.814.279-1.511.836-2.09a2.773 2.773 0 012.079-.88c.88 0 1.639.337 2.277 1.012l-.539.572c-.528-.557-1.111-.836-1.749-.836-.572 0-1.056.216-1.452.649-.388.425-.583.95-.583 1.573 0 .616.198 1.14.594 1.573.404.425.902.638 1.496.638.609 0 1.181-.286 1.716-.858l.561.517c-.66.733-1.433 1.1-2.321 1.1zm5.096-.132v-4.939h-2.035v-.748h4.928v.748h-2.035V217h-.858zm5.819.121c-.579 0-1.078-.158-1.496-.473-.418-.315-.627-.755-.627-1.32 0-.594.22-1.052.66-1.375.44-.323 1.031-.484 1.771-.484.587 0 1.166.081 1.738.242v-.176c0-.499-.146-.88-.44-1.144-.293-.264-.707-.396-1.243-.396-.557 0-1.133.136-1.727.407l-.253-.693c.704-.323 1.394-.484 2.068-.484.807 0 1.419.209 1.837.627.396.396.594.953.594 1.672V217h-.836v-.847c-.506.645-1.188.968-2.046.968zm.165-.682c.528 0 .976-.143 1.342-.429.367-.286.55-.653.55-1.1v-.528a5.961 5.961 0 00-1.661-.242c-.52 0-.927.106-1.221.319a.98.98 0 00-.44.847c0 .345.136.62.407.825.279.205.62.308 1.023.308zm4.512.561v-5.687h2.75c.564 0 1.015.128 1.353.385.337.257.506.601.506 1.034 0 .609-.316 1.045-.946 1.309.836.227 1.254.697 1.254 1.408 0 .477-.187.854-.561 1.133-.374.279-.877.418-1.507.418h-2.849zm.847-.726h1.892c.403 0 .722-.084.957-.253a.82.82 0 00.352-.704c0-.279-.125-.495-.374-.649-.242-.154-.591-.231-1.045-.231h-1.782v1.837zm0-2.519h1.749c.352 0 .63-.077.836-.231.212-.161.319-.389.319-.682a.691.691 0 00-.297-.583c-.198-.147-.477-.22-.836-.22h-1.771v1.716zM254.95 217v-5.687h.847v3.278l3.113-3.278h1.045l-2.376 2.464 2.442 3.223h-1.001l-2.024-2.607-1.199 1.232V217h-.847zm7.935.121c-.579 0-1.078-.158-1.496-.473-.418-.315-.627-.755-.627-1.32 0-.594.22-1.052.66-1.375.44-.323 1.03-.484 1.771-.484.587 0 1.166.081 1.738.242v-.176c0-.499-.147-.88-.44-1.144-.293-.264-.708-.396-1.243-.396-.557 0-1.133.136-1.727.407l-.253-.693c.704-.323 1.393-.484 2.068-.484.807 0 1.419.209 1.837.627.396.396.594.953.594 1.672V217h-.836v-.847c-.506.645-1.188.968-2.046.968zm.165-.682c.528 0 .975-.143 1.342-.429.367-.286.55-.653.55-1.1v-.528a5.961 5.961 0 00-1.661-.242c-.521 0-.928.106-1.221.319a.98.98 0 00-.44.847c0 .345.136.62.407.825.279.205.62.308 1.023.308zm48.039.561v-7.7h3.278c.902 0 1.573.227 2.013.682.33.345.495.763.495 1.254 0 .836-.407 1.43-1.221 1.782 1.1.33 1.65.957 1.65 1.881 0 .653-.253 1.166-.759 1.54-.506.374-1.184.561-2.035.561h-3.421zm.858-.781h2.585c.587 0 1.049-.121 1.386-.363.337-.249.506-.594.506-1.034 0-.425-.176-.752-.528-.979-.345-.227-.851-.341-1.518-.341h-2.431v2.717zm0-3.487h2.277c.535 0 .964-.121 1.287-.363.323-.242.484-.587.484-1.034 0-.389-.15-.693-.451-.913-.293-.227-.711-.341-1.254-.341h-2.343v2.651zm9.5 4.4c-.821 0-1.514-.29-2.079-.869a2.946 2.946 0 01-.836-2.101c0-.814.279-1.511.836-2.09a2.773 2.773 0 012.079-.88c.88 0 1.639.337 2.277 1.012l-.539.572c-.528-.557-1.111-.836-1.749-.836-.572 0-1.056.216-1.452.649-.388.425-.583.95-.583 1.573 0 .616.198 1.14.594 1.573.404.425.902.638 1.496.638.609 0 1.181-.286 1.716-.858l.561.517c-.66.733-1.433 1.1-2.321 1.1zm6.208 0c-.8 0-1.474-.275-2.024-.825-.543-.557-.814-1.272-.814-2.145 0-.829.26-1.529.781-2.101a2.51 2.51 0 011.947-.869c.814 0 1.459.286 1.936.858.476.572.715 1.291.715 2.156 0 .11-.004.209-.011.297h-4.51c.058.579.275 1.041.649 1.386.381.337.832.506 1.353.506.682 0 1.279-.268 1.793-.803l.528.473c-.638.711-1.419 1.067-2.343 1.067zm-1.98-3.311h3.663c-.052-.55-.235-1.005-.55-1.364-.308-.367-.73-.55-1.265-.55-.484 0-.899.18-1.243.539-.345.359-.547.818-.605 1.375zm6.003 3.179v-5.687h3.861v.748h-3.014V217h-.847zm9.811-.737c-.572.579-1.279.869-2.123.869-.843 0-1.547-.29-2.112-.869-.557-.579-.836-1.28-.836-2.101 0-.814.283-1.511.847-2.09.572-.587 1.28-.88 2.123-.88.844 0 1.548.29 2.112.869.565.579.847 1.28.847 2.101 0 .814-.286 1.514-.858 2.101zm-2.101.11c.609 0 1.108-.213 1.496-.638.396-.425.594-.95.594-1.573a2.2 2.2 0 00-.616-1.573 1.962 1.962 0 00-1.496-.649c-.608 0-1.107.216-1.496.649-.388.425-.583.95-.583 1.573 0 .616.202 1.14.605 1.573.404.425.902.638 1.496.638z" fill="#686868"/><path d="M218.752 244v-1.826h-4.059l-.22-.627 4.356-5.302h.759v5.203h1.199v.726h-1.199V244h-.836zm-3.234-2.552h3.234v-3.971l-3.234 3.971zm11.395 2.057c-.55.403-1.239.605-2.068.605s-1.518-.205-2.068-.616c-.55-.411-.825-.939-.825-1.584 0-.44.143-.821.429-1.144.286-.323.671-.572 1.155-.748-.88-.403-1.32-1.001-1.32-1.793 0-.579.257-1.063.77-1.452.521-.389 1.14-.583 1.859-.583.719 0 1.335.194 1.848.583.521.389.781.88.781 1.474 0 .777-.44 1.368-1.32 1.771 1.056.396 1.584 1.03 1.584 1.903 0 .645-.275 1.173-.825 1.584zm-3.322-4.191c.337.264.755.396 1.254.396s.917-.132 1.254-.396c.337-.264.506-.609.506-1.034 0-.381-.169-.697-.506-.946-.337-.257-.755-.385-1.254-.385-.506 0-.928.128-1.265.385-.33.249-.495.572-.495.968 0 .411.169.748.506 1.012zm-.22 3.619c.367.279.858.418 1.474.418s1.104-.139 1.463-.418c.367-.279.55-.627.55-1.045 0-.425-.194-.774-.583-1.045-.389-.279-.865-.418-1.43-.418-.572 0-1.052.139-1.441.418-.381.279-.572.634-.572 1.067 0 .403.18.744.539 1.023zm13.768.572c-.55.403-1.239.605-2.068.605-.828 0-1.518-.205-2.068-.616-.55-.411-.825-.939-.825-1.584 0-.44.143-.821.429-1.144.286-.323.671-.572 1.155-.748-.88-.403-1.32-1.001-1.32-1.793 0-.579.257-1.063.77-1.452.521-.389 1.141-.583 1.859-.583.719 0 1.335.194 1.848.583.521.389.781.88.781 1.474 0 .777-.44 1.368-1.32 1.771 1.056.396 1.584 1.03 1.584 1.903 0 .645-.275 1.173-.825 1.584zm-3.322-4.191c.338.264.756.396 1.254.396.499 0 .917-.132 1.254-.396a1.25 1.25 0 00.506-1.034c0-.381-.168-.697-.506-.946-.337-.257-.755-.385-1.254-.385-.506 0-.927.128-1.265.385-.33.249-.495.572-.495.968 0 .411.169.748.506 1.012zm-.22 3.619c.367.279.858.418 1.474.418s1.104-.139 1.463-.418c.367-.279.55-.627.55-1.045 0-.425-.194-.774-.583-1.045-.388-.279-.865-.418-1.43-.418-.572 0-1.052.139-1.441.418-.381.279-.572.634-.572 1.067 0 .403.18.744.539 1.023zm11.219.044c-.601.77-1.386 1.155-2.354 1.155-.968 0-1.753-.381-2.354-1.144-.594-.77-.891-1.716-.891-2.838 0-1.107.301-2.046.902-2.816.609-.777 1.397-1.166 2.365-1.166.968 0 1.749.385 2.343 1.155.594.763.891 1.705.891 2.827 0 1.107-.301 2.05-.902 2.827zm-4.037-.572c.44.623 1.008.935 1.705.935.697 0 1.258-.308 1.683-.924.433-.623.649-1.379.649-2.266 0-.873-.22-1.621-.66-2.244-.433-.631-.997-.946-1.694-.946s-1.261.312-1.694.935c-.433.616-.649 1.368-.649 2.255 0 .873.22 1.624.66 2.255zm11.9.572c-.601.77-1.386 1.155-2.354 1.155-.968 0-1.752-.381-2.354-1.144-.594-.77-.891-1.716-.891-2.838 0-1.107.301-2.046.902-2.816.609-.777 1.397-1.166 2.365-1.166.968 0 1.749.385 2.343 1.155.594.763.891 1.705.891 2.827 0 1.107-.3 2.05-.902 2.827zm-4.037-.572c.44.623 1.009.935 1.705.935.697 0 1.258-.308 1.683-.924.433-.623.649-1.379.649-2.266 0-.873-.22-1.621-.66-2.244-.432-.631-.997-.946-1.694-.946-.696 0-1.261.312-1.694.935-.432.616-.649 1.368-.649 2.255 0 .873.22 1.624.66 2.255zm10.798-.99v.671h2.475v.484h-2.475V244h-.814v-1.43h-1.155v-.484h1.155V236.3h2.882c.99 0 1.76.224 2.31.671.557.44.836 1.067.836 1.881 0 .821-.279 1.456-.836 1.903-.55.44-1.32.66-2.31.66h-2.068zm0-4.411v3.718h2.079c.748 0 1.32-.161 1.716-.484.403-.323.605-.781.605-1.375s-.202-1.052-.605-1.375c-.396-.323-.968-.484-1.716-.484h-2.079zM44.969 244v-6.853l-1.452.451-.209-.704 1.881-.649h.638V244h-.858zm2.501 0v-.671l2.794-2.464c.602-.528 1.02-.968 1.254-1.32.235-.352.352-.719.352-1.1 0-.44-.15-.796-.451-1.067a1.583 1.583 0 00-1.1-.407 1.97 1.97 0 00-1.111.319c-.315.213-.634.546-.957 1.001l-.638-.462c.374-.557.77-.968 1.188-1.232.418-.271.946-.407 1.584-.407.69 0 1.258.209 1.705.627.455.411.682.935.682 1.573 0 .528-.143.997-.429 1.408-.286.411-.792.939-1.518 1.584l-2.057 1.826h4.081V244H47.47zm13.018.132c-.924 0-1.653-.304-2.189-.913-.535-.609-.803-1.566-.803-2.871 0-1.203.286-2.2.858-2.992.58-.792 1.361-1.188 2.343-1.188.8 0 1.559.293 2.277.88l-.506.671c-.601-.506-1.206-.759-1.815-.759-.682 0-1.228.312-1.639.935-.41.623-.616 1.434-.616 2.431v.033c.536-.785 1.265-1.177 2.189-1.177.741 0 1.368.22 1.881.66.521.44.781 1.016.781 1.727 0 .741-.264 1.353-.792 1.837s-1.184.726-1.969.726zm.011-.77c.558 0 1.005-.169 1.342-.506.345-.337.517-.763.517-1.276 0-.477-.176-.869-.528-1.177-.352-.315-.803-.473-1.353-.473-.557 0-1.019.172-1.386.517-.359.337-.539.733-.539 1.188 0 .491.184.902.55 1.232.367.33.833.495 1.397.495zm9.729-.385c-.601.77-1.386 1.155-2.354 1.155-.968 0-1.752-.381-2.354-1.144-.594-.77-.891-1.716-.891-2.838 0-1.107.301-2.046.902-2.816.609-.777 1.397-1.166 2.365-1.166.968 0 1.749.385 2.343 1.155.594.763.891 1.705.891 2.827 0 1.107-.3 2.05-.902 2.827zm-4.037-.572c.44.623 1.009.935 1.705.935.697 0 1.258-.308 1.683-.924.433-.623.649-1.379.649-2.266 0-.873-.22-1.621-.66-2.244-.432-.631-.997-.946-1.694-.946-.696 0-1.261.312-1.694.935-.432.616-.649 1.368-.649 2.255 0 .873.22 1.624.66 2.255zm11.901.572c-.602.77-1.386 1.155-2.354 1.155-.968 0-1.753-.381-2.354-1.144-.594-.77-.891-1.716-.891-2.838 0-1.107.3-2.046.902-2.816.608-.777 1.397-1.166 2.365-1.166.968 0 1.749.385 2.343 1.155.594.763.891 1.705.891 2.827 0 1.107-.301 2.05-.902 2.827zm-4.037-.572c.44.623 1.008.935 1.705.935.696 0 1.257-.308 1.683-.924.432-.623.649-1.379.649-2.266 0-.873-.22-1.621-.66-2.244-.433-.631-.998-.946-1.694-.946-.697 0-1.262.312-1.694.935-.433.616-.649 1.368-.649 2.255 0 .873.22 1.624.66 2.255zm10.797-.99v.671h2.475v.484h-2.475V244h-.814v-1.43h-1.155v-.484h1.155V236.3h2.882c.99 0 1.76.224 2.31.671.557.44.836 1.067.836 1.881 0 .821-.279 1.456-.836 1.903-.55.44-1.32.66-2.31.66h-2.068zm0-4.411v3.718h2.079c.748 0 1.32-.161 1.716-.484.403-.323.605-.781.605-1.375s-.202-1.052-.605-1.375c-.396-.323-.968-.484-1.716-.484h-2.079zm50.811 7.128c-.924 0-1.654-.304-2.189-.913-.535-.609-.803-1.566-.803-2.871 0-1.203.286-2.2.858-2.992.579-.792 1.36-1.188 2.343-1.188.799 0 1.558.293 2.277.88l-.506.671c-.601-.506-1.206-.759-1.815-.759-.682 0-1.228.312-1.639.935-.411.623-.616 1.434-.616 2.431v.033c.535-.785 1.265-1.177 2.189-1.177.741 0 1.368.22 1.881.66.521.44.781 1.016.781 1.727 0 .741-.264 1.353-.792 1.837s-1.184.726-1.969.726zm.011-.77c.557 0 1.005-.169 1.342-.506.345-.337.517-.763.517-1.276 0-.477-.176-.869-.528-1.177-.352-.315-.803-.473-1.353-.473-.557 0-1.019.172-1.386.517-.359.337-.539.733-.539 1.188 0 .491.183.902.55 1.232.367.33.832.495 1.397.495zm13.027-.385c-.601.77-1.386 1.155-2.354 1.155-.968 0-1.753-.381-2.354-1.144-.594-.77-.891-1.716-.891-2.838 0-1.107.301-2.046.902-2.816.609-.777 1.397-1.166 2.365-1.166.968 0 1.749.385 2.343 1.155.594.763.891 1.705.891 2.827 0 1.107-.301 2.05-.902 2.827zm-4.037-.572c.44.623 1.008.935 1.705.935.697 0 1.258-.308 1.683-.924.433-.623.649-1.379.649-2.266 0-.873-.22-1.621-.66-2.244-.433-.631-.997-.946-1.694-.946s-1.261.312-1.694.935c-.433.616-.649 1.368-.649 2.255 0 .873.22 1.624.66 2.255zm11.9.572c-.601.77-1.386 1.155-2.354 1.155-.968 0-1.752-.381-2.354-1.144-.594-.77-.891-1.716-.891-2.838 0-1.107.301-2.046.902-2.816.609-.777 1.397-1.166 2.365-1.166.968 0 1.749.385 2.343 1.155.594.763.891 1.705.891 2.827 0 1.107-.3 2.05-.902 2.827zm-4.037-.572c.44.623 1.009.935 1.705.935.697 0 1.258-.308 1.683-.924.433-.623.649-1.379.649-2.266 0-.873-.22-1.621-.66-2.244-.432-.631-.997-.946-1.694-.946-.696 0-1.261.312-1.694.935-.432.616-.649 1.368-.649 2.255 0 .873.22 1.624.66 2.255zm11.9.572c-.601.77-1.386 1.155-2.354 1.155-.968 0-1.752-.381-2.354-1.144-.594-.77-.891-1.716-.891-2.838 0-1.107.301-2.046.902-2.816.609-.777 1.397-1.166 2.365-1.166.968 0 1.749.385 2.343 1.155.594.763.891 1.705.891 2.827 0 1.107-.3 2.05-.902 2.827zm-4.037-.572c.44.623 1.009.935 1.705.935.697 0 1.258-.308 1.683-.924.433-.623.649-1.379.649-2.266 0-.873-.22-1.621-.66-2.244-.432-.631-.997-.946-1.694-.946-.696 0-1.261.312-1.694.935-.432.616-.649 1.368-.649 2.255 0 .873.22 1.624.66 2.255zm10.798-.99v.671h2.475v.484h-2.475V244h-.814v-1.43h-1.155v-.484h1.155V236.3h2.882c.99 0 1.76.224 2.31.671.557.44.836 1.067.836 1.881 0 .821-.279 1.456-.836 1.903-.55.44-1.32.66-2.31.66h-2.068zm0-4.411v3.718h2.079c.748 0 1.32-.161 1.716-.484.403-.323.605-.781.605-1.375s-.202-1.052-.605-1.375c-.396-.323-.968-.484-1.716-.484h-2.079zm124.632 7.128c-.924 0-1.653-.304-2.189-.913-.535-.609-.803-1.566-.803-2.871 0-1.203.286-2.2.858-2.992.58-.792 1.361-1.188 2.343-1.188.8 0 1.559.293 2.277.88l-.506.671c-.601-.506-1.206-.759-1.815-.759-.682 0-1.228.312-1.639.935-.41.623-.616 1.434-.616 2.431v.033c.536-.785 1.265-1.177 2.189-1.177.741 0 1.368.22 1.881.66.521.44.781 1.016.781 1.727 0 .741-.264 1.353-.792 1.837s-1.184.726-1.969.726zm.011-.77c.558 0 1.005-.169 1.342-.506.345-.337.517-.763.517-1.276 0-.477-.176-.869-.528-1.177-.352-.315-.803-.473-1.353-.473-.557 0-1.019.172-1.386.517-.359.337-.539.733-.539 1.188 0 .491.184.902.55 1.232.367.33.833.495 1.397.495zm4.708.638l3.476-6.908h-4.235v-.792h5.225v.649L301.507 244h-.968zm13.096 0v-1.826h-4.059l-.22-.627 4.356-5.302h.759v5.203h1.199v.726h-1.199V244h-.836zm-3.234-2.552h3.234v-3.971l-3.234 3.971zm12.143 1.529c-.602.77-1.386 1.155-2.354 1.155-.968 0-1.753-.381-2.354-1.144-.594-.77-.891-1.716-.891-2.838 0-1.107.3-2.046.902-2.816.608-.777 1.397-1.166 2.365-1.166.968 0 1.749.385 2.343 1.155.594.763.891 1.705.891 2.827 0 1.107-.301 2.05-.902 2.827zm-4.037-.572c.44.623 1.008.935 1.705.935.696 0 1.257-.308 1.683-.924.432-.623.649-1.379.649-2.266 0-.873-.22-1.621-.66-2.244-.433-.631-.998-.946-1.694-.946-.697 0-1.262.312-1.694.935-.433.616-.649 1.368-.649 2.255 0 .873.22 1.624.66 2.255zm11.9.572c-.601.77-1.386 1.155-2.354 1.155-.968 0-1.753-.381-2.354-1.144-.594-.77-.891-1.716-.891-2.838 0-1.107.301-2.046.902-2.816.609-.777 1.397-1.166 2.365-1.166.968 0 1.749.385 2.343 1.155.594.763.891 1.705.891 2.827 0 1.107-.301 2.05-.902 2.827zm-4.037-.572c.44.623 1.008.935 1.705.935.697 0 1.258-.308 1.683-.924.433-.623.649-1.379.649-2.266 0-.873-.22-1.621-.66-2.244-.433-.631-.997-.946-1.694-.946s-1.261.312-1.694.935c-.433.616-.649 1.368-.649 2.255 0 .873.22 1.624.66 2.255zm10.797-.99v.671h2.475v.484h-2.475V244h-.814v-1.43h-1.155v-.484h1.155V236.3h2.882c.99 0 1.76.224 2.31.671.557.44.836 1.067.836 1.881 0 .821-.279 1.456-.836 1.903-.55.44-1.32.66-2.31.66h-2.068zm0-4.411v3.718h2.079c.748 0 1.32-.161 1.716-.484.403-.323.605-.781.605-1.375s-.202-1.052-.605-1.375c-.396-.323-.968-.484-1.716-.484h-2.079zm-119.834 29.128c-1.019 0-1.936-.407-2.75-1.221l.572-.627c.726.704 1.456 1.056 2.189 1.056.55 0 .997-.161 1.342-.484.345-.323.517-.737.517-1.243 0-.477-.18-.865-.539-1.166-.352-.301-.81-.451-1.375-.451-.528 0-1.067.147-1.617.44l-.583-.385.22-3.751h4.433v.803h-3.674l-.165 2.464c.521-.227 1.027-.341 1.518-.341.77 0 1.404.216 1.903.649.506.425.759 1.001.759 1.727 0 .748-.257 1.357-.77 1.826-.513.469-1.173.704-1.98.704zm7.065 0c-.924 0-1.653-.304-2.189-.913-.535-.609-.803-1.566-.803-2.871 0-1.203.286-2.2.858-2.992.58-.792 1.361-1.188 2.343-1.188.8 0 1.559.293 2.277.88l-.506.671c-.601-.506-1.206-.759-1.815-.759-.682 0-1.228.312-1.639.935-.41.623-.616 1.434-.616 2.431v.033c.536-.785 1.265-1.177 2.189-1.177.741 0 1.368.22 1.881.66.521.44.781 1.016.781 1.727 0 .741-.264 1.353-.792 1.837s-1.184.726-1.969.726zm.011-.77c.558 0 1.005-.169 1.342-.506.345-.337.517-.763.517-1.276 0-.477-.176-.869-.528-1.177-.352-.315-.803-.473-1.353-.473-.557 0-1.019.172-1.386.517-.359.337-.539.733-.539 1.188 0 .491.184.902.55 1.232.367.33.833.495 1.397.495zm10.409.77c-.924 0-1.653-.304-2.189-.913-.535-.609-.803-1.566-.803-2.871 0-1.203.286-2.2.858-2.992.58-.792 1.361-1.188 2.343-1.188.8 0 1.559.293 2.277.88l-.506.671c-.601-.506-1.206-.759-1.815-.759-.682 0-1.228.312-1.639.935-.41.623-.616 1.434-.616 2.431v.033c.536-.785 1.265-1.177 2.189-1.177.741 0 1.368.22 1.881.66.521.44.781 1.016.781 1.727 0 .741-.264 1.353-.792 1.837s-1.184.726-1.969.726zm.011-.77c.558 0 1.005-.169 1.342-.506.345-.337.517-.763.517-1.276 0-.477-.176-.869-.528-1.177-.352-.315-.803-.473-1.353-.473-.557 0-1.019.172-1.386.517-.359.337-.539.733-.539 1.188 0 .491.184.902.55 1.232.367.33.833.495 1.397.495zm8.2.638v-1.826h-4.059l-.22-.627 4.356-5.302h.759v5.203h1.199v.726h-1.199V266h-.836zm-3.234-2.552h3.234v-3.971l-3.234 3.971zm12.143 1.529c-.601.77-1.386 1.155-2.354 1.155-.968 0-1.752-.381-2.354-1.144-.594-.77-.891-1.716-.891-2.838 0-1.107.301-2.046.902-2.816.609-.777 1.397-1.166 2.365-1.166.968 0 1.749.385 2.343 1.155.594.763.891 1.705.891 2.827 0 1.107-.3 2.05-.902 2.827zm-4.037-.572c.44.623 1.009.935 1.705.935.697 0 1.258-.308 1.683-.924.433-.623.649-1.379.649-2.266 0-.873-.22-1.621-.66-2.244-.432-.631-.997-.946-1.694-.946-.696 0-1.261.312-1.694.935-.432.616-.649 1.368-.649 2.255 0 .873.22 1.624.66 2.255zm10.797-.99v.671h2.475v.484h-2.475V266h-.814v-1.43h-1.155v-.484h1.155V258.3h2.882c.99 0 1.76.224 2.31.671.558.44.836 1.067.836 1.881 0 .821-.278 1.456-.836 1.903-.55.44-1.32.66-2.31.66h-2.068zm0-4.411v3.718h2.079c.748 0 1.32-.161 1.716-.484.404-.323.605-.781.605-1.375s-.201-1.052-.605-1.375c-.396-.323-.968-.484-1.716-.484h-2.079zM43.969 266v-6.853l-1.452.451-.209-.704 1.881-.649h.638V266h-.858zm6.725 0v-1.826h-4.059l-.22-.627 4.356-5.302h.759v5.203h1.199v.726H51.53V266h-.836zm-3.234-2.552h3.234v-3.971l-3.234 3.971zm12.823 2.684c-.924 0-1.654-.304-2.189-.913-.535-.608-.803-1.565-.803-2.871 0-1.202.286-2.2.858-2.992.579-.792 1.36-1.188 2.343-1.188.799 0 1.558.294 2.277.88l-.506.671c-.601-.506-1.206-.759-1.815-.759-.682 0-1.228.312-1.639.935-.411.624-.616 1.434-.616 2.431v.033c.535-.784 1.265-1.177 2.189-1.177.741 0 1.368.22 1.881.66.521.44.781 1.016.781 1.727 0 .741-.264 1.353-.792 1.837s-1.184.726-1.969.726zm.011-.77c.557 0 1.005-.168 1.342-.506.345-.337.517-.762.517-1.276 0-.476-.176-.869-.528-1.177-.352-.315-.803-.473-1.353-.473-.557 0-1.019.173-1.386.517-.359.338-.539.734-.539 1.188 0 .492.183.902.55 1.232.367.33.832.495 1.397.495zm8.981.143c-.55.404-1.239.605-2.068.605-.828 0-1.518-.205-2.068-.616-.55-.41-.825-.938-.825-1.584 0-.44.143-.821.429-1.144.286-.322.671-.572 1.155-.748-.88-.403-1.32-1.001-1.32-1.793 0-.579.257-1.063.77-1.452.521-.388 1.141-.583 1.859-.583.719 0 1.335.195 1.848.583.521.389.781.88.781 1.474 0 .778-.44 1.368-1.32 1.771 1.056.396 1.584 1.031 1.584 1.903 0 .646-.275 1.174-.825 1.584zm-3.322-4.191c.338.264.756.396 1.254.396.499 0 .917-.132 1.254-.396.338-.264.506-.608.506-1.034 0-.381-.168-.696-.506-.946-.337-.256-.755-.385-1.254-.385-.506 0-.927.129-1.265.385-.33.25-.495.572-.495.968 0 .411.169.748.506 1.012zm-.22 3.619c.367.279.858.418 1.474.418s1.104-.139 1.463-.418c.367-.278.55-.627.55-1.045 0-.425-.194-.773-.583-1.045-.388-.278-.865-.418-1.43-.418-.572 0-1.052.14-1.441.418-.381.279-.572.635-.572 1.067 0 .404.18.745.539 1.023zm11.219.044c-.601.77-1.386 1.155-2.354 1.155-.968 0-1.753-.381-2.354-1.144-.594-.77-.891-1.716-.891-2.838 0-1.107.301-2.046.902-2.816.609-.777 1.397-1.166 2.365-1.166.968 0 1.749.385 2.343 1.155.594.763.891 1.705.891 2.827 0 1.108-.301 2.05-.902 2.827zm-4.037-.572c.44.624 1.008.935 1.705.935.697 0 1.258-.308 1.683-.924.433-.623.649-1.378.649-2.266 0-.872-.22-1.62-.66-2.244-.433-.63-.997-.946-1.694-.946s-1.261.312-1.694.935c-.433.616-.649 1.368-.649 2.255 0 .873.22 1.625.66 2.255zm11.216-.99v.671h2.475v.484h-2.475V266h-.814v-1.43h-1.155v-.484h1.155V258.3h2.882c.99 0 1.76.224 2.31.671.557.44.836 1.067.836 1.881 0 .822-.279 1.456-.836 1.903-.55.44-1.32.66-2.31.66h-2.068zm0-4.411v3.718h2.079c.748 0 1.32-.161 1.716-.484.403-.322.605-.781.605-1.375s-.202-1.052-.605-1.375c-.396-.322-.968-.484-1.716-.484h-2.079zM131.528 266v-.671l2.794-2.464c.601-.528 1.019-.968 1.254-1.32.235-.352.352-.719.352-1.1 0-.44-.15-.796-.451-1.067a1.584 1.584 0 00-1.1-.407 1.97 1.97 0 00-1.111.319c-.315.213-.634.546-.957 1.001l-.638-.462c.374-.557.77-.968 1.188-1.232.418-.271.946-.407 1.584-.407.689 0 1.258.209 1.705.627.455.411.682.935.682 1.573 0 .528-.143.997-.429 1.408-.286.411-.792.939-1.518 1.584l-2.057 1.826h4.081V266h-5.379zm12.688.132c-1.02 0-1.936-.407-2.75-1.221l.572-.627c.726.704 1.455 1.056 2.189 1.056.55 0 .997-.161 1.342-.484.344-.323.517-.737.517-1.243 0-.477-.18-.865-.539-1.166-.352-.301-.811-.451-1.375-.451-.528 0-1.067.147-1.617.44l-.583-.385.22-3.751h4.433v.803h-3.674l-.165 2.464a3.782 3.782 0 011.518-.341c.77 0 1.404.216 1.903.649.506.425.759 1.001.759 1.727 0 .748-.257 1.357-.77 1.826-.514.469-1.174.704-1.98.704zm7.065 0c-.924 0-1.654-.304-2.189-.913-.535-.609-.803-1.566-.803-2.871 0-1.203.286-2.2.858-2.992.579-.792 1.36-1.188 2.343-1.188.799 0 1.558.293 2.277.88l-.506.671c-.601-.506-1.206-.759-1.815-.759-.682 0-1.228.312-1.639.935-.411.623-.616 1.434-.616 2.431v.033c.535-.785 1.265-1.177 2.189-1.177.741 0 1.368.22 1.881.66.521.44.781 1.016.781 1.727 0 .741-.264 1.353-.792 1.837s-1.184.726-1.969.726zm.011-.77c.557 0 1.005-.169 1.342-.506.345-.337.517-.763.517-1.276 0-.477-.176-.869-.528-1.177-.352-.315-.803-.473-1.353-.473-.557 0-1.019.172-1.386.517-.359.337-.539.733-.539 1.188 0 .491.183.902.55 1.232.367.33.832.495 1.397.495zm9.729-.385c-.601.77-1.386 1.155-2.354 1.155-.968 0-1.752-.381-2.354-1.144-.594-.77-.891-1.716-.891-2.838 0-1.107.301-2.046.902-2.816.609-.777 1.397-1.166 2.365-1.166.968 0 1.749.385 2.343 1.155.594.763.891 1.705.891 2.827 0 1.107-.3 2.05-.902 2.827zm-4.037-.572c.44.623 1.009.935 1.705.935.697 0 1.258-.308 1.683-.924.433-.623.649-1.379.649-2.266 0-.873-.22-1.621-.66-2.244-.432-.631-.997-.946-1.694-.946-.696 0-1.261.312-1.694.935-.432.616-.649 1.368-.649 2.255 0 .873.22 1.624.66 2.255zm10.797-.99v.671h2.475v.484h-2.475V266h-.814v-1.43h-1.155v-.484h1.155V258.3h2.882c.99 0 1.76.224 2.31.671.558.44.836 1.067.836 1.881 0 .821-.278 1.456-.836 1.903-.55.44-1.32.66-2.31.66h-2.068zm0-4.411v3.718h2.079c.748 0 1.32-.161 1.716-.484.404-.323.605-.781.605-1.375s-.201-1.052-.605-1.375c-.396-.323-.968-.484-1.716-.484h-2.079zM294.394 266l3.476-6.908h-4.235v-.792h5.225v.649L295.362 266h-.968zm8.252.132c-1.21 0-2.167-.458-2.871-1.375l.627-.561c.623.763 1.375 1.144 2.255 1.144.476 0 .876-.139 1.199-.418.322-.279.484-.645.484-1.1 0-.469-.198-.832-.594-1.089-.396-.264-.917-.396-1.562-.396h-.495l-.176-.517 2.431-2.739h-3.762v-.781h4.917v.638l-2.42 2.684c.733.059 1.338.271 1.815.638.484.359.726.876.726 1.551 0 .675-.25 1.232-.748 1.672-.492.433-1.1.649-1.826.649zm12.156-.627c-.55.403-1.24.605-2.068.605-.829 0-1.518-.205-2.068-.616-.55-.411-.825-.939-.825-1.584 0-.44.143-.821.429-1.144.286-.323.671-.572 1.155-.748-.88-.403-1.32-1.001-1.32-1.793 0-.579.256-1.063.77-1.452.52-.389 1.14-.583 1.859-.583.718 0 1.334.194 1.848.583.52.389.781.88.781 1.474 0 .777-.44 1.368-1.32 1.771 1.056.396 1.584 1.03 1.584 1.903 0 .645-.275 1.173-.825 1.584zm-3.322-4.191c.337.264.755.396 1.254.396.498 0 .916-.132 1.254-.396.337-.264.506-.609.506-1.034 0-.381-.169-.697-.506-.946-.338-.257-.756-.385-1.254-.385-.506 0-.928.128-1.265.385-.33.249-.495.572-.495.968 0 .411.168.748.506 1.012zm-.22 3.619c.366.279.858.418 1.474.418s1.103-.139 1.463-.418c.366-.279.55-.627.55-1.045 0-.425-.195-.774-.583-1.045-.389-.279-.866-.418-1.43-.418-.572 0-1.053.139-1.441.418-.382.279-.572.634-.572 1.067 0 .403.179.744.539 1.023zm10.47.572c-.55.403-1.239.605-2.068.605-.828 0-1.518-.205-2.068-.616-.55-.411-.825-.939-.825-1.584 0-.44.143-.821.429-1.144.286-.323.671-.572 1.155-.748-.88-.403-1.32-1.001-1.32-1.793 0-.579.257-1.063.77-1.452.521-.389 1.141-.583 1.859-.583.719 0 1.335.194 1.848.583.521.389.781.88.781 1.474 0 .777-.44 1.368-1.32 1.771 1.056.396 1.584 1.03 1.584 1.903 0 .645-.275 1.173-.825 1.584zm-3.322-4.191c.338.264.756.396 1.254.396.499 0 .917-.132 1.254-.396a1.25 1.25 0 00.506-1.034c0-.381-.168-.697-.506-.946-.337-.257-.755-.385-1.254-.385-.506 0-.927.128-1.265.385-.33.249-.495.572-.495.968 0 .411.169.748.506 1.012zm-.22 3.619c.367.279.858.418 1.474.418s1.104-.139 1.463-.418c.367-.279.55-.627.55-1.045 0-.425-.194-.774-.583-1.045-.388-.279-.865-.418-1.43-.418-.572 0-1.052.139-1.441.418-.381.279-.572.634-.572 1.067 0 .403.18.744.539 1.023zm11.219.044c-.601.77-1.386 1.155-2.354 1.155-.968 0-1.753-.381-2.354-1.144-.594-.77-.891-1.716-.891-2.838 0-1.107.301-2.046.902-2.816.609-.777 1.397-1.166 2.365-1.166.968 0 1.749.385 2.343 1.155.594.763.891 1.705.891 2.827 0 1.107-.301 2.05-.902 2.827zm-4.037-.572c.44.623 1.008.935 1.705.935.697 0 1.258-.308 1.683-.924.433-.623.649-1.379.649-2.266 0-.873-.22-1.621-.66-2.244-.433-.631-.997-.946-1.694-.946s-1.261.312-1.694.935c-.433.616-.649 1.368-.649 2.255 0 .873.22 1.624.66 2.255zm10.797-.99v.671h2.475v.484h-2.475V266h-.814v-1.43h-1.155v-.484h1.155V258.3h2.882c.99 0 1.76.224 2.31.671.557.44.836 1.067.836 1.881 0 .821-.279 1.456-.836 1.903-.55.44-1.32.66-2.31.66h-2.068zm0-4.411v3.718h2.079c.748 0 1.32-.161 1.716-.484.403-.323.605-.781.605-1.375s-.202-1.052-.605-1.375c-.396-.323-.968-.484-1.716-.484h-2.079z" fill="#393939"/><g filter="url(#filter0_dddd_5_153)"><path d="M307 0H80a8 8 0 00-8 8v40a8 8 0 008 8h227a8 8 0 008-8V8a8 8 0 00-8-8z" fill="#fff"/><path d="M115.5 8h-25a2.5 2.5 0 00-2.5 2.5v35a2.5 2.5 0 002.5 2.5h25a2.5 2.5 0 002.5-2.5v-35a2.5 2.5 0 00-2.5-2.5z" fill="#83C150"/><path d="M97.65 17.306l.983 1.808 1.011-1.808h1.686l-1.681 2.906 1.758 3.038h-1.692l-1.071-1.912-1.071 1.912h-1.692l1.758-3.038-1.681-2.906h1.692zm6.119-2.494v8.438h-1.587v-8.438h1.587zm4.521 6.796a.512.512 0 00-.099-.308c-.066-.092-.189-.176-.368-.253a3.574 3.574 0 00-.764-.219c-.3-.066-.58-.149-.84-.248a2.885 2.885 0 01-.67-.368 1.611 1.611 0 01-.44-.505 1.409 1.409 0 01-.159-.676c0-.249.053-.483.159-.703.11-.22.266-.414.467-.582.205-.172.454-.306.747-.401a3.15 3.15 0 011-.148c.516 0 .96.082 1.329.247.374.165.66.392.857.681.202.286.303.611.303.978h-1.583a.845.845 0 00-.098-.412.654.654 0 00-.297-.291 1.05 1.05 0 00-.516-.11c-.176 0-.328.031-.456.093a.704.704 0 00-.297.242.579.579 0 00-.099.329c0 .092.018.174.055.248.04.069.104.133.192.192.088.058.202.113.341.165.143.047.319.091.527.131.429.088.811.204 1.148.346.337.14.605.33.802.572.198.238.297.551.297.939 0 .264-.059.505-.176.725-.117.22-.285.412-.505.577-.22.161-.484.287-.791.379a3.696 3.696 0 01-1.027.132c-.553 0-1.022-.099-1.407-.297-.38-.198-.67-.448-.868-.752a1.753 1.753 0 01-.291-.945h1.5c.007.216.062.39.165.522.106.132.24.227.401.285.165.059.342.088.533.088.205 0 .375-.027.51-.082a.733.733 0 00.308-.231.558.558 0 00.11-.34z" fill="#fff"/><path d="M114.25 26.75h-22.5V28h22.5v-1.25zm0 3.75h-22.5v1.25h22.5V30.5zm0 3.75h-22.5v1.25h22.5v-1.25zM105.5 38H91.75v1.25h13.75V38z" fill="#fff" fill-opacity=".5"/><path d="M131.664 19.132c2.365 0 4.037-1.815 4.037-3.982 0-2.189-1.65-3.982-4.015-3.982-2.365 0-4.037 1.815-4.037 3.982 0 2.189 1.65 3.982 4.015 3.982zm.022-1.243c-1.529 0-2.618-1.243-2.618-2.739 0-1.518 1.067-2.739 2.596-2.739 1.529 0 2.618 1.243 2.618 2.739 0 1.518-1.067 2.739-2.596 2.739zM138.425 19h1.342v-4.664h1.87v-1.144h-5.082v1.144h1.87V19zm7.798 0h1.331v-5.808h-1.331v2.563c-.385.22-.902.385-1.419.385-.594 0-.957-.484-.957-1.012v-1.936h-1.331v2.255c0 1.188.825 1.826 1.98 1.826.627 0 1.32-.231 1.727-.44V19zm5.663.132c1.067 0 1.826-.429 2.376-1.089l-.781-.693c-.462.451-.924.693-1.573.693-.858 0-1.529-.528-1.672-1.474h4.268c.011-.066.022-.286.022-.374 0-1.672-.935-3.124-2.783-3.124-1.661 0-2.838 1.364-2.838 3.025 0 1.815 1.298 3.036 2.981 3.036zm-1.661-3.443c.121-.902.693-1.529 1.507-1.529.88 0 1.386.671 1.474 1.529h-2.981zm6.88 3.311h1.342v-4.664h1.87v-1.144h-5.082v1.144h1.87V19zm7.566 0h1.331v-4.664h2.519V19h1.331v-5.808h-5.181V19zm9.614.132c1.793 0 3.113-1.375 3.113-3.025 0-1.683-1.309-3.036-3.091-3.036-1.782 0-3.102 1.375-3.102 3.036 0 1.672 1.309 3.025 3.08 3.025zm.022-1.155c-1.034 0-1.771-.858-1.771-1.87 0-1.034.682-1.87 1.749-1.87 1.045 0 1.782.847 1.782 1.87 0 1.023-.682 1.87-1.76 1.87zM182.052 19h1.254l2.761-3.872V19h1.287v-5.808H186.1c-.924 1.298-1.837 2.596-2.75 3.894v-3.894h-1.298V19zm8.215 0h1.342v-4.664h1.87v-1.144h-5.082v1.144h1.87V19zm7.028.132c1.793 0 3.113-1.375 3.113-3.025 0-1.683-1.309-3.036-3.091-3.036-1.782 0-3.102 1.375-3.102 3.036 0 1.672 1.309 3.025 3.08 3.025zm.022-1.155c-1.034 0-1.771-.858-1.771-1.87 0-1.034.682-1.87 1.749-1.87 1.045 0 1.782.847 1.782 1.87 0 1.023-.682 1.87-1.76 1.87zM201.764 19h1.331v-4.664h2.783v-1.144h-4.114V19zm10.04 0v-3.443c0-1.551-.836-2.453-2.552-2.453-.946 0-1.573.198-2.211.484l.363 1.067c.528-.22 1.012-.363 1.661-.363.924 0 1.43.44 1.43 1.243v.11a4.889 4.889 0 00-1.606-.242c-1.353 0-2.354.616-2.354 1.903 0 1.188.968 1.815 2.068 1.815.88 0 1.485-.363 1.881-.836V19h1.32zm-1.287-2.101c0 .726-.66 1.221-1.54 1.221-.627 0-1.122-.308-1.122-.858 0-.583.495-.924 1.331-.924.517 0 .99.099 1.331.231v.33zm2.87 2.101h1.298v-3.85l1.815 2.585 1.826-2.607V19h1.342v-5.808h-1.32l-1.826 2.695-1.815-2.695h-1.32V19zm11.478 0h1.353v-7.7h-1.353V19zm5.955.055h1.188l3.201-7.755h-1.463l-2.31 5.918-2.321-5.918h-1.496l3.201 7.755zm8.853-.055h1.32v-1.397l.946-1.001 1.76 2.398h1.573l-2.442-3.366 2.255-2.442h-1.562l-2.53 2.783v-2.783h-1.32V19zm6.52 0h3.014c1.32 0 2.145-.594 2.145-1.573 0-.825-.495-1.254-1.199-1.452.495-.22.935-.594.935-1.331 0-.891-.759-1.452-1.914-1.452h-2.981V19zm1.309-1.056v-1.452h1.441c.715 0 1.056.286 1.056.704 0 .451-.341.748-.99.748h-1.507zm0-2.354v-1.375h1.386c.594 0 .847.286.847.66 0 .418-.308.715-.869.715h-1.364zM257.555 19v-3.443c0-1.551-.836-2.453-2.552-2.453-.946 0-1.573.198-2.211.484l.363 1.067c.528-.22 1.012-.363 1.661-.363.924 0 1.43.44 1.43 1.243v.11a4.889 4.889 0 00-1.606-.242c-1.353 0-2.354.616-2.354 1.903 0 1.188.968 1.815 2.068 1.815.88 0 1.485-.363 1.881-.836V19h1.32zm-1.287-2.101c0 .726-.66 1.221-1.54 1.221-.627 0-1.122-.308-1.122-.858 0-.583.495-.924 1.331-.924.517 0 .99.099 1.331.231v.33zm2.87 3.861h1.331v-2.662c.407.539 1.012 1.023 1.969 1.023 1.386 0 2.706-1.089 2.706-3.014 0-1.947-1.331-3.036-2.706-3.036-.935 0-1.54.484-1.969 1.089v-.968h-1.331v7.568zm2.992-2.794c-.902 0-1.694-.737-1.694-1.859 0-1.133.792-1.881 1.694-1.881.902 0 1.661.737 1.661 1.859 0 1.166-.748 1.881-1.661 1.881zM267.75 19h1.342v-4.664h1.87v-1.144h-5.082v1.144h1.87V19zm9.141 0v-3.443c0-1.551-.836-2.453-2.552-2.453-.946 0-1.573.198-2.211.484l.363 1.067c.528-.22 1.012-.363 1.661-.363.924 0 1.43.44 1.43 1.243v.11a4.889 4.889 0 00-1.606-.242c-1.353 0-2.354.616-2.354 1.903 0 1.188.968 1.815 2.068 1.815.88 0 1.485-.363 1.881-.836V19h1.32zm-1.287-2.101c0 .726-.66 1.221-1.54 1.221-.627 0-1.122-.308-1.122-.858 0-.583.495-.924 1.331-.924.517 0 .99.099 1.331.231v.33zm2.826 2.167c1.287 0 2.079-.517 2.079-4.73h1.815V19h1.331v-5.808h-4.389c0 4.422-.462 4.752-1.133 4.752-.088 0-.297-.022-.385-.044l-.099 1.089c.198.033.572.077.781.077zM290.2 19v-3.443c0-1.551-.836-2.453-2.552-2.453-.946 0-1.573.198-2.211.484l.363 1.067c.528-.22 1.012-.363 1.661-.363.924 0 1.43.44 1.43 1.243v.11a4.889 4.889 0 00-1.606-.242c-1.353 0-2.354.616-2.354 1.903 0 1.188.968 1.815 2.068 1.815.88 0 1.485-.363 1.881-.836V19h1.32zm-1.287-2.101c0 .726-.66 1.221-1.54 1.221-.627 0-1.122-.308-1.122-.858 0-.583.495-.924 1.331-.924.517 0 .99.099 1.331.231v.33z" fill="#393939"/><path d="M132.665 38.263c-.572.579-1.28.869-2.123.869-.843 0-1.547-.29-2.112-.869-.557-.579-.836-1.28-.836-2.101 0-.814.282-1.511.847-2.09.572-.587 1.28-.88 2.123-.88.843 0 1.547.29 2.112.869.565.579.847 1.28.847 2.101 0 .814-.286 1.514-.858 2.101zm-2.101.11c.609 0 1.107-.213 1.496-.638.396-.425.594-.95.594-1.573a2.2 2.2 0 00-.616-1.573 1.962 1.962 0 00-1.496-.649c-.609 0-1.107.216-1.496.649-.389.425-.583.95-.583 1.573 0 .616.202 1.14.605 1.573a1.98 1.98 0 001.496.638zm5.868.627v-4.939h-2.035v-.748h4.928v.748h-2.035V39h-.858zm4.125 0v-5.687h3.861v.748h-3.014V39h-.847zm5.092 1.76v-7.447h.847v1.144c.572-.843 1.298-1.265 2.178-1.265.726 0 1.36.271 1.903.814.543.535.814 1.254.814 2.156 0 .887-.271 1.602-.814 2.145-.543.543-1.177.814-1.903.814-.895 0-1.621-.403-2.178-1.21v2.849h-.847zm2.871-2.398c.572 0 1.049-.198 1.43-.594.381-.403.572-.942.572-1.617 0-.653-.194-1.181-.583-1.584a1.88 1.88 0 00-1.419-.616c-.55 0-1.03.209-1.441.627-.411.418-.616.946-.616 1.584 0 .638.205 1.166.616 1.584.411.411.891.616 1.441.616zm5.314 2.431c-.411 0-.814-.095-1.21-.286l.286-.671c.271.139.568.209.891.209a.928.928 0 00.649-.242c.176-.154.348-.429.517-.825l-2.585-5.665h.935l2.068 4.741 1.826-4.741h.902l-2.387 5.874c-.242.579-.51.99-.803 1.232-.294.249-.657.374-1.089.374zm7.423-1.661c-.873 0-1.657-.282-2.354-.847l.429-.627c.579.491 1.214.737 1.903.737.389 0 .719-.088.99-.264.279-.183.418-.433.418-.748a.768.768 0 00-.374-.682c-.249-.169-.601-.253-1.056-.253h-.759v-.693h.77c.374 0 .678-.088.913-.264a.865.865 0 00.352-.715c0-.257-.117-.462-.352-.616-.227-.154-.521-.231-.88-.231-.675 0-1.25.191-1.727.572l-.418-.594c.616-.477 1.349-.715 2.2-.715.631 0 1.129.143 1.496.429.374.279.561.642.561 1.089 0 .623-.304 1.06-.913 1.309.704.249 1.056.715 1.056 1.397 0 .477-.205.884-.616 1.221-.411.33-.957.495-1.639.495zm3.825-.132v-5.687h.847v3.278l3.113-3.278h1.045l-2.376 2.464L170.153 39h-1.001l-2.024-2.607-1.199 1.232V39h-.847zm7.935.121c-.579 0-1.078-.158-1.496-.473-.418-.315-.627-.755-.627-1.32 0-.594.22-1.052.66-1.375.44-.323 1.03-.484 1.771-.484.587 0 1.166.081 1.738.242v-.176c0-.499-.147-.88-.44-1.144-.293-.264-.708-.396-1.243-.396-.557 0-1.133.136-1.727.407l-.253-.693c.704-.323 1.393-.484 2.068-.484.807 0 1.419.209 1.837.627.396.396.594.953.594 1.672V39h-.836v-.847c-.506.645-1.188.968-2.046.968zm.165-.682c.528 0 .975-.143 1.342-.429.367-.286.55-.653.55-1.1v-.528a5.961 5.961 0 00-1.661-.242c-.521 0-.928.106-1.221.319a.98.98 0 00-.44.847c0 .345.136.62.407.825.279.205.62.308 1.023.308zm4.203 1.903l-.132-.385c.491-.183.737-.466.737-.847V39h-.396v-1.155h1.012v.99c0 .44-.099.777-.297 1.012-.191.235-.499.4-.924.495zm7.182.451a2.76 2.76 0 01-1.21-.286l.286-.671c.272.139.569.209.891.209a.926.926 0 00.649-.242c.176-.154.349-.429.517-.825l-2.585-5.665h.935l2.068 4.741 1.826-4.741h.902l-2.387 5.874c-.242.579-.509.99-.803 1.232-.293.249-.656.374-1.089.374zM190.186 39v-5.687h4.928V39h-.847v-4.939h-3.234V39h-.847zm8.516.121c-.58 0-1.078-.158-1.496-.473-.418-.315-.627-.755-.627-1.32 0-.594.22-1.052.66-1.375.44-.323 1.03-.484 1.771-.484a6.39 6.39 0 011.738.242v-.176c0-.499-.147-.88-.44-1.144-.294-.264-.708-.396-1.243-.396-.558 0-1.133.136-1.727.407l-.253-.693c.704-.323 1.393-.484 2.068-.484.806 0 1.419.209 1.837.627.396.396.594.953.594 1.672V39h-.836v-.847c-.506.645-1.188.968-2.046.968zm.165-.682c.528 0 .975-.143 1.342-.429.366-.286.55-.653.55-1.1v-.528a5.966 5.966 0 00-1.661-.242c-.521 0-.928.106-1.221.319a.977.977 0 00-.44.847c0 .345.135.62.407.825.278.205.619.308 1.023.308zm4.511.561v-5.687h.847v3.278l3.113-3.278h1.045l-2.376 2.464L208.449 39h-1.001l-2.024-2.607-1.199 1.232V39h-.847zm10.96-.737c-.572.579-1.28.869-2.123.869-.843 0-1.547-.29-2.112-.869-.557-.579-.836-1.28-.836-2.101 0-.814.282-1.511.847-2.09.572-.587 1.28-.88 2.123-.88.843 0 1.547.29 2.112.869.565.579.847 1.28.847 2.101 0 .814-.286 1.514-.858 2.101zm-2.101.11c.609 0 1.107-.213 1.496-.638.396-.425.594-.95.594-1.573a2.2 2.2 0 00-.616-1.573 1.962 1.962 0 00-1.496-.649c-.609 0-1.107.216-1.496.649-.389.425-.583.95-.583 1.573 0 .616.202 1.14.605 1.573a1.98 1.98 0 001.496.638zm4.493.627v-5.687h2.75c.565 0 1.016.128 1.353.385.338.257.506.601.506 1.034 0 .609-.315 1.045-.946 1.309.836.227 1.254.697 1.254 1.408 0 .477-.187.854-.561 1.133-.374.279-.876.418-1.507.418h-2.849zm.847-.726h1.892c.404 0 .723-.084.957-.253a.817.817 0 00.352-.704c0-.279-.124-.495-.374-.649-.242-.154-.59-.231-1.045-.231h-1.782v1.837zm0-2.519h1.749c.352 0 .631-.077.836-.231.213-.161.319-.389.319-.682a.691.691 0 00-.297-.583c-.198-.147-.476-.22-.836-.22h-1.771v1.716zM223.175 39v-5.687h.847v3.278l3.113-3.278h1.045l-2.376 2.464L228.246 39h-1.001l-2.024-2.607-1.199 1.232V39h-.847zm7.936.121c-.58 0-1.078-.158-1.496-.473-.418-.315-.627-.755-.627-1.32 0-.594.22-1.052.66-1.375.44-.323 1.03-.484 1.771-.484a6.39 6.39 0 011.738.242v-.176c0-.499-.147-.88-.44-1.144-.294-.264-.708-.396-1.243-.396-.558 0-1.133.136-1.727.407l-.253-.693c.704-.323 1.393-.484 2.068-.484.806 0 1.419.209 1.837.627.396.396.594.953.594 1.672V39h-.836v-.847c-.506.645-1.188.968-2.046.968zm.165-.682c.528 0 .975-.143 1.342-.429.366-.286.55-.653.55-1.1v-.528a5.966 5.966 0 00-1.661-.242c-.521 0-.928.106-1.221.319a.977.977 0 00-.44.847c0 .345.135.62.407.825.278.205.619.308 1.023.308zm4.203 1.903l-.132-.385c.491-.183.737-.466.737-.847V39h-.396v-1.155h1.012v.99c0 .44-.099.777-.297 1.012-.191.235-.499.4-.924.495zm5.466.077v-2.167h.616c.506-.931.759-2.248.759-3.949v-.99h4.048v4.939h.858l-.132 2.167h-.704V39h-4.598l-.154 1.419h-.693zm1.518-2.167h3.058v-4.191h-2.387v.792c0 1.43-.224 2.563-.671 3.399zm10.643.011c-.572.579-1.279.869-2.123.869-.843 0-1.547-.29-2.112-.869-.557-.579-.836-1.28-.836-2.101 0-.814.283-1.511.847-2.09.572-.587 1.28-.88 2.123-.88.844 0 1.548.29 2.112.869.565.579.847 1.28.847 2.101 0 .814-.286 1.514-.858 2.101zm-2.101.11c.609 0 1.108-.213 1.496-.638.396-.425.594-.95.594-1.573a2.2 2.2 0 00-.616-1.573 1.962 1.962 0 00-1.496-.649c-.608 0-1.107.216-1.496.649-.388.425-.583.95-.583 1.573 0 .616.202 1.14.605 1.573.404.425.902.638 1.496.638zm7.057.759c-.822 0-1.515-.29-2.079-.869a2.942 2.942 0 01-.836-2.101c0-.814.278-1.511.836-2.09.564-.587 1.257-.88 2.079-.88.88 0 1.639.337 2.277 1.012l-.539.572c-.528-.557-1.111-.836-1.749-.836-.572 0-1.056.216-1.452.649-.389.425-.583.95-.583 1.573 0 .616.198 1.14.594 1.573a1.98 1.98 0 001.496.638c.608 0 1.18-.286 1.716-.858l.561.517c-.66.733-1.434 1.1-2.321 1.1zm5.096-.132v-4.939h-2.035v-.748h4.928v.748h-2.035V39h-.858zm5.819.121c-.579 0-1.078-.158-1.496-.473-.418-.315-.627-.755-.627-1.32 0-.594.22-1.052.66-1.375.44-.323 1.03-.484 1.771-.484.587 0 1.166.081 1.738.242v-.176c0-.499-.147-.88-.44-1.144-.293-.264-.708-.396-1.243-.396-.557 0-1.133.136-1.727.407l-.253-.693c.704-.323 1.393-.484 2.068-.484.807 0 1.419.209 1.837.627.396.396.594.953.594 1.672V39h-.836v-.847c-.506.645-1.188.968-2.046.968zm.165-.682c.528 0 .975-.143 1.342-.429.367-.286.55-.653.55-1.1v-.528a5.961 5.961 0 00-1.661-.242c-.521 0-.928.106-1.221.319a.98.98 0 00-.44.847c0 .345.136.62.407.825.279.205.62.308 1.023.308zm4.511.561v-5.687h2.75c.565 0 1.016.128 1.353.385.337.257.506.601.506 1.034 0 .609-.315 1.045-.946 1.309.836.227 1.254.697 1.254 1.408 0 .477-.187.854-.561 1.133-.374.279-.876.418-1.507.418h-2.849zm.847-.726h1.892c.403 0 .722-.084.957-.253a.817.817 0 00.352-.704c0-.279-.125-.495-.374-.649-.242-.154-.59-.231-1.045-.231H274.5v1.837zm0-2.519h1.749c.352 0 .631-.077.836-.231.213-.161.319-.389.319-.682a.691.691 0 00-.297-.583c-.198-.147-.477-.22-.836-.22H274.5v1.716zM280.098 39v-5.687h.847v3.278l3.113-3.278h1.045l-2.376 2.464L285.169 39h-1.001l-2.024-2.607-1.199 1.232V39h-.847zm7.936.121c-.58 0-1.078-.158-1.496-.473-.418-.315-.627-.755-.627-1.32 0-.594.22-1.052.66-1.375.44-.323 1.03-.484 1.771-.484a6.39 6.39 0 011.738.242v-.176c0-.499-.147-.88-.44-1.144-.294-.264-.708-.396-1.243-.396-.558 0-1.133.136-1.727.407l-.253-.693c.704-.323 1.393-.484 2.068-.484.806 0 1.419.209 1.837.627.396.396.594.953.594 1.672V39h-.836v-.847c-.506.645-1.188.968-2.046.968zm.165-.682c.528 0 .975-.143 1.342-.429.366-.286.55-.653.55-1.1v-.528a5.966 5.966 0 00-1.661-.242c-.521 0-.928.106-1.221.319a.977.977 0 00-.44.847c0 .345.135.62.407.825.278.205.619.308 1.023.308z" fill="#686868"/></g></g><defs><clipPath id="clip0_5_153"><path fill="#fff" d="M0 0h386v288H0z"/></clipPath><filter id="filter0_dddd_5_153" x="-76" y="-131" width="539" height="352" filterUnits="userSpaceOnUse" color-interpolation-filters="sRGB"><feFlood flood-opacity="0" result="BackgroundImageFix"/><feColorMatrix in="SourceAlpha" values="0 0 0 0 0 0 0 0 0 0 0 0 0 0 0 0 0 0 127 0" result="hardAlpha"/><feOffset dy=".744"/><feGaussianBlur stdDeviation="4.278"/><feColorMatrix values="0 0 0 0 0 0 0 0 0 0 0 0 0 0 0 0 0 0 0.0195 0"/><feBlend in2="BackgroundImageFix" result="effect1_dropShadow_5_153"/><feColorMatrix in="SourceAlpha" values="0 0 0 0 0 0 0 0 0 0 0 0 0 0 0 0 0 0 127 0" result="hardAlpha"/><feOffset dy="3.4"/><feGaussianBlur stdDeviation="12.025"/><feColorMatrix values="0 0 0 0 0 0 0 0 0 0 0 0 0 0 0 0 0 0 0.03 0"/><feBlend in2="effect1_dropShadow_5_153" result="effect2_dropShadow_5_153"/><feColorMatrix in="SourceAlpha" values="0 0 0 0 0 0 0 0 0 0 0 0 0 0 0 0 0 0 127 0" result="hardAlpha"/><feOffset dy="8.606"/><feGaussianBlur stdDeviation="32.259"/><feColorMatrix values="0 0 0 0 0 0 0 0 0 0 0 0 0 0 0 0 0 0 0.0405 0"/><feBlend in2="effect2_dropShadow_5_153" result="effect3_dropShadow_5_153"/><feColorMatrix in="SourceAlpha" values="0 0 0 0 0 0 0 0 0 0 0 0 0 0 0 0 0 0 127 0" result="hardAlpha"/><feOffset dy="17"/><feGaussianBlur stdDeviation="74"/><feColorMatrix values="0 0 0 0 0 0 0 0 0 0 0 0 0 0 0 0 0 0 0.06 0"/><feBlend in2="effect3_dropShadow_5_153" result="effect4_dropShadow_5_153"/><feBlend in="SourceGraphic" in2="effect4_dropShadow_5_153" result="shape"/></filter></defs></svg>