<svg width="386" height="288" fill="none" xmlns="http://www.w3.org/2000/svg"><g clip-path="url(#clip0_5_38)"><path d="M0 48c0-17.673 14.327-32 32-32h322c17.673 0 32 14.327 32 32v240H0V48z" fill="#fff"/><path d="M91 236H61c-8.837 0-16 7.163-16 16v30c0 8.837 7.163 16 16 16h30c8.837 0 16-7.163 16-16v-30c0-8.837-7.163-16-16-16z" fill="#E1E1E1"/><path d="M59 273.259s5.174-5.555 8.13-5.555c2.957 0 3.696 4.815 8.131 4.444 4.435-.37 4.804-8.148 9.239-8.148 4.435 0 8.5 10 8.5 10" stroke="#fff" stroke-width="2"/><path d="M59 279v-25a1 1 0 011-1h32a1 1 0 011 1v25a1 1 0 01-1 1H60a1 1 0 01-1-1z" stroke="#fff" stroke-width="2"/><path d="M73 263a2 2 0 100-4 2 2 0 000 4z" stroke="#fff" stroke-width="2"/><path d="M169 236h-30c-8.837 0-16 7.163-16 16v30c0 8.837 7.163 16 16 16h30c8.837 0 16-7.163 16-16v-30c0-8.837-7.163-16-16-16z" fill="#E1E1E1"/><path d="M137 273.259s5.174-5.555 8.13-5.555c2.957 0 3.696 4.815 8.131 4.444 4.435-.37 4.804-8.148 9.239-8.148 4.435 0 8.5 10 8.5 10" stroke="#fff" stroke-width="2"/><path d="M137 279v-25a1 1 0 011-1h32a1 1 0 011 1v25a1 1 0 01-1 1h-32a1 1 0 01-1-1z" stroke="#fff" stroke-width="2"/><path d="M151 263a2 2 0 10.001-3.999A2 2 0 00151 263z" stroke="#fff" stroke-width="2"/><path d="M247 236h-30c-8.837 0-16 7.163-16 16v30c0 8.837 7.163 16 16 16h30c8.837 0 16-7.163 16-16v-30c0-8.837-7.163-16-16-16z" fill="#E1E1E1"/><path d="M215 273.259s5.174-5.555 8.13-5.555c2.957 0 3.696 4.815 8.131 4.444 4.435-.37 4.804-8.148 9.239-8.148 4.435 0 8.5 10 8.5 10" stroke="#fff" stroke-width="2"/><path d="M215 279v-25a1 1 0 011-1h32a1 1 0 011 1v25a1 1 0 01-1 1h-32a1 1 0 01-1-1z" stroke="#fff" stroke-width="2"/><path d="M229 263a2 2 0 10.001-3.999A2 2 0 00229 263z" stroke="#fff" stroke-width="2"/><path d="M325 158h-30c-8.837 0-16 7.163-16 16v30c0 8.837 7.163 16 16 16h30c8.837 0 16-7.163 16-16v-30c0-8.837-7.163-16-16-16z" fill="#E1E1E1"/><path d="M293 195.259s5.174-5.555 8.13-5.555c2.957 0 3.696 4.815 8.131 4.444 4.435-.37 4.804-8.148 9.239-8.148 4.435 0 8.5 10 8.5 10" stroke="#fff" stroke-width="2"/><path d="M293 201v-25a1 1 0 011-1h32a1 1 0 011 1v25a1 1 0 01-1 1h-32a1 1 0 01-1-1z" stroke="#fff" stroke-width="2"/><path d="M307 185a2 2 0 10.001-3.999A2 2 0 00307 185z" stroke="#fff" stroke-width="2"/><path d="M325 236h-30c-8.837 0-16 7.163-16 16v30c0 8.837 7.163 16 16 16h30c8.837 0 16-7.163 16-16v-30c0-8.837-7.163-16-16-16z" fill="#E1E1E1"/><path d="M293 273.259s5.174-5.555 8.13-5.555c2.957 0 3.696 4.815 8.131 4.444 4.435-.37 4.804-8.148 9.239-8.148 4.435 0 8.5 10 8.5 10" stroke="#fff" stroke-width="2"/><path d="M293 279v-25a1 1 0 011-1h32a1 1 0 011 1v25a1 1 0 01-1 1h-32a1 1 0 01-1-1z" stroke="#fff" stroke-width="2"/><path d="M307 263a2 2 0 10.001-3.999A2 2 0 00307 263z" stroke="#fff" stroke-width="2"/><path d="M91 80H61c-8.837 0-16 7.163-16 16v30c0 8.837 7.163 16 16 16h30c8.837 0 16-7.163 16-16V96c0-8.837-7.163-16-16-16z" fill="#9CD365"/><path d="M59 117.259s5.174-5.555 8.13-5.555c2.957 0 3.696 4.815 8.131 4.444 4.435-.37 4.804-8.148 9.239-8.148 4.435 0 8.5 10 8.5 10" stroke="#fff" stroke-width="2"/><path d="M59 123V98a1 1 0 011-1h32a1 1 0 011 1v25a1 1 0 01-1 1H60a1 1 0 01-1-1z" stroke="#fff" stroke-width="2"/><path d="M73 107a2 2 0 100-4 2 2 0 000 4z" stroke="#fff" stroke-width="2"/><path d="M99 80a8 8 0 10-16 0 8 8 0 0016 0z" fill="#83C150"/><path fill-rule="evenodd" clip-rule="evenodd" d="M90.592 80.401a1 1 0 01-1.406-.001l-.747-.739a.677.677 0 10-.952.963l1.699 1.681c.39.385 1.016.385 1.406.001l3.92-3.872a.676.676 0 10-.951-.964l-2.969 2.931z" fill="#fff"/><path d="M91 158H61c-8.837 0-16 7.163-16 16v30c0 8.837 7.163 16 16 16h30c8.837 0 16-7.163 16-16v-30c0-8.837-7.163-16-16-16z" fill="#9CD365"/><path d="M59 195.259s5.174-5.555 8.13-5.555c2.957 0 3.696 4.815 8.131 4.444 4.435-.37 4.804-8.148 9.239-8.148 4.435 0 8.5 10 8.5 10" stroke="#fff" stroke-width="2"/><path d="M59 201v-25a1 1 0 011-1h32a1 1 0 011 1v25a1 1 0 01-1 1H60a1 1 0 01-1-1z" stroke="#fff" stroke-width="2"/><path d="M73 185a2 2 0 100-4 2 2 0 000 4z" stroke="#fff" stroke-width="2"/><path d="M99 158a8 8 0 10-16 0 8 8 0 0016 0z" fill="#83C150"/><path fill-rule="evenodd" clip-rule="evenodd" d="M90.592 158.401a1 1 0 01-1.406-.001l-.747-.739a.677.677 0 10-.952.963l1.699 1.681c.39.385 1.016.385 1.406.001l3.92-3.872a.676.676 0 10-.951-.964l-2.969 2.931z" fill="#fff"/><path d="M169 158h-30c-8.837 0-16 7.163-16 16v30c0 8.837 7.163 16 16 16h30c8.837 0 16-7.163 16-16v-30c0-8.837-7.163-16-16-16z" fill="#9CD365"/><path d="M137 195.259s5.174-5.555 8.13-5.555c2.957 0 3.696 4.815 8.131 4.444 4.435-.37 4.804-8.148 9.239-8.148 4.435 0 8.5 10 8.5 10" stroke="#fff" stroke-width="2"/><path d="M137 201v-25a1 1 0 011-1h32a1 1 0 011 1v25a1 1 0 01-1 1h-32a1 1 0 01-1-1z" stroke="#fff" stroke-width="2"/><path d="M151 185a2 2 0 10.001-3.999A2 2 0 00151 185z" stroke="#fff" stroke-width="2"/><path d="M177 158a8 8 0 10-16 0 8 8 0 0016 0z" fill="#83C150"/><path fill-rule="evenodd" clip-rule="evenodd" d="M168.592 158.401a1 1 0 01-1.406-.001l-.747-.739a.677.677 0 10-.952.963l1.699 1.681c.39.385 1.016.385 1.406.001l3.92-3.872a.676.676 0 10-.951-.964l-2.969 2.931z" fill="#fff"/><path d="M169 80h-30c-8.837 0-16 7.163-16 16v30c0 8.837 7.163 16 16 16h30c8.837 0 16-7.163 16-16V96c0-8.837-7.163-16-16-16z" fill="#9CD365"/><path d="M137 117.259s5.174-5.555 8.13-5.555c2.957 0 3.696 4.815 8.131 4.444 4.435-.37 4.804-8.148 9.239-8.148 4.435 0 8.5 10 8.5 10" stroke="#fff" stroke-width="2"/><path d="M137 123V98a1 1 0 011-1h32a1 1 0 011 1v25a1 1 0 01-1 1h-32a1 1 0 01-1-1z" stroke="#fff" stroke-width="2"/><path d="M151 107a2 2 0 10.001-3.999A2 2 0 00151 107z" stroke="#fff" stroke-width="2"/><path d="M177 80a8 8 0 10-16 0 8 8 0 0016 0z" fill="#83C150"/><path fill-rule="evenodd" clip-rule="evenodd" d="M168.592 80.401a1 1 0 01-1.406-.001l-.747-.739a.677.677 0 10-.952.963l1.699 1.681c.39.385 1.016.385 1.406.001l3.92-3.872a.676.676 0 10-.951-.964l-2.969 2.931z" fill="#fff"/><path d="M247 80h-30c-8.837 0-16 7.163-16 16v30c0 8.837 7.163 16 16 16h30c8.837 0 16-7.163 16-16V96c0-8.837-7.163-16-16-16z" fill="#9CD365"/><path d="M215 117.259s5.174-5.555 8.13-5.555c2.957 0 3.696 4.815 8.131 4.444 4.435-.37 4.804-8.148 9.239-8.148 4.435 0 8.5 10 8.5 10" stroke="#fff" stroke-width="2"/><path d="M215 123V98a1 1 0 011-1h32a1 1 0 011 1v25a1 1 0 01-1 1h-32a1 1 0 01-1-1z" stroke="#fff" stroke-width="2"/><path d="M229 107a2 2 0 10.001-3.999A2 2 0 00229 107z" stroke="#fff" stroke-width="2"/><path d="M255 80a8 8 0 10-16 0 8 8 0 0016 0z" fill="#83C150"/><path fill-rule="evenodd" clip-rule="evenodd" d="M246.592 80.401a1 1 0 01-1.406-.001l-.747-.739a.677.677 0 10-.952.963l1.699 1.681c.39.385 1.016.385 1.406.001l3.92-3.872a.676.676 0 10-.951-.964l-2.969 2.931z" fill="#fff"/><path d="M325 80h-30c-8.837 0-16 7.163-16 16v30c0 8.837 7.163 16 16 16h30c8.837 0 16-7.163 16-16V96c0-8.837-7.163-16-16-16z" fill="#9CD365"/><path d="M293 117.259s5.174-5.555 8.13-5.555c2.957 0 3.696 4.815 8.131 4.444 4.435-.37 4.804-8.148 9.239-8.148 4.435 0 8.5 10 8.5 10" stroke="#fff" stroke-width="2"/><path d="M293 123V98a1 1 0 011-1h32a1 1 0 011 1v25a1 1 0 01-1 1h-32a1 1 0 01-1-1z" stroke="#fff" stroke-width="2"/><path d="M307 107a2 2 0 10.001-3.999A2 2 0 00307 107z" stroke="#fff" stroke-width="2"/><path d="M333 80a8 8 0 10-16 0 8 8 0 0016 0z" fill="#83C150"/><path fill-rule="evenodd" clip-rule="evenodd" d="M324.592 80.401a1 1 0 01-1.406-.001l-.747-.739a.677.677 0 10-.952.963l1.699 1.681c.39.385 1.016.385 1.406.001l3.92-3.872a.676.676 0 10-.951-.964l-2.969 2.931z" fill="#fff"/><path d="M247 158h-30c-8.837 0-16 7.163-16 16v30c0 8.837 7.163 16 16 16h30c8.837 0 16-7.163 16-16v-30c0-8.837-7.163-16-16-16z" fill="#E1E1E1"/><mask id="a" style="mask-type:alpha" maskUnits="userSpaceOnUse" x="201" y="158" width="62" height="62"><path d="M247 158h-30c-8.837 0-16 7.163-16 16v30c0 8.837 7.163 16 16 16h30c8.837 0 16-7.163 16-16v-30c0-8.837-7.163-16-16-16z" fill="#E1E1E1"/></mask><g mask="url(#a)"><path d="M264 178h-63v42h63v-42z" fill="#9CD365"/><path d="M215 195.259s5.174-5.555 8.13-5.555c2.957 0 3.696 4.815 8.131 4.444 4.435-.37 4.804-8.148 9.239-8.148 4.435 0 8.5 10 8.5 10" stroke="#fff" stroke-width="2"/><path d="M215 201v-25a1 1 0 011-1h32a1 1 0 011 1v25a1 1 0 01-1 1h-32a1 1 0 01-1-1z" stroke="#fff" stroke-width="2"/><path d="M229 185a2 2 0 10.001-3.999A2 2 0 00229 185zm-14 10.259s5.174-5.555 8.13-5.555c2.957 0 3.696 4.815 8.131 4.444 4.435-.37 4.804-8.148 9.239-8.148 4.435 0 8.5 10 8.5 10" stroke="#fff" stroke-width="2"/><path d="M215 201v-25a1 1 0 011-1h32a1 1 0 011 1v25a1 1 0 01-1 1h-32a1 1 0 01-1-1z" stroke="#fff" stroke-width="2"/><path d="M229 185a2 2 0 10.001-3.999A2 2 0 00229 185z" stroke="#fff" stroke-width="2"/><path d="M247 166a8 8 0 100-16 8 8 0 000 16z" fill="#fff"/><path d="M241 158c0 1.591.632 3.117 1.757 4.243a6.003 6.003 0 008.486 0 6.003 6.003 0 000-8.486 6.003 6.003 0 00-8.486 0A6.003 6.003 0 00241 158zm-2 0a8 8 0 1116 0 8 8 0 01-16 0z" fill="#83C150"/><path d="M254 159a1 1 0 100-2 1 1 0 000 2z" fill="#83BF50"/></g><g filter="url(#filter0_dddd_5_38)"><path d="M317 0H69a8 8 0 00-8 8v40a8 8 0 008 8h248a8 8 0 008-8V8a8 8 0 00-8-8z" fill="#fff"/><path d="M105 8H81a4 4 0 00-4 4v32a4 4 0 004 4h24a4 4 0 004-4V12a4 4 0 00-4-4z" fill="#E1E1E1"/><path d="M77 23h32v21a4 4 0 01-4 4H81a4 4 0 01-4-4V23z" fill="#83C150"/><path d="M306 42H119a3 3 0 100 6h187a3 3 0 100-6z" fill="#F4F5F6"/><path d="M198.069 42h-79.138a2.93 2.93 0 100 5.862h79.138a2.93 2.93 0 100-5.862z" fill="#83C150"/><path d="M120.565 19.132c1.441 0 2.321-.528 3.124-1.364l-.869-.88c-.66.616-1.265 1.001-2.211 1.001-1.474 0-2.541-1.232-2.541-2.739 0-1.529 1.067-2.739 2.541-2.739.88 0 1.54.385 2.156.957l.869-1.001c-.737-.704-1.595-1.199-3.014-1.199-2.332 0-3.971 1.793-3.971 3.982 0 2.233 1.672 3.982 3.916 3.982zm4.392-.132h1.331v-4.664h2.519V19h1.331v-5.808h-5.181V19zm6.854 0h1.254l2.761-3.872V19h1.287v-5.808h-1.254a843.077 843.077 0 00-2.75 3.894v-3.894h-1.298V19zm9.655.132c1.133 0 1.804-.451 2.376-1.089l-.803-.792c-.418.429-.88.726-1.507.726-1.023 0-1.738-.836-1.738-1.87v-.022c0-1.012.704-1.848 1.672-1.848.671 0 1.1.297 1.507.726l.825-.891c-.539-.594-1.221-1.001-2.321-1.001-1.738 0-3.014 1.386-3.014 3.036v.022c0 1.65 1.276 3.003 3.003 3.003zm6.308 0c1.793 0 3.113-1.375 3.113-3.025 0-1.683-1.309-3.036-3.091-3.036-1.782 0-3.102 1.375-3.102 3.036 0 1.672 1.309 3.025 3.08 3.025zm.022-1.155c-1.034 0-1.771-.858-1.771-1.87 0-1.034.682-1.87 1.749-1.87 1.045 0 1.782.847 1.782 1.87 0 1.023-.682 1.87-1.76 1.87zM152.242 19h1.32v-1.397l.946-1.001 1.76 2.398h1.573l-2.442-3.366 2.255-2.442h-1.562l-2.53 2.783v-2.783h-1.32V19zm11.062 0h1.342v-4.664h1.87v-1.144h-5.082v1.144h1.87V19zm7.028.132c1.793 0 3.113-1.375 3.113-3.025 0-1.683-1.309-3.036-3.091-3.036-1.782 0-3.102 1.375-3.102 3.036 0 1.672 1.309 3.025 3.08 3.025zm.022-1.155c-1.034 0-1.771-.858-1.771-1.87 0-1.034.682-1.87 1.749-1.87 1.045 0 1.782.847 1.782 1.87 0 1.023-.682 1.87-1.76 1.87zM174.801 19h3.014c1.32 0 2.145-.594 2.145-1.573 0-.825-.495-1.254-1.199-1.452.495-.22.935-.594.935-1.331 0-.891-.759-1.452-1.914-1.452h-2.981V19zm1.309-1.056v-1.452h1.441c.715 0 1.056.286 1.056.704 0 .451-.341.748-.99.748h-1.507zm0-2.354v-1.375h1.386c.594 0 .847.286.847.66 0 .418-.308.715-.869.715h-1.364zM186.162 19v-3.443c0-1.551-.836-2.453-2.552-2.453-.946 0-1.573.198-2.211.484l.363 1.067c.528-.22 1.012-.363 1.661-.363.924 0 1.43.44 1.43 1.243v.11a4.889 4.889 0 00-1.606-.242c-1.353 0-2.354.616-2.354 1.903 0 1.188.968 1.815 2.068 1.815.88 0 1.485-.363 1.881-.836V19h1.32zm-1.287-2.101c0 .726-.66 1.221-1.54 1.221-.627 0-1.122-.308-1.122-.858 0-.583.495-.924 1.331-.924.517 0 .99.099 1.331.231v.33zm2.87 3.861h1.331v-2.662c.407.539 1.012 1.023 1.969 1.023 1.386 0 2.706-1.089 2.706-3.014 0-1.947-1.331-3.036-2.706-3.036-.935 0-1.54.484-1.969 1.089v-.968h-1.331v7.568zm2.992-2.794c-.902 0-1.694-.737-1.694-1.859 0-1.133.792-1.881 1.694-1.881.902 0 1.661.737 1.661 1.859 0 1.166-.748 1.881-1.661 1.881zm7.138 1.166c1.793 0 3.113-1.375 3.113-3.025 0-1.683-1.309-3.036-3.091-3.036-1.782 0-3.102 1.375-3.102 3.036 0 1.672 1.309 3.025 3.08 3.025zm.022-1.155c-1.034 0-1.771-.858-1.771-1.87 0-1.034.682-1.87 1.749-1.87 1.045 0 1.782.847 1.782 1.87 0 1.023-.682 1.87-1.76 1.87zM202.344 19h3.014c1.32 0 2.145-.594 2.145-1.573 0-.825-.495-1.254-1.199-1.452.495-.22.935-.594.935-1.331 0-.891-.759-1.452-1.914-1.452h-2.981V19zm1.309-1.056v-1.452h1.441c.715 0 1.056.286 1.056.704 0 .451-.341.748-.99.748h-1.507zm0-2.354v-1.375h1.386c.594 0 .847.286.847.66 0 .418-.308.715-.869.715h-1.364zm10.457 3.542c1.408 0 2.332-.792 2.332-1.771 0-.748-.429-1.188-1.056-1.408.506-.22.913-.616.913-1.32 0-.902-.891-1.562-2.167-1.562-.946 0-1.771.319-2.365.836l.594.836c.44-.385 1.045-.594 1.65-.594.55 0 .957.264.957.66 0 .44-.396.759-1.023.759h-.715v.957h.715c.759 0 1.177.297 1.177.726 0 .484-.495.803-1.1.803-.66 0-1.309-.253-1.826-.693l-.627.88c.682.583 1.507.891 2.541.891zm8.586-.132v-3.443c0-1.551-.836-2.453-2.552-2.453-.946 0-1.573.198-2.211.484l.363 1.067c.528-.22 1.012-.363 1.661-.363.924 0 1.43.44 1.43 1.243v.11a4.889 4.889 0 00-1.606-.242c-1.353 0-2.354.616-2.354 1.903 0 1.188.968 1.815 2.068 1.815.88 0 1.485-.363 1.881-.836V19h1.32zm-1.287-2.101c0 .726-.66 1.221-1.54 1.221-.627 0-1.122-.308-1.122-.858 0-.583.495-.924 1.331-.924.517 0 .99.099 1.331.231v.33zm9.303 2.233c2.024 0 3.366-1.782 3.366-3.982 0-2.222-1.331-3.982-3.344-3.982-2.024 0-3.366 1.782-3.366 3.982 0 2.222 1.32 3.982 3.344 3.982zm.022-1.221c-1.199 0-1.969-1.243-1.969-2.761 0-1.551.759-2.761 1.947-2.761 1.188 0 1.969 1.243 1.969 2.761 0 1.54-.748 2.761-1.947 2.761zM235.24 19h5.566v-1.188h-3.663l1.584-1.32c1.353-1.122 2.002-1.771 2.002-2.981 0-1.397-1.034-2.321-2.541-2.321-1.375 0-2.101.583-2.838 1.617l.957.748c.594-.77 1.078-1.155 1.782-1.155s1.243.44 1.243 1.199c0 .693-.385 1.188-1.441 2.079l-2.651 2.255V19zm6.955 0h1.463v-1.507h-1.463V19zm6.177.132c2.024 0 3.366-1.782 3.366-3.982 0-2.222-1.331-3.982-3.344-3.982-2.024 0-3.366 1.782-3.366 3.982 0 2.222 1.32 3.982 3.344 3.982zm.022-1.221c-1.199 0-1.969-1.243-1.969-2.761 0-1.551.759-2.761 1.947-2.761 1.188 0 1.969 1.243 1.969 2.761 0 1.54-.748 2.761-1.947 2.761zM256.893 19h1.298v-1.727h1.1v-1.111h-1.1v-4.917h-1.155l-4.279 5.06.253.968h3.883V19zm-2.53-2.838l2.53-3.047v3.047h-2.53zM260.597 19h1.463v-1.507h-1.463V19zm2.745 0h5.566v-1.188h-3.663l1.584-1.32c1.353-1.122 2.002-1.771 2.002-2.981 0-1.397-1.034-2.321-2.541-2.321-1.375 0-2.101.583-2.838 1.617l.957.748c.594-.77 1.078-1.155 1.782-1.155s1.243.44 1.243 1.199c0 .693-.385 1.188-1.441 2.079l-2.651 2.255V19zm10.178.132c2.024 0 3.366-1.782 3.366-3.982 0-2.222-1.331-3.982-3.344-3.982-2.024 0-3.366 1.782-3.366 3.982 0 2.222 1.32 3.982 3.344 3.982zm.022-1.221c-1.199 0-1.969-1.243-1.969-2.761 0-1.551.759-2.761 1.947-2.761 1.188 0 1.969 1.243 1.969 2.761 0 1.54-.748 2.761-1.947 2.761zM278.048 19h5.566v-1.188h-3.663l1.584-1.32c1.353-1.122 2.002-1.771 2.002-2.981 0-1.397-1.034-2.321-2.541-2.321-1.375 0-2.101.583-2.838 1.617l.957.748c.594-.77 1.078-1.155 1.782-1.155s1.243.44 1.243 1.199c0 .693-.385 1.188-1.441 2.079l-2.651 2.255V19zm6.746 0h5.566v-1.188h-3.663l1.584-1.32c1.353-1.122 2.002-1.771 2.002-2.981 0-1.397-1.034-2.321-2.541-2.321-1.375 0-2.101.583-2.838 1.617l.957.748c.594-.77 1.078-1.155 1.782-1.155s1.243.44 1.243 1.199c0 .693-.385 1.188-1.441 2.079l-2.651 2.255V19zm6.955 0h1.463v-1.507h-1.463V19zm2.536 0h1.419l1.419-2.035 1.43 2.035h1.452l-2.145-2.981 2.057-2.827h-1.419l-1.342 1.914-1.342-1.914h-1.452l2.057 2.86L294.285 19zm6.964 0h1.331v-8.03h-1.331V19zm5.061.11c1.21 0 2.156-.605 2.156-1.826 0-1.067-.957-1.452-1.804-1.716-.033-.011-.077-.022-.11-.033-.638-.209-1.199-.385-1.199-.781 0-.363.297-.605.814-.605.484 0 1.078.209 1.639.55l.528-.946c-.616-.407-1.408-.66-2.134-.66-1.155 0-2.068.671-2.068 1.771 0 1.133.957 1.485 1.815 1.738l.099.033c.638.187 1.199.341 1.199.77 0 .407-.33.649-.902.649-.594 0-1.276-.242-1.903-.715l-.594.902a4.08 4.08 0 002.464.869z" fill="#393939"/><path d="M195.456 36v-1.328h-2.952l-.16-.456 3.168-3.856h.552v3.784h.872v.528h-.872V36h-.608zm-2.352-1.856h2.352v-2.888l-2.352 2.888zM200.823 36v-1.328h-2.952l-.16-.456 3.168-3.856h.552v3.784h.872v.528h-.872V36h-.608zm-2.352-1.856h2.352v-2.888l-2.352 2.888zm6.855-1.368c-.24.283-.544.424-.912.424s-.672-.139-.912-.416a1.543 1.543 0 01-.352-1.016c0-.389.12-.725.36-1.008.24-.283.547-.424.92-.424.368 0 .67.141.904.424.235.277.352.613.352 1.008 0 .389-.12.725-.36 1.008zm-1.6 3.224l4.112-5.6h.568l-4.104 5.6h-.576zm3.984.064c-.368 0-.669-.139-.904-.416a1.543 1.543 0 01-.352-1.016c0-.389.12-.725.36-1.008.24-.283.544-.424.912-.424s.67.141.904.424c.235.277.352.613.352 1.008s-.12.733-.36 1.016a1.138 1.138 0 01-.912.416zm-3.28-3.312a.61.61 0 00.52-.28c.139-.192.208-.427.208-.704 0-.277-.072-.509-.216-.696-.144-.192-.32-.288-.528-.288-.213 0-.389.096-.528.288a1.17 1.17 0 00-.2.696c0 .277.072.512.216.704.144.187.32.28.528.28zm3.296 2.864a.618.618 0 00.528-.28c.134-.187.2-.421.2-.704 0-.277-.072-.509-.216-.696-.144-.192-.32-.288-.528-.288-.213 0-.389.096-.528.288a1.17 1.17 0 00-.2.696c0 .277.072.512.216.704.144.187.32.28.528.28z" fill="#A1A1A1"/><path d="M93 20v16m0 0l8-7.273M93 36l-8-7.273" stroke="#fff" stroke-width="2" stroke-linecap="round"/></g></g><defs><clipPath id="clip0_5_38"><path fill="#fff" d="M0 0h386v288H0z"/></clipPath><filter id="filter0_dddd_5_38" x="-87" y="-131" width="560" height="352" filterUnits="userSpaceOnUse" color-interpolation-filters="sRGB"><feFlood flood-opacity="0" result="BackgroundImageFix"/><feColorMatrix in="SourceAlpha" values="0 0 0 0 0 0 0 0 0 0 0 0 0 0 0 0 0 0 127 0" result="hardAlpha"/><feOffset dy=".744"/><feGaussianBlur stdDeviation="4.278"/><feColorMatrix values="0 0 0 0 0 0 0 0 0 0 0 0 0 0 0 0 0 0 0.0195 0"/><feBlend in2="BackgroundImageFix" result="effect1_dropShadow_5_38"/><feColorMatrix in="SourceAlpha" values="0 0 0 0 0 0 0 0 0 0 0 0 0 0 0 0 0 0 127 0" result="hardAlpha"/><feOffset dy="3.4"/><feGaussianBlur stdDeviation="12.025"/><feColorMatrix values="0 0 0 0 0 0 0 0 0 0 0 0 0 0 0 0 0 0 0.03 0"/><feBlend in2="effect1_dropShadow_5_38" result="effect2_dropShadow_5_38"/><feColorMatrix in="SourceAlpha" values="0 0 0 0 0 0 0 0 0 0 0 0 0 0 0 0 0 0 127 0" result="hardAlpha"/><feOffset dy="8.606"/><feGaussianBlur stdDeviation="32.259"/><feColorMatrix values="0 0 0 0 0 0 0 0 0 0 0 0 0 0 0 0 0 0 0.0405 0"/><feBlend in2="effect2_dropShadow_5_38" result="effect3_dropShadow_5_38"/><feColorMatrix in="SourceAlpha" values="0 0 0 0 0 0 0 0 0 0 0 0 0 0 0 0 0 0 127 0" result="hardAlpha"/><feOffset dy="17"/><feGaussianBlur stdDeviation="74"/><feColorMatrix values="0 0 0 0 0 0 0 0 0 0 0 0 0 0 0 0 0 0 0.06 0"/><feBlend in2="effect3_dropShadow_5_38" result="effect4_dropShadow_5_38"/><feBlend in="SourceGraphic" in2="effect4_dropShadow_5_38" result="shape"/></filter></defs></svg>