<svg width="443" height="460" fill="none" xmlns="http://www.w3.org/2000/svg"><path d="M350.652 193.457c-72.77-42.019-190.372-42.019-262.677 0s-71.912 110.141.858 152.152c72.77 42.011 190.38 42.019 262.677 0 72.297-42.019 71.92-110.133-.858-152.152z" fill="#fff"/><path d="M376.932 267.341c5.37-3.094 14.041-3.094 19.379 0 5.337 3.093 5.305 8.118-.064 11.22-5.37 3.101-14.042 3.101-19.379 0-5.338-3.102-5.306-8.103.064-11.22zm-152.664 4.528l-9.929-13.496a11.753 11.753 0 00-3.765-3.315 11.752 11.752 0 00-4.803-1.446l-14.634-1.122-23.241-14.129 8.695-5.025a.805.805 0 00.373-.677.807.807 0 00-.099-.387.81.81 0 00-.274-.29l-3.614-2.06a4.712 4.712 0 00-4.681 0l-85.232 49.28a.795.795 0 00-.373.677.805.805 0 00.373.677l3.527 2.036a4.692 4.692 0 004.704 0l36.994-21.366 22.929 13.151 2.997 8.439a13.325 13.325 0 0012.551 8.856h21.398l14.522 8.383 35.086-20.396-13.504-7.79zm130.554-12.454c-23.194-13.384-60.677-13.384-83.718 0-20.364 11.829-22.624 30.15-6.876 43.502-12.711-.802-25.87 1.602-35.576 7.268-17.03 9.898-16.942 25.943.201 35.84 17.142 9.898 44.88 9.89 61.87 0 13.544-7.878 16.245-19.643 8.159-29.107 19.523 2.829 41.009-.177 56.22-9.009 23.041-13.383 22.921-35.094-.28-48.494zM85.588 296.377c-6.107-3.527-15.98-3.527-22.047 0-6.067 3.526-6.035 9.248.072 12.774 6.107 3.527 15.98 3.527 22.047 0 6.067-3.526 6.043-9.248-.072-12.774z" fill="#E0E0E0"/><path d="M145.048 20.452L149.335 18l.265 93.719-.008.008-34.558 19.732-.016-4.905-.256-88.815 30.286-17.287z" fill="#F0F0F0"/><path opacity=".1" d="M145.303 109.259l-.256-88.807L149.335 18l.264 93.719-.008.008-4.304-2.46.016-.008z" fill="#000"/><path opacity=".2" d="M115.018 126.554l30.27-17.287 4.303 2.46-34.557 19.731-.016-4.904z" fill="#000"/><path d="M97.755 47.453L102.042 45l.265 93.719-.008.008-34.558 19.732-.016-4.905-.256-88.815 30.286-17.287z" fill="#F0F0F0"/><path opacity=".1" d="M98.01 136.259l-.256-88.806L102.042 45l.264 93.719-.008.008-4.304-2.46.016-.008z" fill="#000"/><path opacity=".2" d="M67.725 153.554l30.27-17.287 4.303 2.46-34.557 19.732-.016-4.905z" fill="#000"/><path d="M244.966 73.05c-.264-.28-.521-.568-.801-.865l-.169-.192c-.424-.49-.801-.986-1.234-1.499l-.128-.168a19.687 19.687 0 01-.93-1.258l-.136-.185c-.289-.417-.569-.801-.842-1.266a6.813 6.813 0 01-.2-.313 29.039 29.039 0 01-.649-1.066 1.988 1.988 0 01-.136-.224c-.241-.409-.473-.801-.698-1.242l-.16-.32c-.176-.33-.344-.666-.513-1.002l-.16-.337a37.3 37.3 0 01-.593-1.282l-.072-.185c-.169-.392-.329-.801-.481-1.17l-.136-.352c-.177-.465-.345-.93-.497-1.395 0 0 0-.072-.04-.112a31.746 31.746 0 01-.441-1.443l-.072-.272a26.933 26.933 0 01-.417-1.675c0-.128-.048-.249-.08-.369l-.12-.657c0-.136-.056-.273-.072-.417 0-.224-.073-.449-.105-.673-.032-.224-.04-.264-.056-.4-.064-.482-.104-.962-.144-1.435v-.305c0-.489-.048-.978-.048-1.458v-1.33c0-.193 0-.394.048-.578.048-.184 0-.24.04-.36s0-.37.064-.545c.064-.177.048-.249.064-.37a9.48 9.48 0 01.088-.488c.033-.16.057-.248.081-.377.024-.128.072-.296.104-.448.032-.153.072-.24.104-.361.032-.12.08-.28.128-.417l.12-.352c.049-.129.089-.265.145-.393.056-.128.096-.217.136-.329.04-.112.104-.248.16-.368.056-.12.104-.209.161-.313.056-.104.112-.232.176-.345l.176-.288.192-.329.193-.272c.072-.096.136-.2.216-.297.08-.096.136-.168.209-.256.072-.088.144-.184.224-.273.08-.088.152-.16.224-.24l.241-.248.24-.217.257-.224.256-.193.273-.2.264-.176a8.292 8.292 0 012.685-1.082c-1.803 2.027-2.861 5.113-2.877 9.088 0 .48 0 .97.048 1.459v.304c0 .473.08.954.144 1.435 0 .136.04.272.056.4.016.129.064.45.104.674.04.224.048.304.081.456l.12.658c0 .12.056.24.08.368.12.553.256 1.114.409 1.675.031.092.058.186.08.28.136.474.28.954.441 1.435 0 0 0 .08.04.112.152.473.32.938.497 1.395.048.12.088.24.136.353.152.392.312.801.481 1.17l.072.184c.192.433.384.858.593 1.282.048.112.104.225.16.337.168.337.337.673.513 1.01l.16.312c.225.417.457.802.698 1.242.04.08.088.153.136.233.208.352.425.713.649 1.066l.192.304c.281.425.561.85.85 1.267l.136.184c.305.433.609.85.93 1.266l.128.168c.401.513.801 1.01 1.234 1.5l.16.192.802.873.048.048c.28.297.569.593.857.874.057.064.121.12.185.184.376.36.753.721 1.146 1.066l.104.096c.401.353.801.681 1.218 1.01l.241.184a20 20 0 001.234.898l.216.144c.441.289.882.57 1.323.802.44.232.713.392 1.065.577l.297.144.801.368.281.12.737.281.185.064c.304.105.609.2.905.28l.529.13.241.063c.256.056.504.096.753.136.371.06.746.098 1.122.113h1.354a7.5 7.5 0 00.762-.089h.232l.241-.056a8.238 8.238 0 01-2.076 1.7l-.08.04h-.056a8.848 8.848 0 01-.618.304l-.216.088a7.17 7.17 0 01-.673.24h-.12a9.654 9.654 0 01-.802.185h-.216c-.249 0-.489.064-.745.088h-1.884l-.609-.072-.385-.072-.368-.072-.225-.056h-.064l-.473-.113c-.296-.088-.593-.176-.889-.28l-.185-.064-.745-.28-.264-.113a17.557 17.557 0 01-.802-.36l-.176-.089a.633.633 0 01-.128-.064c-.353-.176-.706-.36-1.066-.569-.361-.208-.882-.537-1.315-.801h-.064l-.16-.104c-.417-.289-.801-.585-1.234-.898l-.152-.12-.089-.064c-.408-.329-.801-.666-1.218-1.01a.485.485 0 01-.064-.064h-.04a16.162 16.162 0 01-1.146-1.058l-.184-.184a30.835 30.835 0 01-.858-.874l-.08-.176z" fill="#EBEBEB"/><path d="M265.203 63.907v1.033l2.909 1.675v-1.033l-2.909-1.675zm-23.522-21.735l-.449.625 2.517 3.133.449-.633-2.517-3.125z" fill="#fff"/><path d="M270.573 67.521c0 10.635-7.558 14.923-16.831 9.617-9.272-5.305-16.709-18.329-16.685-28.964.024-10.635 7.557-14.922 16.83-9.617 9.272 5.306 16.718 18.329 16.686 28.964zm-24.364-10.266a1 1 0 00.417.545.378.378 0 00.176.056l7.117.56a.233.233 0 00.264-.103l4.657-7.895a.809.809 0 00-.201-.801.807.807 0 00-.2-.168c-.16-.088-.321-.08-.401.056l-4.576 7.766-7.013-.553c-.224 0-.336.224-.24.545v-.008zm13.688-6.965l1.459-2.051-.801-.962-1.403 2.076.802.961-.057-.024zm.658 25.975l.801-.064-1.523-3.767-.801.064 1.442 3.735.081.032zM241.633 59.49l2.524-.217-.44-1.154-2.533.217.449 1.154zm24.315 14.04l.449-.632-2.516-3.134-.449.633 2.516 3.134zm-24.267-31.39l-.449.625 2.517 3.133.448-.633-2.516-3.125zm22.24 15.435l2.524-.216-.449-1.146-2.524.208.449 1.154zm-16.83-18.112l-.802.064 1.443 3.735.801-.064-1.45-3.735h.008zm-.081 28.964l1.467-2.06-.801-.954-1.467 2.052.801.962zm-4.584-16.67v-1.002l-2.909-1.675v1.026l2.909 1.683v-.032zm25.686 13.833l-2.909-1.683v1.033l2.909 1.675V65.59zm-14.786 8.43l.889.514v-3.342l-.889-.521v3.35zm.985-32.345l-.889-.513v3.382l.889.52v-3.35" fill="#E0E0E0"/><path d="M253.414 41.162l-.008 3.342.89.521.016-3.35-.898-.513zm7.205 6.107l-1.467 2.051.778.962 1.458-2.052-.769-.961zm5.378 8.944l-2.524.208.448 1.154 2.525-.216-.449-1.146zm-2.117 13.552l-.448.633 2.516 3.134.449-.633-2.517-3.134zm-4.015 2.669l-.777.064 1.442 3.734.778-.064-1.443-3.734zm-6.531-1.764l-.008 3.35.89.514.008-3.342-.89-.521zm-5.627-5.257l-1.467 2.052.77.962 1.466-2.06-.769-.954zm-3.999-7.293l-2.524.217.448 1.154 2.525-.217-.449-1.154zm-4.19-9.04v1.026l2.909 1.683v-1.034l-2.909-1.675zm7.572-9.617l-.77.064 1.443 3.735.777-.064-1.45-3.735zm6.725 17.904a.377.377 0 00-.176-.056h-.144l-7.013-.553c-.224 0-.337.224-.24.545.07.225.218.418.416.545a.382.382 0 00.177.056l7.116.56c.225 0 .329-.215.233-.536a.966.966 0 00-.369-.561z" fill="#fff"/><path d="M258.471 49.44c-.16-.087-.321-.08-.401.057l-4.576 7.766h.144a.377.377 0 01.177.056.96.96 0 01.408.545c.097.32 0 .56-.232.537a.233.233 0 00.265-.105l4.656-7.894a.8.8 0 00-.201-.801.795.795 0 00-.24-.16z" fill="#F5F5F5"/><path d="M265.293 80.608l.264-.208a2.77 2.77 0 00.281-.249c.088-.072.176-.144.256-.224l.265-.272.24-.257c.089-.093.172-.192.248-.296.073-.089.153-.177.225-.273.072-.096.152-.216.224-.32.072-.105.144-.193.209-.297.064-.104.144-.232.208-.353.064-.12.136-.208.192-.312.056-.104.129-.249.193-.377l.176-.336.168-.401c.048-.12.104-.233.153-.353.048-.12.104-.288.152-.433.048-.144.096-.248.136-.368.04-.12.088-.305.128-.457.04-.152.08-.256.112-.393.033-.136.081-.312.113-.472l.096-.417c0-.169.056-.345.088-.513l.072-.417.072-.593.048-.377.048-.68v-1.387c0-.521 0-1.042-.048-1.603a.604.604 0 010-.104 27.795 27.795 0 00-.168-1.78v-.2l-.144-.97c0-.16-.056-.32-.088-.489-.048-.232-.089-.472-.137-.713v-.112a35.66 35.66 0 00-1.074-3.96 40.85 40.85 0 00-2.083-5.104l-.048-.104a46.095 46.095 0 00-1.483-2.773l-.144-.249c-.241-.408-.489-.801-.738-1.202l-.176-.28a42.202 42.202 0 00-2.18-3.078 36.056 36.056 0 00-2.404-2.78c-.313-.338-.633-.658-.954-.987l-.16-.144c-.417-.417-.842-.801-1.282-1.202h-.048a23.28 23.28 0 00-1.379-1.154l-.248-.2a25.654 25.654 0 00-1.339-.962l-.048-.04a26.232 26.232 0 00-.865-.561c-.289-.177-.497-.313-.754-.457-.384-.224-.801-.425-1.146-.617A18.87 18.87 0 00247.1 36.4l-.312-.08-.497-.12-.345-.064-.465-.08h-.376l-.593-.064h-.233c-.43-.024-.86-.024-1.29 0h-.185c-.272 0-.544.048-.801.088a8.438 8.438 0 00-1.122.24h-.136c-.249.08-.489.169-.729.265l-.113.048c-.328.144-.657.296-.969.473l4.44-2.58.096-.057.12-.064c.216-.112.441-.224.665-.32a.968.968 0 01.128-.065h.105c.267-.107.534-.203.801-.288.298-.086.6-.155.906-.209h.248c.265-.047.533-.079.801-.096h.177c.349-.02.7-.02 1.05 0h.689c.24 0 .489.048.737.088l.802.153.256.064.521.128h.048c.321.088.649.184.978.296l.2.08c.265.089.529.193.802.305l.112.04.2.088c.281.12.569.257.858.393l.328.16c.377.193.802.393 1.146.617.345.225.954.577 1.427.898l.24.16c.449.305.898.625 1.339.962l.248.2c.449.353.89.714 1.322 1.098.042.03.079.066.113.105.424.368.801.753 1.242 1.154l.12.112.08.08c.313.304.617.617.922.946l.048.048c.289.312.569.625.85.945l.08.089.096.12a61.71 61.71 0 011.338 1.603v.048a1.2 1.2 0 01.096.128c.348.449.684.906 1.01 1.37l.104.137c.017.022.03.046.04.072.321.44.626.897.922 1.362a.732.732 0 00.088.128l.12.209c.241.377.473.801.706 1.146l.104.176a.29.29 0 010 .072c.264.45.513.898.753 1.347l.056.112.121.224.553 1.09c0 .072.072.152.112.225.04.072.04.096.064.136.216.465.433.93.633 1.394.015.05.034.098.056.145.184.424.353.85.521 1.274 0 .072.056.136.088.208.032.072.04.112.056.177.193.496.377 1.001.545 1.506v.089c.177.534.337 1.068.481 1.602l.056.2a.454.454 0 010 .105c.16.609.313 1.21.441 1.811.004.053.004.107 0 .16l.048.24c.048.233.088.474.136.706.048.232.056.329.088.497.033.168.073.489.105.73 0 .111.04.224.056.344a.325.325 0 000 .088c.064.521.112 1.042.152 1.555v.328c0 .53.056 1.05.056 1.603 0 5.714-2.035 9.73-5.281 11.621l-4.44 2.58.28-.184c.096-.056.193-.112.281-.176l.473-.337z" fill="#EBEBEB"/><path d="M233.482 48.68c0 11.492 8.015 25.493 18.057 31.255 5.177 2.99 9.857 3.206 13.167 1.082.096-.056.192-.112.281-.176l.304-.225.265-.208a2.65 2.65 0 00.28-.249c.088-.072.176-.144.257-.224l.264-.272.241-.257c.089-.093.172-.192.248-.296.072-.088.152-.177.224-.273.073-.096.153-.216.225-.32.072-.105.144-.193.208-.297.064-.104.144-.232.209-.353.064-.12.136-.208.192-.312.056-.104.128-.249.192-.377l.177-.336.168-.401c.048-.12.104-.233.152-.353.048-.12.104-.288.152-.432.048-.145.097-.249.137-.37.04-.12.088-.304.128-.456.04-.152.08-.257.112-.393s.08-.312.112-.473l.096-.416c0-.169.057-.345.089-.513l.072-.417.072-.593.048-.377.048-.68v-1.387c0-.521 0-1.042-.048-1.603v-.104a27.788 27.788 0 00-.168-1.78v-.2l-.145-.97c0-.16-.056-.32-.088-.489-.032-.168-.088-.472-.136-.713v-.112A35.873 35.873 0 00268 59.65a40.843 40.843 0 00-2.084-5.104l-.048-.104a46.083 46.083 0 00-1.482-2.773l-.145-.249c-.24-.409-.489-.801-.737-1.202l-.176-.28a42.801 42.801 0 00-2.18-3.078 36.256 36.256 0 00-2.404-2.78c-.313-.337-.634-.658-.954-.987l-.16-.144c-.417-.417-.842-.801-1.283-1.202h-.048c-.449-.4-.913-.801-1.378-1.154a3.129 3.129 0 01-.257-.2 25.57 25.57 0 00-1.338-.962l-.048-.04a24.875 24.875 0 00-.866-.561c-.288-.177-.497-.313-.753-.457-.385-.224-.802-.425-1.146-.617a18.862 18.862 0 00-3.422-1.347l-.329-.08-.497-.12c-.12 0-.24-.048-.36-.072l-.465-.08-.377-.048-.593-.064h-.232a11.12 11.12 0 00-1.291 0h-.208c-.273 0-.545.048-.801.088a8.438 8.438 0 00-1.122.24h-.137c-.248.08-.489.168-.729.265l-.128.048c-.329.144-.657.296-.97.473-3.326 1.875-5.354 5.882-5.37 11.62zm11.533 24.427l-.048-.056c-.265-.28-.521-.57-.801-.866l-.169-.192c-.425-.489-.801-.986-1.234-1.499l-.128-.168c-.321-.417-.625-.801-.93-1.266l-.136-.185c-.289-.416-.569-.801-.842-1.266a6.319 6.319 0 01-.2-.313 23.558 23.558 0 01-.649-1.065 1.988 1.988 0 01-.136-.225c-.241-.409-.473-.801-.698-1.242l-.16-.32a39.047 39.047 0 01-.513-1.002l-.16-.337a36.21 36.21 0 01-.593-1.282l-.072-.185c-.169-.392-.329-.801-.481-1.17l-.136-.352c-.177-.465-.345-.93-.497-1.395 0 0 0-.072-.04-.112-.161-.48-.305-.962-.441-1.443l-.072-.272a26.243 26.243 0 01-.417-1.675c0-.128-.048-.248-.08-.369l-.12-.657c0-.136-.056-.272-.073-.417-.016-.144-.08-.472-.112-.713-.032-.24-.04-.264-.056-.4-.064-.481-.104-.962-.144-1.435v-.305c0-.489-.048-.977-.048-1.458v-1.33c0-.193 0-.393.048-.578.048-.184 0-.24.04-.36s0-.369.064-.545c.064-.177.048-.249.064-.369s.056-.329.088-.489c.032-.16.056-.248.081-.377.024-.128.072-.296.104-.448.032-.153.072-.24.104-.361.032-.12.08-.28.128-.417l.12-.352c.048-.129.088-.265.145-.393.056-.128.096-.216.136-.329.04-.112.104-.248.16-.368.056-.12.104-.209.16-.313.057-.104.113-.232.177-.344l.176-.289.192-.329.193-.272c.072-.096.136-.2.216-.297.08-.096.136-.168.208-.256.073-.088.145-.184.225-.273.08-.088.152-.16.224-.24l.241-.248.24-.217.257-.224.256-.193.273-.2.264-.176a8.295 8.295 0 012.685-1.082c2.701-.577 5.97.056 9.497 2.092 9.248 5.337 16.734 18.288 16.702 28.923 0 4.007-1.066 7.053-2.87 9.08a8.214 8.214 0 01-2.075 1.7l-.08.04c-.225.12-.457.232-.69.336l-.216.088a6.974 6.974 0 01-.673.24h-.12c-.273.073-.553.137-.802.193h-.216c-.249 0-.489.064-.746.088h-1.899l-.609-.072-.385-.072-.368-.072c-.097 0-.193-.048-.289-.072l-.473-.112c-.62-.177-1.23-.388-1.827-.634l-.265-.112a17.837 17.837 0 01-.977-.457.633.633 0 01-.128-.064c-.353-.176-.706-.36-1.066-.569-.361-.208-.882-.537-1.315-.801h-.064a29.093 29.093 0 01-1.547-1.122l-.088-.064a26.733 26.733 0 01-1.282-1.074h-.04a15.947 15.947 0 01-1.146-1.058l-.184-.184a13.725 13.725 0 00-.842-.93z" fill="#fff"/><path d="M360.884 109.732l-.048 18.721-2.268 1.323.056-21.342 2.26 1.298z" fill="#F0F0F0"/><path d="M385.328 142.599l-.008 2.62-26.752-15.443 2.268-1.323 24.492 14.146z" fill="#F5F5F5"/><path d="M355.812 131.338l32.25 18.618.08-27.642-32.241-18.617-.089 27.641zm2.757-1.602l.057-21.351 2.26 1.307 24.499 14.193-.056 18.722v2.62l-26.76-15.491z" fill="#E0E0E0"/><path d="M355.893 103.697l2.268-1.314L390.402 121l-2.268 1.315-32.241-18.618z" fill="#F5F5F5"/><path d="M390.403 121l-.08 27.633-2.268 1.323.08-27.642 2.268-1.314zm-28.555-49.2l-.049 18.722-2.276 1.314.065-21.342 2.26 1.306z" fill="#F0F0F0"/><path d="M386.291 104.659l-.008 2.629-26.76-15.452 2.276-1.314 24.492 14.137z" fill="#F5F5F5"/><path d="M356.807 93.43l32.241 18.618.08-27.641-32.273-18.642-.048 27.666zm2.749-1.602l.064-21.342 2.228 1.306 24.499 14.145-.056 18.714v2.628l-26.735-15.451z" fill="#E0E0E0"/><path d="M356.855 65.765l2.269-1.322 32.241 18.617-2.268 1.323-32.242-18.618z" fill="#F5F5F5"/><path d="M391.364 83.06l-.08 27.642-2.268 1.314.08-27.633 2.268-1.323z" fill="#F0F0F0"/><path d="M368.675 116.84l-6.684 5.266-.016 5.137 22.215 12.823.016-5.137-4.231-8.407-3.799 2.949 1.338 4.175-1.947-3.702-6.892-13.104z" fill="#E0E0E0"/><path d="M375.968 119.429c-1.042-.601-1.9-.112-1.9 1.09a4.148 4.148 0 001.892 3.262c1.042.609 1.891.12 1.899-1.082a4.16 4.16 0 00-1.891-3.27zm-6.339-40.52l-6.675 5.257-.016 5.137 22.215 12.831.016-5.137-4.231-8.415-3.807 2.957 1.346 4.176-1.947-3.71-6.901-13.096z" fill="#E0E0E0"/><path d="M376.931 81.497c-1.05-.6-1.9-.12-1.9 1.082a4.148 4.148 0 001.884 3.27c1.049.601 1.899.12 1.899-1.082a4.146 4.146 0 00-1.883-3.27z" fill="#E0E0E0"/><path d="M293.894 50.242l47.982 27.745a5.36 5.36 0 012.677 4.624v48.246a5.267 5.267 0 01-8.015 4.336L316.503 123.3l-.433.697-.064.064h-.048c-.802.521-2.156 1.259-2.461 1.419a.289.289 0 01-.36-.176l-1.748-4.953-22.864-12.839a5.33 5.33 0 01-2.685-4.624v-48.31c0-3.848 5.658-5.715 8.054-4.336z" fill="#83C150"/><path opacity=".2" d="M315.998 123.998l-.064.064h-.048c-.801.521-2.156 1.258-2.46 1.418a.242.242 0 00.176-.12l1.691-2.741-.336-.192 1.49.849-.449.722z" fill="#fff"/><path opacity=".4" d="M338.558 83.012a5.492 5.492 0 00-1.427-1.787 4.843 4.843 0 00-.649-.44L288.501 53.03a1.782 1.782 0 00-2.424.658c-.156.27-.237.577-.237.888 0-3.847 5.658-5.714 8.054-4.335l47.982 27.745A5.375 5.375 0 01343.863 80l-5.305 3.013z" fill="#fff"/><path opacity=".2" d="M339.175 133.655V85.417a5.092 5.092 0 00-.601-2.405L343.88 80a5.35 5.35 0 01.689 2.613v48.246a5.263 5.263 0 01-2.758 4.477 5.267 5.267 0 01-5.256-.141 1.78 1.78 0 002.62-1.539z" fill="#fff"/><path d="M297.589 72.85l27.85 16.076-1.675 19.09c-.096 1.162-.994 1.603-2.06.962L300.37 96.636c-.427-.26-.799-.6-1.098-1.002l.04.545a8.188 8.188 0 003.687 6.011l.938.537c.352.083.689.218 1.001.401.368.222.704.492 1.002.801l9.994 5.77c.354.078.692.214 1.002.401.363.21.699.463 1.002.753l2.123 1.227c.237.158.432.369.571.617a1.8 1.8 0 01.231.809c0 .521-.377.73-.802.473l-.168-.096c.24.632.365 1.303.369 1.979 0 2.116-1.499 2.974-3.35 1.908a7.366 7.366 0 01-3.326-5.762 2.928 2.928 0 01.385-1.547l-6.107-3.527c.234.635.359 1.304.368 1.98 0 2.124-1.506 2.973-3.35 1.907a7.31 7.31 0 01-3.326-5.762 2.902 2.902 0 01.425-1.603 12.09 12.09 0 01-4.344-8.014l-1.891-25.646a3.646 3.646 0 00-1.643-2.669l-3.446-1.995a1.81 1.81 0 01-.802-1.419c0-.529.377-.737.802-.473l3.446 1.988a7.302 7.302 0 013.278 5.346l.208 2.276zm14.578 27.176l.04-15.291a2.473 2.473 0 00-1.114-1.932c-.617-.352-1.114-.072-1.122.642l-.04 15.29a2.489 2.489 0 001.114 1.908c.617.353 1.122.064 1.122-.641v.024zm4.809 2.765l.04-15.291a2.462 2.462 0 00-1.114-1.932c-.617-.352-1.122-.072-1.122.642v15.29a2.445 2.445 0 001.114 1.931c.617.353 1.114.064 1.122-.641h-.04zm4.849 2.789l.048-15.291a2.477 2.477 0 00-1.13-1.908c-.617-.352-1.122-.072-1.122.641l-.04 15.292a2.445 2.445 0 001.162 1.939c.609.353 1.114.064 1.114-.641l-.032-.032zm-14.458-8.335l.04-15.291a2.406 2.406 0 00-1.114-1.932c-.617-.352-1.114-.072-1.122.642v15.29a2.48 2.48 0 001.114 1.931c.617.354 1.122.066 1.122-.64h-.04zm-4.769-2.789l.048-15.291a2.472 2.472 0 00-1.114-1.931c-.617-.353-1.122-.073-1.122.64l-.048 15.292a2.447 2.447 0 001.114 1.923c.617.361 1.122.073 1.122-.633zm2.404 11.1c-.689-.401-1.25-.08-1.258.713a2.781 2.781 0 001.251 2.164c.697.401 1.25.08 1.258-.713a2.756 2.756 0 00-1.251-2.164zm12.022 6.948c-.689-.4-1.25-.08-1.25.714a2.737 2.737 0 001.242 2.164c.689.4 1.258.08 1.258-.722a2.755 2.755 0 00-1.25-2.156z" fill="#fff"/><path d="M333.412 89.335c.36.22.655.529.858.898.473.801.473 1.699 0 1.963l-7.077 4.008a.85.85 0 01-.857-.089 2.505 2.505 0 01-.858-.897l-3.462-6.011c-.481-.801-.473-1.7 0-1.971a.863.863 0 01.857.088c.357.222.652.53.858.897l2.621 4.568 6.219-3.542a.847.847 0 01.841.088z" fill="#fff"/><path d="M328.155 81.922c4.72 2.725 8.527 9.329 8.511 14.746-.016 5.418-3.847 7.598-8.567 4.873-4.721-2.725-8.519-9.313-8.503-14.738.016-5.426 3.847-7.598 8.559-4.88zm-1.002 14.314l7.077-4.008c.481-.264.481-1.145 0-1.963a2.4 2.4 0 00-.858-.898.85.85 0 00-.857-.088l-6.163 3.51-2.613-4.536a2.51 2.51 0 00-.857-.897.869.869 0 00-.858-.088c-.473.272-.481 1.146 0 1.971l3.462 6.01c.206.367.501.676.858.898a.849.849 0 00.857.089" fill="#83C150"/><path opacity=".3" d="M328.155 81.922c4.72 2.725 8.527 9.329 8.511 14.746-.016 5.418-3.847 7.598-8.567 4.873-4.721-2.725-8.519-9.313-8.503-14.738.016-5.426 3.847-7.598 8.559-4.88zm-1.002 14.314l7.077-4.008c.481-.264.481-1.145 0-1.963a2.4 2.4 0 00-.858-.898.85.85 0 00-.857-.088l-6.163 3.51-2.613-4.536a2.51 2.51 0 00-.857-.897.869.869 0 00-.858-.088c-.473.272-.481 1.146 0 1.971l3.462 6.01c.206.367.501.676.858.898a.849.849 0 00.857.089" fill="#fff"/><path d="M174.331 58.68c-.561-1.979-4.585-5.745-8.592-5.665a3.46 3.46 0 00-1.122.224l-77.73 44.2a7.332 7.332 0 00-2.99 3.205 7.421 7.421 0 00-.801 3.262v168.18c0 4.279 4.936 8.367 9.577 6.411.105-.029.207-.07.304-.12l77.739-44.303a7.448 7.448 0 003.751-6.46V59.49a1.809 1.809 0 00-.136-.81z" fill="#455A64"/><path d="M93.938 121.697a3.704 3.704 0 011.875-3.206l72.217-41.09a1.859 1.859 0 012.781 1.604v135.602a3.741 3.741 0 01-1.876 3.205l-72.184 41.162a1.854 1.854 0 01-1.85-.004 1.856 1.856 0 01-.931-1.599l-.032-135.674z" fill="#83C150"/><path opacity=".2" d="M93.938 121.697a3.704 3.704 0 011.875-3.206l72.217-41.09a1.859 1.859 0 012.781 1.604v135.602a3.741 3.741 0 01-1.876 3.205l-72.184 41.162a1.854 1.854 0 01-1.85-.004 1.856 1.856 0 01-.931-1.599l-.032-135.674z" fill="#000"/><path opacity=".1" d="M93.938 121.697a3.704 3.704 0 011.875-3.206l72.217-41.09a1.859 1.859 0 012.781 1.604v135.602a3.741 3.741 0 01-1.876 3.205l-72.184 41.162a1.854 1.854 0 01-1.85-.004 1.856 1.856 0 01-.931-1.599l-.032-135.674z" fill="#fff"/><path opacity=".3" d="M83.127 103.921v168.165c0 4.279 4.937 8.367 9.577 6.411a1.846 1.846 0 01-2.268-.879 1.843 1.843 0 01-.208-.852V108.57a7.417 7.417 0 011.306-4.104l-7.638-3.822a7.417 7.417 0 00-.769 3.277z" fill="#000"/><path opacity=".1" d="M165.747 53.007a3.463 3.463 0 00-1.122.224l-77.74 44.207a7.332 7.332 0 00-2.989 3.206l7.638 3.822a7.4 7.4 0 012.509-2.404l77.738-44.223a1.845 1.845 0 012.581.802c-.585-1.948-4.608-5.715-8.615-5.634z" fill="#fff"/><path d="M141.969 85.64c.553-.312 1.001-.063 1.001.562a2.229 2.229 0 01-.993 1.723l-15.228 8.816c-.545.32-.985.056-.985-.578a2.165 2.165 0 01.977-1.698l15.228-8.824zm-19.18 11.068c.545-.312.985-.064.985.57a2.201 2.201 0 01-.985 1.715c-.545.312-.994.056-.994-.57a2.162 2.162 0 01.994-1.715zm9.779-12.341c1.09-.634 1.971-.129 1.971 1.121a4.336 4.336 0 01-1.963 3.423c-1.09.633-1.996.12-1.996-1.138a4.354 4.354 0 011.988-3.406zm-.001 158.306c2.228-1.282 4.008-.256 4.008 2.292a8.877 8.877 0 01-4.008 6.981c-2.22 1.282-4.063.232-4.071-2.325a8.875 8.875 0 014.071-6.948z" fill="#263238"/><path d="M170.573 75.27l26.255 21.791-9.569 5.53-26.247-21.79 9.561-5.53zm-19.131 11.06l26.247 21.783-9.569 5.53-26.239-21.783 9.561-5.53z" fill="#83C150"/><path d="M141.88 91.86l26.238 21.783-9.569 5.53-26.238-21.783 9.569-5.53zm19.13-11.06l26.247 21.791-9.569 5.522-26.247-21.783 9.569-5.53z" fill="#fff"/><path d="M113.18 108.441l26.231 21.783-9.569 5.53-26.231-21.783 9.569-5.53zm19.131-11.051l26.239 21.783-9.569 5.521-26.239-21.782 9.569-5.522z" fill="#83C150"/><path d="M93.867 119.605l9.746-5.634 26.23 21.783-9.769 5.642-26.207-21.791zm28.874-16.693l26.239 21.782-9.569 5.53-26.231-21.783 9.561-5.529z" fill="#fff"/><path d="M196.827 97.061l-9.569 5.53a3.687 3.687 0 001.843 3.201 3.69 3.69 0 003.695.005 8.089 8.089 0 004.007-6.989l.024-1.747z" fill="#83C150"/><path d="M187.257 102.591l-9.569 5.53a3.696 3.696 0 003.69 3.698 3.686 3.686 0 001.847-.493 8.072 8.072 0 004.008-6.988l.024-1.747z" fill="#E0E0E0"/><path d="M177.688 108.121l-9.569 5.522a3.697 3.697 0 003.69 3.698 3.687 3.687 0 001.848-.493 8.061 8.061 0 004.007-6.988l.024-1.739z" fill="#83C150"/><path d="M168.12 113.643l-9.569 5.529a3.687 3.687 0 005.538 3.206 8.063 8.063 0 004.007-6.98l.024-1.755z" fill="#E0E0E0"/><path d="M158.552 119.173l-9.57 5.514a3.701 3.701 0 003.691 3.698 3.686 3.686 0 001.847-.493 8.061 8.061 0 004.007-6.988l.025-1.731z" fill="#83C150"/><path d="M148.981 124.687l-9.569 5.521a3.687 3.687 0 001.844 3.202 3.694 3.694 0 003.694.004 8.084 8.084 0 004.007-6.988l.024-1.739z" fill="#E0E0E0"/><path d="M139.413 130.225l-9.569 5.529a3.687 3.687 0 005.538 3.206 8.01 8.01 0 004.007-6.988l.024-1.747z" fill="#83C150"/><path opacity=".2" d="M196.827 97.061l-9.569 5.53a3.687 3.687 0 001.843 3.201 3.69 3.69 0 003.695.005 8.089 8.089 0 004.007-6.989l.024-1.747zm-19.139 11.06l-9.569 5.522a3.697 3.697 0 003.69 3.698 3.687 3.687 0 001.848-.493 8.061 8.061 0 004.007-6.988l.024-1.739zm-19.136 11.052l-9.57 5.514a3.701 3.701 0 003.691 3.698 3.686 3.686 0 001.847-.493 8.061 8.061 0 004.007-6.988l.025-1.731zm-19.139 11.052l-9.569 5.529a3.687 3.687 0 005.538 3.206 8.01 8.01 0 004.007-6.988l.024-1.747z" fill="#000"/><path d="M129.844 135.754l-9.77 5.61a3.697 3.697 0 00.489 1.848 3.692 3.692 0 005.041 1.358 8.479 8.479 0 004.24-7.349v-1.467z" fill="#E0E0E0"/><path d="M140.998 163.957a23.563 23.563 0 00-8.127 2.508 25.972 25.972 0 00-12.614 14.522 23.63 23.63 0 00-1.339 8.399 39.81 39.81 0 012.717-7.838 33.369 33.369 0 0111.982-13.801 40.099 40.099 0 017.381-3.79zm-7.485 41.962a14.884 14.884 0 01-4.576-.801 12.896 12.896 0 01-7.549-6.628 14.71 14.71 0 01-1.387-4.432 10.424 10.424 0 00.617 4.761 11.223 11.223 0 008.095 7.1c1.578.374 3.222.374 4.8 0zm12.423-25.774a36.522 36.522 0 01-.096 6.412 32.471 32.471 0 01-4.616 13.576 36.417 36.417 0 01-3.839 5.169 20.057 20.057 0 004.808-4.52 23.32 23.32 0 004.809-14.137 20.129 20.129 0 00-1.066-6.5z" fill="#83C150"/><path d="M120.811 171.298a22.21 22.21 0 00-4.673 6.491 24.48 24.48 0 00-1.266 18.057 22.543 22.543 0 003.727 7.084 38.404 38.404 0 01-2.404-7.437 31.49 31.49 0 011.202-17.159 37.253 37.253 0 013.414-7.036zm30.613.945a12.34 12.34 0 00-2.276-6.067 13.18 13.18 0 00-13.368-5.425 12.456 12.456 0 00-5.858 2.773 16.686 16.686 0 016.011-1.651 14.497 14.497 0 0112.334 5.001 16.641 16.641 0 013.157 5.369z" fill="#83C150"/><path d="M185.798 147.126a10.12 10.12 0 0110.987 8.287l3.719 20.837 23.322 16.309-5.21 6.34-22.183-11.653a11.043 11.043 0 01-5.458-6.636l-7.149-24.115 1.972-9.369z" fill="#FFA8A7"/><path d="M194.453 169.519a10.817 10.817 0 004.705-4.945l-2.092-9.553a10.124 10.124 0 00-10.916-7.894l-.352.04-1.972 9.385 3.078 13.816c2.536.634 5.217.332 7.549-.849z" fill="#455A64"/><path d="M194.454 169.519a10.877 10.877 0 01-7.55.849l.802 3.406c2.893.649 10.306.433 12.238-5.69l-.802-3.526a10.816 10.816 0 01-4.688 4.961z" fill="#455A64"/><path opacity=".2" d="M194.453 169.519a10.817 10.817 0 004.705-4.945l-2.092-9.553a10.124 10.124 0 00-10.916-7.894l-.352.04-1.972 9.385 3.078 13.816c2.536.634 5.217.332 7.549-.849z" fill="#fff"/><path opacity=".5" d="M194.454 169.519a10.877 10.877 0 01-7.55.849l.802 3.406c2.893.649 10.306.433 12.238-5.69l-.802-3.526a10.816 10.816 0 01-4.688 4.961z" fill="#fff"/><path d="M190.958 156.094s-.929-7.092-5.161-8.944c0 0-10.13 3.038-18.529 6.228a97.263 97.263 0 00-9.745 4.167c-1.908 1.651-7.381 6.564-9.954 7.886a12.213 12.213 0 01-4.007 1.202 14.004 14.004 0 00-4.985 1.819c-7.71 4.456-13.937 15.228-13.913 24.099 0 5.811 2.725 9.329 6.756 9.818h.185a9.014 9.014 0 001.915 0c7.012-.064 18.257-.12 22.672-1.387 20.629-6.058 36.85-20.997 34.766-44.888z" fill="#455A64"/><path d="M171.302 153.185l3.022-5.481 12.157 8.19-4.808 6.46a8.094 8.094 0 01-6.524.264 8.292 8.292 0 01-4.408-4.937 5.805 5.805 0 01.561-4.496z" fill="#FFA8A7"/><path opacity=".2" d="M175.461 148.465c0 6.604 5.249 9.697 8.455 10.867l2.565-3.438-11.02-7.429z" fill="#000"/><path d="M169.971 141.877c-.449-2.636-.906-5.345-.393-7.974.513-2.628 2.212-5.193 4.809-5.962a8.985 8.985 0 015.425-4.753 24.733 24.733 0 017.125-.865 34.565 34.565 0 017.934.44 11.742 11.742 0 016.796 3.855 11.314 11.314 0 011.972 8.704 25.44 25.44 0 01-3.294 8.519c-5.097.361-10.29.946-15.387 1.306a40.965 40.965 0 01-7.814.072 14.525 14.525 0 01-7.173-3.342z" fill="#263238"/><path d="M201.178 129.655a43.569 43.569 0 01-2.5 23.282c-.681 1.707-1.603 3.478-3.166 4.384-1.563.905-3.742.761-5.61.473a28.957 28.957 0 01-8.92-2.509 12.17 12.17 0 01-6.171-6.652 5.352 5.352 0 01-5.409-2.124 10.107 10.107 0 01-1.755-5.898c0-1.338.248-2.917 1.45-3.502s2.453.064 3.422.849a10.167 10.167 0 013.334 5.001c.882-3.262 2.252-6.411 3.134-9.617.352-1.282.801-2.677 1.899-3.39 1.363-.874 3.142-.377 4.721 0a30.989 30.989 0 0015.571-.297z" fill="#FFA8A7"/><path d="M191.688 139.537l3.807 6.404-4.536.857.729-7.261zm-5.105 9.465l3.446 1.675a2.246 2.246 0 01-2.612.745 2.037 2.037 0 01-.834-2.42z" fill="#F28F8F"/><path opacity=".3" d="M186.583 149.002l3.446 1.675a2.246 2.246 0 01-2.612.745 2.037 2.037 0 01-.834-2.42z" fill="#000"/><path d="M188.612 151.534c-.4.081-.816.042-1.194-.112a1.824 1.824 0 01-.922-1.819c.494.001.974.167 1.363.472.431.37.701.893.753 1.459z" fill="#F28F8F"/><path d="M185.118 139.793a1.301 1.301 0 00.683 1.282 1.309 1.309 0 001.445-.141 1.308 1.308 0 000-2.021 1.305 1.305 0 00-2.128.88zm10.931.674a1.3 1.3 0 001.416 1.422 1.303 1.303 0 001.117-.911c.076-.245.077-.507.003-.753a1.291 1.291 0 00-1.109-.92 1.292 1.292 0 00-1.278.676 1.303 1.303 0 00-.149.486zm1.779-5.033l2.677 2.276a1.86 1.86 0 00-.361-2.092 2.198 2.198 0 00-2.316-.184zm-10.658-.176l-3.07 1.699a1.86 1.86 0 01.761-1.98 2.21 2.21 0 012.309.281z" fill="#263238"/><path d="M203.615 132.292a106.458 106.458 0 01-33.66 0c.521-13.624 6.652-18.088 17.231-18.088s16.549 5.674 16.429 18.088z" fill="#455A64"/><path d="M203.614 132.292c0-5.218-1.009-9.225-2.989-12.134l-4.432-1.242a14.62 14.62 0 00-6.411-.337l-4.224.705a6.727 6.727 0 00-5.61 5.859l-.969 8.223c8.225.592 16.492.232 24.635-1.074z" fill="#455A64"/><path opacity=".29" d="M203.614 132.292c0-5.218-1.009-9.225-2.989-12.134l-4.432-1.242a14.62 14.62 0 00-6.411-.337l-4.224.705a6.727 6.727 0 00-5.61 5.859l-.969 8.223c8.225.592 16.492.232 24.635-1.074z" fill="#fff"/><path d="M204.937 120.823h-1.956c-.633 0-1.258 0-1.883.072a26.003 26.003 0 00-15.452 6.556l-6.587 5.915c8.199.586 16.439.225 24.555-1.074l4.288-5.202a3.848 3.848 0 00-2.965-6.267z" fill="#455A64"/><path opacity=".2" d="M204.937 120.823h-1.956c-.633 0-1.258 0-1.883.072a26.003 26.003 0 00-15.452 6.556l-6.587 5.915c8.199.586 16.439.225 24.555-1.074l4.288-5.202a3.848 3.848 0 00-2.965-6.267z" fill="#000"/><path d="M238.814 193.658l-29.877 17.359-30.07-17.359 29.87-17.367 30.077 17.367z" fill="#83C150"/><path opacity=".3" d="M238.812 193.658l-29.877 17.359-30.07-17.359 29.87-17.367 30.077 17.367z" fill="#fff"/><path d="M238.813 193.657l-.088 30.39-29.877 17.359.088-30.39 29.877-17.359z" fill="#83C150"/><path opacity=".1" d="M238.813 193.657l-.088 30.39-29.877 17.359.088-30.39 29.877-17.359z" fill="#fff"/><path d="M208.937 211.016l-.088 30.39-30.07-17.359.088-30.39 30.07 17.359z" fill="#83C150"/><path d="M214.137 191.43l10.114-6.18-5.161-2.981-10.154 6.059 5.201 3.102z" fill="#E0E0E0"/><path d="M214.137 191.429l-5.201-3.101-10.314-6.155-5.145 2.989 10.25 6.267 5.209 3.182 13.753 8.415 5.514-3.206-14.066-8.391z" fill="#fff"/><path d="M203.727 191.43l-14.122 8.423 5.53 3.197 13.801-8.439-5.209-3.181zm24.474 8.39l-5.513 3.206.048.024.08 30.238 5.578-3.238-.08-30.174-.113-.056z" fill="#E0E0E0"/><path d="M195.137 203.05l-5.53-3.197-.048.024-.088 30.35 5.578 3.214.088-30.391z" fill="#fff"/><path opacity=".2" d="M195.137 203.05l-5.53-3.197-.048.024-.088 30.35 5.578 3.214.088-30.391z" fill="#000"/><path d="M208.919 200.614l-6.251 3.823 6.251 3.615 6.235-3.623-6.235-3.815z" fill="#fff"/><path d="M149.775 199.564s2.332-33.94 2.821-36.064c1.868-8.07 13.568-7.493 14.682.713.457 3.35-4.888 35.88-4.888 35.88l19.362 20.485 3.919 3.598 3.494-.705 7.967.753a.98.98 0 01.865.802.987.987 0 01-.721 1.154l-5.265 1.282 3.798 2.597a4.592 4.592 0 001.772.729l5.954 1.13a1.09 1.09 0 01.89 1.146 1.103 1.103 0 01-.706.962l-3.205 1.194a15.403 15.403 0 01-12.823-.914l-6.892-3.83a17.111 17.111 0 01-2.846-1.924l-24.708-20.436a9.678 9.678 0 01-3.47-8.552z" fill="#FFA8A7"/><path d="M166.964 186.557l2.476-18.433a9.642 9.642 0 00-8.395-10.735 9.622 9.622 0 00-7.106 1.974 9.624 9.624 0 00-3.629 6.421l-2.068 18.809a23.039 23.039 0 0018.722 1.94v.024z" fill="#455A64"/><path opacity=".2" d="M166.964 186.557l2.476-18.433a9.642 9.642 0 00-8.395-10.735 9.622 9.622 0 00-7.106 1.974 9.624 9.624 0 00-3.629 6.421l-2.068 18.809a23.039 23.039 0 0018.722 1.94v.024z" fill="#fff"/><path d="M157.019 187.542a23.568 23.568 0 01-8.816-2.925l-.473 4.336c8.327 6.411 18.538 2.452 18.538 2.452l.657-4.848a23.498 23.498 0 01-9.906.985z" fill="#455A64"/><path opacity=".5" d="M157.019 187.542a23.568 23.568 0 01-8.816-2.925l-.473 4.336c8.327 6.411 18.538 2.452 18.538 2.452l.657-4.848a23.498 23.498 0 01-9.906.985z" fill="#fff"/><path d="M373.588 249.525l12.999.385 12.999-.385c.553 8.816-1.154 17.728-3.518 22.096a5.917 5.917 0 01-2.573 2.612c-3.839 2.22-10.034 2.22-13.848 0a5.777 5.777 0 01-2.565-2.684c-2.356-4.392-4.047-13.288-3.494-22.024z" fill="#fff"/><path d="M377.427 244.204c-5.089 2.941-5.121 7.71-.064 10.651s13.287 2.933 18.384 0c5.098-2.933 5.122-7.71.057-10.651-5.065-2.941-13.288-2.941-18.377 0z" fill="#EBEBEB"/><path d="M379.439 245.374c-4.007 2.292-4.007 6.011-.048 8.311 3.959 2.3 10.371 2.292 14.346 0 3.975-2.292 4.007-6.019.04-8.311-3.967-2.292-10.363-2.292-14.338 0z" fill="#E0E0E0"/><path opacity=".15" d="M379.439 245.374c-4.007 2.292-4.007 6.011-.048 8.311 3.959 2.3 10.371 2.292 14.346 0 3.975-2.292 4.007-6.019.04-8.311-3.967-2.292-10.363-2.292-14.338 0z" fill="#000"/><path d="M393.215 222.934c2.116-2.629 4.568-4.985 6.508-7.742 1.322-1.883 2.404-4.191 1.867-6.411a5.726 5.726 0 00-4.544-4.007 8.71 8.71 0 00-6.107 1.362 18.622 18.622 0 00-4.616 4.392 45.87 45.87 0 00-9.666 32.77 6.903 6.903 0 001.211 3.767 3.77 3.77 0 003.887 1.186c3.542-1.05 3.069-5.834 3.646-8.647a39.346 39.346 0 014.071-11.036 38.102 38.102 0 013.743-5.634z" fill="#83C150"/><path opacity=".2" d="M393.215 222.934c2.116-2.629 4.568-4.985 6.508-7.742 1.322-1.883 2.404-4.191 1.867-6.411a5.726 5.726 0 00-4.544-4.007 8.71 8.71 0 00-6.107 1.362 18.622 18.622 0 00-4.616 4.392 45.87 45.87 0 00-9.666 32.77 6.903 6.903 0 001.211 3.767 3.77 3.77 0 003.887 1.186c3.542-1.05 3.069-5.834 3.646-8.647a39.346 39.346 0 014.071-11.036 38.102 38.102 0 013.743-5.634z" fill="#fff"/><path d="M381.529 244.661a.312.312 0 00.248-.297c.249-5.682 2.1-25.076 15.468-36.064a.304.304 0 00.079-.092.306.306 0 00.022-.236.308.308 0 00-.061-.105.31.31 0 00-.206-.115.303.303 0 00-.227.067c-13.568 11.172-15.443 30.799-15.692 36.545a.313.313 0 00.297.321l.072-.024z" fill="#F0F0F0"/><path d="M379.583 245.27a9.464 9.464 0 004.336 6.019 12.17 12.17 0 006.572 1.106 29.138 29.138 0 006.668-1.603c1.074-.361 2.26-.842 2.404-2.172a2.413 2.413 0 00-.761-1.868 7.315 7.315 0 00-.69-.601.682.682 0 01.361-1.226 16.618 16.618 0 001.899-.24 8.303 8.303 0 004.008-1.803 6.617 6.617 0 001.843-2.725c.32-.898.417-2.02-.265-2.685a2.857 2.857 0 00-1.474-.641 22.324 22.324 0 00-1.427-.265.63.63 0 01-.455-.943.63.63 0 01.303-.267l2.02-.841a3.75 3.75 0 001.53-.954 3.333 3.333 0 00.385-2.773c-.248-1.266-.681-2.484-.978-3.735a8.023 8.023 0 01-.168-3.79 32.04 32.04 0 00-11.292.753 8.216 8.216 0 00-3.086 1.346c-1.258 1.01-1.603 2.517-1.45 4.16a.285.285 0 01-.052.187.285.285 0 01-.158.112.294.294 0 01-.194-.013.291.291 0 01-.141-.134l-1.259-2.404a1.53 1.53 0 00-2.003-.641 9.3 9.3 0 00-2.949 2.324 5.1 5.1 0 00-1.259 3.766c.156 1.87.47 3.722.938 5.538a.502.502 0 01-.203.564.502.502 0 01-.598-.027h-.056a1.724 1.724 0 00-1.219-.352c-1.138.136-1.426 1.29-1.506 2.276a19.108 19.108 0 00.376 4.552z" fill="#83C150"/><path opacity=".2" d="M379.583 245.27a9.464 9.464 0 004.336 6.019 12.17 12.17 0 006.572 1.106 29.138 29.138 0 006.668-1.603c1.074-.361 2.26-.842 2.404-2.172a2.413 2.413 0 00-.761-1.868 7.315 7.315 0 00-.69-.601.682.682 0 01.361-1.226 16.618 16.618 0 001.899-.24 8.303 8.303 0 004.008-1.803 6.617 6.617 0 001.843-2.725c.32-.898.417-2.02-.265-2.685a2.857 2.857 0 00-1.474-.641 22.324 22.324 0 00-1.427-.265.63.63 0 01-.455-.943.63.63 0 01.303-.267l2.02-.841a3.75 3.75 0 001.53-.954 3.333 3.333 0 00.385-2.773c-.248-1.266-.681-2.484-.978-3.735a8.023 8.023 0 01-.168-3.79 32.04 32.04 0 00-11.292.753 8.216 8.216 0 00-3.086 1.346c-1.258 1.01-1.603 2.517-1.45 4.16a.285.285 0 01-.052.187.285.285 0 01-.158.112.294.294 0 01-.194-.013.291.291 0 01-.141-.134l-1.259-2.404a1.53 1.53 0 00-2.003-.641 9.3 9.3 0 00-2.949 2.324 5.1 5.1 0 00-1.259 3.766c.156 1.87.47 3.722.938 5.538a.502.502 0 01-.203.564.502.502 0 01-.598-.027h-.056a1.724 1.724 0 00-1.219-.352c-1.138.136-1.426 1.29-1.506 2.276a19.108 19.108 0 00.376 4.552z" fill="#000"/><path opacity=".2" d="M379.583 245.27a9.464 9.464 0 004.336 6.019 12.17 12.17 0 006.572 1.106 29.138 29.138 0 006.668-1.603c1.074-.361 2.26-.842 2.404-2.172a2.413 2.413 0 00-.761-1.868 7.315 7.315 0 00-.69-.601.682.682 0 01.361-1.226 16.618 16.618 0 001.899-.24 8.303 8.303 0 004.008-1.803 6.617 6.617 0 001.843-2.725c.32-.898.417-2.02-.265-2.685a2.857 2.857 0 00-1.474-.641 22.324 22.324 0 00-1.427-.265.63.63 0 01-.455-.943.63.63 0 01.303-.267l2.02-.841a3.75 3.75 0 001.53-.954 3.333 3.333 0 00.385-2.773c-.248-1.266-.681-2.484-.978-3.735a8.023 8.023 0 01-.168-3.79 32.04 32.04 0 00-11.292.753 8.216 8.216 0 00-3.086 1.346c-1.258 1.01-1.603 2.517-1.45 4.16a.285.285 0 01-.052.187.285.285 0 01-.158.112.294.294 0 01-.194-.013.291.291 0 01-.141-.134l-1.259-2.404a1.53 1.53 0 00-2.003-.641 9.3 9.3 0 00-2.949 2.324 5.1 5.1 0 00-1.259 3.766c.156 1.87.47 3.722.938 5.538a.502.502 0 01-.203.564.502.502 0 01-.598-.027h-.056a1.724 1.724 0 00-1.219-.352c-1.138.136-1.426 1.29-1.506 2.276a19.108 19.108 0 00.376 4.552z" fill="#fff"/><path d="M385.569 250.984a45.491 45.491 0 013.038-8.816.325.325 0 01.104-.232l.216-.457a28.518 28.518 0 00-3.013-10.082.318.318 0 01.112-.424.313.313 0 01.425.12 28.724 28.724 0 012.965 9.368c2.573-5.161 6.676-11.22 13.007-15.595a.312.312 0 01.48.189.303.303 0 01-.043.231.323.323 0 01-.084.085c-6.532 4.552-10.651 10.851-13.151 16.076a19.012 19.012 0 0110.763-1.458.319.319 0 01.248.368.298.298 0 01-.087.159.3.3 0 01-.161.082h-.121c-.056 0-5.962-1.082-11.075 1.771a44.888 44.888 0 00-3.014 8.727.321.321 0 01-.248.241h-.12a.306.306 0 01-.241-.353z" fill="#F0F0F0"/><path d="M89.393 276.085l-14.795.433-14.786-.433c-.641 9.986 1.314 20.164 4.007 25.141a6.717 6.717 0 002.933 2.981c4.36 2.525 11.413 2.525 15.748 0a6.526 6.526 0 002.926-3.053c2.668-5.009 4.6-15.131 3.967-25.069z" fill="#fff"/><path d="M85.025 270.026c5.794 3.35 5.826 8.768.072 12.118-5.755 3.35-15.123 3.342-20.918 0-5.794-3.342-5.826-8.768-.072-12.118 5.755-3.35 15.123-3.342 20.918 0z" fill="#EBEBEB"/><path d="M82.716 271.348c4.52 2.613 4.544 6.845.056 9.457-4.488 2.613-11.797 2.605-16.317 0-4.52-2.604-4.544-6.844-.056-9.457 4.488-2.612 11.813-2.596 16.317 0z" fill="#E0E0E0"/><path opacity=".15" d="M82.716 271.348c4.52 2.613 4.544 6.845.056 9.457-4.488 2.613-11.797 2.605-16.317 0-4.52-2.604-4.544-6.844-.056-9.457 4.488-2.612 11.813-2.596 16.317 0z" fill="#000"/><path d="M98.922 212.972c-33.331 10.916-33.66 33.212-26.118 49.088 1.89 3.206 7.63 4.945 12.614-14.803l-8.752 1.122 10.203-5.177 2.652-7.918-8.51.633 10.802-4.544a159.184 159.184 0 017.11-18.401z" fill="#83C150"/><path opacity=".2" d="M98.922 212.972c-33.331 10.916-33.66 33.212-26.118 49.088 1.89 3.206 7.63 4.945 12.614-14.803l-8.752 1.122 10.203-5.177 2.652-7.918-8.51.633 10.802-4.544a159.184 159.184 0 017.11-18.401z" fill="#000"/><path opacity=".2" d="M98.922 212.972c-33.331 10.916-33.66 33.212-26.118 49.088 1.89 3.206 7.63 4.945 12.614-14.803l-8.752 1.122 10.203-5.177 2.652-7.918-8.51.633 10.802-4.544a159.184 159.184 0 017.11-18.401z" fill="#fff"/><path d="M89.49 218.55c-17.576 13.336-19.163 28.635-14.194 44.6-1.755-14.057-3.655-28.275 14.193-44.6z" fill="#fff"/><path d="M42.469 235.621c32.858 4.624 36.866 25.341 32.474 41.378-1.227 3.309-6.284 5.874-14.21-11.693l8.36-.369-10.42-3.158-3.782-6.94 8.014-.801-10.811-2.405a152.984 152.984 0 00-9.625-16.012z" fill="#83C150"/><path opacity=".2" d="M42.469 235.621c32.858 4.624 36.866 25.341 32.474 41.378-1.227 3.309-6.284 5.874-14.21-11.693l8.36-.369-10.42-3.158-3.782-6.94 8.014-.801-10.811-2.405a152.984 152.984 0 00-9.625-16.012z" fill="#fff"/><path opacity=".1" d="M42.469 235.621c32.858 4.624 36.866 25.341 32.474 41.378-1.227 3.309-6.284 5.874-14.21-11.693l8.36-.369-10.42-3.158-3.782-6.94 8.014-.801-10.811-2.405a152.984 152.984 0 00-9.625-16.012z" fill="#000"/><path d="M52.174 239.291c18.585 9.505 22.6 23.482 20.629 39.174-.698-13.424-1.307-26.976-20.63-39.174z" fill="#fff"/><path d="M108.53 243.387c-30.126.488-36.064 18.713-33.9 33.66.737 3.117 5.009 5.994 14.12-8.952l-7.476-1.299 9.689-1.659 4.191-5.81-7.148-1.643 10.017-.986a137.748 137.748 0 0110.507-13.311z" fill="#83C150"/><path d="M99.377 245.566c-17.815 6.484-23 18.642-22.977 33.003 2.124-11.981 4.176-24.131 22.977-33.003z" fill="#fff"/><path opacity=".2" d="M108.53 243.387c-30.126.488-36.064 18.713-33.9 33.66.737 3.117 5.009 5.994 14.12-8.952l-7.476-1.299 9.689-1.659 4.191-5.81-7.148-1.643 10.017-.986a137.748 137.748 0 0110.507-13.311z" fill="#fff"/><path d="M282.276 213.277c-7.911 5.498-16.831 9.296-23.426 16.662-12.334 13.752-12.623 35.888-2.934 51.62 9.69 15.732 27.714 25.181 46.067 27.345 19.234 2.276 39.454-3.046 54.561-15.228 15.107-12.181 24.716-31.135 24.708-50.49-.008-19.354-9.938-38.693-26.175-49.288-14.818-9.617-36.104-12.414-50.97-1.362-7.51 5.61-12.527 13.841-20.036 19.451-.545.432-1.154.857-1.795 1.29z" fill="#83C150"/><path opacity=".2" d="M282.276 213.277c-7.911 5.498-16.831 9.296-23.426 16.662-12.334 13.752-12.623 35.888-2.934 51.62 9.69 15.732 27.714 25.181 46.067 27.345 19.234 2.276 39.454-3.046 54.561-15.228 15.107-12.181 24.716-31.135 24.708-50.49-.008-19.354-9.938-38.693-26.175-49.288-14.818-9.617-36.104-12.414-50.97-1.362-7.51 5.61-12.527 13.841-20.036 19.451-.545.432-1.154.857-1.795 1.29z" fill="#000"/><path opacity=".1" d="M282.276 213.277c-7.911 5.498-16.831 9.296-23.426 16.662-12.334 13.752-12.623 35.888-2.934 51.62 9.69 15.732 27.714 25.181 46.067 27.345 19.234 2.276 39.454-3.046 54.561-15.228 15.107-12.181 24.716-31.135 24.708-50.49-.008-19.354-9.938-38.693-26.175-49.288-14.818-9.617-36.104-12.414-50.97-1.362-7.51 5.61-12.527 13.841-20.036 19.451-.545.432-1.154.857-1.795 1.29z" fill="#fff"/><path opacity=".1" d="M285.528 293.877c0-.136.04-.265.056-.393a20.833 20.833 0 0116.87-17.327 65.72 65.72 0 0021.639-8.278c4.72-2.854 9.184-6.356 14.482-7.903a23.62 23.62 0 0115.611.906c-4.456-4.672-12.085-6.732-18.184-4.616 4.215-6.468 7.934-13.424 9.393-21.006 1.458-7.581.416-15.908-4.152-22.127a22.25 22.25 0 00-16.747-9.086 22.258 22.258 0 00-17.642 7.194c-4.528 4.953-7.077 11.926-10.05 17.936-2.14 4.32-4.344 8.744-7.87 12.022-5.306 4.969-12.951 6.756-18.433 11.508-6.243 5.394-8.936 14.009-8.96 22.256a65.226 65.226 0 002.404 16.454 62.442 62.442 0 0022.585 13.808 24.464 24.464 0 01-1.002-11.348z" fill="#000"/><path d="M370.953 240.518a56.597 56.597 0 00-48.27-54.922 41.453 41.453 0 00-5.457.913 55.158 55.158 0 0136.746 16.756 55.16 55.16 0 0115.483 37.301c.36 18.04-8.471 36.433-23.61 49.192-11.862 10.001-27.618 16.637-44.945 19.018.369.056.746.104 1.114.144 1.555.184 3.118.312 4.689.401 15.387-2.99 29.324-9.329 40.071-18.433 15.516-13.056 24.54-31.881 24.179-50.37z" fill="#fff"/><path d="M278.541 307.141l1.988 3.935c2.797-2.597 3.309-4.689 3.309-4.689a194.697 194.697 0 00-2.492-8.054c-.264 2.212-1.771 4.111-2.404 6.267a10.929 10.929 0 00-.401 2.541z" fill="#37474F"/><path d="M278.637 311.172l1.891-.096-1.987-3.935c-.056 1.33.056 2.676.096 4.031z" fill="#263238"/><path d="M280.08 293.692a17.398 17.398 0 00-2.349-2.741 9.503 9.503 0 01-.04 5.25c-.585 2.276-1.651 4.415-2.188 6.708-.649 2.789-.497 5.786-1.683 8.399a8.985 8.985 0 01-6.291 5.016 3.957 3.957 0 01-2.997-.36 2.13 2.13 0 01-.802-1.114 19.738 19.738 0 01-2.155 3.51c-.93 1.202-2.092 2.533-1.836 4.007a3.204 3.204 0 002.629 2.405 8.504 8.504 0 003.743-.313 23.355 23.355 0 007.493-3.053 11.22 11.22 0 004.76-6.412 14.33 14.33 0 00.289-3.887c0-1.346-.152-2.701-.096-4.007.031-.859.162-1.712.393-2.541.641-2.155 2.147-4.055 2.404-6.267 0-.12.04-.232.048-.352a7.214 7.214 0 00-1.322-4.248z" fill="#455A64"/><path opacity=".1" d="M280.08 293.692a17.398 17.398 0 00-2.349-2.741 9.503 9.503 0 01-.04 5.25c-.585 2.276-1.651 4.415-2.188 6.708-.649 2.789-.497 5.786-1.683 8.399a8.985 8.985 0 01-6.291 5.016 3.957 3.957 0 01-2.997-.36 2.13 2.13 0 01-.802-1.114 19.738 19.738 0 01-2.155 3.51c-.93 1.202-2.092 2.533-1.836 4.007a3.204 3.204 0 002.629 2.405 8.504 8.504 0 003.743-.313 23.355 23.355 0 007.493-3.053 11.22 11.22 0 004.76-6.412 14.33 14.33 0 00.289-3.887c0-1.346-.152-2.701-.096-4.007.031-.859.162-1.712.393-2.541.641-2.155 2.147-4.055 2.404-6.267 0-.12.04-.232.048-.352a7.214 7.214 0 00-1.322-4.248z" fill="#000"/><path d="M267.53 316.325a8.988 8.988 0 006.291-5.017c1.186-2.613 1.034-5.61 1.683-8.399.537-2.292 1.603-4.432 2.188-6.708a9.503 9.503 0 00.04-5.25c-.225-.224-.449-.448-.681-.665-3.382 1.747-7.213 3.206-10.299 5.434a73.327 73.327 0 01-.753 11.797 27.862 27.862 0 01-2.284 7.333c.136.45.418.842.801 1.114a3.96 3.96 0 003.014.361z" fill="#F28F8F"/><path d="M256.044 305.922c-.553 3.262-3.054 9.906-3.054 9.906s11.709.473 11.974-.064l3.438-5.322-12.358-4.52z" fill="#FFA8A7"/><path d="M291.092 228.28l-29.853 16.621a14.803 14.803 0 00-7.349 15.636l5.794 31.256-4.752 15.107c4.103 5.498 13.52 5.778 13.52 5.778 5.257-10.538 9.112-15.01 12.093-23.842 2.982-8.832 4.977-14.923 4.977-14.923l24.845-6.78a29.415 29.415 0 0021.502-25.021c.425-3.75.441-6.307.441-6.307l-41.218-7.525z" fill="#455A64"/><path opacity=".2" d="M289.088 238.113a14.123 14.123 0 003.342 9.105l-18.826 11.756a15.165 15.165 0 00-6.459 8.416l-7.461 24.403 6.732-27.176a12.32 12.32 0 015.481-7.518l17.215-10.595c-1.987-4.969-.024-8.391-.024-8.391z" fill="#000"/><path d="M259.346 330.975l.272 4.392c3.599-1.282 4.889-3.005 4.889-3.005.425-3.31.737-6.724.881-8.391-1.122 1.931-3.253 3.085-4.688 4.808a10.25 10.25 0 00-1.354 2.196z" fill="#37474F"/><path d="M257.848 334.71l1.771.657-.273-4.392c-.577 1.194-1.009 2.485-1.498 3.735z" fill="#263238"/><path d="M266.038 319.202a17.53 17.53 0 00-1.074-3.438 9.538 9.538 0 01-2.099 4.809c-1.435 1.859-3.262 3.406-4.649 5.297-1.699 2.316-2.741 5.129-4.848 7.061a9.015 9.015 0 01-7.766 2.147 3.958 3.958 0 01-2.605-1.514 2.137 2.137 0 01-.32-1.347 20.086 20.086 0 01-3.358 2.405c-1.331.745-2.926 1.506-3.278 2.989a3.205 3.205 0 001.474 3.206 8.486 8.486 0 003.559 1.186c2.669.517 5.409.563 8.094.136a11.148 11.148 0 006.876-4.007 14.39 14.39 0 001.804-3.462c.488-1.251.921-2.541 1.498-3.735.358-.783.813-1.518 1.355-2.188 1.434-1.731 3.566-2.885 4.688-4.808.056-.097.128-.193.184-.305a7.21 7.21 0 00.465-4.432z" fill="#455A64"/><path d="M245.603 335.087a9.01 9.01 0 007.766-2.148c2.108-1.932 3.149-4.745 4.848-7.061 1.387-1.891 3.206-3.438 4.649-5.297a9.54 9.54 0 002.1-4.809l-.361-.881c-3.799.28-7.902.096-11.613.945a72.598 72.598 0 01-5.329 10.547 27.518 27.518 0 01-4.985 5.851c-.046.472.067.945.32 1.346a3.962 3.962 0 002.605 1.507z" fill="#FFA8A7"/><path d="M321.738 184.145a47.533 47.533 0 00.801-35.584c-1.394-3.638-3.366-7.212-6.596-9.432-4.135-2.789-9.481-2.749-14.465-2.605-2.645.08-5.346.16-7.83 1.074a8.061 8.061 0 00-5.17 5.442c-3.261-.601-6.547 1.971-7.429 5.169-.881 3.198.273 6.676 2.3 9.304 2.028 2.629 4.809 4.512 7.662 6.236-1.715.897-2.981 2.965-3.574 4.808a7.578 7.578 0 00.392 5.61 7.514 7.514 0 00-6.996 4.985 9.425 9.425 0 00-.186 4.453 9.428 9.428 0 001.877 4.042 13.738 13.738 0 007.501 4.697c2.935.685 5.968.848 8.96.48 3.094 2.998 8.76 2.934 12.647 1.074 3.887-1.859 8.383-5.81 10.106-9.753z" fill="#263238"/><path d="M294.048 176.62h-.761c-5.089.056-11.533 3.526-14.682 12.406l-12.23 23.69 13.961 6.187 7.638-22.36 6.074-19.923z" fill="#FFA8A7"/><path d="M284.238 192.344c-.969 2.797-1.033 5.81-1.186 8.815-.152 3.006-.497 6.524-1.851 9.161a8.402 8.402 0 00-10.066.368 7.768 7.768 0 00-2.26 3.206l11.46 5.081 7.638-22.36 3.759-12.326a14.298 14.298 0 00-7.494 8.055z" fill="#F28F8F"/><path d="M280.465 214.639a8.324 8.324 0 00-6.316-5.105c-2.797-.457-5.962 1.01-7.774 3.206-1.522 1.835-1.282 4.328-.32 6.516a8.126 8.126 0 009.312 4.407c3.607-1.017 6.46-5.537 5.098-9.024z" fill="#FFA8A7"/><path d="M295.331 176.187c-5.385.858-8.727 14.482-10.474 19.659-1.812 5.346.649 9.225 3.39 12.454a5.527 5.527 0 011.258 4.28l-5.626 21.054c15.468 11.484 41.402 5.922 48.438 2.172a49.682 49.682 0 00-4.544-21.318 35.124 35.124 0 01-3.43-13.793l-.264-7.726 1.867-13.336-13.432-3.205-11.837-.529a47.034 47.034 0 00-5.346.288z" fill="#83C150"/><path opacity=".4" d="M295.331 176.187c-5.385.858-8.727 14.482-10.474 19.659-1.812 5.346.649 9.225 3.39 12.454a5.527 5.527 0 011.258 4.28l-5.626 21.054c15.468 11.484 41.402 5.922 48.438 2.172a49.682 49.682 0 00-4.544-21.318 35.124 35.124 0 01-3.43-13.793l-.264-7.726 1.867-13.336-13.432-3.205-11.837-.529a47.034 47.034 0 00-5.346.288z" fill="#000"/><path d="M295.21 237.015v-.28l-9.136-17.015v-.144l-.04-.056v-.056l-.08-.112-.048-.048-.041-.056v-.121l-.136-.12h-.192l-.056-.04h-.064l-11.958-7.133h-.801a.251.251 0 00-.16.065l-1.251 1.434h.04c-.104.08-.112.249.041.529l9.136 17.014a5.892 5.892 0 002.019 1.908l10.507 5.914c.537.305.866.313.914.089v.096l1.258-1.435a.172.172 0 000-.064.132.132 0 000-.056l.048-.313zm-23.69-23.978h.112-.112zm12.021 6.788c.096.08.201.16.289.248-.064-.088-.168-.168-.265-.248h-.024zm.657.641l.129.136-.129-.136zm9.754 18.024a.958.958 0 00-.112-.345c.054.098.092.203.112.313 0 0-.008-.016 0 .032z" fill="#455A64"/><path opacity=".15" d="M295.21 237.015v-.28l-9.136-17.015-1.394 1.379 9.144 17.014a.97.97 0 01.112.313c.01.033.011.067.004.101a.204.204 0 01-.044.091l1.258-1.434a.138.138 0 000-.064.137.137 0 000-.057l.056-.048z" fill="#fff"/><path opacity=".2" d="M285.922 219.616v-.096l-.04-.056v-.056l-.08-.112-.048-.048-.04-.057v-.12l-.136-.12h-.193l-.056-.04h-.064l-11.805-7.077h-.801a.256.256 0 00-.161.064l-1.25 1.435c.059-.064.163-.08.313-.048.202.052.397.133.577.24l10.506 5.915c.211.114.412.245.601.393.202.154.395.32.577.496.179.165.345.341.497.529.131.155.247.321.345.497l1.258-1.434v-.305z" fill="#fff"/><path d="M331.098 184.089c-1.49-2.556-3.446-4.52-6.411-4.744 0 0-4.809 2.5-4.809 13.848l.321 28.395c-.697.281-1.395.577-2.084.866a84.988 84.988 0 01-18.264 5.522 18.034 18.034 0 00-11.525-3.911l1.547 2.885c-2.933 1.883-9.569-1.507-9.569-1.507-.489 4.135 2.196 8.431 5.754 10.603 3.558 2.172 37.491-1.018 44.688-5.674 4.736-3.062 3.614-32.338 3.614-32.338a24.484 24.484 0 00-3.262-13.945zm-57.967 32.762a19.612 19.612 0 00-.385 3.39 12.41 12.41 0 003.27 7.261c.385.438.868.779 1.41.994a1.604 1.604 0 001.603-.256 2.457 2.457 0 00.569-1.707 8.999 8.999 0 00-.152-2.749 3.802 3.802 0 00-1.451-2.284 8.143 8.143 0 00-1.835-.802 4.489 4.489 0 01-1.603-1.186l-1.426-2.661zm27.505-46.218v10.723c-1.05.994-2.06 2.132-2.156 3.55a3.705 3.705 0 001.915 3.342 5.217 5.217 0 003.943.385 9.004 9.004 0 003.487-2.02 14.499 14.499 0 004.648-10.178V165.56l-11.837 5.073z" fill="#FFA8A7"/><path d="M312.017 165.56c-1.122 5.898-3.422 11.011-11.38 12.822v-7.789l11.38-5.033z" fill="#F28F8F"/><path d="M309.236 159.357c-.116.944-.116 1.9 0 2.845.13.713.487 1.365 1.018 1.859a2.128 2.128 0 001.94.489 3.713 3.713 0 015.331-4.157 3.712 3.712 0 011.793 2.105 4.628 4.628 0 01-.617 3.887 8.823 8.823 0 01-2.989 2.709 3.136 3.136 0 01-3.799-1.314c-3.422 4.72-9.569 8.407-15.476 8.15a8.428 8.428 0 01-4.544-1.394c-2.292-1.603-2.564-4.224-2.949-6.788a36.155 36.155 0 01-.329-9.794c.537-4.504 2.349-8.992 5.707-12.021 2.38 9.633 11.468 12.847 14.914 13.424z" fill="#FFA8A7"/><path d="M296.927 158.748l-3.831 5.137 3.806 1.138.025-6.275z" fill="#F28F8F"/><path d="M300.443 167.307l-3.101 1.122a1.946 1.946 0 002.172.865 1.749 1.749 0 00.929-1.987z" fill="#AB6160"/><path opacity=".3" d="M300.443 167.307l-3.101 1.122a1.946 1.946 0 002.172.865 1.749 1.749 0 00.929-1.987z" fill="#000"/><path d="M298.479 169.286c.337.1.696.1 1.033 0a1.602 1.602 0 00.946-1.466 1.78 1.78 0 00-1.28.335 1.78 1.78 0 00-.699 1.123v.008z" fill="#AB6160"/><path d="M302.519 159.557a1.125 1.125 0 01-.694 1.037 1.119 1.119 0 01-1.529-.823 1.127 1.127 0 01.484-1.151c.185-.122.403-.187.625-.185a1.11 1.11 0 011.032.693c.055.136.083.282.082.429zm-9.402-.408a1.13 1.13 0 01-1.923.785 1.12 1.12 0 010-1.587 1.123 1.123 0 011.592.003 1.121 1.121 0 01.331.799zm-1.072-4.457l-2.492 1.707a1.598 1.598 0 01.497-1.755 1.895 1.895 0 011.995.048zm9.594-.096l2.476 1.731a1.597 1.597 0 00-.473-1.763 1.905 1.905 0 00-2.003.032z" fill="#263238"/></svg>