<svg width="443" height="460" fill="none" xmlns="http://www.w3.org/2000/svg"><path d="M221.972 389.972c107.68 0 194.972-44.152 194.972-98.616 0-54.465-87.292-98.617-194.972-98.617S27 236.891 27 291.356c0 54.464 87.292 98.616 194.972 98.616z" fill="#fff"/><path d="M110.915 350.124c31.542 0 57.113-14.765 57.113-32.978s-25.571-32.978-57.113-32.978c-31.543 0-57.113 14.765-57.113 32.978s25.57 32.978 57.113 32.978z" fill="#E0E0E0"/><path d="M393.455 281.254l-93.792-53.992a6.317 6.317 0 00-5.732 0l-138.822 80.173c-1.592.907-1.592 2.388 0 3.303l93.793 53.993a6.323 6.323 0 005.731 0l138.822-80.173c1.584-.916 1.584-2.396 0-3.304zm-86.199-191.78l55.72 32.19c3.98 2.285 7.164 7.889 7.164 12.458v110.007l4.729 2.738V133.692c0-6.448-4.569-14.328-10.149-17.584l-57.726-33.344c-5.572-3.184-10.149-.581-10.149 5.866v113.168l4.776 2.754V92.706c.032-3.558 2.555-5.015 5.635-3.232z" fill="#E0E0E0"/><path d="M264.265 335.303c0-5.795 4.075-12.848 9.098-15.745 2.635-1.529 4.999-1.592 6.662-.478l6.13 3.503-13.039 22.168-6.081-3.502c-1.696-.94-2.77-2.985-2.77-5.946z" fill="#455A64"/><path d="M279.731 323.227c-5.023 2.898-9.098 9.95-9.098 15.745s4.075 8.151 9.098 5.254c5.023-2.898 9.106-9.95 9.106-15.753 0-5.803-4.083-8.151-9.106-5.246z" fill="#37474F"/><path d="M282.811 331.943c0-2.26-1.385-3.303-3.08-2.324-1.696.979-3.081 3.614-3.081 5.883 0 2.268 1.377 3.311 3.081 2.324 1.703-.987 3.08-3.614 3.08-5.883z" fill="#263238"/><path d="M269.072 313.548s0 10.348 4.951 14.049c.932.693 1.919 1.17 2.5 1.656 1.265 1.051.429 2.977-1.107 3.805-2.229 1.194-14.368-2.038-19.51-11.94l13.166-7.57z" fill="#F0F0F0"/><path d="M273.785 316.278s0 10.348 4.951 14.05c.931.692 1.918 1.17 2.508 1.655 1.257 1.051.421 2.985-1.115 3.805-2.229 1.194-14.368-2.038-19.51-11.94l13.166-7.57z" fill="#FAFAFA"/><path d="M279.731 332.716a1.919 1.919 0 00-.876 1.512c0 .557.391.796.876.501a1.935 1.935 0 00.868-1.512c0-.549-.39-.78-.868-.501z" fill="#263238"/><path d="M363 278.301c0-5.803 4.076-12.855 9.098-15.753 2.635-1.52 4.999-1.592 6.663-.469l6.129 3.502-13.038 22.161-6.082-3.495c-1.695-.939-2.77-2.993-2.77-5.946z" fill="#455A64"/><path d="M378.466 266.218c-5.022 2.897-9.098 9.95-9.098 15.753 0 5.802 4.076 8.151 9.098 5.253 5.023-2.897 9.075-9.95 9.075-15.753 0-5.802-4.052-8.151-9.075-5.253z" fill="#37474F"/><path d="M381.547 274.942c0-2.269-1.385-3.311-3.081-2.324-1.695.987-3.08 3.613-3.08 5.882 0 2.269 1.377 3.303 3.08 2.324 1.704-.979 3.081-3.613 3.081-5.882z" fill="#263238"/><path d="M367.808 256.578s0 10.348 4.952 14.05c.931.692 1.918 1.17 2.499 1.655 1.266 1.051.43 2.985-1.106 3.805-2.229 1.194-14.368-2.038-19.51-11.94l13.165-7.57z" fill="#F0F0F0"/><path d="M372.52 259.245s0 10.348 4.951 14.049c.932.693 1.919 1.17 2.508 1.664 1.258 1.043.422 2.977-1.115 3.797-2.228 1.194-14.367-2.038-19.51-11.94l13.166-7.57z" fill="#FAFAFA"/><path d="M378.466 275.682a1.924 1.924 0 00-.875 1.513c0 .549.39.796.875.501a1.926 1.926 0 00.868-1.512c0-.502-.39-.749-.868-.502z" fill="#263238"/><path d="M379.684 249.613l-87.56-50.562-143.049 82.585 87.552 50.57 143.057-82.593z" fill="#455A64"/><path d="M379.684 249.613v5.501l-143.057 82.592v-5.5l143.057-82.593z" fill="#37474F"/><path d="M149.075 281.636v5.501l87.552 50.57v-5.501l-87.552-50.57z" fill="#263238"/><path opacity=".1" d="M366.956 249.852l-75.094 43.374-76.591-44.162 75.301-43.262 76.384 44.05z" fill="#000"/><path d="M364.402 198.279l-68.775-39.776-72.683 42.069 68.775 39.776 72.683-42.069z" fill="#83C150"/><path opacity=".7" d="M364.402 198.279l-68.775-39.776-72.683 42.069 68.775 39.776 72.683-42.069z" fill="#fff"/><path d="M291.719 288.418l72.683-42.06v-48.079l-72.683 42.069v48.07z" fill="#83C150"/><path opacity=".6" d="M291.719 288.418l72.683-42.06v-48.079l-72.683 42.069v48.07z" fill="#fff"/><path d="M299.742 272.498a1.238 1.238 0 01-.628-.167 1.906 1.906 0 01-.796-1.727v-5.469l.262.048 3.98-2.348v5.683a4.588 4.588 0 01-1.966 3.718c-.256.16-.55.25-.852.262zm-.796-6.606v4.712a1.33 1.33 0 00.454 1.178.919.919 0 00.868-.096 4.043 4.043 0 001.647-3.184v-.414h-1.48l-.287-1.997-1.202-.199zm2.046 1.592h.923v-3.519l-2.388 1.401 1.179.215.286 1.903z" fill="#455A64"/><path d="M300.459 276.534a.318.318 0 01-.318-.318v-4.283a.318.318 0 11.636 0v4.283a.318.318 0 01-.318.318z" fill="#455A64"/><path d="M298.604 277.609a.314.314 0 01-.278-.16.31.31 0 01-.036-.242.314.314 0 01.147-.195l3.725-2.15a.317.317 0 01.356.025.311.311 0 01.082.095.326.326 0 01-.119.438l-3.718 2.149a.439.439 0 01-.159.04zm13.253-7.371a.799.799 0 01-.358-.088.858.858 0 01-.382-.796v-.836a.329.329 0 01.11-.197.33.33 0 01.424 0 .33.33 0 01.111.197v.876c0 .135 0 .199.063.215.064.016.096 0 .207-.056a1.896 1.896 0 00.597-1.449v-5.691a.319.319 0 01.637 0v5.691c.016.381-.058.76-.216 1.107a2.422 2.422 0 01-.691.891.976.976 0 01-.502.136z" fill="#455A64"/><path d="M308.482 265.263v-.557a9.064 9.064 0 014.092-7.093 2.708 2.708 0 014.418 2.547v.183l-8.51 4.92zm6.01-7.594a3.242 3.242 0 00-1.592.501 8.455 8.455 0 00-3.741 5.97l7.164-4.163a2.387 2.387 0 00-.987-2.085 1.678 1.678 0 00-.844-.223zm8.86 6.01a.32.32 0 01-.319-.319v-10.897a.32.32 0 01.111-.197.325.325 0 01.534.197v10.897a.327.327 0 01-.096.228.334.334 0 01-.106.069.331.331 0 01-.124.022z" fill="#455A64"/><path d="M322.42 254.986a.302.302 0 01-.127 0 .318.318 0 01-.172-.176.328.328 0 01.005-.246l1.138-2.634 1.274 1.472a.319.319 0 01-.486.414l-.605-.692-.732 1.695a.33.33 0 01-.295.167zm3.901 7.005a.314.314 0 01-.231-.09.33.33 0 01-.096-.228v-10.898a.327.327 0 11.645 0v10.898a.318.318 0 01-.318.318z" fill="#455A64"/><path d="M325.381 253.259a.339.339 0 01-.127 0 .306.306 0 01-.104-.071.333.333 0 01-.068-.105.305.305 0 01-.022-.123c0-.043.01-.084.027-.123l1.162-2.627 1.273 1.465a.326.326 0 01.046.354.327.327 0 01-.186.162.331.331 0 01-.246-.017.323.323 0 01-.099-.077l-.605-.701-.732 1.704a.33.33 0 01-.319.159z" fill="#455A64"/><path d="M291.719 288.418l-68.775-39.768v-48.078l68.775 39.776v48.07z" fill="#83C150"/><path opacity=".5" d="M291.719 288.418l-68.775-39.768v-48.078l68.775 39.776v48.07z" fill="#fff"/><path d="M251.815 224.547l4.713 2.715v-7.308l-4.713-2.714v7.307z" fill="#37474F"/><path d="M256.528 219.962l72.683-42.068-4.713-2.723-72.683 42.069 4.713 2.722z" fill="#455A64"/><path d="M253.948 215.998l4.705 2.723 2.626-1.513-4.704-2.722-2.627 1.512z" fill="#37474F"/><path d="M329.434 184.023l-19.256 11.088c-.35.207-.254.581.207.852l21.739 12.553a1.678 1.678 0 001.473.119l19.255-11.096c.35-.199.255-.581-.207-.852l-21.779-12.545a1.662 1.662 0 00-1.432-.119z" fill="#FAFAFA"/><path d="M339.12 202.896a.393.393 0 00.343-.199.398.398 0 00-.144-.541l-18.053-10.42a.4.4 0 00-.508.163.396.396 0 00.11.522l18.053 10.419a.344.344 0 00.199.056zm-2.006 1.146a.401.401 0 00.381-.294.402.402 0 00-.182-.446l-18.045-10.404a.408.408 0 00-.549.144.412.412 0 00.151.549l18.045 10.412a.36.36 0 00.199.039zm-2.005 1.147a.397.397 0 00.38-.295.399.399 0 00-.181-.446l-18.046-10.419a.4.4 0 00-.545.147.4.4 0 00.147.545l18.046 10.42a.46.46 0 00.199.048zm-2.007 1.154a.406.406 0 00.351-.199.415.415 0 00-.152-.549l-18.045-10.412a.397.397 0 10-.398.684l18.045 10.42c.06.037.129.056.199.056z" fill="#E0E0E0"/><path d="M350.996 197.038l-.708-.406-8.215 4.744.701.406 8.222-4.744zm-2.857-1.648l-1.218-.701-8.223 4.752 1.218.693 8.223-4.744zm-2.857-1.656l-.701-.406-8.223 4.752.701.398 8.223-4.744zm-2.141-1.25l-1.417-.804-8.223 4.745 1.417.804 8.223-4.745zm-3.574-2.045l-.701-.406-8.222 4.744.7.406 8.223-4.744zm-2.039-1.202l-1.52-.86-8.223 4.752 1.521.86 8.222-4.752zm-3.669-2.102l-.709-.406-8.214 4.752.7.398 8.223-4.744zm-1.624-.947l-.35-.199-8.223 4.744.35.207 8.223-4.752zm2.882 1.727l-.35-.207-8.223 4.745.35.206 8.223-4.744zm5.787 3.304l-.35-.207-8.223 4.752.35.199 8.223-4.744zm3.144 1.823l-.351-.207-8.222 4.752.35.199 8.223-4.744zm2.229 1.329l-.35-.207-8.223 4.752.35.199 8.223-4.744zm3.128 1.735l-.35-.199-8.223 4.744.35.199 8.223-4.744zm-18.404-10.618l-.708-.406-8.215 4.744.701.406 8.222-4.744z" fill="#455A64"/><path d="M342.073 241.574v12.059c0 .462.327.653.733.422l18.825-10.873a1.596 1.596 0 00.724-1.258v-12.067c0-.462-.326-.653-.724-.422l-18.825 10.881a1.596 1.596 0 00-.733 1.258z" fill="#FAFAFA"/><path d="M361.186 231.162l-.605.35v10.961l.605-.35v-10.961zm-2.476 1.433l-1.051.613v10.961l1.051-.613v-10.961zm-2.475 1.425l-.605.35v10.961l.605-.35V234.02zm-1.863 1.058l-1.218.717v10.969l1.218-.725v-10.961zm-3.088 1.799l-.605.351v10.96l.605-.35v-10.961zm-1.775 1.003l-1.306.772v10.961l1.306-.772V237.88zm-3.169 1.847l-.605.358v10.961l.605-.35v-10.969zm-1.416.804l-.303.175v10.961l.303-.167v-10.969zm2.547-1.401l-.311.183v10.961l.311-.175V239.13zm4.983-2.913l-.303.175v10.961l.303-.175v-10.961zm2.729-1.568l-.31.175v10.961l.31-.176v-10.96zm1.959-1.083l-.302.175v10.961l.302-.175v-10.961zm2.659-1.616l-.303.175v10.961l.303-.175V231.95zm-15.936 9.21l-.605.35v10.961l.605-.35V241.16z" fill="#455A64"/><path opacity=".1" d="M359.729 197.26L293 235.827l-70.581-40.835 66.721-38.566 70.589 40.834z" fill="#000"/><path d="M220.58 142.766l64.014-37.022 72.428 41.91-64.006 37.022-72.436-41.91z" fill="#83C150"/><path opacity=".3" d="M220.58 142.766l64.014-37.022 72.428 41.91-64.006 37.022-72.436-41.91z" fill="#fff"/><path d="M251.257 129.656l19.272 11.088c.35.199.254.581-.207.852l-21.739 12.545a1.666 1.666 0 01-1.473.127l-19.255-11.096c-.35-.207-.255-.581.207-.852l21.771-12.545a1.596 1.596 0 011.424-.119z" fill="#FAFAFA"/><path d="M241.539 148.529a.414.414 0 01-.35-.199.398.398 0 01.151-.541l18.045-10.42a.419.419 0 01.151-.067.383.383 0 01.165 0 .381.381 0 01.151.067.4.4 0 01-.069.685l-18.045 10.42a.378.378 0 01-.199.055zm1.998 1.146a.398.398 0 01-.199-.74l18.053-10.419a.404.404 0 01.316-.068.404.404 0 01.314.346.4.4 0 01-.232.406l-18.053 10.42a.343.343 0 01-.199.055zm2.005 1.147a.397.397 0 01-.199-.741l18.022-10.419a.382.382 0 01.301-.043.386.386 0 01.24.186.403.403 0 01-.143.549l-18.046 10.42a.444.444 0 01-.175.048zm2.006 1.146a.383.383 0 01-.342-.199.398.398 0 01.143-.541l18.046-10.42a.4.4 0 01.398.693l-18.046 10.419a.452.452 0 01-.199.048z" fill="#E0E0E0"/><path d="M229.662 142.671l.701-.406 8.222 4.744-.708.406-8.215-4.744zm2.859-1.656l1.209-.692 8.223 4.744-1.218.7-8.214-4.752zm2.849-1.648l.709-.406 8.214 4.744-.7.406-8.223-4.744zm2.141-1.249l1.417-.804 8.222 4.744-1.417.804-8.222-4.744zm3.574-2.054l.7-.398 8.223 4.744-.7.406-8.223-4.752zm2.038-1.194l1.52-.86 8.223 4.752-1.52.852-8.223-4.744zm3.678-2.101l.7-.406 8.223 4.744-.708.406-8.215-4.744zm1.623-.948l.35-.199 8.215 4.744-.35.199-8.215-4.744zm-2.889 1.72l.35-.199 8.223 4.744-.35.207-8.223-4.752zm-5.787 3.311l.35-.207 8.223 4.744-.35.207-8.223-4.744zm-3.144 1.823l.35-.207 8.222 4.752-.35.199-8.222-4.744zm-2.229 1.329l.358-.207 8.215 4.744-.35.207-8.223-4.744zm-3.129 1.735l.358-.207 8.215 4.753-.35.199-8.223-4.745zm18.412-10.618l.701-.406 8.222 4.744-.708.406-8.215-4.744z" fill="#455A64"/><path d="M293.016 232.754l-72.436-41.909v-48.079l72.436 41.91v48.078zm0 0l64.006-37.022v-48.078l-64.006 37.022v48.078z" fill="#83C150"/><path opacity=".1" d="M293.016 232.754l64.006-37.022v-48.078l-64.006 37.022v48.078z" fill="#000"/><path d="M328.152 171.629l-4.705 2.715v-7.308l4.705-2.714v7.307z" fill="#37474F"/><path d="M323.447 167.044l-72.436-41.909 4.704-2.723 72.436 41.91-4.704 2.722zm-56.985 42.714a3.987 3.987 0 01-1.68-3.184v-4.872l3.415 2.006h.223v4.688a1.593 1.593 0 01-.669 1.473 1.018 1.018 0 01-.533.143 1.592 1.592 0 01-.756-.254zm.382-5.246l-.247 1.711h-1.266v.359a3.444 3.444 0 001.409 2.698.746.746 0 00.741.088 1.128 1.128 0 00.39-1.003v-4.036l-1.027.183zm-.486-.47l1.011-.175-2.038-1.202v3.009h.796l.231-1.632z" fill="#455A64"/><path d="M266.605 213.451a.269.269 0 00.27-.271v-3.661a.27.27 0 00-.464-.192.277.277 0 00-.085.192v3.661a.277.277 0 00.085.192.276.276 0 00.194.079z" fill="#455A64"/><path d="M268.189 214.39a.271.271 0 00.143-.509l-3.184-1.839a.275.275 0 10-.271.478l3.184 1.831a.24.24 0 00.128.039zm9.504 5.628a.65.65 0 00.303-.072.744.744 0 00.326-.66v-.749a.277.277 0 00-.27-.278.28.28 0 00-.279.278v.749a.268.268 0 01-.048.183.255.255 0 01-.183-.048 1.599 1.599 0 01-.509-1.234v-4.863a.278.278 0 00-.271-.279.278.278 0 00-.278.279v4.863a2.074 2.074 0 00.796 1.704c.123.08.266.124.413.127z" fill="#455A64"/><path d="M273.323 211.564v-.159a2.326 2.326 0 012.491-2.713c.475.041.925.227 1.29.532a7.743 7.743 0 013.495 6.066v.477l-7.276-4.203zm1.401-2.101a2.037 2.037 0 00-.851 1.791l6.153 3.55a7.213 7.213 0 00-3.184-5.102 2.8 2.8 0 00-1.361-.422 1.514 1.514 0 00-.757.183zm14.002 16.692a.271.271 0 00.271-.27v-9.314a.271.271 0 00-.271-.27.279.279 0 00-.279.27v9.314a.277.277 0 00.085.191.276.276 0 00.194.079z" fill="#455A64"/><path d="M289.522 218.697a.286.286 0 00.228-.124.286.286 0 00.027-.258l-.94-2.253-1.082 1.258a.27.27 0 000 .382.286.286 0 00.39 0l.517-.597.629 1.448a.272.272 0 00.231.144zm-3.335 6.041a.28.28 0 00.194-.078.28.28 0 00.084-.192v-9.314a.278.278 0 00-.278-.278.276.276 0 00-.271.278v9.314a.27.27 0 00.271.27z" fill="#455A64"/><path d="M286.991 217.248a.26.26 0 00.111 0 .29.29 0 00.145-.155.29.29 0 00-.001-.211l-.98-2.245-1.082 1.25a.272.272 0 00.028.386.285.285 0 00.093.053c.034.011.07.015.106.013a.293.293 0 00.103-.028.3.3 0 00.084-.066l.517-.597.629 1.457a.272.272 0 00.102.108.271.271 0 00.145.035z" fill="#455A64"/><path d="M242.669 186.53v12.02c0 .462-.326.653-.732.422l-18.794-10.85a1.632 1.632 0 01-.724-1.265v-12.084c0-.461.326-.652.732-.414l18.818 10.874a1.6 1.6 0 01.7 1.297z" fill="#FAFAFA"/><path d="M223.589 176.087l.605.35v10.961l-.605-.35v-10.961zm2.468 1.425l1.05.613v10.96l-1.05-.612v-10.961zm2.475 1.425l.605.35v10.961l-.605-.351v-10.96zm1.863 1.058l1.217.724v10.961l-1.217-.724v-10.961zm3.088 1.799l.605.35v10.961l-.605-.35v-10.961zm1.784 1.003l1.297.772v10.969l-1.297-.78v-10.961zm3.168 1.855l.605.35v10.961l-.605-.35v-10.961zm1.409.804l.302.175v10.961l-.302-.175v-10.961zm-2.54-1.401l.302.175v10.961l-.302-.175v-10.961zm-4.983-2.922l.303.176v10.96l-.303-.175v-10.961zm-2.73-1.568l.302.175v10.961l-.302-.175v-10.961zm-1.966-1.082l.31.175v10.961l-.31-.175v-10.961zm-2.659-1.608l.31.175v10.953l-.31-.175v-10.953zm15.936 9.202l.613.35v10.961l-.613-.351v-10.96z" fill="#455A64"/><path opacity=".1" d="M219.434 142.106l69.371 40.142 54.359-31.386-69.491-40.127-54.239 31.371z" fill="#000"/><path d="M216.226 120.192l58.203-33.6 67.899 39.204-58.204 33.599-67.898-39.203z" fill="#83C150"/><path opacity=".1" d="M216.226 120.192l58.203-33.6 67.899 39.204-58.204 33.599-67.898-39.203z" fill="#000"/><path d="M246.911 107.082l19.247 11.088c.351.207.255.581-.206.852l-21.739 12.584a1.688 1.688 0 01-1.473.12l-19.255-11.128c-.35-.199-.255-.581.207-.852l21.747-12.545a1.66 1.66 0 011.472-.119z" fill="#FAFAFA"/><path d="M237.184 125.955a.396.396 0 01-.38-.295.399.399 0 01.181-.445l18.045-10.42a.399.399 0 01.468-.001.405.405 0 01.145.444.39.39 0 01-.215.241l-18.045 10.42a.379.379 0 01-.199.056zm2.006 1.146a.396.396 0 01-.38-.295.399.399 0 01.181-.445l18.045-10.42a.397.397 0 01.582.447.408.408 0 01-.184.246l-18.045 10.411a.379.379 0 01-.199.056zm1.998 1.146a.4.4 0 01-.199-.74l18.045-10.42a.401.401 0 01.585.451.402.402 0 01-.187.242l-18.045 10.419a.42.42 0 01-.199.048zm2.006 1.154a.398.398 0 01-.383-.502.408.408 0 01.184-.246l18.045-10.411a.397.397 0 11.398.684l-18.045 10.42a.369.369 0 01-.199.055z" fill="#E0E0E0"/><path d="M225.308 120.096l.7-.406 8.223 4.744-.709.406-8.214-4.744zm2.849-1.648l1.226-.7 8.215 4.752-1.218.693-8.223-4.745zm2.859-1.655l.708-.406 8.215 4.752-.701.398-8.222-4.744zm2.14-1.25l1.417-.804 8.223 4.744-1.417.804-8.223-4.744zm3.574-2.046l.701-.406 8.223 4.745-.701.406-8.223-4.745zm2.039-1.202l1.52-.859 8.223 4.752-1.521.859-8.222-4.752zm3.677-2.101l.701-.406 8.222 4.752-.7.398-8.223-4.744zm1.616-.947l.358-.199 8.214 4.744-.35.207-8.222-4.752zm-2.881 1.727l.35-.207 8.223 4.744-.351.207-8.222-4.744zm-5.787 3.303l.358-.207 8.214 4.753-.35.199-8.222-4.745zm-3.145 1.823l.358-.207 8.215 4.752-.35.199-8.223-4.744zm-2.221 1.33l.351-.207 8.214 4.752-.35.199-8.215-4.744zm-3.128 1.735l.351-.199 8.214 4.744-.35.199-8.215-4.744zm18.404-10.619l.7-.406 8.223 4.744-.709.406-8.214-4.744z" fill="#455A64"/><path d="M284.124 181.802l-67.898-39.203v-22.407l67.898 39.203v22.407z" fill="#83C150"/><path opacity=".2" d="M284.124 181.802l-67.898-39.203v-22.407l67.898 39.203v22.407z" fill="#000"/><path d="M284.124 181.802l58.204-33.607v-22.399l-58.204 33.599v22.407z" fill="#83C150"/><path opacity=".3" d="M284.124 181.802l58.204-33.607v-22.399l-58.204 33.599v22.407z" fill="#000"/><path d="M319.268 146.348l-4.712 2.715v-7.3l4.712-2.722v7.307z" fill="#37474F"/><path d="M314.555 141.763l-67.899-39.203 4.705-2.722 67.906 39.203-4.712 2.722zm-56.977 17.035a3.943 3.943 0 01-1.68-3.184v-4.864l3.415 2.006.223-.04v4.673a1.642 1.642 0 01-.668 1.48 1.051 1.051 0 01-.534.136 1.5 1.5 0 01-.756-.207zm.382-5.238l-.255 1.703h-1.257v.359a3.457 3.457 0 001.409 2.706.747.747 0 00.732.08 1.106 1.106 0 00.398-1.003v-4.028l-1.027.183zm-.485-.47l1.01-.183-2.037-1.194v2.977h.796l.231-1.6z" fill="#455A64"/><path d="M257.713 162.491a.276.276 0 00.194-.079.277.277 0 00.085-.192v-3.653a.28.28 0 00-.279-.279.281.281 0 00-.271.279v3.653a.272.272 0 00.271.271z" fill="#455A64"/><path d="M259.305 163.446a.265.265 0 00.239-.143.28.28 0 00-.104-.374l-3.184-1.831a.276.276 0 00-.101-.035.275.275 0 00-.273.139.262.262 0 00-.03.203.275.275 0 00.046.094.28.28 0 00.08.069l3.184 1.839c.043.026.093.04.143.039zm9.528 5.62a.634.634 0 00.295-.079.715.715 0 00.334-.661v-.748a.276.276 0 00-.279-.271.27.27 0 00-.27.271v.748c0 .111 0 .175-.056.183-.056.008-.08 0-.175-.048a1.59 1.59 0 01-.509-1.234v-4.863a.272.272 0 00-.465-.192.277.277 0 00-.085.192v4.863c-.011.328.055.654.194.951.138.298.344.558.602.761a.895.895 0 00.414.127z" fill="#455A64"/><path d="M264.439 160.613v-.16a2.32 2.32 0 013.773-2.181 7.745 7.745 0 013.502 6.066v.477l-7.275-4.202zm1.393-2.102a2.042 2.042 0 00-.876 1.751l6.153 3.55a7.158 7.158 0 00-3.184-5.094 2.75 2.75 0 00-1.369-.43c-.256.01-.506.087-.724.223zm14.002 16.692a.276.276 0 00.194-.079.277.277 0 00.085-.191v-9.322a.277.277 0 00-.085-.191.276.276 0 00-.385 0 .271.271 0 00-.08.191v9.322a.271.271 0 00.271.27z" fill="#455A64"/><path d="M280.638 167.737a.255.255 0 00.103 0 .272.272 0 00.091-.058.27.27 0 00.078-.196.25.25 0 00-.026-.104l-.971-2.245-1.09 1.25a.279.279 0 000 .39.272.272 0 00.382 0l.517-.597.629 1.456a.28.28 0 00.129.093c.05.019.105.022.158.011zm-3.335 6.057a.275.275 0 00.197-.081.277.277 0 00.081-.197v-9.313a.276.276 0 00-.278-.271.27.27 0 00-.271.271v9.313a.277.277 0 00.271.278z" fill="#455A64"/><path d="M278.107 166.296a.255.255 0 00.103 0 .258.258 0 00.15-.148.27.27 0 00.019-.106.27.27 0 00-.026-.104l-.971-2.253-1.09 1.258a.278.278 0 00.087.443.265.265 0 00.295-.061l.517-.597.629 1.449a.285.285 0 00.287.119z" fill="#455A64"/><path d="M238.347 138.245v12.059c0 .462-.327.653-.725.422l-18.833-10.873a1.593 1.593 0 01-.732-1.258v-12.067c0-.462.326-.653.732-.422l18.817 10.873a1.604 1.604 0 01.741 1.266z" fill="#FAFAFA"/><path d="M219.234 127.833l.605.35v10.961l-.605-.35v-10.961zm2.468 1.433l1.051.613v10.961l-1.051-.621v-10.953zm2.476 1.425l.613.35v10.961l-.613-.35v-10.961zm1.87 1.059l1.21.716v10.961l-1.21-.716V131.75zm3.081 1.799l.605.35v10.961l-.605-.35v-10.961zm1.783 1.003l1.298.772v10.961l-1.298-.773v-10.96zm3.168 1.846l.605.358v10.961l-.605-.358v-10.961zm1.409.804l.303.175v10.961l-.303-.175v-10.961zm-2.54-1.401l.303.183v10.953l-.303-.175v-10.961zm-4.982-2.913l.302.175v10.961l-.302-.175v-10.961zm-2.731-1.568l.303.175v10.961l-.303-.175V131.32zm-1.958-1.083l.303.175v10.961l-.303-.175v-10.961zm-2.659-1.616l.303.175v10.961l-.303-.175v-10.961zm15.929 9.21l.613.35v10.961l-.613-.35v-10.961z" fill="#455A64"/><path opacity=".1" d="M248.663 273.103l-53.181 30.67-39.808-23.012 53.308-30.598 39.681 22.94z" fill="#000"/><path d="M160.529 182.741l48.501-27.995 35.573 20.529-48.5 28.003-35.574-20.537z" fill="#83C150"/><path opacity=".1" d="M160.529 182.741l48.501-27.995 35.573 20.529-48.5 28.003-35.574-20.537z" fill="#000"/><path d="M208.56 158.766l-14.885 8.573c-.271.159-.199.454.159.661l16.812 9.703c.168.101.358.162.554.178.196.017.393-.011.576-.083l14.893-8.581c.271-.159.199-.445-.159-.66l-16.812-9.696a1.299 1.299 0 00-1.138-.095z" fill="#FAFAFA"/><path d="M216.082 173.357a.29.29 0 00.152-.04.309.309 0 00-.001-.534l-13.954-8.055a.32.32 0 00-.422.119.312.312 0 00.112.414l13.954 8.056a.276.276 0 00.159.04zm-1.552.891a.32.32 0 00.151-.041.319.319 0 00.153-.224.292.292 0 00-.061-.229.313.313 0 00-.091-.079l-13.954-8.056a.308.308 0 00-.231-.033.29.29 0 00-.183.145.306.306 0 00.019.343.317.317 0 00.092.079l13.954 8.055a.321.321 0 00.151.04zm-1.553.884a.308.308 0 00.293-.228.31.31 0 00-.133-.345l-13.954-8.056a.315.315 0 00-.422.112.31.31 0 00.111.421l13.954 8.056a.27.27 0 00.151.04zm-1.543.891a.32.32 0 00.151-.041.316.316 0 00.152-.224.292.292 0 00-.007-.121.295.295 0 00-.145-.187l-13.954-8.024a.28.28 0 00-.112-.04.281.281 0 00-.119.007.285.285 0 00-.183.145.306.306 0 00-.034.234.313.313 0 00.145.188l13.946 8.055a.393.393 0 00.16.008z" fill="#E0E0E0"/><path d="M225.26 168.827l-.542-.31-6.352 3.669.541.311 6.353-3.67zm-2.205-1.273l-.947-.534-6.352 3.67.939.533 6.36-3.669zm-2.212-1.274l-.542-.318-6.352 3.669.542.319 6.352-3.67zm-1.656-.971l-1.091-.621-6.36 3.67 1.099.621 6.352-3.67zm-2.762-1.584l-.542-.31-6.352 3.669.542.311 6.352-3.67zm-1.576-.923l-1.171-.661-6.36 3.669 1.178.661 6.353-3.669zm-2.842-1.624l-.542-.319-6.352 3.67.542.318 6.352-3.669zm-1.25-.733l-.271-.159-6.352 3.67.27.159 6.353-3.67zm2.229 1.33l-.27-.159-6.361 3.669.279.159 6.352-3.669zm4.473 2.555l-.271-.159-6.36 3.669.279.16 6.352-3.67zm2.428 1.409l-.27-.151-6.352 3.661.27.159 6.352-3.669zm1.727 1.027l-.271-.16-6.36 3.678.271.151 6.36-3.669zm2.42 1.345l-.271-.159-6.36 3.669.271.16 6.36-3.67zm-14.232-8.215l-.542-.31-6.36 3.669.542.319 6.36-3.678z" fill="#455A64"/><path d="M196.103 300.366l-35.574-20.536v-97.089l35.574 20.537v97.088z" fill="#83C150"/><path opacity=".2" d="M196.103 300.366l-35.574-20.536v-97.089l35.574 20.537v97.088z" fill="#000"/><path d="M196.103 300.366l48.5-28.003v-97.088l-48.5 28.003v97.088z" fill="#83C150"/><path opacity=".3" d="M196.103 300.366l48.5-28.003v-97.088l-48.5 28.003v97.088z" fill="#000"/><path d="M221.964 195.653l-4.704 2.714v-7.307l4.704-2.715v7.308z" fill="#37474F"/><path d="M217.261 191.06l-35.566-20.529 4.705-2.723 35.565 20.537-4.704 2.715zm-47.713 86.31a3.984 3.984 0 01-1.68-3.184v-4.872l3.415 2.006h.223v4.681a1.589 1.589 0 01-.669 1.472 1.03 1.03 0 01-.533.144 1.59 1.59 0 01-.756-.247zm.382-5.246l-.247 1.712h-1.266v.358a3.44 3.44 0 001.409 2.698.757.757 0 00.741.088c.143-.122.254-.277.322-.452s.091-.365.068-.551v-4.036l-1.027.183zm-.486-.469l1.011-.176-2.038-1.202v3.017h.796l.231-1.639z" fill="#455A64"/><path d="M169.692 281.063a.27.27 0 00.27-.27v-3.662a.271.271 0 00-.27-.271.28.28 0 00-.279.271v3.662a.28.28 0 00.084.192c.052.05.122.078.195.078z" fill="#455A64"/><path d="M171.275 281.979a.27.27 0 00.135-.51l-3.184-1.838a.263.263 0 00-.208-.026.263.263 0 00-.096.048.28.28 0 00-.096.289.275.275 0 00.13.166l3.184 1.831a.205.205 0 00.135.04zm9.529 5.643a.645.645 0 00.302-.071.743.743 0 00.327-.661v-.748a.303.303 0 00-.006-.12.276.276 0 00-.269-.206.274.274 0 00-.213.099.29.29 0 00-.056.107.303.303 0 00-.006.12v.748a.27.27 0 01-.047.183.254.254 0 01-.183-.048 1.58 1.58 0 01-.51-1.233v-4.856a.276.276 0 00-.079-.194.277.277 0 00-.192-.085.28.28 0 00-.197.082.28.28 0 00-.081.197v4.864a2.074 2.074 0 00.796 1.703.794.794 0 00.414.119z" fill="#455A64"/><path d="M176.409 279.177v-.159a2.33 2.33 0 011.129-2.412 2.323 2.323 0 012.652.231 7.749 7.749 0 013.495 6.065v.478l-7.276-4.203zm1.401-2.102a2.032 2.032 0 00-.851 1.791l6.153 3.55a7.213 7.213 0 00-3.184-5.102c-.41-.255-.879-.4-1.362-.422a1.513 1.513 0 00-.756.183zm13.994 16.692a.28.28 0 00.194-.078.28.28 0 00.084-.192v-9.313a.276.276 0 00-.278-.271.27.27 0 00-.271.271v9.313a.27.27 0 00.271.27z" fill="#455A64"/><path d="M192.609 286.309a.296.296 0 00.111 0 .292.292 0 00.086-.061.29.29 0 00.056-.09.284.284 0 00.017-.104.26.26 0 00-.024-.103l-.971-2.309-1.082 1.258a.269.269 0 00.195.459.289.289 0 00.195-.077l.509-.597.629 1.449a.286.286 0 00.279.175zm-3.336 6.018a.278.278 0 00.278-.271v-9.313a.278.278 0 00-.278-.279.277.277 0 00-.192.085.276.276 0 00-.079.194v9.313a.272.272 0 00.271.271z" fill="#455A64"/><path d="M190.077 284.86a.264.264 0 00.112 0 .286.286 0 00.143-.366l-.995-2.261-1.083 1.25a.296.296 0 00-.053.093.265.265 0 00.016.209.267.267 0 00.158.137.272.272 0 00.293-.081l.51-.597.628 1.457a.277.277 0 00.271.159z" fill="#455A64"/><path d="M192.863 264.045v12.051c0 .47-.326.653-.724.422l-18.826-10.865a1.602 1.602 0 01-.732-1.266v-12.059c0-.47.318-.653.724-.422l18.826 10.873a1.602 1.602 0 01.732 1.266z" fill="#FAFAFA"/><path d="M173.751 253.633l.605.35v10.961l-.605-.35v-10.961zm2.476 1.425l1.042.621v10.961l-1.042-.621v-10.961zm2.475 1.433l.605.35v10.961l-.605-.35v-10.961zm1.862 1.051l1.218.724v10.961l-1.218-.717v-10.968zm3.082 1.798l.612.359v10.961l-.612-.351V259.34zm1.782 1.011l1.297.773v10.96l-1.297-.772v-10.961zm3.169 1.847l.605.35v10.961l-.605-.35v-10.961zm1.408.804l.302.175v10.961l-.302-.175v-10.961zm-2.539-1.401l.302.175v10.961l-.302-.175v-10.961zm-4.983-2.921l.303.183v10.953l-.303-.167V258.68zm-2.73-1.56l.302.175v10.961l-.302-.175V257.12zm-1.958-1.083l.302.175v10.961l-.302-.175v-10.961zm-2.659-1.616l.302.175v10.961l-.302-.175v-10.961zm15.936 9.21l.605.35v10.961l-.605-.35v-10.961z" fill="#455A64"/><path opacity=".1" d="M292.156 298.185l-53.181 30.67-40.834-23.514 53.3-30.598 40.715 23.442z" fill="#000"/><path d="M204.31 257.868l48.508-28.003 35.565 20.536-48.5 28.004-35.573-20.537z" fill="#83C150"/><path opacity=".3" d="M204.31 257.868l48.508-28.003 35.565 20.536-48.5 28.004-35.573-20.537z" fill="#fff"/><path d="M252.34 233.892l-14.885 8.573c-.271.159-.199.454.159.661l16.812 9.703a1.274 1.274 0 001.138.088l14.885-8.573c.271-.159.199-.454-.159-.661l-16.811-9.695a1.262 1.262 0 00-.558-.186 1.269 1.269 0 00-.581.09z" fill="#FAFAFA"/><path d="M259.862 248.483a.32.32 0 00.151-.041.319.319 0 00.153-.224.292.292 0 00-.007-.121.295.295 0 00-.145-.187l-13.954-8.048a.318.318 0 00-.215-.001.312.312 0 00-.088.535l13.946 8.055a.38.38 0 00.159.032zm-1.552.931a.31.31 0 00.271-.159.32.32 0 00-.12-.422l-13.946-8.095a.31.31 0 00-.452.349.3.3 0 00.142.184l13.954 8.056a.276.276 0 00.151.087zm-1.544.844a.31.31 0 00.151-.573l-13.954-8.056a.313.313 0 00-.422.112.325.325 0 00-.028.233.322.322 0 00.14.189l13.954 8.047a.355.355 0 00.159.048zm-1.552.892a.305.305 0 00.263-.16.301.301 0 00-.112-.421l-13.954-8.048a.292.292 0 00-.112-.038.314.314 0 00-.224.06.331.331 0 00-.078.089.322.322 0 00-.03.23.31.31 0 00.142.184l13.954 8.056a.263.263 0 00.151.048z" fill="#E0E0E0"/><path d="M269.04 243.954l-.541-.319-6.353 3.678.542.31 6.352-3.669zm-2.205-1.274l-.939-.541-6.36 3.669.947.542 6.352-3.67zm-2.212-1.281l-.541-.311-6.353 3.67.542.31 6.352-3.669zm-1.648-.964l-1.098-.62-6.36 3.669 1.098.621 6.36-3.67zm-2.762-1.583l-.549-.319-6.352 3.67.541.318 6.36-3.669zm-1.584-.932l-1.17-.66-6.353 3.669 1.171.669 6.352-3.678zm-2.834-1.624l-.541-.31-6.36 3.669.541.311 6.36-3.67zm-1.258-.724l-.271-.159-6.352 3.669.271.152 6.352-3.662zm2.229 1.329l-.27-.159-6.352 3.67.27.159 6.352-3.67zm4.474 2.555l-.271-.159-6.352 3.67.271.159 6.352-3.67zm2.436 1.409l-.271-.159-6.36 3.67.271.159 6.36-3.67zm1.718 1.027l-.27-.159-6.353 3.67.263.159 6.36-3.67zm2.42 1.345l-.27-.159-6.36 3.67.27.159 6.36-3.67zm-14.232-8.214l-.541-.311-6.353 3.67.542.31 6.352-3.669z" fill="#455A64"/><path d="M239.883 325.647l-35.573-20.536v-47.243l35.573 20.537v47.242z" fill="#83C150"/><path d="M239.883 325.647l-35.573-20.536v-47.243l35.573 20.537v47.242zm0 0l48.5-28.003v-47.243l-48.5 28.004v47.242z" fill="#83C150"/><path opacity=".1" d="M239.883 325.647l48.5-28.003v-47.243l-48.5 28.004v47.242z" fill="#000"/><path d="M265.744 270.771l-4.704 2.722v-7.307l4.704-2.714v7.299z" fill="#37474F"/><path d="M261.041 266.186l-35.565-20.537 4.704-2.714 35.565 20.537-4.704 2.714zm22.853 26.913a.789.789 0 01-.35-.088 1.085 1.085 0 01-.438-.979v-3.072h.143l2.253-1.322v3.184a2.588 2.588 0 01-1.107 2.094 1.05 1.05 0 01-.501.183zm-.43-3.717v2.65a.733.733 0 00.263.661.484.484 0 00.485-.056 2.255 2.255 0 00.924-1.775v-.239h-.796l-.168-1.122-.708-.119zm1.154.883h.518v-1.982l-1.338.796.661.119.159 1.067z" fill="#455A64"/><path d="M284.299 295.383a.17.17 0 01-.124-.051.173.173 0 01-.051-.124v-2.388a.18.18 0 01.037-.153.182.182 0 01.321.153v2.388a.164.164 0 01-.014.069.173.173 0 01-.169.106z" fill="#455A64"/><path d="M283.265 295.988a.18.18 0 01-.159-.087.18.18 0 01-.018-.136.181.181 0 01.082-.111l2.093-1.21a.184.184 0 01.272.13.188.188 0 01-.004.071.173.173 0 01-.085.11l-2.093 1.209a.171.171 0 01-.088.024zm-6.288 3.726a.427.427 0 01-.199-.048.486.486 0 01-.215-.438v-.462a.183.183 0 01.183-.183.19.19 0 01.183.183v.613c0 .008.056 0 .119 0a1.074 1.074 0 00.335-.796v-3.184a.17.17 0 01.001-.081.18.18 0 01.099-.122.18.18 0 01.157 0 .185.185 0 01.1.122.201.201 0 01.001.081v3.184c.008.214-.034.427-.122.622a1.387 1.387 0 01-.388.501.508.508 0 01-.254.008z" fill="#455A64"/><path d="M275.082 296.912v-.311a5.092 5.092 0 012.3-3.98 1.533 1.533 0 011.749-.157 1.53 1.53 0 01.743 1.59v.104l-4.792 2.754zm3.407-4.275c-.319.014-.629.11-.9.279a4.774 4.774 0 00-2.109 3.359l4.052-2.34a1.313 1.313 0 00-.558-1.17.898.898 0 00-.485-.128zm-8.756 11.12a.17.17 0 01-.124-.051.17.17 0 01-.051-.124v-6.137a.17.17 0 01.001-.081.182.182 0 01.32-.072.185.185 0 01.037.153v6.137a.181.181 0 01-.054.127.177.177 0 01-.129.048z" fill="#455A64"/><path d="M269.2 298.838h-.072a.197.197 0 01-.091-.102.196.196 0 01-.004-.137l.644-1.48.717.796c.023.036.032.08.025.123a.175.175 0 01-.06.11.18.18 0 01-.236.005l-.342-.39-.414.956a.182.182 0 01-.167.119zm2.196 3.972a.186.186 0 01-.129-.054.181.181 0 01-.054-.129v-6.137a.19.19 0 01.183-.183.181.181 0 01.183.183v6.137a.178.178 0 01-.054.129.178.178 0 01-.129.054z" fill="#455A64"/><path d="M270.871 297.891h-.072a.173.173 0 01-.1-.099.167.167 0 01-.012-.07c0-.025.006-.048.017-.07l.644-1.481.709.796a.177.177 0 010 .255.184.184 0 01-.255 0l-.334-.398-.422.955a.178.178 0 01-.068.087.169.169 0 01-.107.025z" fill="#455A64"/><path d="M243.703 306.121v12.06c0 .462.326.653.724.422l18.826-10.866a1.59 1.59 0 00.732-1.265v-12.068c0-.461-.326-.652-.732-.414l-18.826 10.874a1.6 1.6 0 00-.724 1.257z" fill="#FAFAFA"/><path d="M262.816 295.718l-.605.35v10.961l.605-.35v-10.961zm-2.476 1.425l-1.043.613v10.96l1.043-.612v-10.961zm-2.467 1.424l-.613.351v10.961l.613-.351v-10.961zm-1.871 1.059l-1.218.724v10.961l1.218-.724v-10.961zm-3.081 1.799l-.605.35v10.961l.605-.35v-10.961zm-1.783 1.003l-1.297.772v10.969l1.297-.78v-10.961zm-3.168 1.855l-.605.35v10.961l.605-.35v-10.961zm-1.409.804l-.302.175v10.961l.302-.175v-10.961zm2.539-1.401l-.302.175v10.961l.302-.175v-10.961zm4.984-2.922l-.303.176v10.96l.303-.175v-10.961zm2.73-1.568l-.302.175v10.961l.302-.175v-10.961zm1.958-1.082l-.302.175v10.961l.302-.175v-10.961zm2.658-1.616l-.302.183v10.961l.302-.175v-10.969zm-15.935 9.21l-.605.35v10.961l.605-.351v-10.96z" fill="#455A64"/><path d="M132.35 287.025c.263-4.227 2.532-46.805 2.532-46.805l-20.696 14.599c3.613 24.334 4.409 31.673 4.561 35.733-.085.34-.117.692-.096 1.042.112 4.824 5.891 7.347 10.42 10.5a84.437 84.437 0 0012.218 7.323c3.28 1.504 9.871 1.552 10.651-.446-5.508-3.869-11.884-8.095-16.294-12.537-2.094-2.125-3.622-4.338-3.296-9.409z" fill="#FFA8A7"/><path d="M161.325 314.026c.278 0 .748 2.913-.741 4.179-1.719 1.456-6.805 3.876-13.595 3.144-6.79-.733-10.507-2.683-13.262-4.776-2.754-2.094-6.606-5.11-9.687-5.708-2.858-.557-5.978-1.735-6.901-2.563-.924-.827-.876-4.545-.876-4.545l45.062 10.269z" fill="#263238"/><path d="M118.699 289.374a1.075 1.075 0 00-1.011.883c-.191 1.035-.358 4.02-.796 5.707-.581 2.349-.907 7.164-.501 9.051.406 1.886 5.078 3.184 8.071 4.187a38.316 38.316 0 019.719 5.636c3.232 2.451 9.982 4.863 14.4 4.855 6.742 0 11.08-1.799 12.386-4.123 1.592-2.874.278-4.505-7.539-7.809-1.48-.629-6.686-3.455-8.469-4.481-4.776-2.77-9.552-6.663-11.868-11.662a2.811 2.811 0 00-1.139-1.528 2.578 2.578 0 00-1.52-.08c-1.284.192-2.534.57-3.709 1.123-1.035.485-2.5 1.05-2.452 2.316.035.444.143.88.318 1.29.096.254.176.597-.055.756-.231.159-.526 0-.733-.183a20.741 20.741 0 01-2.133-2.388 7.22 7.22 0 00-1.25-1.17 15.13 15.13 0 01-1.345-.796c-.446-.438-.342-.948-.374-1.584z" fill="#37474F"/><path d="M154.71 308.318c-9.751.796-12.736 6.559-13.063 10.11a23.88 23.88 0 006.958 1.281c6.742 0 11.358-1.799 12.664-4.123 1.52-2.73.414-4.88-6.559-7.268z" fill="#FAFAFA"/><path d="M140.072 308.605a.54.54 0 01-.303-.096.442.442 0 01-.161-.479.442.442 0 01.082-.158 11.761 11.761 0 018.756-3.438.46.46 0 01.43.493.47.47 0 01-.518.414 10.89 10.89 0 00-7.96 3.097.46.46 0 01-.326.167zm-4.243-2.269a.51.51 0 01-.302-.095.443.443 0 01-.124-.131.434.434 0 01.044-.506 11.702 11.702 0 018.756-3.439.465.465 0 01.318.158.47.47 0 01.112.336.48.48 0 01-.517.414 10.807 10.807 0 00-7.96 3.096.512.512 0 01-.327.167zm-3.948-2.603a.525.525 0 01-.302-.095.436.436 0 01-.08-.637 11.722 11.722 0 018.756-3.439.464.464 0 01.334.15.462.462 0 01.115.348.46.46 0 01-.35.398.453.453 0 01-.187.004 10.89 10.89 0 00-7.96 3.096.484.484 0 01-.326.175zm-3.837-2.579a.442.442 0 01-.294-.087.44.44 0 01-.096-.637c1.831-2.277 6.026-3.813 9.552-3.494a.465.465 0 01.407.314c.02.057.027.118.023.179a.47.47 0 01-.517.406c-3.184-.279-7.117 1.13-8.756 3.144a.468.468 0 01-.319.175z" fill="#F0F0F0"/><path d="M98.258 252.765l-21.572-4.664c-.565 13.349-.223 31.418-.676 43.947-.088 2.388-1.314 18.308-.63 23.195 1.02 7.355 10.882 6.878 11.694 2.548.812-4.331 1.528-22.838 1.695-24.756.454-8.032 5.04-21.492 8.247-35.82.16-.693 1.09-3.765 1.242-4.45z" fill="#FFA8A7"/><path d="M90.56 321.054c-.087 4.291-.708 7.164-2.316 9.727-1.608 2.564-4.776 3.479-8.135 2.866s-7.626-2.388-8.756-6.073c-1.13-3.686-1.035-6.193-.47-10.189l19.678 3.669z" fill="#263238"/><path d="M76.057 290.512c-1.353.151-1.489 5.906-2.006 11.685-.557 6.201-2.523 8.828-3.04 13.906-.59 5.811-.128 8.382 2.324 11.789 2.451 3.407 10.738 6.527 14.51 1.377 3.073-4.195 3.002-8.756 2.445-14.479-.59-5.954-1.051-10.133-.98-14.671.064-4.33.796-8.366-.39-8.803-.055.636-.111 1.448-.175 2.069-.056.486-.08 2.834-.796 2.882a7.96 7.96 0 01-.095-1.632 1.763 1.763 0 00-.43-1.377 5.25 5.25 0 00-2.133-.709c-1.346-.183-2.699-.342-4.06-.398h-2.03a6.25 6.25 0 00-1.711.279 1.156 1.156 0 00-.7.613c-.048.22-.048.448 0 .669a4.26 4.26 0 01-.12 1.186c0 .175-.167.39-.358.35-.191-.04-.231-.199-.24-.334v-2.022c0-.374.049-.892 0-1.266-.047-.374-.03-.74-.015-1.114z" fill="#37474F"/><path d="M70.788 319.462c-.072 3.59.27 6.042 2.197 8.709 2.452 3.406 11.39 6.519 15.124 1.369 1.879-2.563 2.276-5.525 2.388-8.541-2.515-3.758-16.08-4.952-19.709-1.537z" fill="#FAFAFA"/><path d="M86.796 314.861a.64.64 0 01-.167-.039 22.327 22.327 0 00-11.741-.629.507.507 0 01-.613-.311.427.427 0 01.18-.477.43.43 0 01.17-.064 22.937 22.937 0 0112.402.669.414.414 0 01.264.23.423.423 0 01-.002.351.528.528 0 01-.493.27zm-11.773-4.951a.5.5 0 01-.438-.286.422.422 0 01.286-.573c5.994-2.038 12.116.461 12.378.573a.418.418 0 01.284.416.424.424 0 01-.045.173.533.533 0 01-.669.207c-.063 0-6.01-2.444-11.59-.542a.583.583 0 01-.206.032zm.159-4.107a.522.522 0 01-.438-.271.437.437 0 01.279-.581 17.446 17.446 0 0112.624.526.414.414 0 01.199.605.541.541 0 01-.684.175 16.59 16.59 0 00-11.757-.486.436.436 0 01-.223.032z" fill="#F0F0F0"/><path d="M75.389 301.226a.507.507 0 01-.438-.263.424.424 0 01.005-.351.432.432 0 01.266-.23c6.16-2.3 12.457.518 12.736.645a.41.41 0 01.241.25.419.419 0 01-.034.347.541.541 0 01-.677.191c-.064 0-6.137-2.754-11.86-.621a.435.435 0 01-.24.032z" fill="#EBEBEB"/><path d="M85.745 143.387c-.51 24.294-4.848 78.255-4.848 78.255-.366 2.985-4.688 15.673-4.848 26.467a2366.462 2366.462 0 01-.613 29.754s9.465 3.749 16.414 1.155c0 0 9.035-35.996 11.574-47.227 3.017-13.381 10.547-38.256 10.547-38.256l-.549 35.358a97.177 97.177 0 00-.279 21.381c.796 7.164 3.693 26.992 3.693 26.992s8.709 1.759 16.255-.477c0 0 4.545-42.65 4.919-49.209.43-7.482 2.738-82.736 2.738-82.736l-55.003-1.457z" fill="#455A64"/><path d="M113.971 193.535l3.383-22.543s8.255-.326 13.914-5.627c0 0-.708 5.293-11.032 8.477l-3.908 19.009-3.025 35.382.668-34.698z" fill="#37474F"/><path d="M128.705 72.559c4.386-.23 12.553-.51 18.427 6.718 4.124 5.079 15.371 17.297 21.747 25.369 4.275-4.45 14.631-15.228 16.334-18.38a49.82 49.82 0 003.869-9.273 33.016 33.016 0 001.361-5.787c.318-2.405.358-4.838.119-7.252-.048-2.189 3.184-1.066 4.458 2.388.63 1.922.95 3.932.947 5.954 1.21-.573 4.72-2.3 5.261-2.547 1.911-.891 7.96-3.017 8.55.398.135.796-.112 1.592.222 2.3.19.321.414.62.669.892a3.903 3.903 0 01.47 3.98 3.11 3.11 0 00-.327 1.815c.158.643.185 1.312.08 1.966a7.845 7.845 0 01-.796 1.409 6.016 6.016 0 00-.525 2.014 7.748 7.748 0 01-.462 2.038c-.669 1.512-2.5 1.862-3.908 2.388a66.844 66.844 0 00-6.313 2.46c-3.375 2.228-12.489 18.705-21.715 29.26-3.184 3.622-5.994 5.883-8.994 5.493-2.428-.056-5.429-2.253-8.319-4.776-9.193-7.96-23.959-23.546-23.959-23.546-6.161-7.475-7.857-20.266-7.196-25.281z" fill="#FFA8A7"/><path d="M132.82 71.333c2.914.454 4.92.366 8.629 2.476 3.264 1.846 4.434 3.415 8.215 7.641 3.781 4.227 12.815 15.212 12.815 15.212s-3.844 9.194-15.753 12.529l-13.181-12.784-.725-25.074z" fill="#455A64"/><path d="M198.41 72.647c-1.878.66-2.388 1.934-2.212 4.656.079 1.592-.303 4.617-2.022 5.875a4.166 4.166 0 002.26-1.067c.796-.883 1.027-.987 1.497-.51a3.04 3.04 0 001.242.653 2.113 2.113 0 00-.12 2.508c.892 1.377 4.681 1.281 7.729-.422 0 0-4.983 1.727-6.2.167-1.218-1.56 1.385-3.654 3.351-4.259 0 0-4.824 1.314-5.62-.262-.796-1.576 1.178-2.842 3.98-3.662 0 0-3.98.86-4.728-.485-.852-1.632.334-2.635.843-3.192z" fill="#F28F8F"/><path d="M88.045 73.825s-4.672 4.107-5.866 8.549c-.59 2.18-1.123 3.98.724 16.119 1.76 11.566 1.751 15.028 2.157 24.039l.454 24.198c6.925 8.104 40.492 12.513 56.651 1.592 0 0 .096-41.885-1.051-55.72-.796-9.377-3.645-18.18-6.877-21.062a147.71 147.71 0 00-8.613-1.273l-16.158-.94-21.42 4.498z" fill="#83C150"/><path d="M133.752 40.241c2.157-4.935.047-11.486-2.524-14.558-3.717-4.442-9.504-6.368-18.228-5.82-6.631.415-13.158 3.185-14.4 9.975-5.333 1.592-4.72 10.348-3.399 14.208 2.69 7.833 7.96 14.655 8.072 18.666l30.479-22.47z" fill="#37474F"/><path d="M133.751 58.677c-1.05 3.78-3.239 6.559-6.742 7.108a29.564 29.564 0 01-5.524 0l.143 4.824c4.705 4.028 2.977 9.321-.159 14.089-3.908-4.338-8.374-5.882-12.274-7.602a12.514 12.514 0 01-5.684-5.508l-.501-16.27s-2.141 2.435-5.668.135a7.697 7.697 0 01-2.388-9.433c1.744-3.685 5.246-2.165 6.368-1.042 1.123 1.122 2.333 3.231 3.232 2.937a3.269 3.269 0 002.173-2.213 19.896 19.896 0 001.138-7.164 9.612 9.612 0 002.667-2.085 8.835 8.835 0 002.388-5.477c7.562-2.388 16.262-1.25 19.406 1.186 1.807 3.184 1.871 10.587 2.174 14.853.334 4.633.127 8.502-.749 11.662z" fill="#FFA8A7"/><path d="M121.485 65.809c-3.869-.215-11.654-2.022-13.723-4.187-2.07-2.165-2.953-6.575-2.953-6.575s.31 5.572 1.91 8.04c1.6 2.467 5.652 3.542 8.111 4.147a60.74 60.74 0 006.726 1.027l-.071-2.452z" fill="#F28F8F"/><path d="M121.461 84.722c-2.022-1.242-6.487-6.312-8.756-3.98-2.268 2.332-3.415 3.009-4.879 2.571-1.465-.438-4.713-3.638-6.83-5.978a13.578 13.578 0 01-2.786-5.7 38.73 38.73 0 002.985-4.154c1.003-1.783.796-2.285 2.078-2.388l.111 3.367s.796 1.838 4.458 4.322c3.661 2.483 11.008 6.217 13.619 11.94z" fill="#455A64"/><path d="M121.461 84.722c1.21-1.099 3.184-6.233 3.693-6.081.796.222 2.158 3.764 2.826 2.937 1.059-1.306.732-7.26-1.027-9.425-1.759-2.165-4.099-4.474-5.42-4.696l.095 3.184a12.833 12.833 0 011.306 5.126c-.016 1.79-1.218 7.228-1.473 8.955z" fill="#455A64"/><path d="M119.041 44.54a1.591 1.591 0 11-3.182.001 1.591 1.591 0 013.182-.001zm-2.189-5l-3.136 2.118a1.995 1.995 0 01.533-2.722 1.87 1.87 0 012.603.605zm15.172 1.466l-3.478-1.664a1.858 1.858 0 011.792-1.13c.251.011.497.073.723.183a2.011 2.011 0 01.963 2.61zm-1.162 3.438a1.592 1.592 0 11-3.184-.002 1.592 1.592 0 013.184.002z" fill="#263238"/><path d="M122.631 41.18l1.13 11.248 6.042-1.823-7.172-9.424z" fill="#F28F8F"/><path d="M119.034 55.047l6.471 1.433a3.252 3.252 0 01-2.584 2.638 3.27 3.27 0 01-1.3-.011 3.464 3.464 0 01-2.587-4.06z" fill="#B16668"/><path d="M121.62 59.107c.134.027.27.043.406.047a3.008 3.008 0 00-3.008-2.937 3.42 3.42 0 002.602 2.89z" fill="#F28F8F"/><path d="M173.862 109.732l-42.307 8.279-15.617 50.84 40.301-8.939 17.623-50.18z" fill="#263238"/><path opacity=".15" d="M138.583 148.004a9.74 9.74 0 01-6.853 7.06c-5.572 1.465-11.351-.668-11.351-.668l1.305-4.251 16.899-2.141zm22.615-31.577l.445-1.592c.247-.86-2.189-1.059-5.444-.43l-6.233 1.194c-3.256.621-6.097 1.831-6.368 2.69l-.446 1.592 18.046-3.454z" fill="#000"/><path d="M164.469 110.624c.159-.534-.796-.749-2.189-.462l-2.468.517s.948-3.391-4.521-2.539c-5.469.852-6.893 4.681-6.893 4.681l-2.635.565c-1.457.318-2.81 1.003-3.009 1.536l-.374.971 21.794-4.266s.144-.462.295-1.003z" fill="#83C150"/><path opacity=".3" d="M164.469 110.624c.159-.534-.796-.749-2.189-.462l-2.468.517s.948-3.391-4.521-2.539c-5.469.852-6.893 4.681-6.893 4.681l-2.635.565c-1.457.318-2.81 1.003-3.009 1.536l-.374.971 21.794-4.266s.144-.462.295-1.003z" fill="#000"/><path d="M143.877 118.48c.207-.716 2.205-1.671 4.776-2.324 0-.096.048-.183.072-.255.191-.796-.104-1.234-1.64-.931l-.088-.613 15.124-2.826-.66.621c-1.998.342-2.834.557-3.184 1.887l-.088.302c2.388-.271 3.98 0 3.781.685l-.446 1.592-18.021 3.454.374-1.592z" fill="#83C150"/><path opacity=".4" d="M143.877 118.48c.207-.716 2.205-1.671 4.776-2.324 0-.096.048-.183.072-.255.191-.796-.104-1.234-1.64-.931l-.088-.613 15.124-2.826-.66.621c-1.998.342-2.834.557-3.184 1.887l-.088.302c2.388-.271 3.98 0 3.781.685l-.446 1.592-18.021 3.454.374-1.592z" fill="#000"/><path d="M125.019 139.296c5.174 1.735 10.348 1.862 15.729 1.854 1.314 0 2.309.199 2.699 1.449.135.446.318 1.059-1.377 1.592a2.396 2.396 0 00-1.322.685c-.39.621-.199 1.241-.302 1.966a5.498 5.498 0 01-1.592 2.746 12.843 12.843 0 01-2.659 2.483c-3.279 2.062-8.334 2.317-12.067 1.712a40.554 40.554 0 01-7.443-2.197c-2.284-.844-16.158-4.935-17.806-5.508-12.25-4.275-29.094-9.552-30.089-15.323-.995-5.771 2.125-23.88 4.354-38.638 1.8-11.94 6.63-16.159 14.456-17.79 8.58 9.742 3.184 26.625 3.184 26.625l-3.12 22.495c1.32 1.099 21.364 12.346 24.826 13.469 1.25.406 3.606-.088 4.856-.518 3.343-1.138 5.644-1.043 8.883-.899" fill="#FFA8A7"/><path d="M88.046 73.825c-8.319 1.138-13.238 5.397-14.925 13.452-1.41 6.766-4.028 28.616-4.028 28.616 5.524 4.872 14.59 4.609 19.502 2.906l2.531-17.512c2.046-4.53 5.246-17.926-3.08-27.462zm-5.374 70.979l-4.194 2.324a2.04 2.04 0 00-.956 1.592c-.103 3.757-.406 16.676.191 23.753a2.279 2.279 0 001.02 1.592c2.387 1.345 8.867 4.895 11.836 5.715a3.68 3.68 0 002.022-.223l2.993-1.194a1.698 1.698 0 00.97-1.456c0-7.507 1.33-15.769 2.572-23.952a1.52 1.52 0 00-.796-1.504l-13.747-6.695a2.31 2.31 0 00-1.91.048z" fill="#455A64"/><path d="M77.745 172.449c-.597-7.076-.295-19.987-.192-23.753a.62.62 0 01.98-.589l12.823 6.368a1.67 1.67 0 01.868 1.529 201.678 201.678 0 00-.629 22.845.794.794 0 01-.584.876.799.799 0 01-.38.008c-2.968-.796-9.432-4.371-11.836-5.716a2.283 2.283 0 01-1.05-1.568z" fill="#37474F"/><path d="M90.76 179.756a3.774 3.774 0 001.862-.246l2.993-1.202a1.744 1.744 0 00.964-1.449c.589-7.713 1.329-15.769 2.579-23.952a1.314 1.314 0 00-.152-.796l-6.94 3.184c.114.232.167.49.15.748-.65 7.6-.86 15.23-.628 22.854a.8.8 0 01-.498.803.793.793 0 01-.33.056zm-10.714-28.393l9.417 4.553-.494 7.674-9.186-4.044s.064-4.935.263-8.183z" fill="#263238"/><path d="M89.04 163.001l-8.756-3.829s.056-4.354.231-7.57l8.923 4.314-.398 7.085z" fill="#83C150"/><path opacity=".4" d="M89.04 163.001l-8.756-3.829s.056-4.354.231-7.57l8.923 4.314-.398 7.085z" fill="#000"/><path d="M93.418 150.877L91.078 152l-8.437-4.131 2.276-1.147 8.501 4.155z" fill="#263238"/><path d="M93.068 151.045l-1.99.955L83 148.036l1.926-.971 8.143 3.98z" fill="#83C150"/><path opacity=".4" d="M93.068 151.045l-1.99.955L83 148.036l1.926-.971 8.143 3.98z" fill="#000"/><path opacity=".4" d="M91.866 150.456l-2.006.939-.254-.12 1.997-.947.263.128zm-1.798-.884l-1.983.955-.294-.143 2.006-.939.27.127zm-1.792-.868l-1.998.94-.255-.12 1.99-.947.263.127zm-1.632-.796l-1.998.94-.254-.128 1.99-.947.262.135z" fill="#000"/><path d="M89.374 166.208l-.071.94a.359.359 0 01-.526.326l-1.703-.692a.798.798 0 01-.454-.733l.056-.971a.354.354 0 01.166-.309.352.352 0 01.35-.009l1.729.716a.799.799 0 01.453.732zm.016 3.081l-.055.947a.359.359 0 01-.517.335l-1.712-.677a.794.794 0 01-.47-.716l.017-.956a.354.354 0 01.157-.315.347.347 0 01.352-.019l1.743.693a.79.79 0 01.486.708zm.016 3.08v.948a.357.357 0 01-.336.379.357.357 0 01-.181-.037l-1.76-.661a.796.796 0 01-.477-.716v-.971a.349.349 0 01.157-.316.356.356 0 01.352-.019l1.744.661a.796.796 0 01.501.732zm.017 3.081v.947a.355.355 0 01-.155.321.352.352 0 01-.355.029l-1.735-.62a.794.794 0 01-.494-.701v-.971a.348.348 0 01.321-.384.352.352 0 01.18.034l1.76.637a.795.795 0 01.478.708zm-3.862-10.985l-.055.987a.343.343 0 01-.51.327l-1.695-.701a.793.793 0 01-.47-.732l.048-1.011a.337.337 0 01.154-.312.332.332 0 01.347-.006l1.72.716a.792.792 0 01.461.732zm-.015 3.065l-.048.979a.35.35 0 01-.509.334l-1.696-.692a.802.802 0 01-.47-.733v-1.011a.343.343 0 01.51-.318l1.72.708a.802.802 0 01.493.733zm-.016 3.08v.987a.343.343 0 01-.51.327l-1.703-.685a.794.794 0 01-.47-.724v-1.011a.346.346 0 01.155-.311.347.347 0 01.347-.016l1.727.709a.797.797 0 01.454.724zm-.008 3.033v.987a.35.35 0 01-.51.334l-1.703-.676a.797.797 0 01-.477-.725v-1.011a.343.343 0 01.501-.326l1.728.693a.797.797 0 01.461.724zM81.74 162.73v1.027a.332.332 0 01-.153.312.332.332 0 01-.348.006l-1.68-.7a.797.797 0 01-.477-.733v-1.05a.336.336 0 01.494-.319l1.71.717a.796.796 0 01.455.74zm.017 2.977v1.027a.332.332 0 01-.154.312.332.332 0 01-.348.006l-1.68-.7a.796.796 0 01-.477-.733v-1.05a.336.336 0 01.327-.364.335.335 0 01.175.045l1.703.717a.84.84 0 01.454.74zm.008 2.969v1.027a.343.343 0 01-.51.326l-1.68-.7a.802.802 0 01-.47-.733v-1.05a.326.326 0 01.494-.319l1.704.717a.832.832 0 01.462.732zm.008 2.977v1.027a.331.331 0 01-.15.318.33.33 0 01-.351.008l-1.68-.7a.796.796 0 01-.477-.733v-1.05a.336.336 0 01.326-.364.335.335 0 01.175.045l1.704.717a.79.79 0 01.453.732z" fill="#263238"/><path d="M252.222 69.582l-9.847 5.708 3.908 8.755a.913.913 0 00.374.414l3.383 1.959a.91.91 0 001.322-.526l4.243-14.383-3.383-1.927z" fill="#83C150"/><path opacity=".15" d="M252.222 69.582l-9.847 5.708 3.908 8.755a.913.913 0 00.374.414l3.383 1.959a.91.91 0 001.322-.526l4.243-14.383-3.383-1.927z" fill="#000"/><path d="M245.789 77.24l3.908 8.756a.904.904 0 00.883.535.9.9 0 00.805-.647l4.243-14.383-9.839 5.739z" fill="#83C150"/><path d="M264.639 14.212L227.545 35.65a1.877 1.877 0 00-.852 1.472v46.073a1.867 1.867 0 00.852 1.448l3.057 1.712a1.9 1.9 0 001.711 0l37.118-21.436a1.866 1.866 0 00.851-1.473V17.381a1.861 1.861 0 00-.851-1.465l-3.057-1.712a1.91 1.91 0 00-1.735.008z" fill="#83C150"/><path opacity=".5" d="M270.243 17.23c-.064-.43-.414-.582-.844-.335l-37.078 21.428a1.734 1.734 0 00-.605.637l-4.776-2.706c.143-.248.346-.456.589-.605l37.11-21.437a1.887 1.887 0 011.703 0l3.057 1.712a1.872 1.872 0 01.844 1.305z" fill="#fff"/><path d="M231.43 85.868V39.804a1.865 1.865 0 01.891-1.48l37.118-21.43c.477-.27.851-.055.851.487v46.072a1.866 1.866 0 01-.851 1.473l-37.118 21.436c-.517.27-.891.048-.891-.494z" fill="#83C150"/><path opacity=".15" d="M232.321 86.362a1.96 1.96 0 01-1.711 0l-3.065-1.72a1.855 1.855 0 01-.852-1.464V37.12c.01-.308.104-.608.271-.867l4.776 2.706a1.682 1.682 0 00-.255.844v46.064c-.055.494.295.78.836.494z" fill="#000"/><path d="M235.402 52.627a.417.417 0 01-.304-.12.417.417 0 01-.126-.301v-8.024a.409.409 0 01.215-.366l6.949-3.98a.404.404 0 01.422 0 .42.42 0 01.215.366v7.992a.431.431 0 01-.207.366l-6.95 3.98a.427.427 0 01-.214.087zm.429-8.198v7.036l6.09-3.518V40.91l-6.09 3.519z" fill="#FAFAFA"/><path d="M243.162 38.164a.843.843 0 00-1.106.446l-3.184 7.578-.796-.74a.838.838 0 00-.6-.24.847.847 0 00-.773.532.836.836 0 00.008.646.839.839 0 00.187.271l1.648 1.592a.851.851 0 00.589.24h.167a.839.839 0 00.605-.502l3.701-8.717a.795.795 0 00-.446-1.106zm5.079 1.401l17.719-10.229c.613-.358 1.115-.103 1.115.566a2.39 2.39 0 01-1.115 1.854l-17.719 10.229c-.613.35-1.106.095-1.106-.573a2.39 2.39 0 011.106-1.847z" fill="#455A64"/><path d="M235.402 64.663a.397.397 0 01-.215-.056.442.442 0 01-.215-.374v-8.016a.421.421 0 01.215-.374l6.949-3.98a.435.435 0 01.422 0 .441.441 0 01.215.374v7.984a.425.425 0 01-.215.374l-6.941 3.98a.434.434 0 01-.215.088zm.421-8.199v7.029l6.098-3.526v-7.021l-6.098 3.518z" fill="#FAFAFA"/><path d="M243.162 50.192a.851.851 0 00-1.106.453l-3.184 7.578-.796-.74a.856.856 0 00-.597-.248.84.84 0 00-.597.248.858.858 0 000 1.194l1.647 1.592a.805.805 0 00.589.239.598.598 0 00.168 0 .798.798 0 00.605-.494l3.661-8.756a.841.841 0 00-.39-1.066zm5.079 1.368l17.719-10.228c.613-.358 1.115-.103 1.115.565a2.398 2.398 0 01-1.115 1.847l-17.719 10.237c-.613.35-1.106.095-1.106-.574a2.39 2.39 0 011.106-1.846z" fill="#455A64"/><path d="M235.402 76.683a.396.396 0 01-.215-.064.409.409 0 01-.215-.366v-8.008a.409.409 0 01.215-.366l6.949-3.98a.403.403 0 01.422 0 .42.42 0 01.215.366v7.992a.42.42 0 01-.215.366l-6.942 3.98a.443.443 0 01-.214.08zm.421-8.207v7.036l6.098-3.518v-7.02l-6.098 3.502z" fill="#FAFAFA"/><path d="M243.162 62.227a.843.843 0 00-1.106.446l-3.184 7.578-.796-.74a.843.843 0 00-1.433.616.842.842 0 00.255.594l1.648 1.591a.851.851 0 00.589.24h.167a.839.839 0 00.605-.502l3.661-8.756a.797.797 0 00-.406-1.067zm5.079 1.329L265.96 53.32c.613-.35 1.115-.096 1.115.573a2.398 2.398 0 01-1.115 1.847l-17.719 10.228c-.613.358-1.106.104-1.106-.565a2.39 2.39 0 011.106-1.847z" fill="#455A64"/></svg>