<svg width="443" height="460" fill="none" xmlns="http://www.w3.org/2000/svg"><path d="M224.107 399c98.911 0 179.094-46.294 179.094-103.401 0-57.106-80.183-103.4-179.094-103.4-98.91 0-179.093 46.294-179.093 103.4C45.014 352.706 125.197 399 224.107 399z" fill="#fff"/><path d="M276.965 249.887l-150.286 86.941c-4.38 2.535-12.032 2.218-17.093-.705l-19.93-11.462c-5.053-2.914-5.607-7.334-1.227-9.869l150.325-86.973c4.38-2.526 12.032-2.21 17.093.713l19.89 11.486c5.061 2.915 5.608 7.335 1.228 9.869zm53.536 107.797c24.795 0 44.896-11.607 44.896-25.925 0-14.319-20.101-25.926-44.896-25.926-24.796 0-44.897 11.607-44.897 25.926 0 14.318 20.101 25.925 44.897 25.925zM77.569 296.447c5.592 3.224 5.592 8.452 0 11.675-5.593 3.224-14.638 3.224-20.223 0-5.584-3.223-5.584-8.451 0-11.675 5.585-3.224 14.678-3.224 20.223 0zm148.653 29.862l-80.002 45.76c-3.588 2.067-9.854 1.806-13.996-.579l-9.41-5.441c-4.143-2.377-4.595-6.004-1.006-8.08l80.041-45.751c3.588-2.076 9.854-1.814 13.997.578l9.41 5.434c4.103 2.392 4.554 6.012.966 8.079z" fill="#E0E0E0"/><path d="M221.66 345.256l-32.104 18.615c-3.588 2.067-9.854 1.806-13.996-.587l-9.411-5.433c-4.142-2.377-4.594-6.005-1.005-8.08l32.103-18.614c3.589-2.068 9.854-1.806 13.997.586l9.418 5.434c4.142 2.416 4.586 6.028.998 8.079z" fill="#E0E0E0"/><path d="M66.56 276.47s10.78-10.535 4.642-28.175c-3.438-9.885-14.836-17.101-21.355-17.83a30.512 30.512 0 015.07 8.555l8.174 5.433-7.517-2.376 1.584 6.432s6.994 4.23 8.024 5.149l-7.533-1.973s.626 18.234 8.911 24.785z" fill="#83C150"/><path opacity=".4" d="M66.56 276.47s10.78-10.535 4.642-28.175c-3.438-9.885-14.836-17.101-21.355-17.83a30.512 30.512 0 015.07 8.555l8.174 5.433-7.517-2.376 1.584 6.432s6.994 4.23 8.024 5.149l-7.533-1.973s.626 18.234 8.911 24.785z" fill="#000"/><path d="M66.561 276.47s5.545-22.036-2.677-34.892c0 0 9.68 11.343 2.677 34.892z" fill="#fff"/><path d="M54.218 279.449l13.189-.159h.134l13.197.159s.15 16.261-4.856 22.875c-1.386 1.759-4.626 2.987-8.404 2.987-3.778 0-7.034-1.236-8.412-3.002-4.998-6.614-4.848-22.86-4.848-22.86z" fill="#37474F"/><path d="M54.212 279.449c0 3.96 5.94 7.128 13.268 7.128 7.326 0 13.26-3.168 13.26-7.128 0-3.961-5.941-7.129-13.26-7.129-7.32 0-13.268 3.231-13.268 7.129z" fill="#455A64"/><path d="M67.48 277.563c-4.563 0-8.429 1.466-9.791 3.493a2.865 2.865 0 01-.53-1.584c0-2.812 4.617-5.085 10.297-5.085 5.679 0 10.297 2.273 10.297 5.085a2.911 2.911 0 01-.523 1.584c-1.323-2.027-5.204-3.493-9.75-3.493z" fill="#263238"/><path d="M67.478 284.55c5.407 0 9.79-1.564 9.79-3.494 0-1.929-4.383-3.493-9.79-3.493-5.407 0-9.79 1.564-9.79 3.493 0 1.93 4.383 3.494 9.79 3.494z" fill="#E0E0E0"/><path d="M67.313 281.936s5.117-.198 9.505-6.987c1.806-2.804 2.677-4.269 2.677-4.269l-7.129-.531 7.984-1.996 3.763-5.766-6.622-.492s4.935-1.734 8.46-1.75c0 0 6.107-10.796 7.92-12.333a34.636 34.636 0 00-24.135 11.992c-10.067 11.874-3.913 22.433-2.423 22.132z" fill="#83C150"/><path d="M67.31 281.936s-3.168-19.256 17.205-30.837c0 0-21.204 10.195-17.204 30.837z" fill="#fff"/><path d="M67.313 281.936s-4.626.301-9.22-5.41a201.475 201.475 0 01-2.82-3.604l6.337-1.149-7.39-1.046-3.96-4.847 5.932-1.07s-4.618-1.093-7.794-.792c0 0-6.527-9.164-8.286-10.384a31.428 31.428 0 0122.9 8.547c10.242 9.782 5.68 19.889 4.301 19.755z" fill="#83C150"/><path opacity=".2" d="M67.313 281.936s-4.626.301-9.22-5.41a201.475 201.475 0 01-2.82-3.604l6.337-1.149-7.39-1.046-3.96-4.847 5.932-1.07s-4.618-1.093-7.794-.792c0 0-6.527-9.164-8.286-10.384a31.428 31.428 0 0122.9 8.547c10.242 9.782 5.68 19.889 4.301 19.755z" fill="#000"/><path d="M67.313 281.936s1.077-17.672-18.424-26.187c0 0 20.064 7.168 18.424 26.187z" fill="#fff"/><path d="M217.771 295.504a1.367 1.367 0 01-1.323-1.018 1.374 1.374 0 01.642-1.54l56.778-32.54a5.782 5.782 0 00.142-9.964l-4.499-2.701a15.678 15.678 0 00-15.913-.127l-4.935 2.82a12.738 12.738 0 01-11.707 0c-1.79-1.03-2.82-2.551-2.82-4.167 0-1.616 1.03-3.168 2.82-4.174l8.261-4.753a9.331 9.331 0 004.65-8.04v-28.032a1.37 1.37 0 011.37-1.37 1.372 1.372 0 011.387 1.354v28.033a12.084 12.084 0 01-1.622 6.007 12.084 12.084 0 01-4.398 4.401l-8.262 4.752c-.919.531-1.45 1.189-1.45 1.798 0 .61.531 1.268 1.45 1.798a10.078 10.078 0 008.967 0l4.895-2.827a18.427 18.427 0 0118.693.158l4.499 2.693a8.534 8.534 0 014.132 7.383 8.535 8.535 0 01-4.258 7.311l-56.786 32.595c-.22.113-.466.165-.713.15z" fill="#83C150"/><path opacity=".2" d="M217.771 295.504a1.367 1.367 0 01-1.323-1.018 1.374 1.374 0 01.642-1.54l56.778-32.54a5.782 5.782 0 00.142-9.964l-4.499-2.701a15.678 15.678 0 00-15.913-.127l-4.935 2.82a12.738 12.738 0 01-11.707 0c-1.79-1.03-2.82-2.551-2.82-4.167 0-1.616 1.03-3.168 2.82-4.174l8.261-4.753a9.331 9.331 0 004.65-8.04v-28.032a1.37 1.37 0 011.37-1.37 1.372 1.372 0 011.387 1.354v28.033a12.084 12.084 0 01-1.622 6.007 12.084 12.084 0 01-4.398 4.401l-8.262 4.752c-.919.531-1.45 1.189-1.45 1.798 0 .61.531 1.268 1.45 1.798a10.078 10.078 0 008.967 0l4.895-2.827a18.427 18.427 0 0118.693.158l4.499 2.693a8.534 8.534 0 014.132 7.383 8.535 8.535 0 01-4.258 7.311l-56.786 32.595c-.22.113-.466.165-.713.15z" fill="#000"/><path d="M251.199 212.326a3.396 3.396 0 01-3.398-3.39v-9.506h6.796v9.506a3.397 3.397 0 01-3.398 3.39z" fill="#83C150"/><path opacity=".4" d="M251.199 212.326a3.396 3.396 0 01-3.398-3.39v-9.506h6.796v9.506a3.397 3.397 0 01-3.398 3.39z" fill="#000"/><path d="M232.067 259.654l-23.613 13.466a12.155 12.155 0 01-12.055 0l-15.129-8.714-1.727-.998a11.805 11.805 0 01-4.319-4.323 11.807 11.807 0 01-1.582-5.903v-43.565l35.414-20.27v44.5a10.207 10.207 0 005.102 8.832l17.917 10.345a3.83 3.83 0 011.912 3.317 3.83 3.83 0 01-1.92 3.313z" fill="#263238"/><path d="M203.409 274.641a12.107 12.107 0 005.046-1.585l23.612-13.465a3.832 3.832 0 001.916-3.315 3.822 3.822 0 00-1.916-3.315l-12.238-7.066h-16.42v28.746z" fill="#37474F"/><path d="M231.648 250.101l.657.523a4.499 4.499 0 011.688 3.517v2.202h-2.377l.032-6.242z" fill="#37474F"/><path d="M211.797 192.714v40.064a9.87 9.87 0 004.935 8.547l14.915 8.8a3.698 3.698 0 010 6.416l-1.695.966-21.189 12.024a11.733 11.733 0 01-11.659 0l-14.678-8.665a9.869 9.869 0 01-4.935-8.547v-40.08l34.306-19.525z" fill="#455A64"/><path d="M211.797 232.778v-40.064l-34.306 19.525v40.04a9.869 9.869 0 004.935 8.547l33.799-19.842a9.854 9.854 0 01-4.428-8.206zM103.24 282.094l-3.897 2.258v7.129a13.9 13.9 0 01-7.129-1.957l-.301-.182a7.702 7.702 0 01-3.564-4.887 4.65 4.65 0 01-.206-1.347v-9.719l15.097 8.705z" fill="#263238"/><path d="M272.686 20.147l-.309-.19A13.971 13.971 0 00265.248 18a4.5 4.5 0 00-2.281.602L94.995 115.23a13.587 13.587 0 00-6.797 11.771v146.388l15.05 8.713 159.616-91.773a13.594 13.594 0 006.796-11.77V26.769h6.789a7.717 7.717 0 00-3.763-6.622z" fill="#37474F"/><path d="M89.599 120.902a13.688 13.688 0 00-1.442 6.099v146.388l15.05 8.713 5.648-3.263V132.847l-19.256-11.945z" fill="#263238"/><path d="M94.947 277.302v9.719a4.45 4.45 0 006.678 3.849l168.028-96.636a13.589 13.589 0 006.796-11.77v-9.949L94.947 277.302z" fill="#37474F"/><path d="M276.449 26.38a4.451 4.451 0 00-6.677-3.857L101.743 119.16a13.589 13.589 0 00-6.796 11.771v146.38L276.45 172.515" fill="#455A64"/><path d="M266.713 33.121h-.04a4.827 4.827 0 00-2.21.515l-157.921 90.783a12.015 12.015 0 00-6.004 10.4v124.724a3.87 3.87 0 00.325 1.584 3.963 3.963 0 003.987 2.329 3.964 3.964 0 001.558-.483l157.952-90.815a12.004 12.004 0 006.004-10.392V37.042a3.962 3.962 0 00-3.651-3.92z" fill="#83C150"/><path opacity=".5" d="M266.713 33.121h-.04a4.827 4.827 0 00-2.21.515l-157.921 90.783a12.015 12.015 0 00-6.004 10.4v124.724a3.87 3.87 0 00.325 1.584 3.963 3.963 0 003.987 2.329 3.964 3.964 0 001.558-.483l157.952-90.815a12.004 12.004 0 006.004-10.392V37.042a3.962 3.962 0 00-3.651-3.92z" fill="#fff"/><path d="M117.396 127.682l151.069-87.226c1.735-1.006 3.288-.926 4.397 0l5.227 3.612-3.564 4.412v121.825c0 4.468-2.717 9.648-6.06 11.581l-149.58 86.339-.277 4.752-5.545-3.778c-1.101-.832-1.774-2.456-1.774-4.689V139.263c.048-4.468 2.757-9.648 6.107-11.581z" fill="#83C150"/><path opacity=".2" d="M117.396 127.682l151.069-87.226c1.735-1.006 3.288-.926 4.397 0l5.227 3.612-3.564 4.412v121.825c0 4.468-2.717 9.648-6.06 11.581l-149.58 86.339-.277 4.752-5.545-3.778c-1.101-.832-1.774-2.456-1.774-4.689V139.263c.048-4.468 2.757-9.648 6.107-11.581z" fill="#fff"/><path d="M116.486 268.074v-125.27a15.126 15.126 0 012.027-7.201l-5.394-3.097a14.988 14.988 0 00-1.782 6.757v125.271c0 2.233.673 3.857 1.774 4.689l5.078 3.477c-1.014-.84-1.703-2.44-1.703-4.626z" fill="#83C150"/><path opacity=".3" d="M118.536 272.946l.087.055a.491.491 0 01-.087-.055z" fill="#83C150"/><path d="M122.545 272.66l151.077-87.234c3.351-1.932 6.068-7.128 6.068-11.572V48.575c0-4.46-2.717-6.51-6.068-4.578l-151.077 87.226c-3.351 1.933-6.06 7.129-6.06 11.581v125.27c0 4.468 2.709 6.519 6.06 4.586z" fill="#83C150"/><path d="M122.545 272.66l151.077-87.234c3.351-1.932 6.068-7.128 6.068-11.572V48.575c0-4.46-2.717-6.51-6.068-4.578l-151.077 87.226c-3.351 1.933-6.06 7.129-6.06 11.581v125.27c0 4.468 2.709 6.519 6.06 4.586z" fill="#83C150"/><path opacity=".7" d="M122.545 272.66l151.077-87.234c3.351-1.932 6.068-7.128 6.068-11.572V48.575c0-4.46-2.717-6.51-6.068-4.578l-151.077 87.226c-3.351 1.933-6.06 7.129-6.06 11.581v125.27c0 4.468 2.709 6.519 6.06 4.586z" fill="#fff"/><path d="M122.545 131.223l151.077-87.226c3.351-1.933 6.067.119 6.067 4.578v6.123l-163.172 94.26v-6.123c-.032-4.499 2.677-9.679 6.028-11.612z" fill="#83C150"/><path opacity=".5" d="M122.545 131.223l151.077-87.226c3.351-1.933 6.067.119 6.067 4.578v6.123l-163.172 94.26v-6.123c-.032-4.499 2.677-9.679 6.028-11.612z" fill="#fff"/><path d="M276.03 43.815c1.893 0 3.113 1.87 3.113 4.753v125.286c0 4.277-2.598 9.26-5.79 11.089l-151.085 87.242c-.64.403-1.375.63-2.131.658-1.893 0-3.113-1.87-3.113-4.753V142.804c0-4.286 2.598-9.268 5.79-11.09l151.085-87.25a4.28 4.28 0 012.131-.65zm0-.547a4.817 4.817 0 00-2.376.73l-151.109 87.225c-3.351 1.933-6.067 7.129-6.067 11.581v125.27c0 3.327 1.505 5.315 3.659 5.315a4.88 4.88 0 002.376-.729l151.109-87.233c3.351-1.933 6.068-7.129 6.068-11.573V48.575c0-3.319-1.505-5.307-3.66-5.307z" fill="#83C150"/><path d="M129.341 135.033a5.015 5.015 0 01-2.265 3.961c-1.251.72-2.273.134-2.273-1.307a5.01 5.01 0 012.273-3.961c1.252-.752 2.265-.135 2.265 1.307zm7.999-4.618a5.002 5.002 0 01-2.265 3.96c-1.251.721-2.273.135-2.273-1.307a5.017 5.017 0 012.273-3.96c1.252-.721 2.265-.095 2.265 1.307zm8.002-4.618a4.996 4.996 0 01-2.265 3.961c-1.259.721-2.273.134-2.273-1.307a4.986 4.986 0 012.273-3.961c1.252-.721 2.265-.134 2.265 1.307zm2.581 104.296a.81.81 0 00-.309.071l-21.988 12.674a1.668 1.668 0 00-.84 1.45v17.37c0 .074.016.147.048.214a.538.538 0 00.337.31.562.562 0 00.234.022.563.563 0 00.221-.078l21.988-12.674a1.673 1.673 0 00.84-1.442v-17.37a.545.545 0 00-.531-.547z" fill="#fff"/><path d="M145.682 247.448l-16.586 9.576 4.895-12.752 3.398 4.031 3.469-4.942 4.824 4.087z" fill="#83C150"/><path opacity=".4" d="M145.682 247.448l-16.586 9.576 4.895-12.752 3.398 4.031 3.469-4.942 4.824 4.087z" fill="#fff"/><path d="M139.923 239.495a3.33 3.33 0 01-1.513 2.622c-.831.483-1.513.087-1.513-.879a3.35 3.35 0 011.513-2.614c.84-.483 1.513-.095 1.513.871z" fill="#83C150"/><path d="M177.429 213.015a.641.641 0 00-.309.072l-21.988 12.673a1.667 1.667 0 00-.84 1.45v17.363a.498.498 0 00.048.221.538.538 0 00.337.31.56.56 0 00.234.022.568.568 0 00.221-.078l21.988-12.674a1.663 1.663 0 00.84-1.441v-17.371a.547.547 0 00-.531-.547z" fill="#fff"/><path d="M175.196 230.37l-16.587 9.577 4.896-12.753 3.398 4.032 3.469-4.943 4.824 4.087z" fill="#83C150"/><path opacity=".4" d="M175.196 230.37l-16.587 9.577 4.896-12.753 3.398 4.032 3.469-4.943 4.824 4.087z" fill="#fff"/><path d="M168.994 223.899c.59-1.022.59-2.128-.001-2.47-.591-.341-1.549.212-2.139 1.235-.591 1.023-.591 2.129 0 2.47.591.341 1.549-.212 2.14-1.235z" fill="#83C150"/><path d="M265.615 161.98a.636.636 0 00-.309.072l-21.989 12.673a1.67 1.67 0 00-.832 1.45v17.363a.528.528 0 00.175.413.54.54 0 00.657.062l21.997-12.674a1.676 1.676 0 00.831-1.449v-17.363a.524.524 0 00-.152-.383.533.533 0 00-.378-.164z" fill="#fff"/><path d="M263.373 179.335l-16.587 9.577 4.903-12.753 3.39 4.032 3.47-4.943 4.824 4.087z" fill="#83C150"/><path opacity=".4" d="M263.373 179.335l-16.587 9.577 4.903-12.753 3.39 4.032 3.47-4.943 4.824 4.087z" fill="#fff"/><path d="M257.623 171.382a3.35 3.35 0 01-1.513 2.614c-.84.484-1.513.095-1.513-.871a3.325 3.325 0 01.442-1.492 3.319 3.319 0 011.071-1.13c.831-.483 1.513-.087 1.513.879z" fill="#83C150"/><path d="M206.943 195.938a.638.638 0 00-.309.071l-21.989 12.673a1.664 1.664 0 00-.839 1.45v17.363a.518.518 0 00.047.222.55.55 0 00.792.253l21.989-12.673a1.679 1.679 0 00.84-1.45v-17.363a.543.543 0 00-.152-.383.545.545 0 00-.379-.163z" fill="#fff"/><path d="M204.711 213.293l-16.587 9.576 4.895-12.753 3.398 4.032 3.47-4.943 4.824 4.088z" fill="#83C150"/><path opacity=".4" d="M204.711 213.293l-16.587 9.576 4.895-12.753 3.398 4.032 3.47-4.943 4.824 4.088z" fill="#fff"/><path d="M198.952 205.34a3.338 3.338 0 01-1.513 2.622c-.832.475-1.513.087-1.513-.879a3.357 3.357 0 011.513-2.622c.839-.484 1.513-.087 1.513.879z" fill="#83C150"/><path d="M236.458 178.915a.733.733 0 00-.309.072L214.16 191.66a1.679 1.679 0 00-.84 1.45v17.371a.474.474 0 00.048.213.562.562 0 00.337.311c.075.024.154.033.233.024a.55.55 0 00.222-.073l21.989-12.674a1.681 1.681 0 00.839-1.449V179.43a.552.552 0 00-.53-.515z" fill="#fff"/><path d="M234.222 196.239l-16.586 9.576 4.895-12.745 3.398 4.024 3.469-4.935 4.824 4.08z" fill="#83C150"/><path opacity=".4" d="M234.222 196.239l-16.586 9.576 4.895-12.745 3.398 4.024 3.469-4.935 4.824 4.08z" fill="#fff"/><path d="M228.463 188.286a3.325 3.325 0 01-.442 1.492 3.319 3.319 0 01-1.071 1.13c-.831.483-1.512.087-1.512-.872a3.353 3.353 0 011.512-2.621c.84-.484 1.513-.096 1.513.871z" fill="#83C150"/><path d="M241.534 90.113a2.615 2.615 0 00-1.188.277l-84.438 48.524a6.421 6.421 0 00-3.208 5.545v66.663c0 .289.059.575.174.84a2.116 2.116 0 002.987.982l84.406-48.532a6.398 6.398 0 003.208-5.545V92.212a2.102 2.102 0 00-1.941-2.099z" fill="#fff"/><path d="M232.923 156.729l-63.669 36.761 18.812-48.944 13.022 15.47 13.316-18.963 18.519 15.676z" fill="#83C150"/><path opacity=".4" d="M232.923 156.729l-63.669 36.761 18.812-48.944 13.022 15.47 13.316-18.963 18.519 15.676z" fill="#fff"/><path d="M210.841 126.201a12.848 12.848 0 01-5.814 10.06c-3.169 1.845-5.806.348-5.806-3.359a12.833 12.833 0 015.806-10.059c3.239-1.854 5.814-.349 5.814 3.358z" fill="#83C150"/><path d="M264.101 121.971c2.692-4.664 2.691-9.706-.002-11.261-2.694-1.555-7.06.965-9.753 5.629-2.693 4.663-2.692 9.705.002 11.26 2.694 1.555 7.06-.965 9.753-5.628z" fill="#fff"/><path d="M256.433 121.092a.637.637 0 01-.623-.47.634.634 0 01.306-.718l5.545-3.232a.634.634 0 01.871.238.641.641 0 01-.23.871l-5.592 3.224a.676.676 0 01-.277.087z" fill="#83C150"/><path d="M258.613 123.73a.67.67 0 01-.317-.079.644.644 0 01-.23-.872l3.089-5.354-2.859-1.648a.636.636 0 11.641-1.101l3.406 1.965a.66.66 0 01.313.636.602.602 0 01-.083.235l-3.406 5.901a.63.63 0 01-.554.317z" fill="#83C150"/><path d="M143.835 185.926c0 4.396-3.089 9.742-6.899 11.944s-6.891.412-6.891-3.96 3.089-9.743 6.891-11.937c3.802-2.194 6.899-.444 6.899 3.953z" fill="#fff"/><path d="M134.15 192.516a.645.645 0 01-.555-.325.636.636 0 01.23-.863l5.592-3.232a.638.638 0 11.642 1.101l-5.592 3.232a.691.691 0 01-.317.087z" fill="#83C150"/><path d="M137.546 194.48a.691.691 0 01-.317-.087l-3.406-1.964a.665.665 0 01-.312-.637.602.602 0 01.083-.235l3.406-5.901a.634.634 0 01.867-.234.64.64 0 01.234.868l-3.089 5.354 2.859 1.648a.641.641 0 01.23.871.648.648 0 01-.555.317zm86.341 73.594v52.904c0 1.165-.697 2.266-2.139 3.098l-75.13 43.359a9.887 9.887 0 01-4.175 1.172.097.097 0 01-.071 0v-54.916l81.515-45.617z" fill="#83C150"/><path opacity=".2" d="M157.523 325.826v23.209a4.743 4.743 0 01-.646 2.355 4.743 4.743 0 01-1.73 1.724l-8.555 4.935a9.893 9.893 0 01-4.174 1.172h-.071v-29.015a9.915 9.915 0 004.245-1.18l8.183-4.752a1.818 1.818 0 012.496.643c.162.275.25.589.252.909z" fill="#000"/><path d="M142.443 307.861v60.786h-2.297a13.964 13.964 0 01-5.853-1.703l-8.294-4.752c-1.845-1.062-2.859-2.377-3.01-3.7v-50.631h19.454z" fill="#83C150"/><path opacity=".3" d="M142.443 307.861v60.786h-2.297a13.964 13.964 0 01-5.853-1.703l-8.294-4.752c-1.845-1.062-2.859-2.377-3.01-3.7v-50.631h19.454z" fill="#000"/><path d="M211.029 261.975c-3.525-1.394-8.04-1.355-10.789.23l-57.823 33.363-17.323 10.012c-1.434.792-2.139 1.933-2.139 3.097 0 1.394 1.022 2.876 3.026 4.024l8.301 4.832a13.8 13.8 0 005.759 1.687c.79.07 1.585.07 2.376 0a9.79 9.79 0 004.174-1.18l75.139-43.423c1.442-.792 2.139-1.925 2.139-3.089v-15.359l-12.84 5.806z" fill="#83C150"/><path opacity=".7" d="M211.029 261.975c-3.525-1.394-8.04-1.355-10.789.23l-57.823 33.363-17.323 10.012c-1.434.792-2.139 1.933-2.139 3.097 0 1.394 1.022 2.876 3.026 4.024l8.301 4.832a13.8 13.8 0 005.759 1.687c.79.07 1.585.07 2.376 0a9.79 9.79 0 004.174-1.18l75.139-43.423c1.442-.792 2.139-1.925 2.139-3.089v-15.359l-12.84 5.806z" fill="#fff"/><path d="M142.444 292.978v26.234h-2.377a13.803 13.803 0 01-5.782-1.679l-8.293-4.792c-2.004-1.149-3.026-2.63-3.026-4.024v-15.739h19.478z" fill="#83C150"/><path opacity=".5" d="M142.444 292.978v26.234h-2.377a13.803 13.803 0 01-5.782-1.679l-8.293-4.792c-2.004-1.149-3.026-2.63-3.026-4.024v-15.739h19.478z" fill="#fff"/><path d="M221.732 259.147l-75.139 43.384c-3.168 1.829-8.713 1.584-12.333-.507l-8.301-4.793c-3.644-2.107-4.04-5.299-.879-7.129l75.138-43.383c3.169-1.822 8.713-1.584 12.333.515l8.293 4.753c3.676 2.178 4.056 5.346.888 7.16z" fill="#83C150"/><path opacity=".6" d="M221.732 259.147l-75.139 43.384c-3.168 1.829-8.713 1.584-12.333-.507l-8.301-4.793c-3.644-2.107-4.04-5.299-.879-7.129l75.138-43.383c3.169-1.822 8.713-1.584 12.333.515l8.293 4.753c3.676 2.178 4.056 5.346.888 7.16z" fill="#fff"/><path d="M217.454 291.536l-7.692-4.467c-4.697-2.876-11.263-2.559-18.543 1.639-14.258 8.238-25.838 28.278-25.838 44.762 0 7.564 2.44 13.054 6.455 15.992.659.486 1.365.902 2.107 1.244l6.108 3.588 1.497-2.511a24.983 24.983 0 009.671-3.358c14.258-8.238 25.846-28.278 25.846-44.754a26.13 26.13 0 00-1.449-9.014l1.838-3.121z" fill="#83C150"/><path opacity=".5" d="M217.454 291.536l-7.692-4.467c-4.697-2.876-11.263-2.559-18.543 1.639-14.258 8.238-25.838 28.278-25.838 44.762 0 7.564 2.44 13.054 6.455 15.992.659.486 1.365.902 2.107 1.244l6.108 3.588 1.497-2.511a24.983 24.983 0 009.671-3.358c14.258-8.238 25.846-28.278 25.846-44.754a26.13 26.13 0 00-1.449-9.014l1.838-3.121z" fill="#000"/><path d="M216.655 333.234c10.092-17.48 10.092-36.375-.001-42.202-10.093-5.827-26.456 3.62-36.548 21.101-10.093 17.48-10.092 36.374.001 42.201 10.092 5.827 26.455-3.62 36.548-21.1z" fill="#83C150"/><path opacity=".2" d="M216.655 333.234c10.092-17.48 10.092-36.375-.001-42.202-10.093-5.827-26.456 3.62-36.548 21.101-10.093 17.48-10.092 36.374.001 42.201 10.092 5.827 26.455-3.62 36.548-21.1z" fill="#000"/><path d="M220.321 301.374l-6.242-3.644c-3.81-2.336-9.148-2.075-15.05 1.331-11.588 6.693-20.974 22.971-20.974 36.334 0 6.138 1.98 10.598 5.235 12.982.539.392 1.115.729 1.719 1.006l4.959 2.915 1.212-2.036a20.347 20.347 0 007.834-2.772c11.58-6.685 20.974-22.971 20.974-36.334a21.37 21.37 0 00-1.172-7.311l1.505-2.471z" fill="#83C150"/><path opacity=".4" d="M220.321 301.374l-6.242-3.644c-3.81-2.336-9.148-2.075-15.05 1.331-11.588 6.693-20.974 22.971-20.974 36.334 0 6.138 1.98 10.598 5.235 12.982.539.392 1.115.729 1.719 1.006l4.959 2.915 1.212-2.036a20.347 20.347 0 007.834-2.772c11.58-6.685 20.974-22.971 20.974-36.334a21.37 21.37 0 00-1.172-7.311l1.505-2.471z" fill="#000"/><path d="M219.669 335.224c8.191-14.189 8.192-29.524.001-34.253-8.191-4.729-21.472 2.939-29.663 17.127-8.192 14.189-8.192 29.524-.001 34.253 8.191 4.729 21.471-2.939 29.663-17.127z" fill="#83C150"/><path opacity=".6" d="M214.052 331.98c5.087-8.812 5.087-18.337-.001-21.275-5.088-2.937-13.337 1.825-18.425 10.637-5.088 8.812-5.087 18.337.001 21.275 5.088 2.937 13.337-1.825 18.425-10.637z" fill="#000"/><path d="M203.877 312.226c-6.423 4.253-11.548 13.117-12.016 20.808 1.521 2.139 4.349 2.543 7.589.665 4.855-2.804 8.816-9.624 8.816-15.232 0-3.746-1.775-5.988-4.389-6.241z" fill="#83C150"/><path opacity=".8" d="M203.877 312.226c-6.423 4.253-11.548 13.117-12.016 20.808 1.521 2.139 4.349 2.543 7.589.665 4.855-2.804 8.816-9.624 8.816-15.232 0-3.746-1.775-5.988-4.389-6.241z" fill="#000"/><path d="M203.813 319.347a5.248 5.248 0 01-2.376 4.111c-1.307.792-2.376.142-2.376-1.371a5.275 5.275 0 012.376-4.119c1.283-.752 2.376-.142 2.376 1.379z" fill="#FAFAFA"/><path d="M148.138 332.036a.628.628 0 01-.388.579.626.626 0 11.009-1.157.627.627 0 01.334.339.612.612 0 01.045.239zm2.82-1.711a.628.628 0 01-.389.579.623.623 0 01-.682-.139.623.623 0 01.103-.964.63.63 0 01.923.285.63.63 0 01.045.239zm2.819-1.6a.631.631 0 01-.383.585.626.626 0 11.383-.585zm-6.258 7.493a.618.618 0 100-1.235.618.618 0 000 1.235zm3.439-2.328a.623.623 0 01-.383.584.62.62 0 01-.686-.134.625.625 0 01.451-1.068.618.618 0 01.618.618zm2.819-1.592a.625.625 0 11-.38-.578.615.615 0 01.38.578zm-6.258 7.485a.618.618 0 100-1.237.618.618 0 000 1.237zm2.82-1.711a.618.618 0 10-.001-1.235.618.618 0 00.001 1.235zm3.438-2.21a.621.621 0 01-.383.584.618.618 0 01-.685-.134.627.627 0 111.068-.45zm-6.258 7.493a.618.618 0 100-1.236.618.618 0 000 1.236zm2.82-1.711a.617.617 0 100-1.233.617.617 0 000 1.233zm3.438-2.218a.631.631 0 01-.383.585.626.626 0 11.383-.585zm-5.639 6.876a.62.62 0 01-.205.396.623.623 0 01-1.038-.396.62.62 0 01.366-.641.622.622 0 01.722.154.628.628 0 01.155.487zm2.201-1.093a.618.618 0 10-.001-1.235.618.618 0 00.001 1.235zm3.438-2.21a.625.625 0 11-.38-.578.615.615 0 01.38.578zm-6.258 7.485a.618.618 0 100-1.236.618.618 0 000 1.236zm3.439-2.329a.624.624 0 01-.746.622.628.628 0 01-.494-.494.627.627 0 01.271-.643.623.623 0 01.351-.102.62.62 0 01.437.18.624.624 0 01.181.437zm2.819-1.592a.631.631 0 01-.383.585.626.626 0 11.383-.585zm-6.258 7.494a.618.618 0 100-1.237.618.618 0 000 1.237zm3.439-2.329a.625.625 0 11-.38-.578.614.614 0 01.38.578zm2.819-1.6a.621.621 0 01-.383.584.618.618 0 01-.685-.134.627.627 0 111.068-.45zm39.629-84.034l-2.526.388-7.47-4.317-12.824 7.406-7.921 1.204v3.351l8.032 4.633c2.376 1.371 5.964 1.521 8.024.333l13.26-7.659a2.375 2.375 0 001.386-1.909l.039-3.43z" fill="#83C150"/><path opacity=".2" d="M193.406 266.094l-2.526.388-7.47-4.317-12.824 7.406-7.921 1.204v3.351l8.032 4.633c2.376 1.371 5.964 1.521 8.024.333l13.26-7.659a2.375 2.375 0 001.386-1.909l.039-3.43z" fill="#000"/><path d="M192.012 268.082l-13.26 7.66c-2.059 1.188-5.648 1.037-8.024-.333l-8.032-4.61 20.714-11.961 8.032 4.634c2.376 1.347 2.629 3.422.57 4.61z" fill="#83C150"/><path d="M187.601 263.337l-1.806.278-5.347-3.09-9.18 5.3-5.64.863v2.376l5.743 3.311a6.337 6.337 0 005.742.238l9.506-5.474a1.73 1.73 0 00.99-1.37l-.008-2.432z" fill="#83C150"/><path opacity=".2" d="M187.601 263.337l-1.806.278-5.347-3.09-9.18 5.3-5.64.863v2.376l5.743 3.311a6.337 6.337 0 005.742.238l9.506-5.474a1.73 1.73 0 00.99-1.37l-.008-2.432z" fill="#000"/><path d="M186.602 264.763l-9.505 5.474a6.338 6.338 0 01-5.743-.238l-5.743-3.311 14.836-8.563 5.743 3.319c1.703.982 1.885 2.464.412 3.319zm-35.177 26.163a2.643 2.643 0 000-.356v-5.062h-16.539v5.466c.087 1.148.887 2.273 2.376 3.168a12.97 12.97 0 0011.707 0c1.521-.879 2.313-2.004 2.377-3.168l.079-.048z" fill="#83C150"/><path opacity=".2" d="M151.425 290.926a2.643 2.643 0 000-.356v-5.062h-16.539v5.466c.087 1.148.887 2.273 2.376 3.168a12.97 12.97 0 0011.707 0c1.521-.879 2.313-2.004 2.377-3.168l.079-.048z" fill="#000"/><path d="M149.017 282.126c3.232 1.869 3.232 4.895 0 6.757a12.93 12.93 0 01-11.707 0c-3.232-1.862-3.232-4.888 0-6.757a12.913 12.913 0 0111.707 0zm49.048-24.991v-2.178h-6.646v2.202a1.722 1.722 0 00.966 1.267 5.239 5.239 0 004.705 0 1.733 1.733 0 00.967-1.267l.008-.024z" fill="#83C150"/><path opacity=".2" d="M198.065 257.135v-2.178h-6.646v2.202a1.722 1.722 0 00.966 1.267 5.239 5.239 0 004.705 0 1.733 1.733 0 00.967-1.267l.008-.024z" fill="#000"/><path d="M197.098 253.603c1.299.752 1.299 1.964 0 2.716a5.223 5.223 0 01-4.705 0c-1.299-.792-1.299-1.964 0-2.716a5.187 5.187 0 014.705 0zm15.961 2.938a1.792 1.792 0 000-.293v-4.15h-13.553v4.483a3.464 3.464 0 001.972 2.582 10.604 10.604 0 009.593 0 3.474 3.474 0 001.964-2.582l.024-.04z" fill="#83C150"/><path opacity=".2" d="M213.059 256.541a1.792 1.792 0 000-.293v-4.15h-13.553v4.483a3.464 3.464 0 001.972 2.582 10.604 10.604 0 009.593 0 3.474 3.474 0 001.964-2.582l.024-.04z" fill="#000"/><path d="M200.829 253.088v5.616a2.746 2.746 0 01-.499-.452v-5.164h.499zm1.891 0v6.622a3.985 3.985 0 01-.499-.198v-6.432l.499.008zm1.91 0v7.089a3.65 3.65 0 01-.499-.079v-7.01h.499zm1.901 0v7.208h-.491v-7.208h.491zm1.909 0v7.01a3.834 3.834 0 01-.491.079v-7.089h.491zm1.902 0v6.431a3.65 3.65 0 01-.491.198v-6.629h.491zm1.884 0v5.172a3.178 3.178 0 01-.491.436v-5.608h.491z" fill="#83C150"/><path d="M211.086 249.325c2.646 1.529 2.646 4.008 0 5.545a10.598 10.598 0 01-9.592 0c-2.653-1.537-2.653-4.016 0-5.545a10.617 10.617 0 019.592 0z" fill="#83C150"/><path opacity=".2" d="M206.286 253.8c1.631 0 2.954-.762 2.954-1.703 0-.94-1.323-1.703-2.954-1.703-1.632 0-2.955.763-2.955 1.703 0 .941 1.323 1.703 2.955 1.703z" fill="#000"/><path d="M361.728 333.153s4.681-2.614 5.275-5.545c.594-2.93-4.554-9.639-4.554-9.639s-3.842 2.202-.721 15.184z" fill="#83C150"/><path opacity=".2" d="M361.728 333.153s4.681-2.614 5.275-5.545c.594-2.93-4.554-9.639-4.554-9.639s-3.842 2.202-.721 15.184z" fill="#000"/><path d="M304.402 342.191l6.836-4.032.895-6.836-2.352-.554-5.379 11.422z" fill="#83C150"/><path opacity=".3" d="M304.402 342.191l6.836-4.032.895-6.836-2.352-.554-5.379 11.422z" fill="#000"/><path d="M344.848 302.871l6.384 10.195 4.261 14.115s7.85-.975 2.907-19.098l-3.691-10.931-9.861 5.719zm-41.793 3.81l1.346 16.246-4.705 12.428s2.377 5.83 9.751-6.495c3.913-6.535 4.048-7.834 4.048-7.834l1.584-14.345h-12.024z" fill="#FFA8A7"/><path d="M309.147 148.467l-2.377 4.753a.548.548 0 00-.017.446.523.523 0 00.326.306l2.852.951-.784-6.456z" fill="#F28F8F"/><path d="M312.473 140.499s-3.612 1.98-3.612 13.212c0 6.186.428 10.123 3.644 9.885 3.216-.237 12.46-1.457 12.46-1.457v-21.64h-12.492z" fill="#FFA8A7"/><path d="M312.473 163.596c1.125-.087 3.002-.293 4.959-.523v-1.148a25.56 25.56 0 01-5.497 1.663c.179.019.359.022.538.008z" fill="#703838"/><path d="M316.886 161.442v7.065h9.655v-9.925l-9.655 2.86zm16.531 24.8l6.273 12.888-4.689 6.162 3.256 11.011 10.083-11.882a7.495 7.495 0 001.275-7.588c-2.772-7.129-8.301-21.189-9.798-23.676-2.012-3.359-4.42-5.149-8.032-5.038-3.612.111 1.632 18.123 1.632 18.123z" fill="#FFA8A7"/><path d="M336.442 207.431c1.457 4.372 4.634 10.519 4.499 31.193-.087 14.448.047 22.575.135 26.139a5.177 5.177 0 001.41 3.438c1.528 1.584 4.15 5.006 6.614 11.469a159.46 159.46 0 015.608 17.474s-1.798 5.83-9.862 5.719l-20.143-32.421a10.626 10.626 0 01-1.529-4.269l-5.299-40.27v-16.468l18.567-2.004z" fill="#37474F"/><path d="M322.098 258.197l5.608-20.08s7.873-8.008 5.069-21.814l-11.881 14.978.602 22.868.602 4.048z" fill="#263238"/><path d="M303.618 208.54c-.333 6.495-3.865 46.94-3.358 58.703.507 11.762 2.796 39.438 2.796 39.438s7.62 3.169 11.992 0c0 0 1.846-10.899 3.05-19.533a34.217 34.217 0 00-.452-13.41 9.661 9.661 0 010-4.911l8.579-32.952s7.414-5.204 7.414-19.572v-10.789l-30.021 3.026z" fill="#37474F"/><path d="M324.235 163.549l-15.374 5.663s-7.232 6.274-7.232 18.266c0 3.359 3.255 6.384 3.255 6.384s-1.124 10.527-1.235 14.678c0 0 7.921 5.545 22.614 3.358 5.284-.792 10.21-4.483 10.21-4.483s-2.241-9.299-2.574-10.194c-.333-.895 3.168-11.763 3.168-20.389l-12.832-13.283z" fill="#83C150"/><path d="M310.596 143.002s.618 5.441 4.087 6.923c0 0-2.749 3.77 1.339 5.425v-2.914l1.711 3.334s-4.816 19.494 3.532 19.494a6.022 6.022 0 003.961-1.402s1.283 5.101 9.014 5.101 9.188-7.565 9.188-7.565-5.148 1.585-5.148-3.81c0-5.394-.396-22.63-.674-25.26a12.953 12.953 0 00-11.485-10.479c-6.02-.713-13.838-.665-18.321 5.545-4.484 6.21 1.94 7.921 1.94 7.921s.103-.175.856-2.313z" fill="#263238"/><path d="M315.99 152.435s-.261-4.752 3.422-4.388c4.23.42 2.883 8.064-2.273 8.064l-1.149-3.676z" fill="#F28F8F"/><path d="M308.862 169.212c-9.402 2.986-27.279 12.436-27.279 12.436L265.226 167.2l-6.139 6.606a120.53 120.53 0 0017.188 18.575 7.326 7.326 0 007.549 1.307 650.005 650.005 0 0111.391-4.42c6.051-2.241 18.82-5.378 18.82-12.325 0-6.947-5.173-7.731-5.173-7.731z" fill="#FFA8A7"/><path d="M313.497 321.026a7.615 7.615 0 00-5.544 4.024c-1.798 3.588-5.157 13.672-8.294 10.297l1.062-2.812s-12.531 2.749-9.505 6.028c3.025 3.28 12.404 4.753 13.188 3.62.784-1.133 5.046-9.188 5.046-9.188l2.376 10.756a1.873 1.873 0 002.463 0s3.042-20.594-.792-22.725zm41.996 6.155s2.907-1.236 2.464-5.038c-.444-3.802-3.359-11.398.443-14.06 1.688-1.18 5.434 3.961 8.603 10.139l4.063 7.921s-.356 1.64-1.798 1.584l-6.947-7.168a14.072 14.072 0 00.23 6.606c1.006 3.358 1.141 5.315-2.519 6.947-3.659 1.631-13.68 3.857-8.325-2.915 2.662-3.367 3.786-4.016 3.786-4.016z" fill="#83C150"/><path d="M265.352 168.151a54.41 54.41 0 011.584-6.749c.737-1.901 1.062-3.517-.744-2.796-1.806.721-3.232 3.961-3.359 4.372 0 0-9.18-10.867-10.448-10.756-1.267.111-1.101 1.655 1.339 4.974l2.432 3.327s-6.424 3.034-5.735 6.962c.689 3.929 8.626 6.337 8.626 6.337l6.305-5.671z" fill="#FFA8A7"/></svg>