<svg width="442" height="460" fill="none" xmlns="http://www.w3.org/2000/svg"><path d="M220.722 360c106.437 0 192.721-52.101 192.721-116.372 0-64.27-86.284-116.371-192.721-116.371C114.284 127.257 28 179.358 28 243.628 28 307.899 114.284 360 220.722 360z" fill="#fff"/><path d="M38.998 252.058l171.442 98.99a7.362 7.362 0 006.658 0l90.149-52.049c1.843-1.067 1.843-2.783 0-3.851l-171.426-98.99a7.379 7.379 0 00-6.666 0l-90.149 52.057c-1.85 1.06-1.85 2.784-.008 3.843zm179.753-103.031c6.896 4.025 6.896 10.549 0 14.574s-18.069 4.025-24.965 0c-6.896-4.025-6.896-10.549 0-14.574s18.069-4.025 24.965 0zm166.722 53.196l-108.606-62.717a4.305 4.305 0 00-4.009-.063l-60.424 35.016c-1.115.648-1.115 1.684 0 2.333l26.143 15.064-22.6 15.246c-7.244 4.879-8.802 11.332-3.48 14.4 5.322 3.069 17.817 3.29 25.645-.585l25.914-14.376 10.85 6.263 45.944 26.554a4.49 4.49 0 004.041 0l60.59-34.794c1.076-.601 1.091-1.637-.008-2.341z" fill="#E0E0E0"/><path d="M297.925 297.196l-79.711 46.015a8.548 8.548 0 01-8.311.15L49.429 250.705c-2.53-1.455-4.578-4.744-4.578-7.291 0-2.546 2.048-5.828 4.57-7.291l79.419-45.865a10.138 10.138 0 019.149 0l159.936 92.356c2.53 1.462 4.578 4.744 4.578 7.291 0 2.546-2.048 5.836-4.578 7.291z" fill="#83C150"/><path opacity=".5" d="M128.84 190.274l-79.419 45.865c-2.522 1.463-4.578 4.745-4.57 7.291.008 2.547 2.048 5.836 4.57 7.291l160.482 92.64a8.755 8.755 0 003.954.989V234.091l-75.915-43.817a10.147 10.147 0 00-9.102 0z" fill="#000"/><path opacity=".4" d="M218.214 343.211l79.711-46.015c2.531-1.455 4.579-4.745 4.579-7.291 0-2.547-2.048-5.828-4.579-7.291l-84.044-48.523V344.35a8.425 8.425 0 004.333-1.139z" fill="#000"/><path d="M216.323 334.987a8.956 8.956 0 01-8.074 0L49.405 243.256c-3.416-1.976-3.416-5.203 0-7.172l79.426-45.81a10.158 10.158 0 019.157 0l159.928 92.34c2.523 1.455 2.523 3.835 0 5.282l-81.593 47.091z" fill="#83C150"/><path opacity=".3" d="M216.323 334.987a8.956 8.956 0 01-8.074 0L49.405 243.256c-3.416-1.976-3.416-5.203 0-7.172l79.426-45.81a10.158 10.158 0 019.157 0l159.928 92.34c2.523 1.455 2.523 3.835 0 5.282l-81.593 47.091z" fill="#000"/><path d="M208.606 325.775a9.585 9.585 0 01-8.699 0L63.228 246.862c-2.372-1.383-2.372-3.637 0-5.021l74.714-43.137a9.686 9.686 0 018.698 0l136.679 78.912c2.372 1.384 2.372 3.645 0 5.029l-74.713 43.13z" fill="#37474F"/><path d="M142.03 197.684a8.85 8.85 0 00-4.088 1.02l-74.714 43.137c-2.372 1.384-2.372 3.637 0 5.021l14.812 8.549 63.99-40.86v-16.867z" fill="#263238"/><path d="M146.695 201.97a9.674 9.674 0 00-8.699 0l-74.72 43.137c-.424.24-.806.547-1.132.909.314.338.68.624 1.084.846l136.679 78.913a9.582 9.582 0 008.698 0l74.721-43.13c.42-.239.799-.543 1.123-.901a4.325 4.325 0 00-1.075-.862L146.695 201.97z" fill="#83C150"/><path opacity=".75" d="M146.695 201.97a9.674 9.674 0 00-8.699 0l-74.72 43.137c-.424.24-.806.547-1.132.909.314.338.68.624 1.084.846l136.679 78.913a9.582 9.582 0 008.698 0l74.721-43.13c.42-.239.799-.543 1.123-.901a4.325 4.325 0 00-1.075-.862L146.695 201.97z" fill="#fff"/><path d="M90.533 221.668l13.246-7.67c.79-.459.79-1.171.087-1.582a3.056 3.056 0 00-2.768.055l-13.23 7.647c-.79.451-.79 1.171-.087 1.582a3.066 3.066 0 002.752-.032zm22.745-13.111c.21 0 .411-.083.559-.232a.787.787 0 000-1.118.791.791 0 00-.559-.232 2.968 2.968 0 00-2.681 0 .795.795 0 00-.79.791.79.79 0 00.79.791 2.975 2.975 0 002.681 0zm5.369-3.108a.794.794 0 00.615-.771.79.79 0 00-.615-.771 2.94 2.94 0 00-2.689 0 .794.794 0 00-.615.771.794.794 0 00.615.771 2.936 2.936 0 002.689 0zM75.7 230.248a.788.788 0 00.79-.791.79.79 0 00-.79-.791 2.972 2.972 0 00-2.682 0 .792.792 0 00-.559 1.35.79.79 0 00.56.232 2.972 2.972 0 002.68 0zm5.37-3.1c.743-.435.743-1.123 0-1.581a2.959 2.959 0 00-2.681 0c-.744.427-.744 1.115 0 1.581a2.96 2.96 0 002.68 0z" fill="#37474F"/><path d="M99.73 274.524c.409.255.752.602 1.001 1.014.248.413.396.878.431 1.358a.898.898 0 01-.396.839c-.174.094-.79.482-1.004.577a1.026 1.026 0 01-1.028-.119l-18.576-10.739a3.065 3.065 0 01-1.43-2.372.908.908 0 01.355-.791l1.036-.601a1.066 1.066 0 011.036.119l18.575 10.715z" fill="#83C150"/><path opacity=".4" d="M99.73 274.524c.409.255.752.602 1.001 1.014.248.413.396.878.431 1.358a.898.898 0 01-.396.839c-.174.094-.79.482-1.004.577a1.026 1.026 0 01-1.028-.119l-18.576-10.739a3.065 3.065 0 01-1.43-2.372.908.908 0 01.355-.791l1.036-.601a1.066 1.066 0 011.036.119l18.575 10.715z" fill="#000"/><path d="M98.767 275.101L80.16 264.355c-.791-.459-1.431-.135-1.431.719a3.069 3.069 0 001.43 2.373l18.608 10.738c.79.459 1.431.135 1.431-.719a3.048 3.048 0 00-1.431-2.365z" fill="#83C150"/><path opacity=".3" d="M98.767 275.101L80.16 264.355c-.791-.459-1.431-.135-1.431.719a3.069 3.069 0 001.43 2.373l18.608 10.738c.79.459 1.431.135 1.431-.719a3.048 3.048 0 00-1.431-2.365z" fill="#000"/><path d="M74.853 260.14a3.063 3.063 0 011.431 2.372.885.885 0 01-.395.838l-1.005.586a1.065 1.065 0 01-1.028-.119l-8.777-5.069a3.063 3.063 0 01-1.432-2.372.92.92 0 01.364-.791c.182-.111.854-.506 1.036-.601a1.057 1.057 0 011.036.111l8.77 5.045z" fill="#83C150"/><path opacity=".4" d="M74.853 260.14a3.063 3.063 0 011.431 2.372.885.885 0 01-.395.838l-1.005.586a1.065 1.065 0 01-1.028-.119l-8.777-5.069a3.063 3.063 0 01-1.432-2.372.92.92 0 01.364-.791c.182-.111.854-.506 1.036-.601a1.057 1.057 0 011.036.111l8.77 5.045z" fill="#000"/><path d="M73.856 260.717l-8.777-5.069c-.791-.451-1.431-.127-1.431.727a3.066 3.066 0 001.43 2.373l8.778 5.069c.791.45 1.432.126 1.432-.728a3.057 3.057 0 00-1.431-2.372z" fill="#83C150"/><path opacity=".3" d="M73.856 260.717l-8.777-5.069c-.791-.451-1.431-.127-1.431.727a3.066 3.066 0 001.43 2.373l8.778 5.069c.791.45 1.432.126 1.432-.728a3.057 3.057 0 00-1.431-2.372z" fill="#000"/><path opacity=".15" d="M145.122 282.495l20.679 11.988a2.47 2.47 0 002.254 0l59.356-34.217a.684.684 0 00.34-1.054.68.68 0 00-.34-.25l-20.679-11.989a2.49 2.49 0 00-2.253 0l-59.357 34.241a.686.686 0 00-.317 1.028.684.684 0 00.317.253z" fill="#000"/><path d="M224.99 257.198a.787.787 0 00-.459-.64l-18.496-10.676a2.42 2.42 0 00-2.206 0l-56.454 32.644a.787.787 0 00-.459.64v1.938a.787.787 0 00.459.64l18.496 10.676a2.468 2.468 0 002.206 0l56.454-32.557a.789.789 0 00.459-.632v-2.033z" fill="#263238"/><path d="M165.871 290.427l-18.497-10.628a.672.672 0 010-1.273l56.454-32.644a2.422 2.422 0 012.207 0l18.496 10.676a.67.67 0 010 1.273l-56.454 32.596a2.416 2.416 0 01-2.206 0z" fill="#37474F"/><path d="M166.9 290.704v1.984a2.225 2.225 0 01-1.036-.253l-18.481-10.675a.799.799 0 01-.458-.641v-1.961a.79.79 0 00.458.641l18.481 10.636c.32.167.675.259 1.036.269z" fill="#263238"/><path d="M204.793 247.567l1.835 1.051-2.483 1.44-1.898-1.068 2.483-1.431.063.008zm2.871 1.652l1.827 1.06-1.946 1.123-1.85-1.028 1.953-1.131.016-.024zm-6.326.348h.039l1.835 1.06-1.953 1.123-1.89-1.052 1.945-1.131h.024zm9.204 1.305l1.835 1.06-3.163 1.819-1.89-1.06 3.163-1.819h.055zm-5.804.04l1.835 1.059-1.582.894-1.89-1.06 1.582-.893h.055zm-6.326.355h.039l1.835 1.052-1.953 1.131-1.89-1.068 1.945-1.122.024.007zm3.795 1.115h.048l1.827 1.052-1.55.894-1.89-1.06 1.581-.893-.016.007zm11.214.151l1.826 1.051-2.435 1.448-1.89-1.068 2.483-1.431h.016zm-17.943.427l1.827 1.059-14.092 8.138-1.898-1.068 14.1-8.129h.063zm10.936.3h.04l1.835 1.06-1.582.893-1.898-1.059 1.582-.894h.023zm-6.737.585l1.835 1.052-1.582.894-1.898-1.06 1.582-.893.063.007zm16.606.34l1.835 1.06-1.582.894-1.897-1.068 1.581-.893.063.007zm-6.326.348h.04l1.826 1.06-1.581.894-1.89-1.068 1.581-.893.024.007zm-6.073.198h.039l1.835 1.052-1.581.893-1.898-1.059 1.581-.894.024.008zm-6.738.577l1.835 1.06-1.582.894-1.897-1.068 1.581-.894.063.008zm16.607.34h.047l1.827 1.06-1.582.894-1.89-1.068 1.582-.893.016.007zm-6.326.348h.039l1.835 1.06-1.582.894-1.898-1.068 1.582-.894.024.008zm-6.074.198h.048l1.827 1.052-1.582.893-1.89-1.059 1.582-.894.015.008zm18.426 0h.039l1.835 1.052-1.953 1.131-1.89-1.068 1.945-1.123.024.008zm-25.163.577h.008l1.827 1.06-1.582.894-1.827-1.06 1.542-.894h.032zm16.606.34h.008l1.827 1.06-1.582.894-1.826-1.06 1.581-.894h-.008zm-6.326.348l1.835 1.06-1.582.894-1.827-1.052 1.582-.894-.008-.008zm-6.065.198h.039l1.827 1.06-1.582.893-1.889-1.067 1.581-.894.024.008zm-6.738.577l1.827 1.06-1.582.894-1.889-1.068 1.581-.894.063.008zm23.653.293l1.834 1.052-1.581.901-1.898-1.067 1.581-.894.064.008zm-7.046.047l1.834 1.06-1.581.894-1.898-1.06 1.582-.894h.063zm-6.326.348h.047l1.827 1.06-1.582.893-1.921-1.012 1.581-.893.048-.048zm-6.066.198l1.835 1.06-1.582.893-1.898-1.067 1.582-.894.063.008zm-6.737.577h.039l1.835 1.06-1.582.893-1.898-1.059 1.582-.894h.024zm23.652.293h.048l1.826 1.059-1.581.894-1.89-1.068 1.542-.893.055.008zm-7.046.047h.04l1.834 1.06-1.581.893-1.898-1.059 1.581-.894h.024zm-6.326.356l1.835 1.052-1.582.893-1.898-1.059 1.582-.894.063.008zm-6.073.19l1.834 1.06-1.581.893-1.89-1.091 1.542-.894.095.032zm-6.738.585h.04l1.834 1.052-1.581.893-1.89-1.059 1.542-.894.055.008zm23.66.285l1.827 1.059-1.581.894-1.89-1.068 1.581-.893.063.008zm-7.053.055h.047l1.827 1.052-1.582.893-1.89-1.059 1.582-.894.016.008zm-23.21.158h-.047l1.834 1.06-1.953 1.123-1.89-1.06 1.946-1.131.11.008zm16.876.19h.039l1.835 1.052-1.582.901-1.898-1.067 1.582-.894.024.008zm-6.066.19h.04l1.826 1.06-1.581.893-1.89-1.06 1.581-.893h.024zm-6.737.585l1.826 1.052-1.581.893-1.89-1.059 1.581-.894.064.008zm23.652.285h.04l1.834 1.059-1.581.894-1.969-1.052 1.581-.893.095-.008zm-7.046.055l1.835 1.052-1.582.901-1.89-1.067 1.582-.894.055.008zm-6.326.348h.047l1.827 1.06-1.581.893-1.89-1.067 1.581-.894.016.008zm-17.271.047h.04l1.834 1.052-1.953 1.131-1.89-1.068 1.946-1.122.023.007zm11.206.143l1.787 1.099-1.582.894-1.898-1.06 1.582-.894.111-.039zm-6.738.585h-.016l1.835 1.06-1.582.893-1.897-1.067 1.581-.894.079.008zm16.607.34h-.016l1.834 1.06-1.581.893-1.898-1.067 1.581-.894.08.008zm-6.327.348l1.835 1.06-1.582.893-1.89-1.067 1.582-.894.055.008zm-6.073.198h.04l1.834 1.051-1.581.894-1.898-1.06 1.581-.893.024.008zm18.354 0l1.827 1.059-1.582.894-1.89-1.068 1.582-.893.063.008zm-29.955.039l1.827 1.06-1.945 1.123-1.898-1.068 1.953-1.123.063.008zm4.864.498h.039l1.835 1.06-1.582.894-1.89-1.068 1.542-.894.056.008zm16.606.34h.048l1.826 1.06-1.581.894-1.89-1.068 1.542-.893.055.007zm-6.326.348h.039l1.835 1.06-1.582.894-1.897-1.068 1.581-.894.024.008zm-6.073.198h.047l1.827 1.06-1.582.893-1.985-1.02 1.582-.893.111-.04zm18.354.04h.039l1.835 1.059-1.582.894-1.898-1.068 1.582-.893.024.008zm-30.358.268l1.834 1.06-2.483 1.431-1.898-1.059 2.483-1.432h.064zm5.266.269h.048l1.826 1.06-4.99 2.894-1.89-1.067 4.888-2.823.118-.064zm16.607.34h.039l1.827 1.06-1.582.894-1.89-1.068 1.582-.886h.024zm-6.327.348h.048l1.826 1.06-1.581.894-1.89-1.06 1.542-.894h.055zm-6.065.198h.04l1.834 1.06-1.581.893-1.898-1.067 1.581-.894.024.008zm18.346.04h.04l1.834 1.059-1.581.894-1.993-1.012 1.542-.894.158-.047zm-8.477.877h.04l1.834 1.06-1.581.894-1.898-1.06 1.581-.894h.024zm-23.344.245l1.835 1.052-1.582.894-1.898-1.06 1.582-.893.063.007zm17.01.111h.039l1.827 1.052-1.582.893-1.889-1.059 1.581-.894.024.008zm-6.073.19h.039l1.835 1.06-1.416.79a.299.299 0 00.008.53l2.373 1.384-1.819 1.052-4.745-2.72 3.685-2.128.04.032zm18.354.039h.039l1.827 1.06-1.582.894-1.89-1.06 1.582-.894h.024zm-8.485.886l1.834 1.052-1.581.893-1.89-1.059 1.581-.894.056.008zm-23.344.237h.039l1.835 1.052-1.637.973-1.89-1.068 1.542-.893.111-.064zm17.009.111h.04l1.835 1.052-1.582.893-1.898-1.059 1.582-.894.023.008zm11.174.87h.048l1.826 1.06-1.581.893-1.89-1.067 1.542-.894.055.008zm-7.37.245h.04l1.826 1.052-1.581.901-1.89-1.067 1.581-.894.024.008zm-23.352.237h.048l1.826 1.06-1.581.894-1.89-1.068 1.581-.894.016.008zm5.409.19h.04l1.826 1.06-1.581.893-1.89-1.067 1.581-.894.024.008zm22.783.791h.039l1.827 1.06-1.582.893-1.977-1.012 1.582-.894.111-.047zm-7.378.245h.039l1.835 1.052-2.752 1.581-1.898-1.059 2.752-1.582.024.008zm-23.882.546h.04l1.834 1.059-4.088 2.373-1.89-1.068 4.08-2.372.024.008zm16.741.261h.047l1.827 1.059-1.582.894-1.89-1.06 1.582-.893h.016zm11.98.419h.04l1.834 1.059-1.581.894-1.898-1.06 1.582-.893h.023zm-25.85.972h.039l1.827 1.06-1.582.894-1.89-1.06 1.582-.894h.024zm11.339.08h.04l1.827 1.051-1.582.894-1.89-1.06 1.582-.893.023.008zm5.401.189l1.835 1.052-1.582.902-1.897-1.068 1.581-.894.063.008zm6.572.222l1.834 1.051-1.581.894-1.89-1.06 1.581-.893.056.008zm-31.252.79h.04l1.834 1.06-1.581.894-1.898-1.06 1.581-.894h.024zm5.401.198h.04l1.834 1.052-1.581.894-1.898-1.06 1.581-.894.024.008zm11.34.071h.04l1.723 1.123-1.581.902-1.898-1.068 1.582-.893.134-.064zm-5.939.119h.04l1.834 1.052-1.581.893-1.89-1.059 1.542-.894.055.008zm11.34.071h.04l1.834 1.06-1.581.893-1.898-1.067 1.581-.894.024.008zm6.018.546h.039l1.827 1.052-1.581.901-1.89-1.068 1.581-.893.024.008zm-30.698.466h.039l4.697 2.705-1.581.901-4.745-2.72 1.582-.894.008.008zm5.401.19h.047l1.827 1.052-1.582.901-1.89-1.067 1.582-.894.016.008zm5.401.19h.047l1.827 1.052-1.582.901-1.89-1.067 1.582-.894.016.008zm11.34.071h.047l1.827 1.06-1.582.893-1.89-1.067 1.542-.894.056.008zm-5.931.119h.039l1.827 1.059-1.582.894-1.969-1.02 1.582-.894.103-.039zm11.948.427l1.835 1.059-1.581.894-1.898-1.068 1.581-.893.063.008zm-19.888.846h.04l1.834 1.06-1.581.893-1.898-1.067 1.582-.894.023.008zm5.401.19h.04l1.834 1.059-1.581.894-1.898-1.068 1.582-.893.023.008zm5.314.261l1.835 1.059-1.582.894-1.897-1.068 1.581-.893.063.008zm6.548.237h.04l1.834 1.06-1.581.893-1.89-1.067 1.542-.894.055.008zm-19.888.846h.039l4.698 2.712-1.582.894-4.745-2.72 1.582-.894.008.008zm5.401.19l1.835 1.059-1.582.894-1.803-1.099 1.582-.886-.032.032zm5.401.19h.04l1.834 1.059-1.581.894-1.89-1.06 1.581-.893h.016zm6.73.909l.79.451-1.581.893-.854-.458 1.581-.894.064.008zm-9.284.49h.039l1.827 1.06-1.582.893-1.89-1.059 1.582-.894h.024zm6.745.973h.048l.79.451-1.581.893-.846-.458 1.534-.894.055.008zm-9.284.498h.04l1.834 1.052-1.581.893-1.898-1.059 1.582-.894.023.008zm6.754.965h.039l.791.451-1.582.893-.846-.458 1.582-.886h.016zm-2.539 1.463l.791.451-1.582.893-.854-.458 1.582-.886h.063z" fill="#83C150"/><path opacity=".1" d="M98.941 260.084c.854 2.159 2.697 3.282 5.425 4.5 7.987 3.598 27.132 7.908 37.878 9.822 6.255 1.115 12.653 3.163 19.042 3.439 5.718.23 11.649-.79 16.393-4.017a3.558 3.558 0 001.534-1.668 2.693 2.693 0 00-1.336-2.966 8.054 8.054 0 00-3.377-.893 137.755 137.755 0 01-37.016-9.814c5.306-.561 10.699-1.139 15.634-3.163 4.934-2.024 9.489-5.717 11.197-10.763.348-1.012.633-2.135 1.471-2.807a3.401 3.401 0 013.226-.3c3.472 1.241 4.848 5.306 5.876 8.848 1.028 3.543 2.736 7.584 6.326 8.399-1.305-.791-.791-3.053.585-3.598 1.376-.546 3.061.308 3.899 1.581.838 1.273 1.051 2.72 1.747 4.009.696 1.289 2.191 2.373 3.543 1.843a3.348 3.348 0 001.582-1.692c1.913-3.741 1.581-8.351-.111-12.202-1.692-3.851-4.531-7.078-7.568-9.98-4.231-4.041-8.991-7.67-14.471-9.726-11.467-4.31-24.364-1.171-35.728 3.416a148.436 148.436 0 00-24.585 12.692 41.196 41.196 0 00-8.098 6.326c-1.732 1.85-3.55 4.476-3.368 7.117.018.545.12 1.083.3 1.597z" fill="#000"/><path d="M196.125 247.772c-1.676-2.594-4.681-7.908-5.622-8.999-2.57-2.926-7.868-7.552-7.868-7.552-4.998-4.073-20.347-17.627-20.347-17.627s-2.373-30.049-5.03-34.857c-3.068-5.599-8.904-5.828-14.945-6.192 0 0-1.582 6.524-2.199 11.862 0 0 5.433 33.703 6.081 36.834.649 3.132 2.238 4.508 5.473 6.588 4.942 3.163 22.822 12.771 22.822 12.771l.877.609a3.503 3.503 0 011.297 1.723c.232.693.388 1.409.467 2.136.284 2.491 0 3.163.213 5.883.214 2.72.791 2.633 1.859 4.966.956 2.159 1.241 3.511 2.032 3.59.791.079 1.803-1.676 1.803-3.455 0-1.78-1.083-3.741-1.123-4.492-.04-.751.356-1.684 2.048-.688 1.692.996 3.274 4.025 4.531 6.121 1.258 2.095 1.93 4.863 3.203 6.373 1.273 1.511 1.748-.166 2.333-1.581.585-1.416 3.44-3.725 4.191-5.987.751-2.261-.435-5.424-2.096-8.026z" fill="#FFA8A7"/><path d="M142.314 172.355c4.159 0 7.536-.459 11.197 1.771 3.661 2.23 4.65 5.283 5.48 10.028.751 4.317 2.278 19.184 2.278 19.184s-10.565 5.828-19.77 2.111l.815-33.094z" fill="#37474F"/><path d="M151.062 151.969a23.392 23.392 0 015.013 2.325 4.424 4.424 0 011.987 2.685 4.424 4.424 0 01-.46 3.309l-1.906-.38s.98-2.238-.166-3.432c-1.147-1.194-4.5-2.23-4.5-2.23l.032-2.277z" fill="#263238"/><path d="M156.81 159.046c-1.582-.751-2.293.214-3.385 2.839-1.091 2.625-.34 3.345.989 3.867 1.328.522 2.372-.356 3.163-2.531.917-2.443.894-3.36-.767-4.175z" fill="#83C150"/><path opacity=".1" d="M156.938 159.07c-1.582-.751-2.293.213-3.385 2.839-1.091 2.625-.34 3.345.989 3.867 1.328.522 2.372-.356 3.163-2.531.925-2.443.901-3.361-.767-4.175z" fill="#000"/><path d="M125.155 174.269c-8.699 1.953-18.046 4.744-25.052 7.789 0 0-.562 29.978 4.294 44.284 4.855 14.305 3.455 30.603 3.455 30.603 23.724 3.835 52.501-7.188 51.789-19.145a52.89 52.89 0 00-4.002-7.196s-.593-9.608-.332-13.886c17.398-16.282-6.761-37.167-12.992-44.331-3.796.49-9.371.134-17.16 1.882z" fill="#455A64"/><path d="M123.723 130.214c-1.123 2.017-.656 4.397-.198 6.532.356 1.629 1.329 3.646.918 5.298a10.717 10.717 0 01-3.954 5.678c-.47.392-.969.746-1.495 1.06-.451.245-.972.356-1.431.609a6.404 6.404 0 00-2.333 2.372 17.898 17.898 0 00-1.692 4.492 15.668 15.668 0 01-1.779 4.452 9.214 9.214 0 01-8.177 3.867 11.078 11.078 0 01-4.927-1.582 13.028 13.028 0 01-2.111-1.581 5.357 5.357 0 01-1.392-1.851 8.92 8.92 0 001.487 5.986 10.485 10.485 0 01-12.218-11.759c.285-2.024 1.147-3.954 1.582-5.923 1.202-5.377-3.622-8.319-4.413-13.221a7.602 7.602 0 013.875-7.75c1.653-.87 3.827-1.305 4.515-3.037.53-1.328-.118-2.807-.095-4.238 0-2.831 2.673-4.99 5.362-5.844 2.689-.854 5.607-.846 8.319-1.653 2.894-.854 5.536-2.617 8.477-3.163a10.93 10.93 0 019.648 3.29c1.115 1.186 1.724 2.57 2.712 3.795.989 1.226 2.499 1.859 3.227 3.298a6.655 6.655 0 01.205 6.121c-.988 1.89-3.084 2.925-4.112 4.752z" fill="#37474F"/><path d="M150.475 136.604c-.332-9.411-5.797-22.838-26.017-21.122-19.706 1.676-25.503 19.256-23.723 28.8 2.506 13.175 12.091 14.021 14.582 22.632l35.158-30.31z" fill="#455A64"/><path d="M106.405 143.8a4.74 4.74 0 014.95-1.645c.954.268 1.803.82 2.436 1.582.909 1.004.893 2.372 1.534 3.519a2.595 2.595 0 001.929 1.399c2.713.245 1.701-4.159 1.851-5.725 5.124-1.819 4.982-3.717 5.678-8.24 3.59-3.875 9.821-4.444 15.214-.735 3.29-6.327 6.856-5.536 8.398-3.583a25.317 25.317 0 012.302 7.363 49.035 49.035 0 01.862 11.616c-.665 15.112-5.647 18.742-8.13 19.77-2.483 1.028-5.535.284-10.098-.578v9.079c4.745 9.054 8.533 22.758 8.351 31.71-7.299-13.823-18.726-21.217-24.127-26.238a20.669 20.669 0 01-3.266-3.764v-23.85s-1.993 2.127-5.156-.388c-4.231-3.384-5.528-8.129-2.728-11.292z" fill="#FFA8A7"/><path d="M133.332 168.559c-3.954-1.028-8.185-2.523-11.071-4.745a13.664 13.664 0 01-4.286-6.017s.34 5.828 3.273 8.453c2.934 2.625 12.115 5.654 12.115 5.654l-.031-3.345z" fill="#F28F8F"/><path d="M133.948 147.493a2.094 2.094 0 01-3.385 1.846 2.092 2.092 0 01-.723-2.195 2.093 2.093 0 011.736-1.525 2.138 2.138 0 012.116 1.08c.137.245.224.515.256.794zm14.85-1.843a1.92 1.92 0 01-1.581 2.207 1.818 1.818 0 01-1.462-.361 1.809 1.809 0 01-.689-1.34 1.899 1.899 0 113.764-.506h-.032z" fill="#263238"/><path d="M138.337 143.033l1.487 12.589 6.468-2.467-7.955-10.122z" fill="#F28F8F"/><path d="M132.823 141.143l-4.744 2.166a2.72 2.72 0 011.32-3.534 2.551 2.551 0 012.005-.05 2.54 2.54 0 011.419 1.418z" fill="#263238"/><path d="M131.299 157.203l6.809 2.31a3.782 3.782 0 01-1.887 2.092 3.778 3.778 0 01-2.811.201 3.527 3.527 0 01-1.207-.718 3.514 3.514 0 01-.904-3.885z" fill="#B16668"/><path d="M131.465 158.793a3.537 3.537 0 013.337 3.163 3.408 3.408 0 01-2.979-1.311 3.41 3.41 0 01-.706-1.82c.115-.019.232-.03.348-.032z" fill="#F28F8F"/><path d="M149.407 141.688l-4.792-2.103a2.503 2.503 0 012.379-1.618c.341.004.678.079.99.218a2.754 2.754 0 011.423 3.503zm-16.077 29.773c3.052.886 11.973 12.953 14.867 17.303l-3.274 8.35a38.568 38.568 0 015.164 6.667l-6.667 19.413s.601-25.866-10.09-45.549v-6.184z" fill="#263238"/><path d="M142.536 208.391c2.373 6.16 2.705 20.442 2.705 20.442s-2.373-13.325-13.578-17.991c0-.64.119-9.766.119-9.766s-15.025-3.811-18.188-5.243l-3.235-17.397s2.159-5.393 3.954-5.535v3.756a174.772 174.772 0 0114.179 12.478c8.193 7.9 11.688 13.096 14.044 19.256z" fill="#37474F"/><path d="M181.38 269.803c-2.42-2.032-5.923-4.848-8.698-5.536a15.652 15.652 0 00-1.969-.434 21.179 21.179 0 002.759-.791 5.017 5.017 0 002.246-1.772c.206-.324.332-.79 0-1.043a.656.656 0 00-.403-.111c-2.048.103-3.685-.079-5.536-.063a7.968 7.968 0 00-2.498.253 43.92 43.92 0 00-2.215.877c-3.297 1.455-6.326 2.768-11.197 2.049l-2.04-.538-34.305-17.674-6.508-35.427s-1.581-21.968-10.478-27.298c-4.744 1.803-9.94 6.263-11.347 11.071-1.66 5.717-1.012 13.839 1.819 26.436 2.372 10.541 4.847 21.351 7.528 29.377 2.681 8.027 3.709 10.866 8.975 12.439 8.833 2.642 40.702 11.38 40.702 11.38.653.252 1.318.471 1.993.656 1.099.308 2.127 1.068 4.744 1.637 3.108.68 6.888-.735 9.49-1.099 2.601-.364 7.172.49 9.695 1.281 2.522.791 5.14-3.211 6.397-2.855 1.257.356 3.274-.775.846-2.815z" fill="#FFA8A7"/><path d="M169.43 262.488a9.291 9.291 0 00-3.677.91 20.39 20.39 0 014.927.443 21.179 21.179 0 002.759-.791 5.286 5.286 0 002.048-1.495c-1.423 1.123-4.27.965-6.057.933z" fill="#F28F8F"/><path d="M100.102 182.058c-6.145 2.625-10.217 5.836-11.862 12.597-1.645 6.761-.483 12.7.901 19.857 1.384 7.156 4.626 18.789 4.626 18.789s13.151.79 20.735-4.468l-4.152-26.982s-2.19-16.021-9.829-19.548" fill="#37474F"/><path d="M110.675 118.621c-4.618 4.278-9.046 10.344-5.764 24.38a7.612 7.612 0 00-1.906 7.908c1.265 4.333 5.425 7.188 9.292 6.326 3.867-.862 5.962-4.99 4.697-9.331-.957-3.242-4.436-6.382-7.299-6.176 0 0-2.744-6.002-.174-14.511 3.511-11.593 17.025-12.558 22.972-11.616-1.993-2.824-15.713-2.634-21.818 3.02z" fill="#83C150"/><path opacity=".4" d="M110.675 118.621c-4.618 4.278-9.046 10.344-5.764 24.38a7.612 7.612 0 00-1.906 7.908c1.265 4.333 5.425 7.188 9.292 6.326 3.867-.862 5.962-4.99 4.697-9.331-.957-3.242-4.436-6.382-7.299-6.176 0 0-2.744-6.002-.174-14.511 3.511-11.593 17.025-12.558 22.972-11.616-1.993-2.824-15.713-2.634-21.818 3.02z" fill="#000"/><path d="M117.816 147.754c-1.408-4.808-6.018-7.964-10.28-7.062a6.555 6.555 0 00-1.859.696c-.482.269-1.937 1.265-2.222 1.455-2.736 1.811-3.954 5.535-2.87 9.363 1.407 4.808 6.018 7.963 10.28 7.061a6.688 6.688 0 002.214-.901 90.59 90.59 0 002.04-1.368c2.618-1.843 3.796-5.472 2.697-9.244z" fill="#83C150"/><path opacity=".3" d="M117.816 147.754c-1.408-4.808-6.018-7.964-10.28-7.062a6.555 6.555 0 00-1.859.696c-.482.269-1.937 1.265-2.222 1.455-2.736 1.811-3.954 5.535-2.87 9.363 1.407 4.808 6.018 7.963 10.28 7.061a6.688 6.688 0 002.214-.901 90.59 90.59 0 002.04-1.368c2.618-1.843 3.796-5.472 2.697-9.244z" fill="#000"/><path d="M116.069 148.924c-1.408-4.8-6.018-7.963-10.28-7.054-4.263.91-6.611 5.536-5.204 10.336 1.408 4.8 6.018 7.963 10.281 7.062 4.262-.902 6.611-5.536 5.203-10.344z" fill="#83C150"/><path opacity=".1" d="M116.069 148.924c-1.408-4.8-6.018-7.963-10.28-7.054-4.263.91-6.611 5.536-5.204 10.336 1.408 4.8 6.018 7.963 10.281 7.062 4.262-.902 6.611-5.536 5.203-10.344z" fill="#000"/><path d="M111.982 149.794c-.664-2.27-2.847-3.756-4.863-3.329-2.017.427-3.164 2.609-2.46 4.879.704 2.269 2.847 3.756 4.864 3.329 2.016-.427 3.123-2.617 2.459-4.879z" fill="#37474F"/><path opacity=".1" d="M206.288 319.836l-15.989-9.363a.79.79 0 110-1.582L253 272.689a2.919 2.919 0 012.657 0l15.974 9.292a.794.794 0 01.431 1.254.797.797 0 01-.431.28l-62.694 36.329a2.906 2.906 0 01-2.649-.008z" fill="#000"/><path d="M264.64 267.091l4.199-49.82a4.26 4.26 0 00-1.866-3.732 4.735 4.735 0 00-4.27.079l-62.63 36.162a5.46 5.46 0 00-2.42 3.812l-4.191 49.819a4.236 4.236 0 001.858 3.733 4.757 4.757 0 004.279-.079l62.63-36.131a5.437 5.437 0 002.411-3.843z" fill="#263238"/><path d="M268.832 217.263l-4.191 49.82 3.044-49.456c.111-1.399-.395-1.929-1.581-1.233l-61.863 35.751a4.99 4.99 0 00-1.582 1.621l-4.136-2.372a4.852 4.852 0 011.582-1.582l62.622-36.162a4.785 4.785 0 014.286-.079 4.247 4.247 0 011.819 3.692z" fill="#37474F"/><path d="M197.598 305.8l4.199-49.82a5.444 5.444 0 012.412-3.811l61.863-35.799c1.218-.704 1.724-.166 1.582 1.234l-3.045 49.455a5.428 5.428 0 01-2.412 3.82l-62.63 36.154c-1.186.736-2.08.174-1.969-1.233z" fill="#455A64"/><path d="M228.365 275.686l-.482 15.009 17.397-10.003-4.239-12.289-12.676 7.283z" fill="#263238"/><path d="M230.905 277.339l12.146-7.054-2.072-1.194-12.138 7.062 2.064 1.186z" fill="#455A64"/><path d="M249.696 291.36l-6.642-21.075-12.147 7.062-2.056-1.202 1.36 16.227.34 4.666.198.996-.886-.506-3.954-2.262a.671.671 0 00-.593-.079.615.615 0 00-.276.577v.356a1.89 1.89 0 00.854 1.503l6.5 3.756c.245.125.515.195.791.206.327.014.652-.059.941-.214l14.795-8.54a1.529 1.529 0 00.775-1.471zm-9.339-1.803a2.551 2.551 0 01-2.402.271 2.561 2.561 0 01-1.552-1.853 4.896 4.896 0 012.175-5.172 2.542 2.542 0 013.417.453c.27.326.455.714.537 1.129a4.892 4.892 0 01-2.175 5.172z" fill="#37474F"/><path d="M225.329 295.195l5.045-2.91 1.02 6.785-6.065-3.875z" fill="#000"/><path d="M230.906 277.347l-2.064-1.194 1.708 20.876c.11.554-.206.791-.68.491l-3.954-2.262c-.483-.285-.87-.047-.87.506v.348a1.922 1.922 0 00.838 1.511l6.516 3.756c.245.127.515.198.791.205l-2.285-24.237zm9.449 12.21a2.54 2.54 0 01-3.305-.356 2.889 2.889 0 001.842-.427 4.87 4.87 0 002.175-5.164 3.027 3.027 0 00-.656-1.257 2.576 2.576 0 012.111 2.032 4.885 4.885 0 01-2.167 5.172z" fill="#263238"/><path d="M229.948 257.846l-.791 9.608c-.055.633.293.926.791.649a2.275 2.275 0 00.965-1.637l.79-9.6c.056-.641-.292-.925-.79-.657a2.317 2.317 0 00-.965 1.637zm3.117-1.795l-.791 9.6c-.055.633.293.925.791.657a2.303 2.303 0 00.965-1.645l.791-9.6c.055-.633-.293-.926-.791-.649a2.306 2.306 0 00-.965 1.637zm3.113-1.803l-.79 9.608c-.056.633.292.925.79.649a2.281 2.281 0 00.965-1.637l.791-9.6c.055-.641-.293-.926-.791-.657a2.33 2.33 0 00-.965 1.637zm3.119-1.795l-.791 9.6c-.047.633.293.925.791.657a2.303 2.303 0 00.965-1.645l.791-9.6c.055-.633-.293-.926-.791-.649a2.306 2.306 0 00-.965 1.637zm-42.498-94.545c-5.061-5.227-8.043-26.499-3.1-30.651h25.139c4.942 4.144 1.969 25.416-3.092 30.643l-.143.142-.174.174a5.773 5.773 0 01-.458.412l-.119.094a7.854 7.854 0 01-1.036.72c-4.167 2.428-10.921 2.428-15.088 0-.229-.126-.443-.277-.664-.427-.222-.15-.237-.182-.356-.277-.119-.095-.103-.071-.15-.118-.048-.048-.301-.261-.443-.396l-.198-.197-.118-.119z" fill="#83C150"/><path opacity=".3" d="M196.799 157.908c-5.061-5.227-8.043-26.499-3.1-30.651h25.139c4.942 4.144 1.969 25.416-3.092 30.643l-.143.142-.174.174a5.773 5.773 0 01-.458.412l-.119.094a7.854 7.854 0 01-1.036.72c-4.167 2.428-10.921 2.428-15.088 0-.229-.126-.443-.277-.664-.427-.222-.15-.237-.182-.356-.277-.119-.095-.103-.071-.15-.118-.048-.048-.301-.261-.443-.396l-.198-.197-.118-.119z" fill="#000"/><path d="M216.655 125.589c5.733 3.352 5.733 8.777 0 12.13-5.733 3.353-15.025 3.345-20.774 0-5.749-3.345-5.733-8.778 0-12.13 5.733-3.353 15.041-3.322 20.774 0z" fill="#83C150"/><path opacity=".1" d="M216.655 125.589c5.733 3.352 5.733 8.777 0 12.13-5.733 3.353-15.025 3.345-20.774 0-5.749-3.345-5.733-8.778 0-12.13 5.733-3.353 15.041-3.322 20.774 0z" fill="#000"/><path d="M213.897 127.202c4.215 2.459 4.215 6.445 0 8.904-4.215 2.459-11.071 2.459-15.255 0-4.183-2.459-4.214-6.445 0-8.904 4.215-2.46 11.048-2.46 15.255 0z" fill="#455A64"/><path d="M198.643 131.425c4.215-2.46 11.071-2.46 15.254 0a7.016 7.016 0 012.523 2.372 6.95 6.95 0 01-2.523 2.372c-4.207 2.46-11.071 2.46-15.254 0a7.008 7.008 0 01-2.523-2.372 7.118 7.118 0 012.523-2.372z" fill="#F5F5F5"/><path d="M220.207 90.153l-10.051 6.872 9.49-3.598a17.301 17.301 0 01-1.882 7.307s-6.279 3.045-9.688 6.255l8.359-2.625a40.856 40.856 0 01-1.352 9.205c-.72 2.657-3.163 7.599-4.666 10.153a31.258 31.258 0 01-2.301 3.401c-.047.071-.103.134-.158.205-1.582-1.036-3.163-2.056-4.84-3.044-.972-2.468-2.032-8.462-2.23-13.325-.727-18.623 13.989-28.223 25.471-30.983a33.604 33.604 0 00-6.152 10.177z" fill="#83C150"/><path opacity=".2" d="M220.207 90.153l-10.051 6.872 9.49-3.598a17.301 17.301 0 01-1.882 7.307s-6.279 3.045-9.688 6.255l8.359-2.625a40.856 40.856 0 01-1.352 9.205c-.72 2.657-3.163 7.599-4.666 10.153a31.258 31.258 0 01-2.301 3.401c-.047.071-.103.134-.158.205-1.582-1.036-3.163-2.056-4.84-3.044-.972-2.468-2.032-8.462-2.23-13.325-.727-18.623 13.989-28.223 25.471-30.983a33.604 33.604 0 00-6.152 10.177z" fill="#000"/><path d="M212.189 90.36a13.9 13.9 0 00-2.61 3.162 27.345 27.345 0 00-1.842 3.67 37.896 37.896 0 00-2.254 7.868 34.795 34.795 0 00.886 16.187.27.27 0 01-.371.284.26.26 0 01-.135-.126 35.15 35.15 0 01-.633-16.393 38.088 38.088 0 012.372-7.907 26.843 26.843 0 011.906-3.654 14.144 14.144 0 012.681-3.092z" fill="#FAFAFA"/><path d="M175.646 95.665a143.23 143.23 0 019.537 14.313l9.632 1.859-7.172 1.028 3.645 6.184 9.49 2.269-7.473.981s1.842 7.322 7.069 10.509c2.887 1.764 4.318 2.064 5.227 1.25.633-.57.886-4.049 1.495-7.117.609-3.069.791-8.137-1.938-14.329a18.964 18.964 0 00-2.91-4.571c-6.792-8.074-19.991-12.265-26.602-12.376z" fill="#83C150"/><path opacity=".3" d="M175.646 95.665a143.23 143.23 0 019.537 14.313l9.632 1.859-7.172 1.028 3.645 6.184 9.49 2.269-7.473.981s1.842 7.322 7.069 10.509c2.887 1.764 4.318 2.064 5.227 1.25.633-.57.886-4.049 1.495-7.117.609-3.069.791-8.137-1.938-14.329a18.964 18.964 0 00-2.91-4.571c-6.792-8.074-19.991-12.265-26.602-12.376z" fill="#fff"/><path opacity=".1" d="M203.133 115.775a29.189 29.189 0 011.977 8.066 86.382 86.382 0 01-.048 10.502c.201-.067.386-.171.546-.309.633-.569.886-4.049 1.495-7.117.609-3.068.79-8.137-1.938-14.329a18.964 18.964 0 00-2.91-4.571c-6.809-8.066-20.007-12.257-26.594-12.367 10.059 1.969 20.719 9.022 25.843 17.009.632.99 1.177 2.032 1.629 3.116z" fill="#000"/><path d="M185.705 99.145a39.475 39.475 0 0113.175 9.718 26.119 26.119 0 014.404 6.983 24.881 24.881 0 011.859 8.003 31.969 31.969 0 00-2.301-7.813 30.359 30.359 0 00-4.231-6.927 34.92 34.92 0 00-5.923-5.615 46.67 46.67 0 00-6.951-4.326s-.047-.023-.032-.023z" fill="#FAFAFA"/><path d="M235.745 102.537a20.622 20.622 0 00-2.436 0 38.898 38.898 0 00-9.426 1.724c-1.138.356-2.277.791-3.4 1.226a31.25 31.25 0 00-1.676.735 27.222 27.222 0 00-7.434 4.998 17.087 17.087 0 00-2.641 3.313l-.293.467c-.229.411-.435.791-.64 1.218a23.31 23.31 0 00-2.728 11.34c-.056 2.783.711 6.002 1.225 6.555.069.072.146.136.23.19.79.554 2.04.324 4.46-.862 4.863-2.372 7.117-8.944 7.117-8.944l-6.485-1.478 8.501-1.21 3.709-5.14-6.271-1.519 8.588-.791a127.374 127.374 0 019.553-11.798l.047-.024z" fill="#83C150"/><path opacity=".1" d="M233.278 102.498a38.874 38.874 0 00-9.395 1.763c-1.138.356-2.277.791-3.4 1.226a31.25 31.25 0 00-1.676.735 27.222 27.222 0 00-7.434 4.998 17.057 17.057 0 00-2.641 3.313l-.293.467c-.229.411-.435.791-.64 1.218a23.305 23.305 0 00-2.728 11.34c-.056 2.783.711 6.002 1.225 6.555.069.072.146.135.23.19.152.107.324.182.506.221-.34-4.333 2.372-15.127 5.828-19.437 3.598-4.484 11.862-10.81 22.877-12.55a19.976 19.976 0 00-2.459-.039z" fill="#000"/><path d="M206.969 134.532a36.936 36.936 0 011.147-9.489 30.677 30.677 0 013.654-8.849 21.64 21.64 0 013.091-3.701 30.668 30.668 0 013.693-3.076 35.45 35.45 0 018.493-4.452 46.727 46.727 0 00-8.168 4.847 38.119 38.119 0 00-3.646 3.029 20.973 20.973 0 00-3.1 3.551 30.672 30.672 0 00-3.756 8.698 37.057 37.057 0 00-1.344 9.411l-.064.031zm74.067 66.26h8.027l-1.289 7.828a1.448 1.448 0 01-.791.973 4.308 4.308 0 01-3.883 0 1.46 1.46 0 01-.791-.973l-1.273-7.828zm44.07-23.613h8.027l-1.281 7.828a1.474 1.474 0 01-.791.965 4.294 4.294 0 01-3.883 0 1.454 1.454 0 01-.79-.965l-1.282-7.828zm-103.529-9.687h8.027l-1.281 7.828a1.42 1.42 0 01-.791.965 4.256 4.256 0 01-3.883 0 1.42 1.42 0 01-.791-.965l-1.281-7.828zm40.828-23.747h8.027l-1.281 7.828a1.438 1.438 0 01-.791.965 4.294 4.294 0 01-3.883 0 1.426 1.426 0 01-.791-.965l-1.281-7.828z" fill="#FAFAFA"/><path d="M215.187 126.347v37.389a8.64 8.64 0 003.874 6.769l3.163 1.834h.056a8.794 8.794 0 004.863.831l47.645 25.21a8.695 8.695 0 003.843 6.468h.04l3.163 1.819c.092.062.19.115.292.158l.166.079h.048a8.825 8.825 0 006.033.277c.232-.069.459-.15.681-.245a.554.554 0 01.102-.047c.159-.068.312-.148.459-.238l45.865-26.396a8.628 8.628 0 003.891-6.738l.063-47.328v-17.958a8.705 8.705 0 00-3.89-6.746l-51.275-29.543a8.041 8.041 0 00-7.512.126l-3.163 1.827a10.352 10.352 0 00-4.484 6.706l-3.052 20.03-2.824-1.629a8.441 8.441 0 00-8.469 0l-35.704 20.608a8.646 8.646 0 00-3.874 6.737z" fill="#37474F"/><path d="M273.587 73.895l3.163-1.827a8.041 8.041 0 017.512-.126l51.267 29.543c.229.135.474.309.403.253a8.89 8.89 0 013.448 5.836c-.285-1.993-1.906-2.712-3.843-1.581l-3.163 1.834a8.598 8.598 0 01-7.782 0L273.595 78.41c-2.159-1.218-2.159-3.274-.008-4.515z" fill="#455A64"/><path d="M215.187 126.347v37.389a8.64 8.64 0 003.874 6.769l3.163 1.834h.056a8.35 8.35 0 004.563.862 7.722 7.722 0 003.163-.893l36.044-20.782a8.647 8.647 0 003.89-6.746v-37.404a8.622 8.622 0 00-3.89-6.745l-2.823-1.629a8.448 8.448 0 00-8.47 0l-35.696 20.608a8.646 8.646 0 00-3.874 6.737z" fill="#263238"/><path d="M263.22 99.002l2.831 1.629c2.143 1.234 2.143 3.258 0 4.492l-36.028 20.805a8.636 8.636 0 00-3.899 6.746v37.38c0 2.475-1.755 3.487-3.898 2.254l-3.163-1.835a8.65 8.65 0 01-2.747-2.906 8.653 8.653 0 01-1.144-3.831v-37.389a8.705 8.705 0 013.891-6.745l35.695-20.56a8.434 8.434 0 018.462-.04z" fill="#455A64"/><path d="M226.124 132.674v37.38c0 2.475-1.755 3.487-3.898 2.254l-3.163-1.835a8.65 8.65 0 01-2.747-2.906 8.653 8.653 0 01-1.144-3.831v-37.389a7.976 7.976 0 011.147-3.835l10.952 6.326a7.965 7.965 0 00-1.147 3.836z" fill="#37474F"/><path d="M227.746 173.201a9.245 9.245 0 001.423 2.135 16.514 16.514 0 003.662 2.562c13.688 7.908 23.565 13.586 37.253 21.494a4.328 4.328 0 003.891 0l12.653-7.315 25.305-14.613a7.324 7.324 0 003.892-6.465 7.311 7.311 0 00-3.892-6.465l-14.345-8.263-10.952-6.327-11.902-6.848a8.597 8.597 0 00-7.789 0l-36.02 20.782a8.354 8.354 0 00-3.899 6.461c.031.995.276 1.971.72 2.862z" fill="#263238"/><path d="M270.085 190.962l-41.121-23.723c-1.068-.617-1.945-.111-1.945 1.131v3.954a4.339 4.339 0 001.945 3.368l41.121 23.724c1.075.617 1.945.11 1.945-1.123v-3.954a4.281 4.281 0 00-1.945-3.377zm4.649-67.169l37.222 21.462a8.596 8.596 0 013.891 6.745v7.908a8.624 8.624 0 01-3.891 6.737l-36.036 20.774a8.591 8.591 0 01-7.781 0l-37.222-21.469a8.62 8.62 0 01-3.891-6.738v-7.908a8.63 8.63 0 013.891-6.745l36.036-20.798a8.601 8.601 0 017.781.032z" fill="#37474F"/><path d="M272.029 171.477v16.876a7.914 7.914 0 003.891-.941l36.036-20.798a8.616 8.616 0 003.891-6.737v-7.908a8.707 8.707 0 00-3.496-6.493c1.74 1.25 1.582 3.084-.395 4.247l-36.036 20.798a7.906 7.906 0 01-3.891.956z" fill="#263238"/><path d="M268.17 170.552l-37.222-21.47c-2.143-1.241-2.143-3.25 0-4.491l36.036-20.798a8.598 8.598 0 017.781 0l37.222 21.462c2.151 1.242 2.151 3.258 0 4.5l-36.035 20.797a8.598 8.598 0 01-7.782 0z" fill="#455A64"/><path d="M241.562 172.6s3.004 9.616 2.894 13.301c-.127 3.843.696 5.188-.309 9.292-.213.893-.846 2.665-1.02 3.392a1.099 1.099 0 00-.059.472 1.098 1.098 0 00.477.797c.134.089.285.147.444.17 1.629.483 4.65-2.372 6.247-5.685 1.669-3.8 3.103-7.697 4.294-11.672a5.269 5.269 0 00-.3-2.72 7.905 7.905 0 00-.649-1.456c-.411-1.708-.403-4.894-.68-7.117l-11.339 1.226z" fill="#B16668"/><path d="M257.479 186.423c.186.407.301.843.34 1.289 0 .791-1.961 3.163-2.712 3.994a6.144 6.144 0 00-1.582 4.238 10.601 10.601 0 01-3.123 6.587 16.853 16.853 0 01-8.802 4.745c-4.127.902-5.377-1.234-5.377-1.234s-1.091-2.048-.269-2.783c.823-.736 21.525-16.836 21.525-16.836z" fill="#263238"/><path d="M253.578 178.492c.127 0 .34 0 .625.403.111.15.688 2.024 1.218 3.029.53 1.004 1.977 2.941 2.056 4.499-1.186 2.902-4.16 4.745-4.816 7.528-.656 2.784-.988 6.05-5.607 9.134-4.618 3.084-9.101 3.068-10.628 2.016-1.526-1.051-1.233-2.752 1.273-5.828 2.658-3.266 4.888-10.644 4.888-10.644.296-1.038.525-2.095.687-3.163.078-1.053.078-2.11 0-3.163a2.37 2.37 0 01.325-1.415 2.452 2.452 0 011.257-.728c.741-.272 1.51-.461 2.293-.561a3.542 3.542 0 012.27.466c.433.368.884.714 1.352 1.036a2.065 2.065 0 002.159-.198 1.775 1.775 0 00.743-1.905 4.512 4.512 0 00-.095-.506z" fill="#455A64"/><path d="M249.824 200.554a6.934 6.934 0 00-5.994-3.954c-4.603-.363-6.39 1.843-7.204 3.163-.973 1.582-2.088 4.468-.261 5.481 1.969 1.091 4.365 1.012 8.263-.546 3.899-1.558 5.196-4.144 5.196-4.144zm.325-13.941a.489.489 0 01-.419-.04c-.68-.419-4.373-1.526-6.73.324-.269-.253-.174-.664.237-1.217 2.705-1.416 6.2-.388 7.023.126a.45.45 0 01.195.286.435.435 0 01-.069.339.486.486 0 01-.237.182zm-7.855 2.926a1.444 1.444 0 01.38-1.242 8.584 8.584 0 016.674.293.438.438 0 01.196.285.44.44 0 01-.069.34.482.482 0 01-.649.142c-.664-.403-4.167-1.455-6.532.182zm-2.397 6.057c.05-.608.307-1.18.728-1.621 2.681-1.321 6.097-.317 6.911.182a.441.441 0 01.197.468.443.443 0 01-.07.164.49.49 0 01-.656.143c-.712-.443-4.785-1.645-7.11.664zm8.439-3.416a.457.457 0 01-.419 0c-.672-.419-4.286-1.495-6.65.261a1.58 1.58 0 01.498-1.329 8.584 8.584 0 016.674.293.466.466 0 01.147.188.461.461 0 01-.25.603v-.016z" fill="#FAFAFA"/><path d="M236.54 183.671s-2.839 11.19-5.298 15.413c-2.46 4.222-3.717 6.262-6.88 9.347-.688.672-2.23 1.897-2.791 2.443-.13.107-.234.241-.305.393a1.127 1.127 0 000 .97c.071.152.175.286.305.393 1.178 1.336 6.587 2.079 9.821.055s6.421-6.651 8.39-8.335a31.474 31.474 0 002.12-1.977c.68-.696.545-1.376.664-2.175.055-.395.087-1.462.087-1.462.577-1.875 1.961-4.745 2.712-6.588l-8.825-8.477z" fill="#FFA8A7"/><path d="M242.944 207.395c-.009.47-.097.935-.261 1.376-.364.711-3.251 2.087-4.35 2.562a6.45 6.45 0 00-3.376 3.297 11.07 11.07 0 01-5.9 4.832 17.559 17.559 0 01-10.454.569c-4.31-.996-4.531-3.574-4.531-3.574s-.119-2.42.989-2.752c1.107-.332 27.883-6.31 27.883-6.31z" fill="#263238"/><path d="M242.795 198.182c.119.063.332.15.419.656 0 .198-.253 2.23-.198 3.409.056 1.178.554 3.669-.071 5.179-2.42 2.222-6.057 2.634-7.908 4.974-1.85 2.341-3.629 5.291-9.386 6.145-5.757.854-9.98-1.171-10.953-2.839-.972-1.669.056-3.163 3.804-4.951 3.954-1.905 9.379-7.907 9.387-7.907a26.303 26.303 0 002.056-2.681 22.382 22.382 0 001.399-3.029c.179-.486.505-.903.934-1.194a2.544 2.544 0 011.518-.119c.822.073 1.633.235 2.42.483a3.74 3.74 0 011.937 1.463c.308.506.459 1.107.791 1.581.248.317.579.558.956.697.377.14.785.173 1.179.094a1.839 1.839 0 001.582-1.471c.054-.16.099-.324.134-.49z" fill="#455A64"/><path d="M229.42 217.335a7.234 7.234 0 00-3.915-6.39c-4.191-2.412-6.864-1.123-8.224-.237-1.621 1.052-3.954 3.29-2.696 5.069 1.376 1.914 3.685 2.902 8.066 3.163 4.38.261 6.769-1.605 6.769-1.605zm6.501-13.032a.502.502 0 01-.38-.222c-.451-.703-3.456-3.4-6.516-2.704-.135-.356.134-.704.791-1.044 3.163-.127 6.033 2.372 6.587 3.25a.455.455 0 01-.025.528.515.515 0 01-.457.192zm-8.731-.744a1.485 1.485 0 01.902-1.004 9.04 9.04 0 016.192 3.258.45.45 0 01-.025.527.443.443 0 01-.141.121.505.505 0 01-.68-.15c-.435-.68-3.29-3.234-6.248-2.752zm-4.981 4.666c.321-.552.82-.979 1.415-1.21 3.164-.048 5.916 2.428 6.453 3.266a.464.464 0 01.061.358.472.472 0 01-.079.168.467.467 0 01-.14.122.507.507 0 01-.3.064.49.49 0 01-.38-.222c-.482-.727-3.772-3.701-7.03-2.546zm9.514.538a.484.484 0 01-.38-.222c-.451-.696-3.393-3.329-6.413-2.72a1.687 1.687 0 011.059-1.036 9.075 9.075 0 016.192 3.258.48.48 0 01.062.362.474.474 0 01-.52.358z" fill="#FAFAFA"/><path d="M266.983 121.191c-4.943 3.013-21.929 11-29.014 16.536-2.048 1.581-2.87 3.859-2.831 8.943.055 6.904 3.472 30.691 3.472 30.691.632 1.383 2.143-1.013 2.143-1.013l28.412-30.413-2.182-24.744z" fill="#83C150"/><path opacity=".3" d="M266.983 121.191c-4.943 3.013-21.929 11-29.014 16.536-2.048 1.581-2.87 3.859-2.831 8.943.055 6.904 3.472 30.691 3.472 30.691.632 1.383 2.143-1.013 2.143-1.013l28.412-30.413-2.182-24.744z" fill="#000"/><path opacity=".3" d="M240.335 170.188c6.326-4.46 28.097-33.11 28.097-33.11-2.428-2.428-3.163-10.193-3.163-10.193-1.282 2.863-.57 7.41.102 9.102-1.621 1.178-10.746 7.481-17.073 11.672a8.505 8.505 0 00-3.954 5.013c-1.747 6.311-4.033 16.204-4.009 17.516z" fill="#000"/><path d="M266.983 121.191l32.422 10.099c-2.119 5.931-2.846 9.022-4.8 12.075-1.953 3.052-4.12 6.326-13.063 9.821-8.62 3.377-19.082 6.722-21.185 7.513-1.582.593-2.563 3.582-3.591 7.473-1.067 4.08-1.407 7.322-6.239 15.665-4.745 8.177-5.701 9.948-5.701 9.948s-6.263.119-10.083-3.851c0 0 8.082-28.713 9.727-33.869.917-2.879 1.059-4.421 4.974-7.339 3.361-2.506 18.188-11.861 18.188-11.861s-4.903-7.94-.649-15.674z" fill="#83C150"/><path opacity=".3" d="M266.983 121.191l32.422 10.099c-2.119 5.931-2.846 9.022-4.8 12.075-1.953 3.052-4.12 6.326-13.063 9.821-8.62 3.377-19.082 6.722-21.185 7.513-1.582.593-2.563 3.582-3.591 7.473-1.067 4.08-1.407 7.322-6.239 15.665-4.745 8.177-5.701 9.948-5.701 9.948s-6.263.119-10.083-3.851c0 0 8.082-28.713 9.727-33.869.917-2.879 1.059-4.421 4.974-7.339 3.361-2.506 18.188-11.861 18.188-11.861s-4.903-7.94-.649-15.674z" fill="#000"/><path d="M268.914 76.575c-.625-.372-1.148-4.713-.484-7.686.665-2.973-.711-3.7-1.391-2.768a4.879 4.879 0 00-.839 1.732 8.293 8.293 0 00-3.875 2.064c-1.668 1.653-3.629 3.67-3.052 8.074a11.476 11.476 0 01-.3 4.381c-2.373 6.469-10.803 14.566-12.7 23.194-1.756 7.907 4.436 8.698 9.845 6.326 6.215-2.792 18.125-13.364 18.125-13.364l5.163-17.326c-3.281 0-5.725.53-10.082 4.744-.728.704-3.756 3.29-3.756 3.29.836-2.119 2.593-5.072 3.818-6.993" fill="#FFA8A7"/><path d="M261.172 100.607c-.886 2-1.944 3.918-3.163 5.733a11.298 11.298 0 004.057-4.744l-.894-.989z" fill="#F28F8F"/><path d="M280.117 81.194c-3.558-.332-6.437.221-9.228 2.918-2.57 2.49-5.322 5.116-5.322 5.116-1.843 4.286-3.163 8.446-4.397 11.38.61 2.3 1.741 4.43 3.305 6.223l14.424-11.585 1.218-14.052z" fill="#FAFAFA"/><path d="M266.784 81.202c.997-1.582-.466-3.116-.466-3.116l2.372-1.582v-.102l-9.489-.427a11.32 11.32 0 00.087 2.032c.071.683.095 1.37.071 2.056l1.234.735a.922.922 0 00.885 0l3.994-2.064c1.368.578 1.312 2.468 1.312 2.468z" fill="#F28F8F"/><path d="M259.131 67.988l16.606-7.837a.928.928 0 01.933 0c.206.134 1.06.664 1.297.79a.887.887 0 01.419.791l.538 8.596a2.106 2.106 0 01-1.139 1.882l-16.606 7.837a.978.978 0 01-.878 0 56.616 56.616 0 01-1.407-.862.93.93 0 01-.364-.727l-.538-8.596a2.102 2.102 0 011.139-1.874z" fill="#37474F"/><path d="M277.776 70.526a1.168 1.168 0 01-.569.941l-15.713 7.425v.38l-.64-9.15a1.122 1.122 0 01.561-.925l16.069-7.615-.348.166.64 8.778z" fill="#83C150"/><path opacity=".75" d="M277.776 70.526a1.168 1.168 0 01-.569.941l-15.713 7.425v.38l-.64-9.15a1.122 1.122 0 01.561-.925l16.069-7.615-.348.166.64 8.778z" fill="#fff"/><path d="M278.165 70.74a1.165 1.165 0 01-.57.933l-16.076 7.599v-.38l15.712-7.425a1.158 1.158 0 00.57-.941l-.617-8.77.348-.166.633 9.15zm-17.816 9.339h-.048a56.616 56.616 0 01-1.407-.862.93.93 0 01-.364-.728c-.134-2.159-.403-6.437-.538-8.596a2.07 2.07 0 01.578-1.455l1.352.791a2.064 2.064 0 00-.585 1.463l.537 8.604a.879.879 0 00.475.783z" fill="#263238"/><path d="M277.976 60.942a.987.987 0 00-.854 0l-16.607 7.844a1.775 1.775 0 00-.561.411l-1.36-.79a1.95 1.95 0 01.569-.427l16.607-7.837a.952.952 0 01.925 0c.174.142.964.633 1.281.799z" fill="#455A64"/><path opacity=".35" d="M260.484 74.266a.62.62 0 00-.324.562.236.236 0 00.372.214.635.635 0 00.324-.562.242.242 0 00-.119-.225.235.235 0 00-.253.011z" fill="#000"/><path d="M268.96 76.402c.498-.412.68-1.7 1.526-2.863.981-1.336 3.243-.989 2.539.095-.704 1.083-.949 2.064-1.463 4.824-.514 2.76-1.621 3.163-2.855 4.744v-6.65l.253-.15z" fill="#FFA8A7"/><path d="M291.82 82.514c2.729.72 11.546 4.2 11.546 4.2 1.898 1.486 1.099 4.744 1.067 8.484-.735 27.124-5.432 39.207-5.432 39.207-10.613 2.325-29.995-4.42-33.601-12.518 3.243-4.926 5.425-12.289 5.884-26.744.34-10.731 5.219-13.973 8.382-13.95a52.048 52.048 0 0112.154 1.321z" fill="#EBEBEB"/><path d="M278.3 60.198a3.859 3.859 0 000-1.898c-.189-.672-.442-1.32-.608-1.992a45.96 45.96 0 00-.728-2.713 13.035 13.035 0 01-.886-3.859 2.37 2.37 0 01.657-1.716 2.367 2.367 0 012.309-.387 7.002 7.002 0 012.095 1.257 4.374 4.374 0 01.791-2.728 2.53 2.53 0 012.554-.965c.886.245 1.495 1.044 2.207 1.63 1.297 1.067 3.005 1.446 4.634 1.866 1.698.305 3.306.989 4.705 2a7.374 7.374 0 012.783 5.536c0 .79-.332 2.744-.458 3.788-.198 1.581-.364 3.163-.617 4.689-1.297 7.908-3.883 13.649-11.862 13.064-3.036-.23-7.275-2.112-8.066-5.417a11.55 11.55 0 01-.15-1.732 39.973 39.973 0 01-.087-3.495 41.85 41.85 0 01.727-6.928z" fill="#263238"/><path d="M298.844 56.252s1.534.056 2.372 2.056c.704 1.74 1.028 4.484-.68 8.699-1.803 4.468-3.218 5.868-4.199 7.528-.704 1.194-1.827 3.44-1.827 3.44l.498-5.25.451-3.646s-2.246-.514-2.894-4.16c-.735-4.096.039-4.61.039-4.61l6.24-4.057z" fill="#455A64"/><path d="M295.27 68.652a.909.909 0 00.862-.063c.727-.427 1.067-1.345 1.684-1.898.791-.72 3.29-1.582 4.31 1.028 1.02 2.61-1.542 6.041-3.409 6.753-2.744 1.044-3.74-1.716-3.74-1.716l-1.06 11.071c-3.163 4.84-6.555 5.227-9.797 4.998-3.243-.23-2.997-3.243-.918-5.314l.277-3.606a21.23 21.23 0 01-4.444-.095c-2.372-.554-3.519-2.46-4.057-5.132a35.57 35.57 0 01-.379-9.387 39.048 39.048 0 011.818-8.509s1.376-1.25 5.37-1.313c2.823 0 6.381-.237 7.86 1.535a4.043 4.043 0 002.926 3.368c-.854 5.662 2.222 8.074 2.697 8.28z" fill="#FFA8A7"/><path d="M289.751 57.462c-.585-1.075-2.665-1.581-3.867-1.407a28.062 28.062 0 00-4.871 1.502c-1.177.4-2.411.605-3.654.61a6.587 6.587 0 01-3.4-.87 3.945 3.945 0 01-1.534-3.037 3.955 3.955 0 011.368-3.084 1.625 1.625 0 00.791 1.328c.463.27.968.463 1.494.57a2.95 2.95 0 01-.988-2.776 3.88 3.88 0 012.269-2.602c.949-.269 2.048-.553 4.152 1.186 2.103 1.74 9.252 2.784 8.24 8.58z" fill="#263238"/><path d="M283.48 79.873s5.464-.688 7.417-1.582a6.268 6.268 0 002.8-2.372 8.53 8.53 0 01-1.708 2.926c-1.503 1.66-8.62 2.436-8.62 2.436l.111-1.408z" fill="#F28F8F"/><path d="M285.733 65.892a1.085 1.085 0 00.625 1.018c.192.09.407.121.617.09a1.085 1.085 0 00.866-1.422 1.087 1.087 0 00-.946-.73 1.106 1.106 0 00-1.162 1.044zm.705-4.002l2.293 1.25a1.385 1.385 0 00-.562-1.835 1.288 1.288 0 00-1.731.586z" fill="#263238"/><path d="M285.94 72.653l-4.642 1.376a2.37 2.37 0 002.957 1.724 2.533 2.533 0 001.685-3.1z" fill="#9A4A4D"/><path d="M284.253 75.737a2.37 2.37 0 01-1.257 0 2.191 2.191 0 012.942-1.81 2.489 2.489 0 01-1.685 1.81z" fill="#F28F8F"/><path d="M276.078 62.167l2.562-.79a1.27 1.27 0 00-1.075-.963 1.273 1.273 0 00-.506.037 1.399 1.399 0 00-.981 1.716zm.789 3.037a1.097 1.097 0 00.582 1.082c.129.068.27.108.415.12a1.123 1.123 0 10-.997-1.202z" fill="#263238"/><path d="M282.523 63.947l-.783 7.306-3.661-1.557 4.444-5.75z" fill="#F28F8F"/><path d="M285.733 204.453v-37.388a8.694 8.694 0 013.891-6.746l36.083-20.821a2.575 2.575 0 001.279-2.222 2.574 2.574 0 00-1.279-2.222l-.885-.506 3.06-20.031a10.354 10.354 0 014.484-6.706l3.163-1.826c2.143-1.242 3.891-.23 3.891 2.246v17.99l-.079 47.336a8.637 8.637 0 01-1.142 3.833 8.634 8.634 0 01-2.749 2.905l-45.865 26.404c-2.096 1.233-3.852.221-3.852-2.246z" fill="#263238"/><path d="M274.789 160.738v37.642a8.709 8.709 0 003.843 6.468h.04l3.163 1.819c.092.062.19.115.293.158l.166.079h.047c.099.049.202.088.308.119a9.036 9.036 0 005.726.158c.231-.069.458-.151.68-.245-1.874.791-3.321-.285-3.329-2.523v-37.348a8.642 8.642 0 013.89-6.746l7.07-4.08 29.014-16.741a2.573 2.573 0 00.936-3.504 2.573 2.573 0 00-.936-.94l-3.219-1.859a8.646 8.646 0 00-7.781 0l-28.967 16.749-7.053 4.073a8.61 8.61 0 00-3.891 6.721z" fill="#455A64"/><path d="M285.732 167.065v37.38c0 2.238 1.455 3.29 3.33 2.523a6.559 6.559 0 01-.68.245 9.036 9.036 0 01-5.726-.158 1.885 1.885 0 01-.308-.119h-.048l-.166-.079a1.715 1.715 0 01-.292-.158l-3.163-1.819h-.04a8.703 8.703 0 01-3.843-6.469v-37.672a7.963 7.963 0 011.139-3.836l10.952 6.327a7.907 7.907 0 00-1.155 3.835z" fill="#37474F"/><path d="M317.885 124.639c-1.051-8.24-1.929-12.526-3.012-18.053-2.523-12.827-1.93-16.512-11.206-18.924 0 0-3.361 2.958-3.503 10.55-.103 5.732 1.582 8.888 1.582 8.888l3.953 18.978c-3.424 3.164-12.201 10.059-14.344 11.19-2.887 1.534-6.089 2.127-9.173 3.163-2.049.704-3.954 1.582-5.963 2.42a.784.784 0 00-.3.166.613.613 0 00-.127.656c.097.219.256.403.459.53a3.827 3.827 0 003.321.451c.941-.214 1.748-.712 2.863-.68.213 0 .442.063.355.332-.085.186-.2.357-.34.506a7.718 7.718 0 01-3.115 1.503 12.736 12.736 0 01-3.322.474c-.905-.031-1.811.03-2.704.182a2.05 2.05 0 00-.791.34c-1.226.957.72 1.692 1.115 2.372.206.348.57.965.791 1.289.269.267.593.472.949.601.442.28.868.586 1.273.918a6.19 6.19 0 003.503.909 19.624 19.624 0 003.116-.324 13.273 13.273 0 006.018-2.341 18.084 18.084 0 002.056-1.906c.553-.577 1.099-1.17 1.692-1.724.975-.827 1.994-1.6 3.053-2.317 1.542-.893 10.383-5.076 19.247-11.26 3.891-2.729 3.021-5.283 2.554-8.889z" fill="#FFA8A7"/><path d="M303.366 86.682c6.572 2.135 8.359 4.91 8.984 7.014.909 3.029 1.581 6.484 2.673 11.601 1.581 7.654 1.866 10.683 1.866 10.683s-3.622 2.934-13.032 2.815l-3.163-12.447s-4.579-10.889 2.672-19.666z" fill="#FAFAFA"/><path d="M312.954 210.613l5.037-2.91-5.037-1.455v4.365z" fill="#83C150"/><path opacity=".6" d="M312.954 210.613l5.037-2.91-5.037-1.455v4.365z" fill="#fff"/><path opacity=".05" d="M312.954 210.613l5.037-2.91-5.037-1.455v4.365z" fill="#000"/><path d="M312.951 210.613l-2.522-1.455v-4.365l2.522 1.455v4.365z" fill="#83C150"/><path opacity=".75" d="M312.951 210.613l-2.522-1.455v-4.365l2.522 1.455v4.365z" fill="#fff"/><path d="M338.193 220.822v4.642l36.455-21.043v-4.642l-36.455 21.043z" fill="#83C150"/><path opacity=".6" d="M338.193 220.822v4.642l36.455-21.043v-4.642l-36.455 21.043z" fill="#fff"/><path opacity=".1" d="M338.193 220.822v4.642l36.455-21.043v-4.642l-36.455 21.043z" fill="#000"/><path d="M338.193 225.464l-2.523-1.455v-4.642l2.523 1.455v4.642z" fill="#83C150"/><path opacity=".75" d="M338.193 225.464l-2.523-1.455v-4.642l2.523 1.455v4.642z" fill="#fff"/><path d="M377.172 163.411l-36.463 21.043v37.823l36.463-21.043v-37.823z" fill="#83C150"/><path opacity=".6" d="M377.172 163.411l-36.463 21.043v37.823l36.463-21.043v-37.823z" fill="#fff"/><path d="M340.709 184.454l-32.802-18.939v37.823l32.802 18.939v-37.823z" fill="#83C150"/><path opacity=".75" d="M340.709 184.454l-32.802-18.939v37.823l32.802 18.939v-37.823z" fill="#fff"/><path d="M307.907 165.515l36.463-21.043 32.802 18.939-36.463 21.043-32.802-18.939z" fill="#83C150"/><path opacity=".85" d="M307.907 165.515l36.463-21.043 32.802 18.939-36.463 21.043-32.802-18.939z" fill="#fff"/><path d="M338.193 197.549l-27.764-16.029v20.363l27.764 16.029v-20.363z" fill="#83C150"/><path opacity=".7" d="M338.193 197.549l-27.764-16.029v20.363l27.764 16.029v-20.363z" fill="#fff"/><path opacity=".1" d="M310.429 201.883l17.516-10.249 10.248 5.915v20.363l-27.764-16.029z" fill="#000"/><path opacity=".05" d="M310.429 201.883l17.516-10.249-17.516-10.114v20.363z" fill="#000"/><path d="M338.193 185.909l-27.764-16.029v8.73l27.764 16.029v-8.73z" fill="#83C150"/><path opacity=".85" d="M338.193 185.909l-27.764-16.029v8.73l27.764 16.029v-8.73z" fill="#fff"/><path d="M329.581 182.778c0 .403-1.202 0-2.68-.791l-4.706-2.784c-1.486-.854-2.688-1.874-2.688-2.277v-.728l10.074 5.821v.759z" fill="#455A64"/><path opacity=".1" d="M358.97 168.362a12.505 12.505 0 006.848-1.867c1.582-1.059 2.475-2.372 2.475-3.74 0-1.368-.878-2.681-2.475-3.74a13.51 13.51 0 00-13.704 0c-1.582 1.059-2.475 2.372-2.475 3.74 0 1.368.877 2.681 2.475 3.74a12.513 12.513 0 006.856 1.867z" fill="#000"/><path d="M352.837 162.304c0-.161.016-.323.047-.482a7.289 7.289 0 012.958-4.412h6.192a7.292 7.292 0 012.957 4.412c.032.162.048.326.048.49v.079a3.109 3.109 0 01-1.78 2.373 9.532 9.532 0 01-8.627 0 3.108 3.108 0 01-1.779-2.373.788.788 0 01-.016-.087z" fill="#37474F"/><path d="M361.868 157.307c1.621.941 1.621 2.451 0 3.392a6.498 6.498 0 01-5.867 0c-1.582-.941-1.582-2.451 0-3.392a6.497 6.497 0 015.867 0z" fill="#455A64"/><path d="M358.097 136.667h1.684v21.691a.38.38 0 01-.237.38 1.32 1.32 0 01-1.194 0 .382.382 0 01-.238-.38l-.015-21.691z" fill="#263238"/><path d="M346.496 133.417l5.86-14.938h13.174l5.86 14.938c.83 2.372-.317 4.863-3.456 6.682-4.966 2.863-13.008 2.863-17.974 0-3.148-1.819-4.302-4.341-3.464-6.682z" fill="#83C150"/><path d="M363.704 122.054a10.543 10.543 0 01-9.529 0c-2.633-1.519-2.633-3.954 0-5.536a10.534 10.534 0 019.529 0c2.633 1.55 2.633 4.017 0 5.536z" fill="#83C150"/><path opacity=".3" d="M363.704 122.054a10.543 10.543 0 01-9.529 0c-2.633-1.519-2.633-3.954 0-5.536a10.534 10.534 0 019.529 0c2.633 1.55 2.633 4.017 0 5.536z" fill="#fff"/><path d="M358.936 122.417a8.944 8.944 0 004.381-1.036c1.02-.593 1.582-1.328 1.582-2.079a2.63 2.63 0 00-1.582-2.072 9.768 9.768 0 00-8.754 0 2.621 2.621 0 00-1.582 2.072c0 .751.562 1.486 1.582 2.079a8.927 8.927 0 004.373 1.036z" fill="#83C150"/><path opacity=".15" d="M358.936 122.417a8.944 8.944 0 004.381-1.036c1.02-.593 1.582-1.328 1.582-2.079a2.63 2.63 0 00-1.582-2.072 9.768 9.768 0 00-8.754 0 2.621 2.621 0 00-1.582 2.072c0 .751.562 1.486 1.582 2.079a8.927 8.927 0 004.373 1.036z" fill="#000"/><path d="M379.266 65.062L354.467 50.74a1.43 1.43 0 00-1.463-.135l-3.163 1.843a1.44 1.44 0 00-.609 1.336v36.06a4.547 4.547 0 002.056 3.558l24.799 14.322a1.45 1.45 0 001.463.134l3.203-1.85a1.444 1.444 0 00.601-1.329V68.62a4.537 4.537 0 00-2.088-3.558z" fill="#455A64"/><path d="M381.323 68.62v36.052a1.46 1.46 0 01-.601 1.337l-3.107 1.787a1.511 1.511 0 00.498-1.266V70.47a4.233 4.233 0 00-.601-2.024l3.21-1.85c.37.612.577 1.31.601 2.024z" fill="#263238"/><path d="M351.256 93.396l24.799 14.321c1.139.648 2.056.118 2.056-1.186V70.479a4.512 4.512 0 00-2.056-3.559L351.256 52.6c-1.138-.657-2.056-.127-2.056 1.185v36.06a4.567 4.567 0 002.056 3.55z" fill="#455A64"/><path d="M380.72 66.596l-3.21 1.85a4.265 4.265 0 00-1.455-1.534L351.256 52.6a1.522 1.522 0 00-1.36-.197c.577-.333 2.767-1.582 3.107-1.796a1.44 1.44 0 011.463.143l24.799 14.313a4.12 4.12 0 011.455 1.534z" fill="#37474F"/><path d="M370.446 90.003c-.546-.988-1.131-1.937-1.708-2.886-1.139-1.898-2.191-2.602-3.045-1.1a1.582 1.582 0 01-2.586 0 23.425 23.425 0 01-4.31-8.959c-.387-1.582.348-3.163 1.25-3.598a1.461 1.461 0 00.925-1.653c-.047-1.463-2.301-7.544-3.163-8.556a1.58 1.58 0 00-1.107-.648c-2.088-.12-4.587 2.475-3.756 6.08 2.467 10.763 4.507 16.425 11.395 25.416 2.934 3.86 6.698 1.74 7.37.23.443-1.677-.49-2.982-1.234-4.334l-.031.008zm-5.418-23.265c4.373 3.567 6.39 7.908 6.951 15.025.048.657-.103 1.51.483 1.866.585.356.458-.648.466-1.273-.111-7.29-3.068-14.044-7.773-17.017-.285-.174-.973-.902-1.012.166 0 .727.521.925.885 1.218v.015z" fill="#FAFAFA"/><path d="M365.25 69.443c-.419-.317-.98-.95-1.075-.103-.095.846.514 1.147.917 1.51 2.697 2.491 3.638 4.547 4.089 8.936.063.64-.072 1.503.593 1.724.498.174.316-.735.356-1.178 0-3.954-2.183-8.833-4.88-10.89z" fill="#FAFAFA"/><path d="M364.839 73.025c-.285-.15-.554-.269-.657.134a1.127 1.127 0 00.498 1.234 5.346 5.346 0 011.803 4.017c0 .483.222.965.514 1.084.293.118.435-.372.42-.902 0-1.906-1.384-4.927-2.578-5.535v-.032z" fill="#FAFAFA"/><path d="M380.504 49.736l-1.416-3.163a1.322 1.322 0 00-.704-.593 8.202 8.202 0 01-1.083-.443.252.252 0 00-.198 0 .19.19 0 00-.071.05.173.173 0 00-.039.077l-.712 1.898a.88.88 0 01-.593.561.854.854 0 01-.791-.23l-2.451-2.205a1.812 1.812 0 01-.546-1.471l.316-2.452a1.496 1.496 0 00-.253-.94c-.387-.538-.791-1.108-1.115-1.7a.948.948 0 00-.688-.412h-1.676a1.451 1.451 0 01-1.273-.901l-1.337-3.614a1.061 1.061 0 01.287-1.128 1.01 1.01 0 01.362-.209l1.383-.482a.455.455 0 00.261-.474 19.044 19.044 0 01-.181-1.732 1.653 1.653 0 00-.38-.926l-2.175-2.38a1.744 1.744 0 01-.403-1.518l.593-2.475a.795.795 0 01.517-.626.791.791 0 01.796.159l2.198 1.66a.283.283 0 00.317 0 .292.292 0 00.079-.078c.157-.202.332-.39.521-.562a.784.784 0 00.23-.68l-.894-3.234a.98.98 0 01.103-.791.997.997 0 01.688-.443l1.756-.269a1.334 1.334 0 011.368.744l1.415 3.163c.155.273.401.484.696.593a7.9 7.9 0 011.091.443.258.258 0 00.198 0 .223.223 0 00.111-.127l.711-1.898a.872.872 0 01.593-.561.864.864 0 01.791.23l2.452 2.205a1.81 1.81 0 01.545 1.471l-.316 2.452c-.023.333.067.664.253.94.388.538.791 1.108 1.115 1.7a.934.934 0 00.688.412h1.677a1.448 1.448 0 011.273.902l1.336 3.613a1.06 1.06 0 010 .791 1.042 1.042 0 01-.609.546l-1.384.482a.47.47 0 00-.269.475c.095.573.155 1.151.182 1.732.035.338.167.66.38.925l2.08 2.364a1.795 1.795 0 01.403 1.519l-.593 2.435a.794.794 0 01-.522.617.84.84 0 01-.791-.15l-2.19-1.66a.294.294 0 00-.396.078c-.159.2-.334.388-.522.562a.793.793 0 00-.229.68l.941 3.266a.963.963 0 01-.103.79.998.998 0 01-.688.443l-1.755.27h-.174a1.355 1.355 0 01-1.186-.72zm4.57-5.954l2.199 1.66.063.04v-.079l.601-2.467a1.032 1.032 0 00-.214-.791l-2.158-2.262a2.47 2.47 0 01-.593-1.423 13.88 13.88 0 00-.174-1.653 1.215 1.215 0 01.79-1.32l1.384-.49a.252.252 0 00.158-.143.265.265 0 000-.221l-1.328-3.614a.72.72 0 00-.562-.396h-1.668a1.718 1.718 0 01-1.352-.79 18.523 18.523 0 00-1.052-1.67 2.368 2.368 0 01-.395-1.502l.316-2.451a1.048 1.048 0 00-.293-.79l-2.451-2.207c-.048-.04-.071-.047-.079-.047a.252.252 0 00-.048.079l-.711 1.897a.954.954 0 01-.546.57.989.989 0 01-.83 0 9.337 9.337 0 00-.989-.404 2.05 2.05 0 01-1.17-1.012l-1.424-3.25a.558.558 0 00-.537-.292l-1.756.268a.244.244 0 00-.15.095.217.217 0 00-.019.087c0 .03.007.06.019.087l.965 3.235a1.537 1.537 0 01-.451 1.47 4.942 4.942 0 00-.443.475 1.061 1.061 0 01-.695.415 1.05 1.05 0 01-.784-.201l-2.19-1.661h-.063a.21.21 0 000 .079l-.601 2.467a1.014 1.014 0 00.213.79l2.159 2.263c.344.399.552.897.593 1.423.024.554.082 1.106.174 1.653a1.224 1.224 0 01-.791 1.32l-1.384.49a.252.252 0 00-.158.142.264.264 0 000 .222l1.329 3.606a.688.688 0 00.561.404h1.669a1.732 1.732 0 011.352.79c.329.565.688 1.111 1.075 1.637.297.443.436.972.396 1.503l-.317 2.451a1.065 1.065 0 00.293.791l2.451 2.206c.02.022.044.038.072.048l.047-.08.72-1.897a.924.924 0 01.545-.57.968.968 0 01.791.04c.325.152.657.287.996.403.507.174.926.537 1.171 1.013l1.415 3.163a.56.56 0 00.538.292l1.756-.269a.199.199 0 00.15-.093.189.189 0 00.028-.086.196.196 0 00-.012-.09l-.965-3.234a1.527 1.527 0 01.451-1.47c.164-.14.317-.29.458-.451a1.112 1.112 0 01.854-.42c.219.007.431.084.601.222zm-9.718-3.954c-2.752-2.467-4.397-6.951-3.67-9.988a3.42 3.42 0 012.207-2.657c1.344-.419 2.989.135 4.523 1.519 2.752 2.467 4.397 6.95 3.669 9.987a3.417 3.417 0 01-2.206 2.657 3.223 3.223 0 01-.917.135 5.589 5.589 0 01-3.606-1.685v.032zm-1.234-11.862a2.632 2.632 0 00-1.676 2.096c-.688 2.712.893 6.856 3.424 9.173 1.328 1.194 2.704 1.684 3.78 1.352a2.63 2.63 0 001.676-2.143c.672-2.784-.87-6.927-3.432-9.228a4.855 4.855 0 00-3.076-1.455 2.244 2.244 0 00-.688.134l-.008.071zm-15.965 13.641l-1.02-2.301a.862.862 0 00-.459-.387 7.3 7.3 0 01-.79-.325h-.127l-.514 1.431a.637.637 0 01-.466.447.642.642 0 01-.617-.186l-1.764-1.581a1.38 1.38 0 01-.411-1.107l.229-1.764a1.113 1.113 0 00-.174-.624 11.65 11.65 0 01-.79-1.226.664.664 0 00-.435-.269l-1.202-.016a1.114 1.114 0 01-.973-.696l-.957-2.593a.8.8 0 010-.633.799.799 0 01.475-.427l.996-.348a.244.244 0 00.142-.269 11.38 11.38 0 01-.126-1.25 1.112 1.112 0 00-.253-.616l-1.582-1.582a1.365 1.365 0 01-.3-1.154l.427-1.771a.634.634 0 01.744-.52.633.633 0 01.3.148l1.581 1.186a.133.133 0 00.154-.006 3.77 3.77 0 01.423-.444.474.474 0 00.143-.42l-.688-2.325a.781.781 0 01.087-.64.782.782 0 01.537-.348l1.258-.19a1.012 1.012 0 011.052.57l1.02 2.3a.86.86 0 00.458.388c.27.09.534.195.791.316 0 0 .063 0 .127-.04l.514-1.36a.683.683 0 01.466-.442.696.696 0 01.625.174l1.755 1.581a1.347 1.347 0 01.412 1.107l-.222 1.764c-.011.22.047.439.166.625.285.387.554.79.791 1.225a.653.653 0 00.435.27h1.202a1.121 1.121 0 01.973.695l1.004 2.562a.782.782 0 01-.011.645.788.788 0 01-.487.423l-.997.348a.255.255 0 00-.15.26c.071.416.116.836.135 1.258.024.225.111.44.253.617l1.581 1.581a1.374 1.374 0 01.309 1.147l-.427 1.78a.683.683 0 01-.42.49.67.67 0 01-.632-.12l-1.582-1.185c-.071-.063-.158 0-.19.047a3.752 3.752 0 01-.387.404.476.476 0 00-.142.419l.688 2.325a.794.794 0 01-.079.64.802.802 0 01-.546.34l-1.257.198h-.127a1.047 1.047 0 01-.949-.546zm3.385-4.357l1.518 1.233.427-1.779a.64.64 0 00-.142-.506l-1.542-1.629a1.797 1.797 0 01-.443-1.06c-.02-.394-.062-.788-.127-1.178a.956.956 0 01.601-1.02l.997-.348a.147.147 0 00.079-.071.151.151 0 000-.103l-.941-2.625a.438.438 0 00-.34-.245h-1.194a1.31 1.31 0 01-1.021-.601 13.734 13.734 0 00-.79-1.17 1.734 1.734 0 01-.293-1.124l.229-1.763a.743.743 0 00-.189-.506l-1.74-1.582-.514 1.36a.742.742 0 01-.435.451.79.79 0 01-.641 0 7.251 7.251 0 00-.703-.285 1.52 1.52 0 01-.878-.79l-1.02-2.293a.338.338 0 00-.317-.174l-1.257.197-.047-.34v.443l.688 2.325a1.17 1.17 0 01-.34 1.123 4.248 4.248 0 00-.317.332.786.786 0 01-.859.313.783.783 0 01-.287-.147l-1.535-1.21-.427 1.78a.655.655 0 00.143.506l1.542 1.581c.256.3.411.674.443 1.068 0 .38.063.79.126 1.178a.946.946 0 01-.601 1.02l-.996.348a.14.14 0 00-.079.071.151.151 0 000 .103l.957 2.594a.42.42 0 00.34.237h1.194a1.342 1.342 0 011.028.6c.242.405.506.796.79 1.171.224.33.328.726.293 1.123l-.253 1.795a.744.744 0 00.19.506l1.747 1.582.546-1.297a.788.788 0 01.435-.45.79.79 0 01.648 0c.227.108.459.203.696.284a1.522 1.522 0 01.878.79l1.02 2.294a.34.34 0 00.317.174l1.257-.198.063-.103-.688-2.325a1.15 1.15 0 01.34-1.122 4.23 4.23 0 00.317-.332.782.782 0 01.656-.333.794.794 0 01.451.15v-.023zm-7.062-2.76c-1.993-1.787-3.163-5.03-2.649-7.228a2.504 2.504 0 011.629-1.953c.98-.308 2.19.095 3.305 1.1 1.993 1.786 3.163 5.029 2.649 7.227a2.498 2.498 0 01-1.621 1.953c-.22.07-.449.104-.68.103a4.095 4.095 0 01-2.633-1.202zm-.791-8.525a1.826 1.826 0 00-1.154 1.456c-.475 1.976.616 4.918 2.435 6.555.933.838 1.898 1.186 2.649.957a1.837 1.837 0 001.155-1.455c.474-1.977-.617-4.919-2.436-6.556a3.43 3.43 0 00-2.166-1.028c-.176.007-.35.042-.514.103l.031-.032zm-17.512 56.431a3.425 3.425 0 01-1.74-.522l-.213-.135a.62.62 0 01-.182-.79l1.977-3.954-1.012-3.338-1.811-1.067-1.764 3.59a.36.36 0 01-.371.206c-.356 0-.625-.601-.712-.941a12.462 12.462 0 01-.419-3.227c0-2.665.988-4.5 2.562-4.887v-19.77a13.568 13.568 0 01-2.562-7.804c0-2.254.719-3.954 1.937-4.634a2.894 2.894 0 012.966.197l.213.135a.64.64 0 01.182.79l-1.977 3.955 1.012 3.337 1.811 1.067 1.795-3.606a.365.365 0 01.372-.205c.356 0 .625.6.712.949.275 1.05.416 2.132.419 3.218 0 2.665-.989 4.5-2.563 4.887v19.77a13.625 13.625 0 012.563 7.805c0 2.253-.72 3.954-1.938 4.634a2.466 2.466 0 01-1.257.34zm-3.163-10.652l2.554 1.51 1.155 3.78-2.128 4.175a.444.444 0 00.166.15 2.297 2.297 0 002.373.198c1.012-.577 1.581-2.119 1.637-4.127a12.993 12.993 0 00-2.499-7.513l-.063-.087V49.38h.253c1.391-.197 2.293-1.905 2.309-4.357a12.46 12.46 0 00-.404-3.068 1.396 1.396 0 00-.126-.324l-1.93 3.875-2.554-1.527-1.147-3.78 2.08-4.183a.395.395 0 00-.158-.142 2.292 2.292 0 00-2.372-.198c-1.012.578-1.629 2.12-1.637 4.128.024 2.698.895 5.32 2.491 7.497l.063.079v20.457h-.261c-1.384.198-2.293 1.906-2.301 4.358a12.034 12.034 0 00.395 3.068c.029.113.071.222.127.324l1.977-3.843zm-109.09-47.81l28.911 16.685a1.29 1.29 0 01.585 1.013v20.244a1.284 1.284 0 01-.585 1.004l-2.064 1.194a1.28 1.28 0 01-1.162 0L220.674 47.38a1.308 1.308 0 01-.577-1.012V26.093a1.245 1.245 0 01.585-.997l2.08-1.17a1.277 1.277 0 011.162.008z" fill="#83C150"/><path d="M250.17 63.75V43.458a1.286 1.286 0 00-.585-1.012l-28.911-16.654c-.316-.19-.577-.04-.577.332v20.229a1.303 1.303 0 00.577 1.012l28.911 16.701c.324.19.585.04.585-.316z" fill="#83C150"/><path d="M250.17 63.75V43.458a1.286 1.286 0 00-.585-1.012l-28.911-16.654c-.316-.19-.577-.04-.577.332v20.229a1.303 1.303 0 00.577 1.012l28.911 16.701c.324.19.585.04.585-.316z" fill="#83C150"/><path opacity=".2" d="M249.584 64.066a1.32 1.32 0 001.17 0l2.08-1.194a1.286 1.286 0 00.585-1.004v-20.26a1.104 1.104 0 00-.19-.593l-3.25 1.866c.106.175.166.373.174.577V63.75c.016.324-.229.514-.569.316z" fill="#000"/><path opacity=".4" d="M220.105 25.99c.048-.293.285-.395.57-.23l28.911 16.686c.171.108.313.258.411.435l3.242-1.842a1.147 1.147 0 00-.403-.42l-28.911-16.685a1.28 1.28 0 00-1.163 0l-2.04 1.154a1.286 1.286 0 00-.617.902z" fill="#fff"/><path d="M255.009 56.38l3.164-1.803a.544.544 0 00.254-.39.544.544 0 00-.144-.44l-4.942-6.169-3.163 1.819 4.934 6.168a.54.54 0 01.134.43.546.546 0 01-.237.385z" fill="#83C150"/><path opacity=".4" d="M255.009 56.38l3.164-1.803a.544.544 0 00.254-.39.544.544 0 00-.144-.44l-4.942-6.169-3.163 1.819 4.934 6.168a.54.54 0 01.134.43.546.546 0 01-.237.385z" fill="#fff"/><path d="M250.169 49.397l4.942 6.168a.522.522 0 01-.332.894l-4.61.498v-7.56z" fill="#83C150"/><path d="M243.22 46.352c0 .79-.569 1.06-1.265.649l-16.061-9.253a2.788 2.788 0 01-1.265-2.15c0-.791.569-1.06 1.265-.649l16.061 9.268a2.8 2.8 0 011.265 2.135zm3.598 8.304c0 .79-.569 1.06-1.265.648L225.894 43.98a2.788 2.788 0 01-1.265-2.151c0-.79.569-1.06 1.265-.648l19.643 11.332a2.789 2.789 0 011.281 2.143z" fill="#FAFAFA"/><path d="M123.456 86.026l-3.163-5.836 2.498-7.212v-4.42l-7.646 4.42v4.412l3.281 5.694c.053.09.133.16.23.198l4.8 2.744z" fill="#83C150"/><path opacity=".2" d="M123.456 86.026l-3.163-5.836 2.498-7.212v-4.42l-7.646 4.42v4.412l3.281 5.694c.053.09.133.16.23.198l4.8 2.744z" fill="#000"/><path d="M143.225 41.813a5.085 5.085 0 00-2.293-3.954l-1.866-1.075a5.045 5.045 0 00-4.587 0L97.992 57.826A5.06 5.06 0 0095.7 61.78v22.364a5.06 5.06 0 002.294 3.953l1.866 1.084a5.092 5.092 0 004.586 0l15.531-9.039 3.282 5.678a.493.493 0 00.724.143.493.493 0 00.162-.222l3.463-10.011 13.309-7.608a5.086 5.086 0 002.293-3.954l.016-22.355z" fill="#83C150"/><path opacity=".2" d="M95.7 84.16a5.061 5.061 0 002.293 3.953l1.866 1.084a5.147 5.147 0 004.191.182c-1.076.41-1.898-.198-1.898-1.51V65.52a4.607 4.607 0 01.672-2.254l-6.453-3.733a4.666 4.666 0 00-.672 2.262V84.16z" fill="#000"/><path opacity=".4" d="M143.139 41.164c-.269-.972-1.155-1.28-2.214-.672l-36.447 21.059a4.599 4.599 0 00-1.582 1.716l-6.445-3.725a4.555 4.555 0 011.582-1.708l36.471-21.066a5.09 5.09 0 014.586 0l1.874 1.083a5.07 5.07 0 012.175 3.313z" fill="#fff"/><path d="M111.468 67.798a6.744 6.744 0 00-3.061 5.298c0 1.953 1.368 2.744 3.061 1.764a6.751 6.751 0 003.06-5.299c0-1.953-1.352-2.744-3.06-1.763zm11.275-6.524a6.775 6.775 0 00-3.06 5.299c0 1.945 1.376 2.736 3.06 1.763a6.745 6.745 0 003.084-5.298c0-1.953-1.392-2.744-3.084-1.764zm11.286-6.532a6.775 6.775 0 00-3.06 5.299c0 1.953 1.368 2.744 3.06 1.77a6.775 6.775 0 003.06-5.297c0-1.954-1.368-2.744-3.06-1.772z" fill="#FAFAFA"/></svg>