<svg width="386" height="288" fill="none" xmlns="http://www.w3.org/2000/svg"><g clip-path="url(#clip0_5_2)"><path d="M0 60c0-17.673 14.327-32 32-32h322c17.673 0 32 14.327 32 32v228H0V60z" fill="#fff"/><path d="M27.089 83h3.421c1.683 0 2.794-.781 2.794-2.101 0-1.078-.737-1.606-1.65-1.881.605-.264 1.221-.781 1.221-1.782 0-.517-.176-.924-.495-1.254-.429-.44-1.133-.682-2.013-.682h-3.278V83zm.858-.781v-2.717h2.431c1.342 0 2.046.484 2.046 1.32 0 .88-.726 1.397-1.892 1.397h-2.585zm0-3.487v-2.651h2.343c1.1 0 1.705.495 1.705 1.254 0 .924-.726 1.397-1.771 1.397h-2.277zm9.5 4.4c1.067 0 1.749-.462 2.321-1.1l-.561-.517c-.451.484-.99.858-1.716.858-1.188 0-2.09-.979-2.09-2.211 0-1.243.88-2.222 2.035-2.222.77 0 1.298.363 1.749.836l.539-.572c-.528-.561-1.199-1.012-2.277-1.012-1.661 0-2.915 1.364-2.915 2.97 0 1.617 1.254 2.97 2.915 2.97zm6.208 0c1.078 0 1.771-.429 2.343-1.067l-.528-.473c-.462.484-1.012.803-1.793.803-1.001 0-1.881-.693-2.002-1.892h4.51c.011-.132.011-.22.011-.297 0-1.672-.968-3.014-2.651-3.014-1.573 0-2.728 1.32-2.728 2.97 0 1.771 1.276 2.97 2.838 2.97zm-1.98-3.311c.121-1.1.869-1.914 1.848-1.914 1.122 0 1.716.88 1.815 1.914h-3.663zm11.105 3.311c1.408 0 2.255-.803 2.255-1.716 0-.748-.429-1.177-1.056-1.397.484-.198.913-.605.913-1.309 0-.88-.781-1.518-2.057-1.518-.836 0-1.606.253-2.2.715l.418.594c.495-.396 1.166-.572 1.727-.572.704 0 1.232.319 1.232.847 0 .594-.517.979-1.265.979h-.77v.693h.759c.924 0 1.43.363 1.43.935 0 .66-.671 1.012-1.408 1.012-.682 0-1.331-.253-1.903-.737l-.429.627c.693.561 1.452.847 2.354.847zm5.519-.011c1.001 0 1.65-.462 2.046-.968V83h.836v-3.476c0-.726-.198-1.276-.594-1.672-.407-.407-1.034-.627-1.837-.627-.836 0-1.441.198-2.068.484l.253.693c.528-.242 1.056-.407 1.727-.407 1.067 0 1.683.528 1.683 1.54v.176a5.958 5.958 0 00-1.738-.242c-1.441 0-2.431.638-2.431 1.859 0 1.188 1.056 1.793 2.123 1.793zm.165-.682c-.77 0-1.43-.418-1.43-1.133 0-.704.605-1.166 1.661-1.166.693 0 1.243.121 1.661.242v.528c0 .902-.847 1.529-1.892 1.529zm4.511.561h.847v-1.375l1.199-1.232L67.045 83h1.001l-2.442-3.223 2.376-2.464h-1.045l-3.113 3.278v-3.278h-.847V83zm7.936.121c1.001 0 1.65-.462 2.046-.968V83h.836v-3.476c0-.726-.198-1.276-.594-1.672-.407-.407-1.034-.627-1.837-.627-.836 0-1.441.198-2.068.484l.253.693c.528-.242 1.056-.407 1.727-.407 1.067 0 1.683.528 1.683 1.54v.176a5.958 5.958 0 00-1.738-.242c-1.441 0-2.431.638-2.431 1.859 0 1.188 1.056 1.793 2.123 1.793zm.165-.682c-.77 0-1.43-.418-1.43-1.133 0-.704.605-1.166 1.661-1.166.693 0 1.243.121 1.661.242v.528c0 .902-.847 1.529-1.892 1.529zm6.315.693c1.408 0 2.255-.803 2.255-1.716 0-.748-.429-1.177-1.056-1.397.484-.198.913-.605.913-1.309 0-.88-.781-1.518-2.057-1.518-.836 0-1.606.253-2.2.715l.418.594c.495-.396 1.166-.572 1.727-.572.704 0 1.232.319 1.232.847 0 .594-.517.979-1.265.979h-.77v.693h.759c.924 0 1.43.363 1.43.935 0 .66-.671 1.012-1.408 1.012-.682 0-1.331-.253-1.903-.737l-.429.627c.693.561 1.452.847 2.354.847zM81.216 83h2.464c1.298 0 2.145-.715 2.145-1.848 0-1.199-1.012-1.705-2.244-1.705h-1.518v-2.134h-.847V83zm.847-.748v-2.079h1.507c.869 0 1.397.341 1.397 1.001 0 .715-.517 1.078-1.364 1.078h-1.54zm4.785.748h.847v-5.687h-.847V83z" fill="#393939"/><path d="M89 94H26v2h63v-2z" fill="#83C150"/><path d="M107.609 83.132c1.397 0 2.277-.495 3.08-1.309l-.572-.605c-.737.704-1.43 1.111-2.486 1.111-1.694 0-2.981-1.397-2.981-3.179 0-1.793 1.276-3.179 2.981-3.179 1.045 0 1.771.44 2.42 1.056l.572-.616c-.77-.726-1.584-1.243-2.981-1.243-2.266 0-3.894 1.804-3.894 3.982 0 2.233 1.639 3.982 3.861 3.982zm7.054 0a2.953 2.953 0 002.981-2.97c0-1.628-1.254-2.97-2.959-2.97-1.716 0-2.97 1.364-2.97 2.97 0 1.628 1.243 2.97 2.948 2.97zm.022-.759c-1.199 0-2.101-.99-2.101-2.211 0-1.221.847-2.222 2.079-2.222 1.199 0 2.112 1.001 2.112 2.222s-.858 2.211-2.09 2.211zm7.166.759c1.683 0 2.915-1.342 2.915-2.926 0-1.562-1.243-2.827-2.728-2.827-1.21 0-1.958.561-2.354 1.232.088-1.089.484-1.727 1.661-2.024l3.08-.759-.165-.715-3.168.748c-1.98.473-2.123 2.233-2.123 4.07 0 1.98 1.155 3.201 2.882 3.201zm.022-.759c-1.144 0-2.035-.957-2.035-2.145 0-1.188.836-2.145 2.013-2.145 1.144 0 2.035.957 2.035 2.145 0 1.188-.836 2.145-2.013 2.145zM126.3 83h.814l3.388-4.499V83h.847v-5.687h-.825l-3.377 4.499v-4.499h-.847V83zm6.94 1.76h.847v-2.849c.44.638 1.122 1.21 2.178 1.21 1.375 0 2.717-1.1 2.717-2.959 0-1.892-1.353-2.97-2.717-2.97-1.045 0-1.716.583-2.178 1.265v-1.144h-.847v7.447zm2.871-2.398c-1.056 0-2.057-.88-2.057-2.2 0-1.32 1.001-2.211 2.057-2.211 1.078 0 2.002.858 2.002 2.2 0 1.397-.902 2.211-2.002 2.211zm6.128.759c1.001 0 1.65-.462 2.046-.968V83h.836v-3.476c0-.726-.198-1.276-.594-1.672-.407-.407-1.034-.627-1.837-.627-.836 0-1.441.198-2.068.484l.253.693c.528-.242 1.056-.407 1.727-.407 1.067 0 1.683.528 1.683 1.54v.176a5.958 5.958 0 00-1.738-.242c-1.441 0-2.431.638-2.431 1.859 0 1.188 1.056 1.793 2.123 1.793zm.165-.682c-.77 0-1.43-.418-1.43-1.133 0-.704.605-1.166 1.661-1.166.693 0 1.243.121 1.661.242v.528c0 .902-.847 1.529-1.892 1.529zm9.395.693c1.727 0 2.827-1.375 2.827-2.97 0-1.617-1.089-2.97-2.805-2.97-1.584 0-2.629 1.177-2.794 2.596h-1.265v-2.475h-.847V83h.847v-2.497h1.265c.143 1.463 1.177 2.629 2.772 2.629zm.022-.759c-1.177 0-1.936-.979-1.936-2.211 0-1.221.704-2.211 1.914-2.211 1.188 0 1.947.979 1.947 2.211 0 1.221-.704 2.211-1.925 2.211zm5.707.627h.858v-4.939h2.035v-.748h-4.928v.748h2.035V83zm6.688.132c1.067 0 1.749-.462 2.321-1.1l-.561-.517c-.451.484-.99.858-1.716.858-1.188 0-2.09-.979-2.09-2.211 0-1.243.88-2.222 2.035-2.222.77 0 1.298.363 1.749.836l.539-.572c-.528-.561-1.199-1.012-2.277-1.012-1.661 0-2.915 1.364-2.915 2.97 0 1.617 1.254 2.97 2.915 2.97zm3.215-.132h1.045c.528-.682 1.045-1.375 1.573-2.068h1.573V83h.847v-5.687h-2.673c-1.353 0-2.145.726-2.145 1.771 0 .924.671 1.518 1.518 1.716l-1.738 2.2zm2.431-2.783c-.792 0-1.364-.407-1.364-1.1 0-.649.495-1.056 1.342-1.056h1.782v2.156h-1.76zm22.802 2.915c2.343 0 3.938-1.859 3.938-3.982 0-2.145-1.573-3.982-3.916-3.982s-3.938 1.859-3.938 3.982c0 2.145 1.573 3.982 3.916 3.982zm.022-.803c-1.76 0-3.036-1.43-3.036-3.179 0-1.771 1.254-3.179 3.014-3.179 1.76 0 3.036 1.43 3.036 3.179 0 1.771-1.254 3.179-3.014 3.179zm6.981.671h.858v-4.939h2.035v-.748h-4.928v.748h2.035V83zm4.125 0h.847v-4.939h3.014v-.748h-3.861V83zm5.092 1.76h.847v-2.849c.44.638 1.122 1.21 2.178 1.21 1.375 0 2.717-1.1 2.717-2.959 0-1.892-1.353-2.97-2.717-2.97-1.045 0-1.716.583-2.178 1.265v-1.144h-.847v7.447zm2.871-2.398c-1.056 0-2.057-.88-2.057-2.2 0-1.32 1.001-2.211 2.057-2.211 1.078 0 2.002.858 2.002 2.2 0 1.397-.902 2.211-2.002 2.211zm5.313 2.431c.858 0 1.408-.429 1.892-1.606l2.387-5.874h-.902l-1.826 4.741-2.068-4.741h-.935l2.585 5.665c-.341.803-.66 1.067-1.166 1.067a1.78 1.78 0 01-.891-.209l-.286.671c.385.187.737.286 1.21.286zM221.961 83h.99l1.892-2.651 1.155 1.265V83h.847v-1.386L228 80.349 229.892 83h.99l-2.332-3.256 2.211-2.431h-1.023l-2.893 3.3v-3.3h-.847v3.3l-2.893-3.3h-1.023l2.211 2.431L221.961 83zm11.777.121c1.001 0 1.65-.462 2.046-.968V83h.836v-3.476c0-.726-.198-1.276-.594-1.672-.407-.407-1.034-.627-1.837-.627-.836 0-1.441.198-2.068.484l.253.693c.528-.242 1.056-.407 1.727-.407 1.067 0 1.683.528 1.683 1.54v.176a5.958 5.958 0 00-1.738-.242c-1.441 0-2.431.638-2.431 1.859 0 1.188 1.056 1.793 2.123 1.793zm.165-.682c-.77 0-1.43-.418-1.43-1.133 0-.704.605-1.166 1.661-1.166.693 0 1.243.121 1.661.242v.528c0 .902-.847 1.529-1.892 1.529zm9.395.693c1.727 0 2.827-1.375 2.827-2.97 0-1.617-1.089-2.97-2.805-2.97-1.584 0-2.629 1.177-2.794 2.596h-1.265v-2.475h-.847V83h.847v-2.497h1.265c.143 1.463 1.177 2.629 2.772 2.629zm.022-.759c-1.177 0-1.936-.979-1.936-2.211 0-1.221.704-2.211 1.914-2.211 1.188 0 1.947.979 1.947 2.211 0 1.221-.704 2.211-1.925 2.211zm5.707.627h.858v-4.939h2.035v-.748h-4.928v.748h2.035V83zm6.688.132c1.067 0 1.749-.462 2.321-1.1l-.561-.517c-.451.484-.99.858-1.716.858-1.188 0-2.09-.979-2.09-2.211 0-1.243.88-2.222 2.035-2.222.77 0 1.298.363 1.749.836l.539-.572c-.528-.561-1.199-1.012-2.277-1.012-1.661 0-2.915 1.364-2.915 2.97 0 1.617 1.254 2.97 2.915 2.97zM258.93 83h1.045c.528-.682 1.045-1.375 1.573-2.068h1.573V83h.847v-5.687h-2.673c-1.353 0-2.145.726-2.145 1.771 0 .924.671 1.518 1.518 1.716L258.93 83zm2.431-2.783c-.792 0-1.364-.407-1.364-1.1 0-.649.495-1.056 1.342-1.056h1.782v2.156h-1.76zm17.749 4.499h.737l.154-1.716h6.248v1.716h.726l.132-2.508h-1.001V75.3h-5.038v1.342c0 2.497-.429 4.389-1.166 5.566h-.792v2.508zm1.771-2.508c.638-1.056 1.023-3.124 1.023-5.115v-1.001h3.333v6.116h-4.356zm9.954.924a2.953 2.953 0 002.981-2.97c0-1.628-1.254-2.97-2.959-2.97-1.716 0-2.97 1.364-2.97 2.97 0 1.628 1.243 2.97 2.948 2.97zm.022-.759c-1.199 0-2.101-.99-2.101-2.211 0-1.221.847-2.222 2.079-2.222 1.199 0 2.112 1.001 2.112 2.222s-.858 2.211-2.09 2.211zm7.056.759c1.067 0 1.749-.462 2.321-1.1l-.561-.517c-.451.484-.99.858-1.716.858-1.188 0-2.09-.979-2.09-2.211 0-1.243.88-2.222 2.035-2.222.77 0 1.298.363 1.749.836l.539-.572c-.528-.561-1.199-1.012-2.277-1.012-1.661 0-2.915 1.364-2.915 2.97 0 1.617 1.254 2.97 2.915 2.97zm5.096-.132h.858v-4.939h2.035v-.748h-4.928v.748h2.035V83zm5.819.121c1.001 0 1.65-.462 2.046-.968V83h.836v-3.476c0-.726-.198-1.276-.594-1.672-.407-.407-1.034-.627-1.837-.627-.836 0-1.441.198-2.068.484l.253.693c.528-.242 1.056-.407 1.727-.407 1.067 0 1.683.528 1.683 1.54v.176a5.958 5.958 0 00-1.738-.242c-1.441 0-2.431.638-2.431 1.859 0 1.188 1.056 1.793 2.123 1.793zm.165-.682c-.77 0-1.43-.418-1.43-1.133 0-.704.605-1.166 1.661-1.166.693 0 1.243.121 1.661.242v.528c0 .902-.847 1.529-1.892 1.529zm4.512.561h2.849c1.254 0 2.068-.594 2.068-1.551 0-.803-.572-1.221-1.254-1.408.473-.198.946-.561.946-1.309 0-.858-.726-1.419-1.859-1.419h-2.75V83zm.847-.726v-1.837h1.782c.924 0 1.419.33 1.419.88 0 .594-.495.957-1.309.957h-1.892zm0-2.519v-1.716h1.771c.737 0 1.133.33 1.133.803 0 .594-.473.913-1.155.913h-1.749zm5.323 3.333c1.078 0 1.881-.462 1.881-4.895v-.132h2.376V83h.847v-5.687h-4.026v.473c0 4.268-.572 4.565-1.254 4.565-.099 0-.297-.044-.407-.077l-.099.726c.176.044.495.088.682.088zm6.494-.088h1.045c.528-.682 1.045-1.375 1.573-2.068h1.573V83h.847v-5.687h-2.673c-1.353 0-2.145.726-2.145 1.771 0 .924.671 1.518 1.518 1.716l-1.738 2.2zm2.431-2.783c-.792 0-1.364-.407-1.364-1.1 0-.649.495-1.056 1.342-1.056h1.782v2.156h-1.76zm9.382 2.915c1.727 0 2.827-1.375 2.827-2.97 0-1.617-1.089-2.97-2.805-2.97-1.584 0-2.629 1.177-2.794 2.596h-1.265v-2.475h-.847V83h.847v-2.497h1.265c.143 1.463 1.177 2.629 2.772 2.629zm.022-.759c-1.177 0-1.936-.979-1.936-2.211 0-1.221.704-2.211 1.914-2.211 1.188 0 1.947.979 1.947 2.211 0 1.221-.704 2.211-1.925 2.211zm5.708.627h.858v-4.939h2.035v-.748h-4.928v.748h2.035V83zm6.688.132c1.067 0 1.749-.462 2.321-1.1l-.561-.517c-.451.484-.99.858-1.716.858-1.188 0-2.09-.979-2.09-2.211 0-1.243.88-2.222 2.035-2.222.77 0 1.298.363 1.749.836l.539-.572c-.528-.561-1.199-1.012-2.277-1.012-1.661 0-2.915 1.364-2.915 2.97 0 1.617 1.254 2.97 2.915 2.97zm3.215-.132h1.045c.528-.682 1.045-1.375 1.573-2.068h1.573V83h.847v-5.687h-2.673c-1.353 0-2.145.726-2.145 1.771 0 .924.671 1.518 1.518 1.716l-1.738 2.2zm2.431-2.783c-.792 0-1.364-.407-1.364-1.1 0-.649.495-1.056 1.342-1.056h1.782v2.156h-1.76z" fill="#393939"/><path d="M360 94H89v2h271v-2z" fill="#E1E1E1"/><path d="M94 151H36a4 4 0 00-4 4v5a4 4 0 004 4h58a4 4 0 004-4v-5a4 4 0 00-4-4z" fill="#CDE6B9"/><path d="M37.641 125.132c1.606 0 2.695-.968 2.695-2.189 0-1.023-.704-1.617-1.617-1.892.704-.253 1.408-.781 1.408-1.815 0-1.188-1.067-2.057-2.596-2.057-1.221 0-2.024.363-2.794 1.023l.506.605c.671-.605 1.397-.869 2.266-.869 1.012 0 1.738.583 1.738 1.375 0 .913-.781 1.452-1.881 1.452h-.847v.715h.847c1.177 0 2.079.418 2.079 1.419 0 .913-.847 1.485-1.793 1.485-1.111 0-1.925-.363-2.706-1.1l-.517.605c.902.825 1.881 1.243 3.212 1.243zm5.992-.011c1.001 0 1.65-.462 2.046-.968V125h.836v-3.476c0-.726-.198-1.276-.594-1.672-.407-.407-1.034-.627-1.837-.627-.836 0-1.441.198-2.068.484l.253.693c.528-.242 1.056-.407 1.727-.407 1.067 0 1.683.528 1.683 1.54v.176a5.958 5.958 0 00-1.738-.242c-1.441 0-2.431.638-2.431 1.859 0 1.188 1.056 1.793 2.123 1.793zm.165-.682c-.77 0-1.43-.418-1.43-1.133 0-.704.605-1.166 1.661-1.166.693 0 1.243.121 1.661.242v.528c0 .902-.847 1.529-1.892 1.529zm4.511.561h.847v-1.375l1.199-1.232L52.379 125h1.001l-2.442-3.223 2.376-2.464h-1.045l-3.113 3.278v-3.278h-.847V125zm7.935.121c1.001 0 1.65-.462 2.046-.968V125h.836v-3.476c0-.726-.198-1.276-.594-1.672-.407-.407-1.034-.627-1.837-.627-.836 0-1.441.198-2.068.484l.253.693c.528-.242 1.056-.407 1.727-.407 1.067 0 1.683.528 1.683 1.54v.176a5.958 5.958 0 00-1.738-.242c-1.441 0-2.431.638-2.431 1.859 0 1.188 1.056 1.793 2.123 1.793zm.165-.682c-.77 0-1.43-.418-1.43-1.133 0-.704.605-1.166 1.661-1.166.693 0 1.243.121 1.661.242v.528c0 .902-.847 1.529-1.892 1.529zm6.316.693c1.408 0 2.255-.803 2.255-1.716 0-.748-.429-1.177-1.056-1.397.484-.198.913-.605.913-1.309 0-.88-.781-1.518-2.057-1.518-.836 0-1.606.253-2.2.715l.418.594c.495-.396 1.166-.572 1.727-.572.704 0 1.232.319 1.232.847 0 .594-.517.979-1.265.979h-.77v.693h.759c.924 0 1.43.363 1.43.935 0 .66-.671 1.012-1.408 1.012-.682 0-1.331-.253-1.903-.737l-.429.627c.693.561 1.452.847 2.354.847zm6.704-.132h5.379v-.792h-4.081l2.057-1.826c1.342-1.188 1.947-1.87 1.947-2.992 0-1.276-1.001-2.2-2.387-2.2-1.353 0-2.079.605-2.772 1.639l.638.462c.616-.858 1.188-1.32 2.068-1.32.836 0 1.551.572 1.551 1.474 0 .77-.418 1.375-1.606 2.42l-2.794 2.464V125zm9.72.132c1.562 0 2.761-1.078 2.761-2.563 0-1.463-1.232-2.387-2.662-2.387-1.122 0-1.771.561-2.189 1.177v-.033c0-1.969.869-3.366 2.255-3.366.704 0 1.243.275 1.815.759l.506-.671c-.671-.55-1.353-.88-2.277-.88-2.013 0-3.201 1.837-3.201 4.18 0 2.739 1.265 3.784 2.992 3.784zm.011-.77c-1.133 0-1.947-.748-1.947-1.727 0-.88.77-1.705 1.925-1.705 1.111 0 1.881.704 1.881 1.65 0 1.001-.726 1.782-1.859 1.782zm8.2.638h.836v-1.826h1.199v-.726h-1.199v-5.203h-.759l-4.356 5.302.22.627h4.059V125zm-3.234-2.552l3.234-3.971v3.971h-3.234zm9.327 2.662c1.639 0 2.893-.88 2.893-2.189 0-.935-.671-1.562-1.584-1.903.715-.33 1.32-.88 1.32-1.771 0-1.21-1.221-2.057-2.629-2.057s-2.629.847-2.629 2.035c0 .913.605 1.463 1.32 1.793-.924.33-1.584.979-1.584 1.892 0 1.309 1.254 2.2 2.893 2.2zm0-4.4c-.979 0-1.76-.572-1.76-1.408 0-.792.759-1.353 1.76-1.353s1.76.572 1.76 1.331c0 .858-.781 1.43-1.76 1.43zm0 3.641c-1.265 0-2.013-.66-2.013-1.441 0-.88.891-1.485 2.013-1.485 1.122 0 2.013.605 2.013 1.463 0 .803-.748 1.463-2.013 1.463zm8.216.649h.836v-1.826h1.199v-.726h-1.199v-5.203h-.759l-4.356 5.302.22.627h4.059V125zm-3.234-2.552l3.234-3.971v3.971h-3.234zm6.39 2.552h5.379v-.792h-4.081l2.057-1.826c1.342-1.188 1.947-1.87 1.947-2.992 0-1.276-1.001-2.2-2.387-2.2-1.353 0-2.079.605-2.772 1.639l.638.462c.616-.858 1.188-1.32 2.068-1.32.836 0 1.551.572 1.551 1.474 0 .77-.418 1.375-1.606 2.42l-2.794 2.464V125zm156.973 1.132c-1.107 0-2.027-.381-2.761-1.144-.733-.77-1.1-1.716-1.1-2.838 0-1.107.371-2.046 1.111-2.816.741-.777 1.669-1.166 2.783-1.166.646 0 1.196.106 1.65.319.455.205.899.513 1.331.924l-.572.616c-.74-.704-1.547-1.056-2.42-1.056-.85 0-1.562.304-2.134.913-.564.609-.847 1.364-.847 2.266 0 .895.286 1.65.858 2.266.572.609 1.28.913 2.123.913.499 0 .939-.092 1.32-.275.382-.183.77-.462 1.166-.836l.572.605a4.745 4.745 0 01-1.364.979c-.476.22-1.048.33-1.716.33zm5.339 1.661c-.411 0-.814-.095-1.21-.286l.286-.671c.271.139.568.209.891.209a.928.928 0 00.649-.242c.176-.154.348-.429.517-.825l-2.585-5.665h.935l2.068 4.741 1.826-4.741h.902l-2.387 5.874c-.242.579-.51.99-.803 1.232-.294.249-.657.374-1.089.374zm5.619-1.793v-5.687h.803l2.123 2.992 2.123-2.992h.814V126h-.858v-4.334l-2.101 2.882-2.079-2.882V126h-.825zm7.755 0v-5.687h.803l2.123 2.992 2.123-2.992h.814V126h-.858v-4.334l-2.101 2.882-2.079-2.882V126h-.825zm9.45.121c-.579 0-1.078-.158-1.496-.473-.418-.315-.627-.755-.627-1.32 0-.594.22-1.052.66-1.375.44-.323 1.031-.484 1.771-.484.587 0 1.166.081 1.738.242v-.176c0-.499-.146-.88-.44-1.144-.293-.264-.707-.396-1.243-.396-.557 0-1.133.136-1.727.407l-.253-.693c.704-.323 1.394-.484 2.068-.484.807 0 1.419.209 1.837.627.396.396.594.953.594 1.672V126h-.836v-.847c-.506.645-1.188.968-2.046.968zm.165-.682c.528 0 .976-.143 1.342-.429.367-.286.55-.653.55-1.1v-.528a5.961 5.961 0 00-1.661-.242c-.52 0-.927.106-1.221.319a.98.98 0 00-.44.847c0 .345.136.62.407.825.279.205.62.308 1.023.308zm4.467-3.971v-1.155h1.012v1.155h-1.012zm0 4.532v-1.155h1.012V126h-1.012zm9.952 0v-1.826h-4.059l-.22-.627 4.356-5.302h.759v5.203h1.199v.726h-1.199V126h-.836zm-3.234-2.552h3.234v-3.971l-3.234 3.971zm11.395 2.057c-.55.403-1.239.605-2.068.605s-1.518-.205-2.068-.616c-.55-.411-.825-.939-.825-1.584 0-.44.143-.821.429-1.144.286-.323.671-.572 1.155-.748-.88-.403-1.32-1.001-1.32-1.793 0-.579.257-1.063.77-1.452.521-.389 1.14-.583 1.859-.583.719 0 1.335.194 1.848.583.521.389.781.88.781 1.474 0 .777-.44 1.368-1.32 1.771 1.056.396 1.584 1.03 1.584 1.903 0 .645-.275 1.173-.825 1.584zm-3.322-4.191c.337.264.755.396 1.254.396s.917-.132 1.254-.396c.337-.264.506-.609.506-1.034 0-.381-.169-.697-.506-.946-.337-.257-.755-.385-1.254-.385-.506 0-.928.128-1.265.385-.33.249-.495.572-.495.968 0 .411.169.748.506 1.012zm-.22 3.619c.367.279.858.418 1.474.418s1.104-.139 1.463-.418c.367-.279.55-.627.55-1.045 0-.425-.194-.774-.583-1.045-.389-.279-.865-.418-1.43-.418-.572 0-1.052.139-1.441.418-.381.279-.572.634-.572 1.067 0 .403.18.744.539 1.023zm14.516.044c-.601.77-1.386 1.155-2.354 1.155-.968 0-1.752-.381-2.354-1.144-.594-.77-.891-1.716-.891-2.838 0-1.107.301-2.046.902-2.816.609-.777 1.397-1.166 2.365-1.166.968 0 1.749.385 2.343 1.155.594.763.891 1.705.891 2.827 0 1.107-.3 2.05-.902 2.827zm-4.037-.572c.44.623 1.009.935 1.705.935.697 0 1.258-.308 1.683-.924.433-.623.649-1.379.649-2.266 0-.873-.22-1.621-.66-2.244-.432-.631-.997-.946-1.694-.946-.696 0-1.261.312-1.694.935-.432.616-.649 1.368-.649 2.255 0 .873.22 1.624.66 2.255zm11.901.572c-.602.77-1.386 1.155-2.354 1.155-.968 0-1.753-.381-2.354-1.144-.594-.77-.891-1.716-.891-2.838 0-1.107.3-2.046.902-2.816.608-.777 1.397-1.166 2.365-1.166.968 0 1.749.385 2.343 1.155.594.763.891 1.705.891 2.827 0 1.107-.301 2.05-.902 2.827zm-4.037-.572c.44.623 1.008.935 1.705.935.696 0 1.257-.308 1.683-.924.432-.623.649-1.379.649-2.266 0-.873-.22-1.621-.66-2.244-.433-.631-.998-.946-1.694-.946-.697 0-1.262.312-1.694.935-.433.616-.649 1.368-.649 2.255 0 .873.22 1.624.66 2.255zm11.9.572c-.601.77-1.386 1.155-2.354 1.155-.968 0-1.753-.381-2.354-1.144-.594-.77-.891-1.716-.891-2.838 0-1.107.301-2.046.902-2.816.609-.777 1.397-1.166 2.365-1.166.968 0 1.749.385 2.343 1.155.594.763.891 1.705.891 2.827 0 1.107-.301 2.05-.902 2.827zm-4.037-.572c.44.623 1.008.935 1.705.935.697 0 1.258-.308 1.683-.924.433-.623.649-1.379.649-2.266 0-.873-.22-1.621-.66-2.244-.433-.631-.997-.946-1.694-.946s-1.261.312-1.694.935c-.433.616-.649 1.368-.649 2.255 0 .873.22 1.624.66 2.255zm10.797-.99v.671h2.475v.484h-2.475V126h-.814v-1.43h-1.155v-.484h1.155V118.3h2.882c.99 0 1.76.224 2.31.671.557.44.836 1.067.836 1.881 0 .821-.279 1.456-.836 1.903-.55.44-1.32.66-2.31.66h-2.068zm0-4.411v3.718h2.079c.748 0 1.32-.161 1.716-.484.403-.323.605-.781.605-1.375s-.202-1.052-.605-1.375c-.396-.323-.968-.484-1.716-.484h-2.079z" fill="#A1A1A1"/><path d="M142 128a6 6 0 100-12 6 6 0 000 12z" fill="#CDE6B9"/><path d="M156.11 126.716h.737l.154-1.716h6.248v1.716h.726l.132-2.508h-1.001V117.3h-5.038v1.342c0 2.497-.429 4.389-1.166 5.566h-.792v2.508zm1.771-2.508c.638-1.056 1.023-3.124 1.023-5.115v-1.001h3.333v6.116h-4.356zm9.954.924a2.953 2.953 0 002.981-2.97c0-1.628-1.254-2.97-2.959-2.97-1.716 0-2.97 1.364-2.97 2.97 0 1.628 1.243 2.97 2.948 2.97zm.022-.759c-1.199 0-2.101-.99-2.101-2.211 0-1.221.847-2.222 2.079-2.222 1.199 0 2.112 1.001 2.112 2.222s-.858 2.211-2.09 2.211zm7.056.759c1.067 0 1.749-.462 2.321-1.1l-.561-.517c-.451.484-.99.858-1.716.858-1.188 0-2.09-.979-2.09-2.211 0-1.243.88-2.222 2.035-2.222.77 0 1.298.363 1.749.836l.539-.572c-.528-.561-1.199-1.012-2.277-1.012-1.661 0-2.915 1.364-2.915 2.97 0 1.617 1.254 2.97 2.915 2.97zm5.096-.132h.858v-4.939h2.035v-.748h-4.928v.748h2.035V125zm5.819.121c1.001 0 1.65-.462 2.046-.968V125h.836v-3.476c0-.726-.198-1.276-.594-1.672-.407-.407-1.034-.627-1.837-.627-.836 0-1.441.198-2.068.484l.253.693c.528-.242 1.056-.407 1.727-.407 1.067 0 1.683.528 1.683 1.54v.176a5.958 5.958 0 00-1.738-.242c-1.441 0-2.431.638-2.431 1.859 0 1.188 1.056 1.793 2.123 1.793zm.165-.682c-.77 0-1.43-.418-1.43-1.133 0-.704.605-1.166 1.661-1.166.693 0 1.243.121 1.661.242v.528c0 .902-.847 1.529-1.892 1.529zm4.512.561h2.849c1.254 0 2.068-.594 2.068-1.551 0-.803-.572-1.221-1.254-1.408.473-.198.946-.561.946-1.309 0-.858-.726-1.419-1.859-1.419h-2.75V125zm.847-.726v-1.837h1.782c.924 0 1.419.33 1.419.88 0 .594-.495.957-1.309.957h-1.892zm0-2.519v-1.716h1.771c.737 0 1.133.33 1.133.803 0 .594-.473.913-1.155.913h-1.749zm5.323 3.333c1.078 0 1.881-.462 1.881-4.895v-.132h2.376V125h.847v-5.687h-4.026v.473c0 4.268-.572 4.565-1.254 4.565-.099 0-.297-.044-.407-.077l-.099.726c.176.044.495.088.682.088zm9.486.044c1.078 0 1.771-.429 2.343-1.067l-.528-.473c-.462.484-1.012.803-1.793.803-1.001 0-1.881-.693-2.002-1.892h4.51c.011-.132.011-.22.011-.297 0-1.672-.968-3.014-2.651-3.014-1.573 0-2.728 1.32-2.728 2.97 0 1.771 1.276 2.97 2.838 2.97zm-1.98-3.311c.121-1.1.869-1.914 1.848-1.914 1.122 0 1.716.88 1.815 1.914h-3.663zm6.003 3.179h.847v-2.486h3.278V125h.847v-5.687h-.847v2.453h-3.278v-2.453h-.847V125z" fill="#A1A1A1"/><path d="M37.641 161.132c1.606 0 2.695-.968 2.695-2.189 0-1.023-.704-1.617-1.617-1.892.704-.253 1.408-.781 1.408-1.815 0-1.188-1.067-2.057-2.596-2.057-1.221 0-2.024.363-2.794 1.023l.506.605c.671-.605 1.397-.869 2.266-.869 1.012 0 1.738.583 1.738 1.375 0 .913-.781 1.452-1.881 1.452h-.847v.715h.847c1.177 0 2.079.418 2.079 1.419 0 .913-.847 1.485-1.793 1.485-1.111 0-1.925-.363-2.706-1.1l-.517.605c.902.825 1.881 1.243 3.212 1.243zm5.992-.011c1.001 0 1.65-.462 2.046-.968V161h.836v-3.476c0-.726-.198-1.276-.594-1.672-.407-.407-1.034-.627-1.837-.627-.836 0-1.441.198-2.068.484l.253.693c.528-.242 1.056-.407 1.727-.407 1.067 0 1.683.528 1.683 1.54v.176a5.958 5.958 0 00-1.738-.242c-1.441 0-2.431.638-2.431 1.859 0 1.188 1.056 1.793 2.123 1.793zm.165-.682c-.77 0-1.43-.418-1.43-1.133 0-.704.605-1.166 1.661-1.166.693 0 1.243.121 1.661.242v.528c0 .902-.847 1.529-1.892 1.529zm4.511.561h.847v-1.375l1.199-1.232L52.379 161h1.001l-2.442-3.223 2.376-2.464h-1.045l-3.113 3.278v-3.278h-.847V161zm7.935.121c1.001 0 1.65-.462 2.046-.968V161h.836v-3.476c0-.726-.198-1.276-.594-1.672-.407-.407-1.034-.627-1.837-.627-.836 0-1.441.198-2.068.484l.253.693c.528-.242 1.056-.407 1.727-.407 1.067 0 1.683.528 1.683 1.54v.176a5.958 5.958 0 00-1.738-.242c-1.441 0-2.431.638-2.431 1.859 0 1.188 1.056 1.793 2.123 1.793zm.165-.682c-.77 0-1.43-.418-1.43-1.133 0-.704.605-1.166 1.661-1.166.693 0 1.243.121 1.661.242v.528c0 .902-.847 1.529-1.892 1.529zm6.316.693c1.408 0 2.255-.803 2.255-1.716 0-.748-.429-1.177-1.056-1.397.484-.198.913-.605.913-1.309 0-.88-.781-1.518-2.057-1.518-.836 0-1.606.253-2.2.715l.418.594c.495-.396 1.166-.572 1.727-.572.704 0 1.232.319 1.232.847 0 .594-.517.979-1.265.979h-.77v.693h.759c.924 0 1.43.363 1.43.935 0 .66-.671 1.012-1.408 1.012-.682 0-1.331-.253-1.903-.737l-.429.627c.693.561 1.452.847 2.354.847zM73.653 161h.836v-1.826h1.199v-.726h-1.199v-5.203h-.759l-4.356 5.302.22.627h4.059V161zm-3.234-2.552l3.234-3.971v3.971h-3.234zm9.525 2.684c1.562 0 2.761-1.078 2.761-2.563 0-1.463-1.232-2.387-2.662-2.387-1.122 0-1.771.561-2.189 1.177v-.033c0-1.969.869-3.366 2.255-3.366.704 0 1.243.275 1.815.759l.506-.671c-.671-.55-1.353-.88-2.277-.88-2.013 0-3.201 1.837-3.201 4.18 0 2.739 1.265 3.784 2.992 3.784zm.011-.77c-1.133 0-1.947-.748-1.947-1.727 0-.88.77-1.705 1.925-1.705 1.111 0 1.881.704 1.881 1.65 0 1.001-.726 1.782-1.859 1.782zm3.976.638h5.379v-.792h-4.081l2.057-1.826c1.342-1.188 1.947-1.87 1.947-2.992 0-1.276-1.001-2.2-2.387-2.2-1.353 0-2.079.605-2.772 1.639l.638.462c.616-.858 1.188-1.32 2.068-1.32.836 0 1.551.572 1.551 1.474 0 .77-.418 1.375-1.606 2.42l-2.794 2.464V161zm9.72.132c1.562 0 2.761-1.078 2.761-2.563 0-1.463-1.232-2.387-2.662-2.387-1.122 0-1.771.561-2.189 1.177v-.033c0-1.969.869-3.366 2.255-3.366.704 0 1.243.275 1.815.759l.506-.671c-.671-.55-1.353-.88-2.277-.88-2.013 0-3.201 1.837-3.201 4.18 0 2.739 1.265 3.784 2.992 3.784zm.011-.77c-1.133 0-1.947-.748-1.947-1.727 0-.88.77-1.705 1.925-1.705 1.111 0 1.881.704 1.881 1.65 0 1.001-.726 1.782-1.859 1.782zm6.913.748c1.639 0 2.893-.88 2.893-2.189 0-.935-.671-1.562-1.584-1.903.715-.33 1.32-.88 1.32-1.771 0-1.21-1.221-2.057-2.629-2.057s-2.629.847-2.629 2.035c0 .913.605 1.463 1.32 1.793-.924.33-1.584.979-1.584 1.892 0 1.309 1.254 2.2 2.893 2.2zm0-4.4c-.979 0-1.76-.572-1.76-1.408 0-.792.759-1.353 1.76-1.353s1.76.572 1.76 1.331c0 .858-.781 1.43-1.76 1.43zm0 3.641c-1.265 0-2.013-.66-2.013-1.441 0-.88.891-1.485 2.013-1.485 1.122 0 2.013.605 2.013 1.463 0 .803-.748 1.463-2.013 1.463zm7.127.781c1.562 0 2.761-1.078 2.761-2.563 0-1.463-1.232-2.387-2.662-2.387-1.122 0-1.771.561-2.189 1.177v-.033c0-1.969.869-3.366 2.255-3.366.704 0 1.243.275 1.815.759l.506-.671c-.671-.55-1.353-.88-2.277-.88-2.013 0-3.201 1.837-3.201 4.18 0 2.739 1.265 3.784 2.992 3.784zm.011-.77c-1.133 0-1.947-.748-1.947-1.727 0-.88.77-1.705 1.925-1.705 1.111 0 1.881.704 1.881 1.65 0 1.001-.726 1.782-1.859 1.782zm155.02 1.77c-1.107 0-2.028-.381-2.761-1.144-.733-.77-1.1-1.716-1.1-2.838 0-1.107.37-2.046 1.111-2.816.741-.777 1.668-1.166 2.783-1.166.645 0 1.195.106 1.65.319.455.205.898.513 1.331.924l-.572.616c-.741-.704-1.547-1.056-2.42-1.056-.851 0-1.562.304-2.134.913-.565.609-.847 1.364-.847 2.266 0 .895.286 1.65.858 2.266.572.609 1.28.913 2.123.913.499 0 .939-.092 1.32-.275.381-.183.77-.462 1.166-.836l.572.605a4.759 4.759 0 01-1.364.979c-.477.22-1.049.33-1.716.33zm5.338 1.661c-.411 0-.814-.095-1.21-.286l.286-.671c.271.139.568.209.891.209a.926.926 0 00.649-.242c.176-.154.348-.429.517-.825l-2.585-5.665h.935l2.068 4.741 1.826-4.741h.902l-2.387 5.874c-.242.579-.51.99-.803 1.232-.293.249-.656.374-1.089.374zM273.69 162v-5.687h.803l2.123 2.992 2.123-2.992h.814V162h-.858v-4.334l-2.101 2.882-2.079-2.882V162h-.825zm7.756 0v-5.687h.803l2.123 2.992 2.123-2.992h.814V162h-.858v-4.334l-2.101 2.882-2.079-2.882V162h-.825zm9.45.121c-.579 0-1.078-.158-1.496-.473-.418-.315-.627-.755-.627-1.32 0-.594.22-1.052.66-1.375.44-.323 1.03-.484 1.771-.484.587 0 1.166.081 1.738.242v-.176c0-.499-.147-.88-.44-1.144-.293-.264-.708-.396-1.243-.396-.557 0-1.133.136-1.727.407l-.253-.693c.704-.323 1.393-.484 2.068-.484.807 0 1.419.209 1.837.627.396.396.594.953.594 1.672V162h-.836v-.847c-.506.645-1.188.968-2.046.968zm.165-.682c.528 0 .975-.143 1.342-.429.367-.286.55-.653.55-1.1v-.528a5.961 5.961 0 00-1.661-.242c-.521 0-.928.106-1.221.319a.98.98 0 00-.44.847c0 .345.136.62.407.825.279.205.62.308 1.023.308zm4.467-3.971v-1.155h1.012v1.155h-1.012zm0 4.532v-1.155h1.012V162h-1.012zm8.533.132c-1.02 0-1.936-.407-2.75-1.221l.572-.627c.726.704 1.455 1.056 2.189 1.056.55 0 .997-.161 1.342-.484.344-.323.517-.737.517-1.243 0-.477-.18-.865-.539-1.166-.352-.301-.811-.451-1.375-.451-.528 0-1.067.147-1.617.44l-.583-.385.22-3.751h4.433v.803h-3.674l-.165 2.464a3.782 3.782 0 011.518-.341c.77 0 1.404.216 1.903.649.506.425.759 1.001.759 1.727 0 .748-.257 1.357-.77 1.826-.514.469-1.174.704-1.98.704zm7.065 0c-.924 0-1.654-.304-2.189-.913-.535-.609-.803-1.566-.803-2.871 0-1.203.286-2.2.858-2.992.579-.792 1.36-1.188 2.343-1.188.799 0 1.558.293 2.277.88l-.506.671c-.601-.506-1.206-.759-1.815-.759-.682 0-1.228.312-1.639.935-.411.623-.616 1.434-.616 2.431v.033c.535-.785 1.265-1.177 2.189-1.177.741 0 1.368.22 1.881.66.521.44.781 1.016.781 1.727 0 .741-.264 1.353-.792 1.837s-1.184.726-1.969.726zm.011-.77c.557 0 1.005-.169 1.342-.506.345-.337.517-.763.517-1.276 0-.477-.176-.869-.528-1.177-.352-.315-.803-.473-1.353-.473-.557 0-1.019.172-1.386.517-.359.337-.539.733-.539 1.188 0 .491.183.902.55 1.232.367.33.832.495 1.397.495zm11.498.638v-1.826h-4.059l-.22-.627 4.356-5.302h.759v5.203h1.199v.726h-1.199V162h-.836zm-3.234-2.552h3.234v-3.971l-3.234 3.971zm12.143 1.529c-.602.77-1.386 1.155-2.354 1.155-.968 0-1.753-.381-2.354-1.144-.594-.77-.891-1.716-.891-2.838 0-1.107.3-2.046.902-2.816.608-.777 1.397-1.166 2.365-1.166.968 0 1.749.385 2.343 1.155.594.763.891 1.705.891 2.827 0 1.107-.301 2.05-.902 2.827zm-4.037-.572c.44.623 1.008.935 1.705.935.696 0 1.257-.308 1.683-.924.432-.623.649-1.379.649-2.266 0-.873-.22-1.621-.66-2.244-.433-.631-.998-.946-1.694-.946-.697 0-1.262.312-1.694.935-.433.616-.649 1.368-.649 2.255 0 .873.22 1.624.66 2.255zm11.9.572c-.601.77-1.386 1.155-2.354 1.155-.968 0-1.753-.381-2.354-1.144-.594-.77-.891-1.716-.891-2.838 0-1.107.301-2.046.902-2.816.609-.777 1.397-1.166 2.365-1.166.968 0 1.749.385 2.343 1.155.594.763.891 1.705.891 2.827 0 1.107-.301 2.05-.902 2.827zm-4.037-.572c.44.623 1.008.935 1.705.935.697 0 1.258-.308 1.683-.924.433-.623.649-1.379.649-2.266 0-.873-.22-1.621-.66-2.244-.433-.631-.997-.946-1.694-.946s-1.261.312-1.694.935c-.433.616-.649 1.368-.649 2.255 0 .873.22 1.624.66 2.255zm10.797-.99v.671h2.475v.484h-2.475V162h-.814v-1.43h-1.155v-.484h1.155V154.3h2.882c.99 0 1.76.224 2.31.671.557.44.836 1.067.836 1.881 0 .821-.279 1.456-.836 1.903-.55.44-1.32.66-2.31.66h-2.068zm0-4.411v3.718h2.079c.748 0 1.32-.161 1.716-.484.403-.323.605-.781.605-1.375s-.202-1.052-.605-1.375c-.396-.323-.968-.484-1.716-.484h-2.079z" fill="#393939"/><path d="M142 164a6 6 0 100-12 6 6 0 000 12z" fill="#83C150"/><path d="M156.11 162.716v-2.508h.792c.777-1.239 1.166-3.095 1.166-5.566V153.3h5.038v6.908h1.001l-.132 2.508h-.726V161h-6.248l-.154 1.716h-.737zm1.771-2.508h4.356v-6.116h-3.333v1.001c0 1.012-.092 1.987-.275 2.926-.183.939-.433 1.668-.748 2.189zm12.077.055c-.572.579-1.28.869-2.123.869-.843 0-1.547-.29-2.112-.869-.557-.579-.836-1.28-.836-2.101 0-.814.282-1.511.847-2.09.572-.587 1.28-.88 2.123-.88.843 0 1.547.29 2.112.869.565.579.847 1.28.847 2.101 0 .814-.286 1.514-.858 2.101zm-2.101.11c.609 0 1.107-.213 1.496-.638.396-.425.594-.95.594-1.573a2.2 2.2 0 00-.616-1.573 1.962 1.962 0 00-1.496-.649c-.609 0-1.107.216-1.496.649-.389.425-.583.95-.583 1.573 0 .616.202 1.14.605 1.573a1.98 1.98 0 001.496.638zm7.056.759c-.821 0-1.514-.29-2.079-.869a2.946 2.946 0 01-.836-2.101c0-.814.279-1.511.836-2.09a2.773 2.773 0 012.079-.88c.88 0 1.639.337 2.277 1.012l-.539.572c-.528-.557-1.111-.836-1.749-.836-.572 0-1.056.216-1.452.649-.388.425-.583.95-.583 1.573 0 .616.198 1.14.594 1.573.404.425.902.638 1.496.638.609 0 1.181-.286 1.716-.858l.561.517c-.66.733-1.433 1.1-2.321 1.1zm5.096-.132v-4.939h-2.035v-.748h4.928v.748h-2.035V161h-.858zm5.819.121c-.579 0-1.078-.158-1.496-.473-.418-.315-.627-.755-.627-1.32 0-.594.22-1.052.66-1.375.44-.323 1.031-.484 1.771-.484.587 0 1.166.081 1.738.242v-.176c0-.499-.146-.88-.44-1.144-.293-.264-.707-.396-1.243-.396-.557 0-1.133.136-1.727.407l-.253-.693c.704-.323 1.394-.484 2.068-.484.807 0 1.419.209 1.837.627.396.396.594.953.594 1.672V161h-.836v-.847c-.506.645-1.188.968-2.046.968zm.165-.682c.528 0 .976-.143 1.342-.429.367-.286.55-.653.55-1.1v-.528a5.961 5.961 0 00-1.661-.242c-.52 0-.927.106-1.221.319a.98.98 0 00-.44.847c0 .345.136.62.407.825.279.205.62.308 1.023.308zm4.512.561v-5.687h2.75c.564 0 1.015.128 1.353.385.337.257.506.601.506 1.034 0 .609-.316 1.045-.946 1.309.836.227 1.254.697 1.254 1.408 0 .477-.187.854-.561 1.133-.374.279-.877.418-1.507.418h-2.849zm.847-.726h1.892c.403 0 .722-.084.957-.253a.82.82 0 00.352-.704c0-.279-.125-.495-.374-.649-.242-.154-.591-.231-1.045-.231h-1.782v1.837zm0-2.519h1.749c.352 0 .63-.077.836-.231.212-.161.319-.389.319-.682a.691.691 0 00-.297-.583c-.198-.147-.477-.22-.836-.22h-1.771v1.716zm5.323 3.333c-.22 0-.447-.029-.682-.088l.099-.726c.169.051.304.077.407.077.161 0 .293-.018.396-.055.103-.044.213-.15.33-.319.125-.176.22-.422.286-.737.066-.315.121-.763.165-1.342.051-.579.077-1.283.077-2.112v-.473h4.026V161h-.847v-4.939h-2.376v.132c0 .865-.033 1.602-.099 2.211-.066.609-.15 1.085-.253 1.43-.095.345-.231.612-.407.803-.176.191-.348.312-.517.363a1.778 1.778 0 01-.605.088zm9.486.044c-.8 0-1.474-.275-2.024-.825-.543-.557-.814-1.272-.814-2.145 0-.829.26-1.529.781-2.101a2.51 2.51 0 011.947-.869c.814 0 1.459.286 1.936.858.476.572.715 1.291.715 2.156 0 .11-.004.209-.011.297h-4.51c.058.579.275 1.041.649 1.386.381.337.832.506 1.353.506.682 0 1.279-.268 1.793-.803l.528.473c-.638.711-1.419 1.067-2.343 1.067zm-1.98-3.311h3.663c-.052-.55-.235-1.005-.55-1.364-.308-.367-.73-.55-1.265-.55-.484 0-.899.18-1.243.539-.345.359-.547.818-.605 1.375zm6.003 3.179v-5.687h.847v2.453h3.278v-2.453h.847V161h-.847v-2.486h-3.278V161h-.847z" fill="#000"/><path d="M37.641 197.132c1.606 0 2.695-.968 2.695-2.189 0-1.023-.704-1.617-1.617-1.892.704-.253 1.408-.781 1.408-1.815 0-1.188-1.067-2.057-2.596-2.057-1.221 0-2.024.363-2.794 1.023l.506.605c.671-.605 1.397-.869 2.266-.869 1.012 0 1.738.583 1.738 1.375 0 .913-.781 1.452-1.881 1.452h-.847v.715h.847c1.177 0 2.079.418 2.079 1.419 0 .913-.847 1.485-1.793 1.485-1.111 0-1.925-.363-2.706-1.1l-.517.605c.902.825 1.881 1.243 3.212 1.243zm5.992-.011c1.001 0 1.65-.462 2.046-.968V197h.836v-3.476c0-.726-.198-1.276-.594-1.672-.407-.407-1.034-.627-1.837-.627-.836 0-1.441.198-2.068.484l.253.693c.528-.242 1.056-.407 1.727-.407 1.067 0 1.683.528 1.683 1.54v.176a5.958 5.958 0 00-1.738-.242c-1.441 0-2.431.638-2.431 1.859 0 1.188 1.056 1.793 2.123 1.793zm.165-.682c-.77 0-1.43-.418-1.43-1.133 0-.704.605-1.166 1.661-1.166.693 0 1.243.121 1.661.242v.528c0 .902-.847 1.529-1.892 1.529zm4.511.561h.847v-1.375l1.199-1.232L52.379 197h1.001l-2.442-3.223 2.376-2.464h-1.045l-3.113 3.278v-3.278h-.847V197zm7.935.121c1.001 0 1.65-.462 2.046-.968V197h.836v-3.476c0-.726-.198-1.276-.594-1.672-.407-.407-1.034-.627-1.837-.627-.836 0-1.441.198-2.068.484l.253.693c.528-.242 1.056-.407 1.727-.407 1.067 0 1.683.528 1.683 1.54v.176a5.958 5.958 0 00-1.738-.242c-1.441 0-2.431.638-2.431 1.859 0 1.188 1.056 1.793 2.123 1.793zm.165-.682c-.77 0-1.43-.418-1.43-1.133 0-.704.605-1.166 1.661-1.166.693 0 1.243.121 1.661.242v.528c0 .902-.847 1.529-1.892 1.529zm6.316.693c1.408 0 2.255-.803 2.255-1.716 0-.748-.429-1.177-1.056-1.397.484-.198.913-.605.913-1.309 0-.88-.781-1.518-2.057-1.518-.836 0-1.606.253-2.2.715l.418.594c.495-.396 1.166-.572 1.727-.572.704 0 1.232.319 1.232.847 0 .594-.517.979-1.265.979h-.77v.693h.759c.924 0 1.43.363 1.43.935 0 .66-.671 1.012-1.408 1.012-.682 0-1.331-.253-1.903-.737l-.429.627c.693.561 1.452.847 2.354.847zM73.653 197h.836v-1.826h1.199v-.726h-1.199v-5.203h-.759l-4.356 5.302.22.627h4.059V197zm-3.234-2.552l3.234-3.971v3.971h-3.234zM81.033 197h.836v-1.826h1.199v-.726h-1.199v-5.203h-.759l-4.356 5.302.22.627h4.059V197zm-3.234-2.552l3.234-3.971v3.971h-3.234zm9.525 2.684c1.562 0 2.761-1.078 2.761-2.563 0-1.463-1.232-2.387-2.662-2.387-1.122 0-1.771.561-2.189 1.177v-.033c0-1.969.869-3.366 2.255-3.366.704 0 1.243.275 1.815.759l.506-.671c-.671-.55-1.353-.88-2.277-.88-2.013 0-3.201 1.837-3.201 4.18 0 2.739 1.265 3.784 2.992 3.784zm.011-.77c-1.133 0-1.947-.748-1.947-1.727 0-.88.77-1.705 1.925-1.705 1.111 0 1.881.704 1.881 1.65 0 1.001-.726 1.782-1.859 1.782zm8.2.638h.836v-1.826h1.199v-.726h-1.199v-5.203h-.759l-4.356 5.302.22.627h4.059V197zm-3.234-2.552l3.234-3.971v3.971h-3.234zm6.39 2.552h5.379v-.792h-4.081l2.057-1.826c1.342-1.188 1.947-1.87 1.947-2.992 0-1.276-1.001-2.2-2.387-2.2-1.353 0-2.079.605-2.772 1.639l.638.462c.616-.858 1.188-1.32 2.068-1.32.836 0 1.551.572 1.551 1.474 0 .77-.418 1.375-1.606 2.42l-2.794 2.464V197zm10.809 0h.836v-1.826h1.199v-.726h-1.199v-5.203h-.759l-4.356 5.302.22.627h4.059V197zm-3.234-2.552l3.234-3.971v3.971h-3.234zm164.137 3.684c-1.107 0-2.028-.381-2.761-1.144-.733-.77-1.1-1.716-1.1-2.838 0-1.107.37-2.046 1.111-2.816.741-.777 1.668-1.166 2.783-1.166.645 0 1.195.106 1.65.319.455.205.898.513 1.331.924l-.572.616c-.741-.704-1.547-1.056-2.42-1.056-.851 0-1.562.304-2.134.913-.565.609-.847 1.364-.847 2.266 0 .895.286 1.65.858 2.266.572.609 1.28.913 2.123.913.499 0 .939-.092 1.32-.275.381-.183.77-.462 1.166-.836l.572.605a4.759 4.759 0 01-1.364.979c-.477.22-1.049.33-1.716.33zm5.338 1.661c-.411 0-.814-.095-1.21-.286l.286-.671c.271.139.568.209.891.209a.926.926 0 00.649-.242c.176-.154.348-.429.517-.825l-2.585-5.665h.935l2.068 4.741 1.826-4.741h.902l-2.387 5.874c-.242.579-.51.99-.803 1.232-.293.249-.656.374-1.089.374zM281.36 198v-5.687h.803l2.123 2.992 2.123-2.992h.814V198h-.858v-4.334l-2.101 2.882-2.079-2.882V198h-.825zm7.756 0v-5.687h.803l2.123 2.992 2.123-2.992h.814V198h-.858v-4.334l-2.101 2.882-2.079-2.882V198h-.825zm9.45.121c-.58 0-1.078-.158-1.496-.473-.418-.315-.627-.755-.627-1.32 0-.594.22-1.052.66-1.375.44-.323 1.03-.484 1.771-.484a6.39 6.39 0 011.738.242v-.176c0-.499-.147-.88-.44-1.144-.294-.264-.708-.396-1.243-.396-.558 0-1.133.136-1.727.407l-.253-.693c.704-.323 1.393-.484 2.068-.484.806 0 1.419.209 1.837.627.396.396.594.953.594 1.672V198h-.836v-.847c-.506.645-1.188.968-2.046.968zm.165-.682c.528 0 .975-.143 1.342-.429.366-.286.55-.653.55-1.1v-.528a5.966 5.966 0 00-1.661-.242c-.521 0-.928.106-1.221.319a.977.977 0 00-.44.847c0 .345.135.62.407.825.278.205.619.308 1.023.308zm4.467-3.971v-1.155h1.012v1.155h-1.012zm0 4.532v-1.155h1.012V198h-1.012zm9.951 0v-1.826h-4.059l-.22-.627 4.356-5.302h.759v5.203h1.199v.726h-1.199V198h-.836zm-3.234-2.552h3.234v-3.971l-3.234 3.971zm12.823 2.684c-.924 0-1.653-.304-2.189-.913-.535-.609-.803-1.566-.803-2.871 0-1.203.286-2.2.858-2.992.58-.792 1.361-1.188 2.343-1.188.8 0 1.559.293 2.277.88l-.506.671c-.601-.506-1.206-.759-1.815-.759-.682 0-1.228.312-1.639.935-.41.623-.616 1.434-.616 2.431v.033c.536-.785 1.265-1.177 2.189-1.177.741 0 1.368.22 1.881.66.521.44.781 1.016.781 1.727 0 .741-.264 1.353-.792 1.837s-1.184.726-1.969.726zm.011-.77c.558 0 1.005-.169 1.342-.506.345-.337.517-.763.517-1.276 0-.477-.176-.869-.528-1.177-.352-.315-.803-.473-1.353-.473-.557 0-1.019.172-1.386.517-.359.337-.539.733-.539 1.188 0 .491.184.902.55 1.232.367.33.833.495 1.397.495zm8.981.143c-.55.403-1.239.605-2.068.605-.828 0-1.518-.205-2.068-.616-.55-.411-.825-.939-.825-1.584 0-.44.143-.821.429-1.144.286-.323.671-.572 1.155-.748-.88-.403-1.32-1.001-1.32-1.793 0-.579.257-1.063.77-1.452.521-.389 1.141-.583 1.859-.583.719 0 1.335.194 1.848.583.521.389.781.88.781 1.474 0 .777-.44 1.368-1.32 1.771 1.056.396 1.584 1.03 1.584 1.903 0 .645-.275 1.173-.825 1.584zm-3.322-4.191c.338.264.756.396 1.254.396.499 0 .917-.132 1.254-.396a1.25 1.25 0 00.506-1.034c0-.381-.168-.697-.506-.946-.337-.257-.755-.385-1.254-.385-.506 0-.927.128-1.265.385-.33.249-.495.572-.495.968 0 .411.169.748.506 1.012zm-.22 3.619c.367.279.858.418 1.474.418s1.104-.139 1.463-.418c.367-.279.55-.627.55-1.045 0-.425-.194-.774-.583-1.045-.388-.279-.865-.418-1.43-.418-.572 0-1.052.139-1.441.418-.381.279-.572.634-.572 1.067 0 .403.18.744.539 1.023zm11.219.044c-.601.77-1.386 1.155-2.354 1.155-.968 0-1.753-.381-2.354-1.144-.594-.77-.891-1.716-.891-2.838 0-1.107.301-2.046.902-2.816.609-.777 1.397-1.166 2.365-1.166.968 0 1.749.385 2.343 1.155.594.763.891 1.705.891 2.827 0 1.107-.301 2.05-.902 2.827zm-4.037-.572c.44.623 1.008.935 1.705.935.697 0 1.258-.308 1.683-.924.433-.623.649-1.379.649-2.266 0-.873-.22-1.621-.66-2.244-.433-.631-.997-.946-1.694-.946s-1.261.312-1.694.935c-.433.616-.649 1.368-.649 2.255 0 .873.22 1.624.66 2.255zm10.797-.99v.671h2.475v.484h-2.475V198h-.814v-1.43h-1.155v-.484h1.155V190.3h2.882c.99 0 1.76.224 2.31.671.557.44.836 1.067.836 1.881 0 .821-.279 1.456-.836 1.903-.55.44-1.32.66-2.31.66h-2.068zm0-4.411v3.718h2.079c.748 0 1.32-.161 1.716-.484.403-.323.605-.781.605-1.375s-.202-1.052-.605-1.375c-.396-.323-.968-.484-1.716-.484h-2.079z" fill="#A1A1A1"/><path d="M142 200a6 6 0 100-12 6 6 0 000 12z" fill="#FFEAC0"/><path d="M160.664 197.132c2.343 0 3.938-1.859 3.938-3.982 0-2.145-1.573-3.982-3.916-3.982s-3.938 1.859-3.938 3.982c0 2.145 1.573 3.982 3.916 3.982zm.022-.803c-1.76 0-3.036-1.43-3.036-3.179 0-1.771 1.254-3.179 3.014-3.179 1.76 0 3.036 1.43 3.036 3.179 0 1.771-1.254 3.179-3.014 3.179zm6.981.671h.858v-4.939h2.035v-.748h-4.928v.748h2.035V197zm4.125 0h.847v-4.939h3.014v-.748h-3.861V197zm5.092 1.76h.847v-2.849c.44.638 1.122 1.21 2.178 1.21 1.375 0 2.717-1.1 2.717-2.959 0-1.892-1.353-2.97-2.717-2.97-1.045 0-1.716.583-2.178 1.265v-1.144h-.847v7.447zm2.871-2.398c-1.056 0-2.057-.88-2.057-2.2 0-1.32 1.001-2.211 2.057-2.211 1.078 0 2.002.858 2.002 2.2 0 1.397-.902 2.211-2.002 2.211zm5.313 2.431c.858 0 1.408-.429 1.892-1.606l2.387-5.874h-.902l-1.826 4.741-2.068-4.741h-.935l2.585 5.665c-.341.803-.66 1.067-1.166 1.067a1.78 1.78 0 01-.891-.209l-.286.671c.385.187.737.286 1.21.286zm4.893-1.793h.99l1.892-2.651 1.155 1.265V197h.847v-1.386l1.155-1.265 1.892 2.651h.99l-2.332-3.256 2.211-2.431h-1.023l-2.893 3.3v-3.3h-.847v3.3l-2.893-3.3h-1.023l2.211 2.431-2.332 3.256zm11.777.121c1.001 0 1.65-.462 2.046-.968V197h.836v-3.476c0-.726-.198-1.276-.594-1.672-.407-.407-1.034-.627-1.837-.627-.836 0-1.441.198-2.068.484l.253.693c.528-.242 1.056-.407 1.727-.407 1.067 0 1.683.528 1.683 1.54v.176a5.958 5.958 0 00-1.738-.242c-1.441 0-2.431.638-2.431 1.859 0 1.188 1.056 1.793 2.123 1.793zm.165-.682c-.77 0-1.43-.418-1.43-1.133 0-.704.605-1.166 1.661-1.166.693 0 1.243.121 1.661.242v.528c0 .902-.847 1.529-1.892 1.529zm6.997.693c1.078 0 1.771-.429 2.343-1.067l-.528-.473c-.462.484-1.012.803-1.793.803-1.001 0-1.881-.693-2.002-1.892h4.51c.011-.132.011-.22.011-.297 0-1.672-.968-3.014-2.651-3.014-1.573 0-2.728 1.32-2.728 2.97 0 1.771 1.276 2.97 2.838 2.97zm-1.98-3.311c.121-1.1.869-1.914 1.848-1.914 1.122 0 1.716.88 1.815 1.914h-3.663zm7.379 3.179h.858v-4.939h2.035v-.748h-4.928v.748h2.035V197zm6.688.132c1.067 0 1.749-.462 2.321-1.1l-.561-.517c-.451.484-.99.858-1.716.858-1.188 0-2.09-.979-2.09-2.211 0-1.243.88-2.222 2.035-2.222.77 0 1.298.363 1.749.836l.539-.572c-.528-.561-1.199-1.012-2.277-1.012-1.661 0-2.915 1.364-2.915 2.97 0 1.617 1.254 2.97 2.915 2.97zm3.215-.132h1.045c.528-.682 1.045-1.375 1.573-2.068h1.573V197h.847v-5.687h-2.673c-1.353 0-2.145.726-2.145 1.771 0 .924.671 1.518 1.518 1.716l-1.738 2.2zm2.431-2.783c-.792 0-1.364-.407-1.364-1.1 0-.649.495-1.056 1.342-1.056h1.782v2.156h-1.76zM37.641 233.132c1.606 0 2.695-.968 2.695-2.189 0-1.023-.704-1.617-1.617-1.892.704-.253 1.408-.781 1.408-1.815 0-1.188-1.067-2.057-2.596-2.057-1.221 0-2.024.363-2.794 1.023l.506.605c.671-.605 1.397-.869 2.266-.869 1.012 0 1.738.583 1.738 1.375 0 .913-.781 1.452-1.881 1.452h-.847v.715h.847c1.177 0 2.079.418 2.079 1.419 0 .913-.847 1.485-1.793 1.485-1.111 0-1.925-.363-2.706-1.1l-.517.605c.902.825 1.881 1.243 3.212 1.243zm5.992-.011c1.001 0 1.65-.462 2.046-.968V233h.836v-3.476c0-.726-.198-1.276-.594-1.672-.407-.407-1.034-.627-1.837-.627-.836 0-1.441.198-2.068.484l.253.693c.528-.242 1.056-.407 1.727-.407 1.067 0 1.683.528 1.683 1.54v.176a5.958 5.958 0 00-1.738-.242c-1.441 0-2.431.638-2.431 1.859 0 1.188 1.056 1.793 2.123 1.793zm.165-.682c-.77 0-1.43-.418-1.43-1.133 0-.704.605-1.166 1.661-1.166.693 0 1.243.121 1.661.242v.528c0 .902-.847 1.529-1.892 1.529zm4.511.561h.847v-1.375l1.199-1.232L52.379 233h1.001l-2.442-3.223 2.376-2.464h-1.045l-3.113 3.278v-3.278h-.847V233zm7.935.121c1.001 0 1.65-.462 2.046-.968V233h.836v-3.476c0-.726-.198-1.276-.594-1.672-.407-.407-1.034-.627-1.837-.627-.836 0-1.441.198-2.068.484l.253.693c.528-.242 1.056-.407 1.727-.407 1.067 0 1.683.528 1.683 1.54v.176a5.958 5.958 0 00-1.738-.242c-1.441 0-2.431.638-2.431 1.859 0 1.188 1.056 1.793 2.123 1.793zm.165-.682c-.77 0-1.43-.418-1.43-1.133 0-.704.605-1.166 1.661-1.166.693 0 1.243.121 1.661.242v.528c0 .902-.847 1.529-1.892 1.529zm6.316.693c1.408 0 2.255-.803 2.255-1.716 0-.748-.429-1.177-1.056-1.397.484-.198.913-.605.913-1.309 0-.88-.781-1.518-2.057-1.518-.836 0-1.606.253-2.2.715l.418.594c.495-.396 1.166-.572 1.727-.572.704 0 1.232.319 1.232.847 0 .594-.517.979-1.265.979h-.77v.693h.759c.924 0 1.43.363 1.43.935 0 .66-.671 1.012-1.408 1.012-.682 0-1.331-.253-1.903-.737l-.429.627c.693.561 1.452.847 2.354.847zm6.704-.132h5.379v-.792h-4.081l2.057-1.826c1.342-1.188 1.947-1.87 1.947-2.992 0-1.276-1.001-2.2-2.387-2.2-1.353 0-2.079.605-2.772 1.639l.638.462c.616-.858 1.188-1.32 2.068-1.32.836 0 1.551.572 1.551 1.474 0 .77-.418 1.375-1.606 2.42l-2.794 2.464V233zm9.72.132c1.562 0 2.761-1.078 2.761-2.563 0-1.463-1.232-2.387-2.662-2.387-1.122 0-1.771.561-2.189 1.177v-.033c0-1.969.869-3.366 2.255-3.366.704 0 1.243.275 1.815.759l.506-.671c-.671-.55-1.353-.88-2.277-.88-2.013 0-3.201 1.837-3.201 4.18 0 2.739 1.265 3.784 2.992 3.784zm.011-.77c-1.133 0-1.947-.748-1.947-1.727 0-.88.77-1.705 1.925-1.705 1.111 0 1.881.704 1.881 1.65 0 1.001-.726 1.782-1.859 1.782zm6.913.748c1.639 0 2.893-.88 2.893-2.189 0-.935-.671-1.562-1.584-1.903.715-.33 1.32-.88 1.32-1.771 0-1.21-1.221-2.057-2.629-2.057s-2.629.847-2.629 2.035c0 .913.605 1.463 1.32 1.793-.924.33-1.584.979-1.584 1.892 0 1.309 1.254 2.2 2.893 2.2zm0-4.4c-.979 0-1.76-.572-1.76-1.408 0-.792.759-1.353 1.76-1.353s1.76.572 1.76 1.331c0 .858-.781 1.43-1.76 1.43zm0 3.641c-1.265 0-2.013-.66-2.013-1.441 0-.88.891-1.485 2.013-1.485 1.122 0 2.013.605 2.013 1.463 0 .803-.748 1.463-2.013 1.463zm8.216.649h.836v-1.826h1.199v-.726h-1.199v-5.203h-.759l-4.356 5.302.22.627h4.059V233zm-3.234-2.552l3.234-3.971v3.971h-3.234zm9.327 2.662c1.639 0 2.893-.88 2.893-2.189 0-.935-.671-1.562-1.584-1.903.715-.33 1.32-.88 1.32-1.771 0-1.21-1.221-2.057-2.629-2.057s-2.629.847-2.629 2.035c0 .913.605 1.463 1.32 1.793-.924.33-1.584.979-1.584 1.892 0 1.309 1.254 2.2 2.893 2.2zm0-4.4c-.979 0-1.76-.572-1.76-1.408 0-.792.759-1.353 1.76-1.353s1.76.572 1.76 1.331c0 .858-.781 1.43-1.76 1.43zm0 3.641c-1.265 0-2.013-.66-2.013-1.441 0-.88.891-1.485 2.013-1.485 1.122 0 2.013.605 2.013 1.463 0 .803-.748 1.463-2.013 1.463zm7.127.781c1.562 0 2.761-1.078 2.761-2.563 0-1.463-1.232-2.387-2.662-2.387-1.122 0-1.771.561-2.189 1.177v-.033c0-1.969.869-3.366 2.255-3.366.704 0 1.243.275 1.815.759l.506-.671c-.671-.55-1.353-.88-2.277-.88-2.013 0-3.201 1.837-3.201 4.18 0 2.739 1.265 3.784 2.992 3.784zm.011-.77c-1.133 0-1.947-.748-1.947-1.727 0-.88.77-1.705 1.925-1.705 1.111 0 1.881.704 1.881 1.65 0 1.001-.726 1.782-1.859 1.782zm161.465 1.77c-1.107 0-2.028-.381-2.761-1.144-.733-.77-1.1-1.716-1.1-2.838 0-1.107.37-2.046 1.111-2.816.741-.777 1.668-1.166 2.783-1.166.645 0 1.195.106 1.65.319.455.205.898.513 1.331.924l-.572.616c-.741-.704-1.547-1.056-2.42-1.056-.851 0-1.562.304-2.134.913-.565.609-.847 1.364-.847 2.266 0 .895.286 1.65.858 2.266.572.609 1.28.913 2.123.913.499 0 .939-.092 1.32-.275.381-.183.77-.462 1.166-.836l.572.605a4.759 4.759 0 01-1.364.979c-.477.22-1.049.33-1.716.33zm5.338 1.661c-.411 0-.814-.095-1.21-.286l.286-.671c.271.139.568.209.891.209a.926.926 0 00.649-.242c.176-.154.348-.429.517-.825l-2.585-5.665h.935l2.068 4.741 1.826-4.741h.902l-2.387 5.874c-.242.579-.51.99-.803 1.232-.293.249-.656.374-1.089.374zm5.619-1.793v-5.687h.803l2.123 2.992 2.123-2.992h.814V234h-.858v-4.334l-2.101 2.882-2.079-2.882V234h-.825zm7.756 0v-5.687h.803l2.123 2.992 2.123-2.992h.814V234h-.858v-4.334l-2.101 2.882-2.079-2.882V234h-.825zm9.45.121c-.58 0-1.078-.158-1.496-.473-.418-.315-.627-.755-.627-1.32 0-.594.22-1.052.66-1.375.44-.323 1.03-.484 1.771-.484a6.39 6.39 0 011.738.242v-.176c0-.499-.147-.88-.44-1.144-.294-.264-.708-.396-1.243-.396-.558 0-1.133.136-1.727.407l-.253-.693c.704-.323 1.393-.484 2.068-.484.806 0 1.419.209 1.837.627.396.396.594.953.594 1.672V234h-.836v-.847c-.506.645-1.188.968-2.046.968zm.165-.682c.528 0 .975-.143 1.342-.429.366-.286.55-.653.55-1.1v-.528a5.966 5.966 0 00-1.661-.242c-.521 0-.928.106-1.221.319a.977.977 0 00-.44.847c0 .345.135.62.407.825.278.205.619.308 1.023.308zm4.467-3.971v-1.155h1.012v1.155h-1.012zm0 4.532v-1.155h1.012V234h-1.012zm8.862.132c-.924 0-1.653-.304-2.189-.913-.535-.609-.803-1.566-.803-2.871 0-1.203.286-2.2.858-2.992.58-.792 1.361-1.188 2.343-1.188.8 0 1.559.293 2.277.88l-.506.671c-.601-.506-1.206-.759-1.815-.759-.682 0-1.228.312-1.639.935-.41.623-.616 1.434-.616 2.431v.033c.536-.785 1.265-1.177 2.189-1.177.741 0 1.368.22 1.881.66.521.44.781 1.016.781 1.727 0 .741-.264 1.353-.792 1.837s-1.184.726-1.969.726zm.011-.77c.558 0 1.005-.169 1.342-.506.345-.337.517-.763.517-1.276 0-.477-.176-.869-.528-1.177-.352-.315-.803-.473-1.353-.473-.557 0-1.019.172-1.386.517-.359.337-.539.733-.539 1.188 0 .491.184.902.55 1.232.367.33.833.495 1.397.495zm13.027-.385c-.601.77-1.386 1.155-2.354 1.155-.968 0-1.752-.381-2.354-1.144-.594-.77-.891-1.716-.891-2.838 0-1.107.301-2.046.902-2.816.609-.777 1.397-1.166 2.365-1.166.968 0 1.749.385 2.343 1.155.594.763.891 1.705.891 2.827 0 1.107-.3 2.05-.902 2.827zm-4.037-.572c.44.623 1.009.935 1.705.935.697 0 1.258-.308 1.683-.924.433-.623.649-1.379.649-2.266 0-.873-.22-1.621-.66-2.244-.432-.631-.997-.946-1.694-.946-.696 0-1.261.312-1.694.935-.432.616-.649 1.368-.649 2.255 0 .873.22 1.624.66 2.255zm11.901.572c-.602.77-1.386 1.155-2.354 1.155-.968 0-1.753-.381-2.354-1.144-.594-.77-.891-1.716-.891-2.838 0-1.107.3-2.046.902-2.816.608-.777 1.397-1.166 2.365-1.166.968 0 1.749.385 2.343 1.155.594.763.891 1.705.891 2.827 0 1.107-.301 2.05-.902 2.827zm-4.037-.572c.44.623 1.008.935 1.705.935.696 0 1.257-.308 1.683-.924.432-.623.649-1.379.649-2.266 0-.873-.22-1.621-.66-2.244-.433-.631-.998-.946-1.694-.946-.697 0-1.262.312-1.694.935-.433.616-.649 1.368-.649 2.255 0 .873.22 1.624.66 2.255zm11.9.572c-.601.77-1.386 1.155-2.354 1.155-.968 0-1.753-.381-2.354-1.144-.594-.77-.891-1.716-.891-2.838 0-1.107.301-2.046.902-2.816.609-.777 1.397-1.166 2.365-1.166.968 0 1.749.385 2.343 1.155.594.763.891 1.705.891 2.827 0 1.107-.301 2.05-.902 2.827zm-4.037-.572c.44.623 1.008.935 1.705.935.697 0 1.258-.308 1.683-.924.433-.623.649-1.379.649-2.266 0-.873-.22-1.621-.66-2.244-.433-.631-.997-.946-1.694-.946s-1.261.312-1.694.935c-.433.616-.649 1.368-.649 2.255 0 .873.22 1.624.66 2.255zm10.797-.99v.671h2.475v.484h-2.475V234h-.814v-1.43h-1.155v-.484h1.155V226.3h2.882c.99 0 1.76.224 2.31.671.557.44.836 1.067.836 1.881 0 .821-.279 1.456-.836 1.903-.55.44-1.32.66-2.31.66h-2.068zm0-4.411v3.718h2.079c.748 0 1.32-.161 1.716-.484.403-.323.605-.781.605-1.375s-.202-1.052-.605-1.375c-.396-.323-.968-.484-1.716-.484h-2.079z" fill="#A1A1A1"/><path d="M142 236a6 6 0 100-12 6 6 0 000 12z" fill="#CDE6B9"/><path d="M156.11 234.716h.737l.154-1.716h6.248v1.716h.726l.132-2.508h-1.001V225.3h-5.038v1.342c0 2.497-.429 4.389-1.166 5.566h-.792v2.508zm1.771-2.508c.638-1.056 1.023-3.124 1.023-5.115v-1.001h3.333v6.116h-4.356zm9.954.924a2.953 2.953 0 002.981-2.97c0-1.628-1.254-2.97-2.959-2.97-1.716 0-2.97 1.364-2.97 2.97 0 1.628 1.243 2.97 2.948 2.97zm.022-.759c-1.199 0-2.101-.99-2.101-2.211 0-1.221.847-2.222 2.079-2.222 1.199 0 2.112 1.001 2.112 2.222s-.858 2.211-2.09 2.211zm7.056.759c1.067 0 1.749-.462 2.321-1.1l-.561-.517c-.451.484-.99.858-1.716.858-1.188 0-2.09-.979-2.09-2.211 0-1.243.88-2.222 2.035-2.222.77 0 1.298.363 1.749.836l.539-.572c-.528-.561-1.199-1.012-2.277-1.012-1.661 0-2.915 1.364-2.915 2.97 0 1.617 1.254 2.97 2.915 2.97zm5.096-.132h.858v-4.939h2.035v-.748h-4.928v.748h2.035V233zm5.819.121c1.001 0 1.65-.462 2.046-.968V233h.836v-3.476c0-.726-.198-1.276-.594-1.672-.407-.407-1.034-.627-1.837-.627-.836 0-1.441.198-2.068.484l.253.693c.528-.242 1.056-.407 1.727-.407 1.067 0 1.683.528 1.683 1.54v.176a5.958 5.958 0 00-1.738-.242c-1.441 0-2.431.638-2.431 1.859 0 1.188 1.056 1.793 2.123 1.793zm.165-.682c-.77 0-1.43-.418-1.43-1.133 0-.704.605-1.166 1.661-1.166.693 0 1.243.121 1.661.242v.528c0 .902-.847 1.529-1.892 1.529zm4.512.561h2.849c1.254 0 2.068-.594 2.068-1.551 0-.803-.572-1.221-1.254-1.408.473-.198.946-.561.946-1.309 0-.858-.726-1.419-1.859-1.419h-2.75V233zm.847-.726v-1.837h1.782c.924 0 1.419.33 1.419.88 0 .594-.495.957-1.309.957h-1.892zm0-2.519v-1.716h1.771c.737 0 1.133.33 1.133.803 0 .594-.473.913-1.155.913h-1.749zm5.323 3.333c1.078 0 1.881-.462 1.881-4.895v-.132h2.376V233h.847v-5.687h-4.026v.473c0 4.268-.572 4.565-1.254 4.565-.099 0-.297-.044-.407-.077l-.099.726c.176.044.495.088.682.088zm9.486.044c1.078 0 1.771-.429 2.343-1.067l-.528-.473c-.462.484-1.012.803-1.793.803-1.001 0-1.881-.693-2.002-1.892h4.51c.011-.132.011-.22.011-.297 0-1.672-.968-3.014-2.651-3.014-1.573 0-2.728 1.32-2.728 2.97 0 1.771 1.276 2.97 2.838 2.97zm-1.98-3.311c.121-1.1.869-1.914 1.848-1.914 1.122 0 1.716.88 1.815 1.914h-3.663zm6.003 3.179h.847v-2.486h3.278V233h.847v-5.687h-.847v2.453h-3.278v-2.453h-.847V233zM37.641 269.132c1.606 0 2.695-.968 2.695-2.189 0-1.023-.704-1.617-1.617-1.892.704-.253 1.408-.781 1.408-1.815 0-1.188-1.067-2.057-2.596-2.057-1.221 0-2.024.363-2.794 1.023l.506.605c.671-.605 1.397-.869 2.266-.869 1.012 0 1.738.583 1.738 1.375 0 .913-.781 1.452-1.881 1.452h-.847v.715h.847c1.177 0 2.079.418 2.079 1.419 0 .913-.847 1.485-1.793 1.485-1.111 0-1.925-.363-2.706-1.1l-.517.605c.902.825 1.881 1.243 3.212 1.243zm5.992-.011c1.001 0 1.65-.462 2.046-.968V269h.836v-3.476c0-.726-.198-1.276-.594-1.672-.407-.407-1.034-.627-1.837-.627-.836 0-1.441.198-2.068.484l.253.693c.528-.242 1.056-.407 1.727-.407 1.067 0 1.683.528 1.683 1.54v.176a5.958 5.958 0 00-1.738-.242c-1.441 0-2.431.638-2.431 1.859 0 1.188 1.056 1.793 2.123 1.793zm.165-.682c-.77 0-1.43-.418-1.43-1.133 0-.704.605-1.166 1.661-1.166.693 0 1.243.121 1.661.242v.528c0 .902-.847 1.529-1.892 1.529zm4.511.561h.847v-1.375l1.199-1.232L52.379 269h1.001l-2.442-3.223 2.376-2.464h-1.045l-3.113 3.278v-3.278h-.847V269zm7.935.121c1.001 0 1.65-.462 2.046-.968V269h.836v-3.476c0-.726-.198-1.276-.594-1.672-.407-.407-1.034-.627-1.837-.627-.836 0-1.441.198-2.068.484l.253.693c.528-.242 1.056-.407 1.727-.407 1.067 0 1.683.528 1.683 1.54v.176a5.958 5.958 0 00-1.738-.242c-1.441 0-2.431.638-2.431 1.859 0 1.188 1.056 1.793 2.123 1.793zm.165-.682c-.77 0-1.43-.418-1.43-1.133 0-.704.605-1.166 1.661-1.166.693 0 1.243.121 1.661.242v.528c0 .902-.847 1.529-1.892 1.529zm6.316.693c1.408 0 2.255-.803 2.255-1.716 0-.748-.429-1.177-1.056-1.397.484-.198.913-.605.913-1.309 0-.88-.781-1.518-2.057-1.518-.836 0-1.606.253-2.2.715l.418.594c.495-.396 1.166-.572 1.727-.572.704 0 1.232.319 1.232.847 0 .594-.517.979-1.265.979h-.77v.693h.759c.924 0 1.43.363 1.43.935 0 .66-.671 1.012-1.408 1.012-.682 0-1.331-.253-1.903-.737l-.429.627c.693.561 1.452.847 2.354.847zm9.641-.022c1.639 0 2.893-.88 2.893-2.189 0-.935-.671-1.562-1.584-1.903.715-.33 1.32-.88 1.32-1.771 0-1.21-1.221-2.057-2.629-2.057s-2.629.847-2.629 2.035c0 .913.605 1.463 1.32 1.793-.924.33-1.584.979-1.584 1.892 0 1.309 1.254 2.2 2.893 2.2zm0-4.4c-.979 0-1.76-.572-1.76-1.408 0-.792.759-1.353 1.76-1.353s1.76.572 1.76 1.331c0 .858-.781 1.43-1.76 1.43zm0 3.641c-1.265 0-2.013-.66-2.013-1.441 0-.88.891-1.485 2.013-1.485 1.122 0 2.013.605 2.013 1.463 0 .803-.748 1.463-2.013 1.463zm7.127.781c1.562 0 2.761-1.078 2.761-2.563 0-1.463-1.232-2.387-2.662-2.387-1.122 0-1.771.561-2.189 1.177v-.033c0-1.969.869-3.366 2.255-3.366.704 0 1.243.275 1.815.759l.506-.671c-.671-.55-1.353-.88-2.277-.88-2.013 0-3.201 1.837-3.201 4.18 0 2.739 1.265 3.784 2.992 3.784zm.011-.77c-1.133 0-1.947-.748-1.947-1.727 0-.88.77-1.705 1.925-1.705 1.111 0 1.881.704 1.881 1.65 0 1.001-.726 1.782-1.859 1.782zm8.2.638h.836v-1.826h1.199v-.726H88.54v-5.203h-.759l-4.356 5.302.22.627h4.059V269zm-3.234-2.552l3.234-3.971v3.971H84.47zM90.86 269h5.379v-.792h-4.081l2.057-1.826c1.342-1.188 1.947-1.87 1.947-2.992 0-1.276-1.001-2.2-2.387-2.2-1.353 0-2.079.605-2.772 1.639l.638.462c.616-.858 1.188-1.32 2.068-1.32.836 0 1.551.572 1.551 1.474 0 .77-.418 1.375-1.606 2.42l-2.794 2.464V269zm6.585 0h5.379v-.792h-4.081l2.057-1.826c1.342-1.188 1.947-1.87 1.947-2.992 0-1.276-1.001-2.2-2.387-2.2-1.353 0-2.079.605-2.772 1.639l.638.462c.616-.858 1.188-1.32 2.068-1.32.836 0 1.551.572 1.551 1.474 0 .77-.418 1.375-1.606 2.42l-2.794 2.464V269zm9.72.132c1.562 0 2.761-1.078 2.761-2.563 0-1.463-1.232-2.387-2.662-2.387-1.122 0-1.771.561-2.189 1.177v-.033c0-1.969.869-3.366 2.255-3.366.704 0 1.243.275 1.815.759l.506-.671c-.671-.55-1.353-.88-2.277-.88-2.013 0-3.201 1.837-3.201 4.18 0 2.739 1.265 3.784 2.992 3.784zm.011-.77c-1.133 0-1.947-.748-1.947-1.727 0-.88.77-1.705 1.925-1.705 1.111 0 1.881.704 1.881 1.65 0 1.001-.726 1.782-1.859 1.782zm156.567 1.77c-1.108 0-2.028-.381-2.761-1.144-.734-.77-1.1-1.716-1.1-2.838 0-1.107.37-2.046 1.111-2.816.74-.777 1.668-1.166 2.783-1.166.645 0 1.195.106 1.65.319.454.205.898.513 1.331.924l-.572.616c-.741-.704-1.548-1.056-2.42-1.056-.851 0-1.562.304-2.134.913-.565.609-.847 1.364-.847 2.266 0 .895.286 1.65.858 2.266.572.609 1.279.913 2.123.913.498 0 .938-.092 1.32-.275.381-.183.77-.462 1.166-.836l.572.605a4.773 4.773 0 01-1.364.979c-.477.22-1.049.33-1.716.33zm5.338 1.661c-.411 0-.814-.095-1.21-.286l.286-.671c.271.139.568.209.891.209a.926.926 0 00.649-.242c.176-.154.348-.429.517-.825l-2.585-5.665h.935l2.068 4.741 1.826-4.741h.902l-2.387 5.874c-.242.579-.51.99-.803 1.232-.293.249-.656.374-1.089.374zM274.7 270v-5.687h.803l2.123 2.992 2.123-2.992h.814V270h-.858v-4.334l-2.101 2.882-2.079-2.882V270h-.825zm7.756 0v-5.687h.803l2.123 2.992 2.123-2.992h.814V270h-.858v-4.334l-2.101 2.882-2.079-2.882V270h-.825zm9.45.121c-.58 0-1.078-.158-1.496-.473-.418-.315-.627-.755-.627-1.32 0-.594.22-1.052.66-1.375.44-.323 1.03-.484 1.771-.484a6.39 6.39 0 011.738.242v-.176c0-.499-.147-.88-.44-1.144-.294-.264-.708-.396-1.243-.396-.558 0-1.133.136-1.727.407l-.253-.693c.704-.323 1.393-.484 2.068-.484.806 0 1.419.209 1.837.627.396.396.594.953.594 1.672V270h-.836v-.847c-.506.645-1.188.968-2.046.968zm.165-.682c.528 0 .975-.143 1.342-.429.366-.286.55-.653.55-1.1v-.528a5.966 5.966 0 00-1.661-.242c-.521 0-.928.106-1.221.319a.977.977 0 00-.44.847c0 .345.135.62.407.825.278.205.619.308 1.023.308zm4.467-3.971v-1.155h1.012v1.155h-1.012zm0 4.532v-1.155h1.012V270h-1.012zm5.727 0v-.671l2.794-2.464c.602-.528 1.02-.968 1.254-1.32.235-.352.352-.719.352-1.1 0-.44-.15-.796-.451-1.067a1.583 1.583 0 00-1.1-.407 1.97 1.97 0 00-1.111.319c-.315.213-.634.546-.957 1.001l-.638-.462c.374-.557.77-.968 1.188-1.232.418-.271.946-.407 1.584-.407.69 0 1.258.209 1.705.627.455.411.682.935.682 1.573 0 .528-.143.997-.429 1.408-.286.411-.792.939-1.518 1.584l-2.057 1.826h4.081V270h-5.379zm6.585 0v-.671l2.794-2.464c.602-.528 1.02-.968 1.254-1.32.235-.352.352-.719.352-1.1 0-.44-.15-.796-.451-1.067a1.583 1.583 0 00-1.1-.407 1.97 1.97 0 00-1.111.319c-.315.213-.634.546-.957 1.001l-.638-.462c.374-.557.77-.968 1.188-1.232.418-.271.946-.407 1.584-.407.69 0 1.258.209 1.705.627.455.411.682.935.682 1.573 0 .528-.143.997-.429 1.408-.286.411-.792.939-1.518 1.584l-2.057 1.826h4.081V270h-5.379zm13.018.132c-.924 0-1.654-.304-2.189-.913-.535-.609-.803-1.566-.803-2.871 0-1.203.286-2.2.858-2.992.579-.792 1.36-1.188 2.343-1.188.799 0 1.558.293 2.277.88l-.506.671c-.601-.506-1.206-.759-1.815-.759-.682 0-1.228.312-1.639.935-.411.623-.616 1.434-.616 2.431v.033c.535-.785 1.265-1.177 2.189-1.177.741 0 1.368.22 1.881.66.521.44.781 1.016.781 1.727 0 .741-.264 1.353-.792 1.837s-1.184.726-1.969.726zm.011-.77c.557 0 1.005-.169 1.342-.506.345-.337.517-.763.517-1.276 0-.477-.176-.869-.528-1.177-.352-.315-.803-.473-1.353-.473-.557 0-1.019.172-1.386.517-.359.337-.539.733-.539 1.188 0 .491.183.902.55 1.232.367.33.832.495 1.397.495zm8.2.638v-1.826h-4.059l-.22-.627 4.356-5.302h.759v5.203h1.199v.726h-1.199V270h-.836zm-3.234-2.552h3.234v-3.971l-3.234 3.971zm12.143 1.529c-.601.77-1.386 1.155-2.354 1.155-.968 0-1.753-.381-2.354-1.144-.594-.77-.891-1.716-.891-2.838 0-1.107.301-2.046.902-2.816.609-.777 1.397-1.166 2.365-1.166.968 0 1.749.385 2.343 1.155.594.763.891 1.705.891 2.827 0 1.107-.301 2.05-.902 2.827zm-4.037-.572c.44.623 1.008.935 1.705.935.697 0 1.258-.308 1.683-.924.433-.623.649-1.379.649-2.266 0-.873-.22-1.621-.66-2.244-.433-.631-.997-.946-1.694-.946s-1.261.312-1.694.935c-.433.616-.649 1.368-.649 2.255 0 .873.22 1.624.66 2.255zm11.216-.99v.671h2.475v.484h-2.475V270h-.814v-1.43h-1.155v-.484h1.155V262.3h2.882c.99 0 1.76.224 2.31.671.557.44.836 1.067.836 1.881 0 .821-.279 1.456-.836 1.903-.55.44-1.32.66-2.31.66h-2.068zm0-4.411v3.718h2.079c.748 0 1.32-.161 1.716-.484.403-.323.605-.781.605-1.375s-.202-1.052-.605-1.375c-.396-.323-.968-.484-1.716-.484h-2.079z" fill="#A1A1A1"/><path d="M142 272a6 6 0 100-12 6 6 0 000 12z" fill="#FFEAC0"/><path d="M160.609 269.132c1.397 0 2.277-.495 3.08-1.309l-.572-.605c-.737.704-1.43 1.111-2.486 1.111-1.694 0-2.981-1.397-2.981-3.179 0-1.793 1.276-3.179 2.981-3.179 1.045 0 1.771.44 2.42 1.056l.572-.616c-.77-.726-1.584-1.243-2.981-1.243-2.266 0-3.894 1.804-3.894 3.982 0 2.233 1.639 3.982 3.861 3.982zm7.054 0a2.953 2.953 0 002.981-2.97c0-1.628-1.254-2.97-2.959-2.97-1.716 0-2.97 1.364-2.97 2.97 0 1.628 1.243 2.97 2.948 2.97zm.022-.759c-1.199 0-2.101-.99-2.101-2.211 0-1.221.847-2.222 2.079-2.222 1.199 0 2.112 1.001 2.112 2.222s-.858 2.211-2.09 2.211zm7.166.759c1.683 0 2.915-1.342 2.915-2.926 0-1.562-1.243-2.827-2.728-2.827-1.21 0-1.958.561-2.354 1.232.088-1.089.484-1.727 1.661-2.024l3.08-.759-.165-.715-3.168.748c-1.98.473-2.123 2.233-2.123 4.07 0 1.98 1.155 3.201 2.882 3.201zm.022-.759c-1.144 0-2.035-.957-2.035-2.145 0-1.188.836-2.145 2.013-2.145 1.144 0 2.035.957 2.035 2.145 0 1.188-.836 2.145-2.013 2.145zm4.427.627h.814l3.388-4.499V269h.847v-5.687h-.825l-3.377 4.499v-4.499h-.847V269zm6.94 1.76h.847v-2.849c.44.638 1.122 1.21 2.178 1.21 1.375 0 2.717-1.1 2.717-2.959 0-1.892-1.353-2.97-2.717-2.97-1.045 0-1.716.583-2.178 1.265v-1.144h-.847v7.447zm2.871-2.398c-1.056 0-2.057-.88-2.057-2.2 0-1.32 1.001-2.211 2.057-2.211 1.078 0 2.002.858 2.002 2.2 0 1.397-.902 2.211-2.002 2.211zm6.128.759c1.001 0 1.65-.462 2.046-.968V269h.836v-3.476c0-.726-.198-1.276-.594-1.672-.407-.407-1.034-.627-1.837-.627-.836 0-1.441.198-2.068.484l.253.693c.528-.242 1.056-.407 1.727-.407 1.067 0 1.683.528 1.683 1.54v.176a5.958 5.958 0 00-1.738-.242c-1.441 0-2.431.638-2.431 1.859 0 1.188 1.056 1.793 2.123 1.793zm.165-.682c-.77 0-1.43-.418-1.43-1.133 0-.704.605-1.166 1.661-1.166.693 0 1.243.121 1.661.242v.528c0 .902-.847 1.529-1.892 1.529zm6.997.693c1.078 0 1.771-.429 2.343-1.067l-.528-.473c-.462.484-1.012.803-1.793.803-1.001 0-1.881-.693-2.002-1.892h4.51c.011-.132.011-.22.011-.297 0-1.672-.968-3.014-2.651-3.014-1.573 0-2.728 1.32-2.728 2.97 0 1.771 1.276 2.97 2.838 2.97zm-1.98-3.311c.121-1.1.869-1.914 1.848-1.914 1.122 0 1.716.88 1.815 1.914h-3.663zM207.8 269h.858v-4.939h2.035v-.748h-4.928v.748h2.035V269zm6.688.132c1.067 0 1.749-.462 2.321-1.1l-.561-.517c-.451.484-.99.858-1.716.858-1.188 0-2.09-.979-2.09-2.211 0-1.243.88-2.222 2.035-2.222.77 0 1.298.363 1.749.836l.539-.572c-.528-.561-1.199-1.012-2.277-1.012-1.661 0-2.915 1.364-2.915 2.97 0 1.617 1.254 2.97 2.915 2.97zm3.215-.132h1.045c.528-.682 1.045-1.375 1.573-2.068h1.573V269h.847v-5.687h-2.673c-1.353 0-2.145.726-2.145 1.771 0 .924.671 1.518 1.518 1.716l-1.738 2.2zm2.431-2.783c-.792 0-1.364-.407-1.364-1.1 0-.649.495-1.056 1.342-1.056h1.782v2.156h-1.76z" fill="#A1A1A1"/><g filter="url(#filter0_dddd_5_2)"><path d="M303 0H83a8 8 0 00-8 8v40a8 8 0 008 8h220a8 8 0 008-8V8a8 8 0 00-8-8z" fill="#fff"/><path d="M94.608 23.168c-1.364 0-2.233.462-2.97 1.166l.726.88c.583-.561 1.243-.858 2.156-.858.858 0 1.452.429 1.452 1.078 0 .726-.605 1.122-1.584 1.122h-.858v1.122h.869c1.001 0 1.76.33 1.76 1.122 0 .726-.693 1.155-1.507 1.155-1.045 0-1.87-.363-2.563-1.023l-.737.935c.858.825 1.837 1.265 3.333 1.265 1.716 0 2.827-.979 2.827-2.255 0-1.001-.649-1.584-1.507-1.848.682-.286 1.309-.803 1.309-1.793 0-1.199-1.111-2.068-2.706-2.068zM103.82 31v-3.443c0-1.551-.836-2.453-2.552-2.453-.946 0-1.573.198-2.211.484l.363 1.067c.528-.22 1.012-.363 1.661-.363.924 0 1.43.44 1.43 1.243v.11a4.889 4.889 0 00-1.606-.242c-1.353 0-2.354.616-2.354 1.903 0 1.188.968 1.815 2.068 1.815.88 0 1.485-.363 1.881-.836V31h1.32zm-1.287-2.101c0 .726-.66 1.221-1.54 1.221-.627 0-1.122-.308-1.122-.858 0-.583.495-.924 1.331-.924.517 0 .99.099 1.331.231v.33zm2.87 2.101h1.32v-1.397l.946-1.001 1.76 2.398h1.573l-2.442-3.366 2.255-2.442h-1.562l-2.53 2.783v-2.783h-1.32V31zm11.394 0v-3.443c0-1.551-.836-2.453-2.552-2.453-.946 0-1.573.198-2.211.484l.363 1.067c.528-.22 1.012-.363 1.661-.363.924 0 1.43.44 1.43 1.243v.11a4.889 4.889 0 00-1.606-.242c-1.353 0-2.354.616-2.354 1.903 0 1.188.968 1.815 2.068 1.815.88 0 1.485-.363 1.881-.836V31h1.32zm-1.287-2.101c0 .726-.66 1.221-1.54 1.221-.627 0-1.122-.308-1.122-.858 0-.583.495-.924 1.331-.924.517 0 .99.099 1.331.231v.33zm4.85 2.233c1.408 0 2.332-.792 2.332-1.771 0-.748-.429-1.188-1.056-1.408.506-.22.913-.616.913-1.32 0-.902-.891-1.562-2.167-1.562-.946 0-1.771.319-2.365.836l.594.836c.44-.385 1.045-.594 1.65-.594.55 0 .957.264.957.66 0 .44-.396.759-1.023.759h-.715v.957h.715c.759 0 1.177.297 1.177.726 0 .484-.495.803-1.1.803-.66 0-1.309-.253-1.826-.693l-.627.88c.682.583 1.507.891 2.541.891zM131.067 31h1.298v-1.727h1.1v-1.111h-1.1v-4.917h-1.155l-4.279 5.06.253.968h3.883V31zm-2.53-2.838l2.53-3.047v3.047h-2.53zm9.192 2.97c1.617 0 2.86-1.089 2.86-2.618 0-1.562-1.199-2.442-2.695-2.442-.902 0-1.43.374-1.837.77.066-1.408.704-2.442 1.848-2.442.671 0 1.133.253 1.672.671l.726-1.045c-.671-.539-1.353-.858-2.354-.858-2.178 0-3.3 1.837-3.3 4.191 0 1.573.352 2.376.946 2.97.506.506 1.188.803 2.134.803zm-.033-1.166c-.968 0-1.595-.605-1.595-1.386 0-.759.605-1.375 1.562-1.375.957 0 1.573.572 1.573 1.342 0 .814-.583 1.419-1.54 1.419zM141.78 31h5.566v-1.188h-3.663l1.584-1.32c1.353-1.122 2.002-1.771 2.002-2.981 0-1.397-1.034-2.321-2.541-2.321-1.375 0-2.101.583-2.838 1.617l.957.748c.594-.77 1.078-1.155 1.782-1.155s1.243.44 1.243 1.199c0 .693-.385 1.188-1.441 2.079l-2.651 2.255V31zm9.914.132c1.617 0 2.86-1.089 2.86-2.618 0-1.562-1.199-2.442-2.695-2.442-.902 0-1.43.374-1.837.77.066-1.408.704-2.442 1.848-2.442.671 0 1.133.253 1.672.671l.726-1.045c-.671-.539-1.353-.858-2.354-.858-2.178 0-3.3 1.837-3.3 4.191 0 1.573.352 2.376.946 2.97.506.506 1.188.803 2.134.803zm-.033-1.166c-.968 0-1.595-.605-1.595-1.386 0-.759.605-1.375 1.562-1.375.957 0 1.573.572 1.573 1.342 0 .814-.583 1.419-1.54 1.419z" fill="#393939"/><path d="M299 8h-32a4 4 0 00-4 4v32a4 4 0 004 4h32a4 4 0 004-4V12a4 4 0 00-4-4z" fill="#83C150"/><path fill-rule="evenodd" clip-rule="evenodd" d="M281.995 19a7.995 7.995 0 016.248 12.983l3.496 3.496a.89.89 0 11-1.26 1.26l-3.496-3.496A7.995 7.995 0 11281.995 19zm0 2a5.995 5.995 0 103.525 10.844l.214-.163.526-.421.421-.526a5.95 5.95 0 001.302-3.464l.007-.275A5.995 5.995 0 00281.995 21z" fill="#fff"/><path d="M156 20v13" stroke="#393939"/></g></g><defs><clipPath id="clip0_5_2"><path fill="#fff" d="M0 0h386v288H0z"/></clipPath><filter id="filter0_dddd_5_2" x="-73" y="-131" width="532" height="352" filterUnits="userSpaceOnUse" color-interpolation-filters="sRGB"><feFlood flood-opacity="0" result="BackgroundImageFix"/><feColorMatrix in="SourceAlpha" values="0 0 0 0 0 0 0 0 0 0 0 0 0 0 0 0 0 0 127 0" result="hardAlpha"/><feOffset dy=".744"/><feGaussianBlur stdDeviation="4.278"/><feColorMatrix values="0 0 0 0 0 0 0 0 0 0 0 0 0 0 0 0 0 0 0.0195 0"/><feBlend in2="BackgroundImageFix" result="effect1_dropShadow_5_2"/><feColorMatrix in="SourceAlpha" values="0 0 0 0 0 0 0 0 0 0 0 0 0 0 0 0 0 0 127 0" result="hardAlpha"/><feOffset dy="3.4"/><feGaussianBlur stdDeviation="12.025"/><feColorMatrix values="0 0 0 0 0 0 0 0 0 0 0 0 0 0 0 0 0 0 0.03 0"/><feBlend in2="effect1_dropShadow_5_2" result="effect2_dropShadow_5_2"/><feColorMatrix in="SourceAlpha" values="0 0 0 0 0 0 0 0 0 0 0 0 0 0 0 0 0 0 127 0" result="hardAlpha"/><feOffset dy="8.606"/><feGaussianBlur stdDeviation="32.259"/><feColorMatrix values="0 0 0 0 0 0 0 0 0 0 0 0 0 0 0 0 0 0 0.0405 0"/><feBlend in2="effect2_dropShadow_5_2" result="effect3_dropShadow_5_2"/><feColorMatrix in="SourceAlpha" values="0 0 0 0 0 0 0 0 0 0 0 0 0 0 0 0 0 0 127 0" result="hardAlpha"/><feOffset dy="17"/><feGaussianBlur stdDeviation="74"/><feColorMatrix values="0 0 0 0 0 0 0 0 0 0 0 0 0 0 0 0 0 0 0.06 0"/><feBlend in2="effect3_dropShadow_5_2" result="effect4_dropShadow_5_2"/><feBlend in="SourceGraphic" in2="effect4_dropShadow_5_2" result="shape"/></filter></defs></svg>