<svg width="443" height="460" fill="none" xmlns="http://www.w3.org/2000/svg"><path d="M221.889 371c104.32 0 188.889-48.828 188.889-109.06s-84.569-109.06-188.889-109.06C117.568 152.88 33 201.708 33 261.94S117.568 371 221.889 371z" fill="#FAFAFA"/><path d="M325.362 332.114c20.899 0 37.842-9.78 37.842-21.845s-16.943-21.845-37.842-21.845c-20.9 0-37.842 9.78-37.842 21.845s16.942 21.845 37.842 21.845zm-246.01-31.633l-31.028-17.913c-1.75-1.012-1.75-2.645 0-3.658l180.49-104.209a7.062 7.062 0 016.334 0l31.037 17.921c1.75 1.004 1.75 2.645 0 3.657L85.695 300.481a7.003 7.003 0 01-6.343 0z" fill="#E0E0E0"/><path d="M100.185 35.5l-6.994 4.05c0-.314.055-.62.055-.927V36.59c0-3.618-2.535-5.086-5.675-3.273a10.989 10.989 0 00-3.375 3.25c-.519-4.553-4.082-6.28-8.423-3.744-4.71 2.708-8.485 9.286-8.485 14.702v3.037a7.95 7.95 0 00.714 3.525l-5.832 3.367a6.97 6.97 0 00-3.14 5.448c0 2.01 1.413 2.826 3.14 1.82l38.015-21.954a6.967 6.967 0 003.14-5.448c0-2.009-1.382-2.825-3.14-1.82zm36.359 16.813l-5.299 3.061c.031-.234.047-.47.047-.706v-1.57c0-2.732-1.915-3.838-4.278-2.473a8.203 8.203 0 00-2.551 2.45c-.392-3.43-3.085-4.71-6.358-2.819-3.532 2.041-6.405 7.01-6.405 11.092v2.3a6.049 6.049 0 00.542 2.653l-4.396 2.543a5.256 5.256 0 00-2.355 4.113c0 1.515 1.068 2.127 2.355 1.374l28.698-16.57a5.26 5.26 0 002.354-4.114c.024-1.46-1.036-2.088-2.354-1.334z" fill="#EBEBEB"/><path d="M190.894 268.557l26.688-15.424c2.755-1.57 4.129-3.673 4.129-5.754v-3.705l-27.677-15.612a5.868 5.868 0 01-2.654-4.6v-32.889l-46.594 26.924v32.889a5.886 5.886 0 002.653 4.599l23.549 13.572c5.486 3.171 14.403 3.171 19.906 0z" fill="#263238"/><path d="M155.963 256.21v3.697l-8.54-4.922a5.867 5.867 0 01-2.646-4.599v-32.882l8.87-5.125c.189 2.252.385 4.584.573 6.852l-6.224 3.603v25.699a5.83 5.83 0 002.653 4.6l5.314 3.077z" fill="#000"/><path d="M147.994 248.541a5.875 5.875 0 002.653 4.6l20.322 11.703c5.495 3.179 14.42 3.179 19.922 0l26.688-15.416c5.495-3.14 5.495-8.32 0-11.499l-20.337-11.72a5.85 5.85 0 01-2.654-4.599v-25.692l-46.586 26.924-.008 25.699z" fill="#37474F"/><path d="M202.65 229.341l-5.408-3.139a5.843 5.843 0 01-2.654-4.6v-25.684l-46.594 26.924v25.699a5.875 5.875 0 002.653 4.6l5.314 3.061 46.689-26.861z" fill="#263238"/><path d="M221.7 243.714v3.712c0 2.081-1.381 4.153-4.128 5.746l-26.688 15.416a19.996 19.996 0 01-9.506 2.355v-3.697a19.912 19.912 0 009.506-2.355l26.688-15.432c2.747-1.617 4.128-3.697 4.128-5.745zM73.183 280.48a7.127 7.127 0 006.428-.117l180.192-104.037a7.302 7.302 0 003.32-5.746V24.337a7.126 7.126 0 00-3.139-5.628 7.121 7.121 0 00-6.429.118L73.387 122.832a7.335 7.335 0 00-3.32 5.746v146.274a7.132 7.132 0 003.116 5.628z" fill="#455A64"/><path d="M79.61 280.355l180.192-104.029a7.33 7.33 0 003.32-5.746V24.337c0-2.119-1.483-2.974-3.32-1.915L79.618 126.451a7.325 7.325 0 00-3.32 5.746V278.44c0 2.119 1.483 2.951 3.312 1.915z" fill="#83C150"/><path d="M79.61 280.355l180.192-104.029a7.33 7.33 0 003.32-5.746V24.337c0-2.119-1.483-2.974-3.32-1.915L79.618 126.451a7.325 7.325 0 00-3.32 5.746V278.44c0 2.119 1.483 2.951 3.312 1.915z" fill="#37474F"/><path d="M79.124 284.146a7.153 7.153 0 01-2.989.584 7.185 7.185 0 01-2.961-.709 7.139 7.139 0 01-3.14-5.636v-13.274l6.225 3.603v13.274c.031 1.93 1.256 2.802 2.865 2.158z" fill="#263238"/><path d="M76.29 268.714v13.266c0 2.119 1.484 2.975 3.313 1.915l180.199-104.029a7.333 7.333 0 003.32-5.753v-13.29L76.29 268.714z" fill="#37474F"/><path opacity=".2" d="M76.298 268.683v13.297c0 2.119 1.483 2.975 3.312 1.915l180.192-104.029a7.333 7.333 0 003.32-5.753v-13.29L76.298 268.683z" fill="#000"/><path d="M82.522 252.057V134.269a4.41 4.41 0 011.994-3.454l170.38-98.37c1.107-.635 1.994-.117 1.994 1.147v117.796a4.418 4.418 0 01-1.994 3.454L84.485 253.211c-1.076.636-1.963.118-1.963-1.154z" fill="#83C150"/><path opacity=".3" d="M82.522 252.057V134.269a4.41 4.41 0 011.994-3.454l170.38-98.37c1.107-.635 1.994-.117 1.994 1.147v117.796a4.418 4.418 0 01-1.994 3.454L84.485 253.211c-1.076.636-1.963.118-1.963-1.154z" fill="#000"/><path d="M169.706 218.988a6.895 6.895 0 00-3.14 5.392c0 1.986 1.398 2.795 3.14 1.798a6.882 6.882 0 003.14-5.393c-.024-1.986-1.421-2.794-3.14-1.797z" fill="#455A64"/><path d="M77.272 128.915a7.068 7.068 0 00-.981 3.282v136.517l-6.225-3.603V128.609a6.886 6.886 0 01.982-3.281l6.224 3.587z" fill="#263238"/><path d="M288.216 23.647a1.638 1.638 0 00-1.695.133L106.934 127.495a5.141 5.141 0 00-2.355 4.027v121.077a2.243 2.243 0 00.981 2.018c.377.204 2.355 1.365 2.967 1.687a1.327 1.327 0 001.35-.078l179.611-103.754a5.132 5.132 0 002.355-4.027V26.779a1.627 1.627 0 00-.722-1.57c-.44-.15-2.481-1.28-2.905-1.562z" fill="#83C150"/><path d="M109.91 129.182L289.489 25.499c1.287-.738 2.355-.133 2.355 1.35v121.667a5.13 5.13 0 01-2.355 4.026L109.91 256.226c-1.288.737-2.355-.464-2.355-1.947v-121.07a5.13 5.13 0 012.355-4.027z" fill="#FAFAFA"/><path d="M290.533 25.931c.432 0 .502.55.502.88v121.665a4.326 4.326 0 01-1.938 3.344l-179.58 103.723a.716.716 0 01-.377.125c-.408 0-.785-.651-.785-1.389v-121.07a4.36 4.36 0 011.939-3.351L289.881 26.143c.196-.124.42-.197.652-.212zm0-.785a2.17 2.17 0 00-1.044.314L109.91 129.183a5.132 5.132 0 00-2.355 4.026v121.07c0 1.177.651 2.174 1.57 2.174.277-.002.549-.081.785-.227l179.579-103.754a5.132 5.132 0 002.355-4.027V26.779c0-1.06-.526-1.664-1.287-1.664l-.024.031z" fill="#E0E0E0"/><path d="M105.584 254.616c.251.134 2.065 1.17 2.857 1.617a2.349 2.349 0 01-.855-1.954V140.815l-2.983-1.742v113.526a2.284 2.284 0 00.981 2.017z" fill="#F0F0F0"/><path d="M291.82 26.786c0-1.467-1.052-2.064-2.355-1.326L109.91 129.182a5.13 5.13 0 00-2.355 4.027v7.606L291.82 34.424v-7.638z" fill="#83C150"/><path opacity=".4" d="M289.488 25.5l-179.58 103.682a4.725 4.725 0 00-1.64 1.727l-2.952-1.711a4.635 4.635 0 011.617-1.703L286.521 23.78a1.647 1.647 0 011.687-.141 101.49 101.49 0 002.842 1.617 1.713 1.713 0 00-1.562.243z" fill="#fff"/><path opacity=".15" d="M104.603 139.081v-7.559a4.79 4.79 0 01.714-2.355l2.959 1.703a4.722 4.722 0 00-.691 2.308v7.606l-2.982-1.703z" fill="#000"/><path d="M107.585 140.815l-.008 13.705L291.811 48.145V34.424L107.585 140.815z" fill="#EBEBEB"/><path d="M115.254 139.803l11.915-6.845v6.821l-11.923 6.884.008-6.86zm14.859-8.58v2.701l5.942-3.439v-2.692l-5.942 3.43zm0 4.169v2.7l5.942-3.438v-2.693l-5.942 3.431zm8.917-9.318v2.7l5.942-3.43v-2.7l-5.942 3.43zm0 4.168v2.7l5.942-3.43v-2.7l-5.942 3.43zm8.908-9.317v2.7l5.943-3.43v-2.7l-5.943 3.43zm0 4.168v2.7l5.943-3.43v-2.7l-5.943 3.43zm26.744-19.608v2.7l5.942-3.43v-2.7l-5.942 3.43zm0 4.176v2.692l5.942-3.43v-2.7l-5.942 3.438zm8.919-9.318v2.693l5.942-3.43v-2.7l-5.942 3.437zm0 4.169v2.692l5.942-3.43v-2.701l-5.942 3.439zm8.907-9.318l.008 2.7 5.942-3.43v-2.7l-5.95 3.43zm0 4.168l.008 2.701 5.942-3.438v-2.693l-5.95 3.43zm-35.652 16.421l14.859-8.579v6.86l-14.859 8.58v-6.861zm44.578-25.738l11.915-6.845v6.83l-11.923 6.883.008-6.868zm14.851-8.579l.008 2.7 5.942-3.43v-2.7l-5.95 3.43zm0 4.168l.008 2.7 5.942-3.43v-2.7l-5.95 3.43zm8.917-9.31v2.7l5.942-3.438v-2.7l-5.942 3.438zm0 4.168v2.7l5.942-3.438v-2.7l-5.942 3.438zm8.917-9.317v2.7l5.942-3.438v-2.7l-5.942 3.438zm0 4.168v2.7l5.942-3.438v-2.692l-5.942 3.43zm26.741-19.608v2.7l5.942-3.438v-2.7l-5.942 3.438zm0 4.168v2.7l5.942-3.438v-2.692l-5.942 3.43zm8.919-9.317v2.7l5.942-3.43v-2.7l-5.942 3.43zm0 4.168v2.7l5.942-3.43v-2.7l-5.942 3.43zm8.909-9.317v2.7l5.949-3.43v-2.7l-5.949 3.43zm0 4.168v2.7l5.949-3.43v-2.7l-5.949 3.43zm-35.653 16.421l14.859-8.58v6.869l-14.859 8.571v-6.86zm-135.45 74.789l-2.982-1.742v13.728l2.974 1.719.008-13.705z" fill="#E0E0E0"/><path d="M244.276 56.473v.51c0 .785.566 1.13 1.264.73l36.108-20.84a2.804 2.804 0 001.263-2.198v-.502c0-.785-.565-1.138-1.263-.73l-36.108 20.84a2.782 2.782 0 00-1.264 2.19z" fill="#F5F5F5"/><path d="M282.902 34.675v-.502c0-.785-.565-1.138-1.264-.73l-4.709 2.7v3.43l4.709-2.7a2.808 2.808 0 001.264-2.198z" fill="#455A64"/><path d="M110.553 156.224l178.3-102.922v6.845L125.404 154.52v89.209l-14.851 8.572v-96.077z" fill="#F0F0F0"/><path d="M125.404 154.52l14.851-8.571v6.844l-14.851 8.588v-6.861zm0 54.892l14.851-8.572v6.845l-14.851 8.587v-6.86z" fill="#83C150"/><path d="M125.404 216.272l14.851-8.572v6.845l-14.851 8.587v-6.86z" fill="#83C150"/><path opacity=".8" d="M125.404 216.272l14.851-8.572v6.845l-14.851 8.587v-6.86z" fill="#fff"/><path d="M214.542 157.943l14.851-8.572v6.845l-14.851 8.587v-6.86z" fill="#83C150"/><path opacity=".3" d="M214.542 157.943l14.851-8.572v6.845l-14.851 8.587v-6.86z" fill="#000"/><path d="M214.542 164.803l14.851-8.571v6.844l-14.851 8.588v-6.861z" fill="#83C150"/><path opacity=".4" d="M214.542 164.803l14.851-8.571v6.844l-14.851 8.588v-6.861z" fill="#000"/><path d="M214.542 171.671l14.851-8.571v6.844l-14.851 8.588v-6.861z" fill="#83C150"/><path opacity=".5" d="M214.542 171.671l14.851-8.571v6.844l-14.851 8.588v-6.861z" fill="#000"/><path d="M214.542 178.532l14.851-8.572v6.845l-14.851 8.587v-6.86z" fill="#83C150"/><path opacity=".3" d="M214.542 178.532l14.851-8.572v6.845l-14.851 8.587v-6.86z" fill="#000"/><path d="M199.699 111.623l14.844-8.571v34.31l-14.844 8.587v-34.326zm0 41.178l14.844-8.571v48.03l-14.844 8.588v-48.047zm-59.444 34.31l14.843-8.571v6.844l-14.843 8.588v-6.861z" fill="#83C150"/><path opacity=".3" d="M140.255 187.111l14.843-8.571v6.844l-14.843 8.588v-6.861z" fill="#000"/><path d="M169.981 135.642l14.852-8.571v6.845l-14.852 8.587v-6.861z" fill="#83C150"/><path opacity=".6" d="M169.981 135.642l14.852-8.571v6.845l-14.852 8.587v-6.861z" fill="#fff"/><path d="M244.276 133.923l14.844-8.571v6.845l-14.844 8.587v-6.861z" fill="#83C150"/><path opacity=".8" d="M244.276 133.923l14.844-8.571v6.845l-14.844 8.587v-6.861z" fill="#fff"/><path d="M244.276 147.652l14.844-8.572v6.845l-14.844 8.587v-6.86z" fill="#83C150"/><path d="M110.389 155.918l-.181.102v96.925l178.818-103.26.189-.102V52.658l-178.826 103.26zM288.5 142.315l-14.129 8.155v-6.02l14.129-8.148v6.013zm-177.578 20.989l14.129-8.156v6.021l-14.129 8.155v-6.02zm88.416-9.859v6.021l-14.129 8.155v-6.02l14.129-8.156zm-14.129 7.308v-6.021l14.129-8.155v6.02l-14.129 8.156zm14.859-7.732l14.129-8.155v6.02l-14.129 8.156v-6.021zm0-.848v-6.012l14.129-8.164v6.029l-14.129 8.147zm0-6.86v-5.997l14.129-8.156v6.021l-14.129 8.132zm0-6.868v-6.013l14.129-8.163v6.02l-14.129 8.156zm-.73.424l-14.129 8.155v-6.02l14.129-8.156v6.021zm0 .847v6.021l-14.129 8.155v-6.02l14.129-8.156zm-14.859 14.6l-14.129 8.156v-6.021l14.129-8.155v6.02zm0 .84v6.021l-14.129 8.155v-6.02l14.129-8.156zm0 6.868v6.021l-14.129 8.156v-6.021l14.129-8.156zm0 6.861v6.02l-14.129 8.156v-6.021l14.129-8.155zm.73-.424l14.129-8.156v6.021l-14.129 8.156v-6.021zm14.129-1.287v6.02l-14.129 8.156v-6.021l14.129-8.155zm.73-.424l14.129-8.156v6.021l-14.129 8.155v-6.02zm0-.848v-6.02l14.129-8.156v6.021l-14.129 8.155zm14.859-14.592l14.129-8.156v6.021l-14.129 8.155v-6.02zm0-.848v-6.02l14.129-8.156v6.021l-14.129 8.155zm0-6.86v-6.021l14.129-8.155v6.02l-14.129 8.156zm0-6.868v-6.052l14.129-8.156v6.021l-14.129 8.187zm0-6.861v-6.02l14.129-8.156v6.013l-14.129 8.163zm0-6.868v-6.021l14.129-8.155v6.02l-14.129 8.156zm-.73.424l-14.129 8.155v-6.02l14.129-8.156v6.021zm-14.859 8.579l-14.129 8.156v-6.021l14.129-8.155v6.02zm-14.859 8.58l-14.129 8.155v-6.02l14.129-8.156v6.021zm0 .84v6.02l-14.129 8.156v-6.021l14.129-8.155zm-14.859 14.599l-14.129 8.156v-6.028l14.129-8.156v6.028zm0 .848v5.989l-14.129 8.164v-6.021l14.129-8.132zm0 6.861v6.02l-14.129 8.156v-6.021l14.129-8.155zm0 6.868v6.013l-14.129 8.163v-6.021l14.129-8.155zm0 6.86v6.021l-14.129 8.155v-6.012l14.129-8.164zm0 6.869v6.004l-14.129 8.164v-6.021l14.129-8.147zm.73-.424l14.129-8.156v6.021l-14.129 8.155v-6.02zm14.129-1.295v6.02l-14.129 8.156v-6.021l14.129-8.155zm.73-.424l14.129-8.156v6.021l-14.129 8.155v-6.02zm14.859-8.58l14.129-8.155v6.044l-14.129 8.155v-6.044zm14.859-8.571l14.129-8.156v6.021l-14.129 8.155v-6.02zm0-.848v-6.036l14.129-8.156v6.021l-14.129 8.171zm14.859-14.6l14.129-8.156v6.021l-14.129 8.155v-6.02zm0-.84v-6.02l14.129-8.156v6.02l-14.129 8.156zm0-6.868v-6.021l14.129-8.155v6.02l-14.129 8.156zm0-6.861v-6.02l14.129-8.156v6.021l-14.129 8.155zm0-6.868v-6.02l14.129-8.156v6.021l-14.129 8.155zm0-6.86v-6.021l14.129-8.155v6.02l-14.129 8.156zm0-6.869v-6.02l14.129-8.156v6.021l-14.129 8.155zm0-6.86v-6.02l14.129-8.156v6.02l-14.129 8.156zm-.73.416l-14.129 8.163v-6.02l14.129-8.156v6.013zm-14.859 8.572l-14.129 8.155v-6.012l14.129-8.164v6.021zm-14.859 8.579l-14.129 8.156v-6.021l14.129-8.155v6.02zm-14.859 8.58l-14.129 8.155v-6.02l14.129-8.156v6.021zm-14.859 8.587l-14.129 8.155v-6.02l14.129-8.156v6.021zm0 .848v6.012l-14.129 8.164v-6.021l14.129-8.155zm-14.859 14.592l-14.129 8.155v-6.012l14.129-8.164v6.021zm0 .847v6.021l-14.129 8.156v-6.021l14.129-8.156zm0 6.861v6.052l-14.129 8.155v-6.02l14.129-8.187zm0 6.868v6.021l-14.129 8.155v-6.02l14.129-8.156zm0 6.86v6.021l-14.129 8.156v-6.013l14.129-8.164zm0 6.869v6.02l-14.129 8.156v-6.021l14.129-8.155zm0 6.86v6.021l-14.129 8.155v-6.012l14.129-8.164zm0 6.868v6.021l-14.129 8.155v-6.02l14.129-8.156zm.73-.423l14.129-8.156v6.021l-14.129 8.155v-6.02zm14.129-1.288v6.021l-14.129 8.155v-6.02l14.129-8.156zm.73-.424l14.129-8.155v6.02l-14.129 8.156v-6.021zm14.859-8.579l14.129-8.156v6.021l-14.129 8.155v-6.02zm14.859-8.58l14.129-8.155v6.02l-14.129 8.156v-6.021zm14.859-8.579l14.129-8.156v6.021l-14.129 8.156v-6.021zm14.859-8.579l14.129-8.156v6.021l-14.129 8.155v-6.02zm0-.84v-6.021l14.129-8.155v6.02l-14.129 8.156zm14.828-14.6l14.129-8.156v6.021l-14.129 8.155v-6.02zm0-.848v-6.02l14.129-8.156v6.02l-14.129 8.156zm0-6.86v-6.021l14.129-8.179v6.021l-14.129 8.179zm0-6.869v-6.02l14.129-8.156v6.06l-14.129 8.116zm0-6.86v-6.021l14.129-8.155v6.02l-14.129 8.156zm0-6.868v-6.021l14.129-8.155v6.02l-14.129 8.156zm0-6.861v-6.02l14.129-8.156v6.021l-14.129 8.155zm0-6.868v-6.02l14.129-8.156v6.044l-14.129 8.132zm0-6.86v-5.982l14.129-8.155v6.02l-14.129 8.117zm0-6.869v-6.02l14.129-8.156v6.02l-14.129 8.156zm-.73.424l-14.129 8.156v-6.02l14.129-8.156v6.02zm-14.859 8.58l-14.129 8.155v-6.02l14.129-8.156v6.021zm-14.859 8.579l-14.129 8.156v-6.013l14.129-8.156v6.013zm-14.828 8.58l-14.129 8.155v-6.02l14.129-8.156v6.021zm-14.859 8.579l-14.129 8.156v-6.021l14.129-8.156v6.021zm-14.859 8.572l-14.129 8.163v-6.021l14.129-8.155v6.013zm-14.859 8.595l-14.129 8.155v-6.012l14.129-8.164v6.021zm0 .847v6.021l-14.129 8.156v-6.021l14.129-8.156zm-14.859 14.6l-14.129 8.156v-6.021l14.129-8.155v6.02zm0 .84v6.021l-14.129 8.155v-6.02l14.129-8.156zm0 6.869v6.02l-14.129 8.156v-6.021l14.129-8.155zm0 6.86v6.02l-14.129 8.156v-6.02l14.129-8.156zm0 6.868v6.021l-14.129 8.116v-6.02l14.129-8.117zm0 6.861v6.02l-14.129 8.156v-6.037l14.129-8.139zm0 6.868v6.02l-14.129 8.156v-6.021l14.129-8.155zm0 6.86v6.021l-14.129 8.155v-6.02l14.129-8.156zm0 6.869v6.02l-14.129 8.132v-6.02l14.129-8.132zm0 6.86v6.02l-14.129 8.156v-6.02l14.129-8.156zm.73-.416l14.129-8.163v6.02l-14.129 8.156v-6.013zm14.129-1.295v6.02l-14.129 8.156v-6.036l14.129-8.14zm.73-.424l14.129-8.156v6.021l-14.129 8.155v-6.02zm14.859-8.627l14.129-8.155v6.02l-14.129 8.156v-6.021zm14.859-8.579l14.129-8.156v6.021l-14.129 8.155v-6.02zm14.859-8.572l14.129-8.163v6.02l-14.129 8.156v-6.013zm14.859-8.579l14.129-8.156v6.021l-14.129 8.155v-6.02zm14.859-8.58l14.129-8.155v6.02l-14.129 8.156v-6.021zm14.828-8.548l14.129-8.163v6.021l-14.129 8.155v-6.013zm0-.847v-6.021l14.129-8.155v6.02l-14.129 8.156zm14.914-14.592l14.129-8.164v6.021l-14.129 8.155v-6.012zm0-.848v-6.005l14.129-8.156v6.021l-14.129 8.14zm0-6.868v-6.013l14.129-8.164v6.021l-14.129 8.156zm0-6.861v-6.02l14.129-8.156v6.021l-14.129 8.155zm0-6.868v-6.013l14.129-8.163v6.005l-14.129 8.171zm0-6.86v-6.021l14.129-8.156v6.021l-14.129 8.156zm0-6.869v-6.012l14.129-8.164v6.021l-14.129 8.155zm0-6.86v-6.02l14.129-8.156v6.02l-14.129 8.156zm0-6.868v-6.013l14.129-8.163v5.989l-14.129 8.187zm0-6.86V84.37l14.129-8.156v6.02l-14.129 8.172zm0-6.87v-6.012l14.129-8.163v6.02l-14.129 8.156zm0-6.86v-6.02l14.129-8.156v6.02l-14.129 8.156zm-.738.424l-14.129 8.156v-6.02l14.129-8.156v6.02zm-14.851 8.58l-14.129 8.155v-6.02l14.129-8.156v6.02zm-14.859 8.571l-14.129 8.164v-6.02l14.129-8.156v6.012zm-14.859 8.58l-14.129 8.155v-6.012l14.129-8.156v6.013zm-14.859 8.579l-14.129 8.156v-6.013l14.129-8.155v6.012zm-14.859 8.58l-14.129 8.155v-6.012l14.129-8.156v6.013zm-14.859 8.579l-14.129 8.156v-6.044l14.129-8.156v6.044zm-14.859 8.58l-14.129 8.155v-5.989l14.129-8.163v5.997zm-14.883 8.579l-14.129 8.156v-6.021l14.129-8.155v6.02zm0 .84v6.02l-14.129 8.156v-6.021l14.129-8.155zm-28.98 23.603l14.129-8.155v6.02l-14.129 8.156v-6.021zm0 6.861l14.129-8.156v6.021l-14.129 8.155v-6.02zm0 6.868l14.129-8.156v6.021l-14.129 8.155v-6.02zm0 6.86l14.129-8.155v6.02l-14.129 8.156v-6.021zm0 6.869l14.129-8.156v6.02l-14.129 8.156v-6.02zm0 6.86l14.129-8.156v6.021l-14.129 8.155v-6.02zm0 6.868l14.129-8.155v6.02l-14.129 8.156v-6.021zm0 6.861l14.129-8.156v6.021l-14.129 8.155v-6.02zm0 6.868l14.129-8.156v6.021l-14.129 8.155v-6.02zm0 6.86l14.129-8.155v6.02l-14.129 8.156v-6.021zm0 6.869l14.129-8.156v5.989l-14.129 8.156v-5.989zm14.851-8.58l14.129-8.155v6.02l-14.129 8.156v-6.021zm14.129-1.295v5.997l-14.129 8.163v-6.004l14.129-8.156zm.73-.424l14.129-8.156v6.005l-14.129 8.156v-6.005zm14.859-8.572l14.129-8.155v6.02l-14.129 8.156v-6.021zm14.859-8.579l14.129-8.156v5.966l-14.129 8.156v-5.966zm14.859-8.579l14.129-8.156v5.997l-14.129 8.156v-5.997zm14.859-8.58l14.129-8.155v5.997l-14.129 8.155v-5.997zm14.859-8.579l14.129-8.156v5.997l-14.129 8.156v-5.997zm14.859-8.58l14.129-8.155v5.997l-14.129 8.155v-5.997zm14.828-8.579l14.129-8.156v5.997l-14.129 8.156v-5.997zm14.914-8.572l14.129-8.163v5.997l-14.129 8.155v-5.989zm0-.847v-6.021l14.129-8.156v6.021l-14.129 8.156zm28.98-23.596l-14.129 8.156v-6.021l14.129-8.155v6.02zm0-6.868l-14.129 8.155v-6.02l14.129-8.148v6.013zm0-6.861l-14.145 8.172v-6.021l14.129-8.155.016 6.004zm0-6.868l-14.129 8.156v-6.021l14.129-8.155v6.02zm0-6.86l-14.129 8.155v-6.02l14.129-8.156v6.021zm0-6.868l-14.129 8.155v-6.02l14.129-8.156v6.021zm0-6.86l-14.145 8.155v-6.02l14.129-8.156.016 6.02zm0-6.87l-14.129 8.156v-6.02l14.129-8.156v6.02zm0-6.86l-14.129 8.156v-6.02l14.129-8.156v6.02zm0-6.868l-14.129 8.156v-6.02l14.129-8.156v6.02zm0-6.86l-14.145 8.14v-6.005l14.129-8.156.016 6.02zm0-6.869l-14.129 8.156v-6.013l14.129-8.155v6.013zm-163.465 88.346v6.02l-14.129 8.148v-6.012l14.129-8.156zm-14.129 97.388l14.129-8.156v5.997l-14.129 8.156v-5.997zm163.449-88.361v-5.997l14.129-8.156v5.997l-14.129 8.156z" fill="#E0E0E0"/><path d="M229.394 94.457l59.459-34.303V94.48l-59.459 34.286v-34.31z" fill="#FAFAFA"/><path d="M228.993 129.449v-35.22l.196-.11 60.049-34.64v35.229l-60.245 34.741zm.785-34.765v33.407l58.675-33.839v-33.43l-58.675 33.862z" fill="#E0E0E0"/><path d="M232.393 120.477h-.095a.3.3 0 01-.167-.156.3.3 0 01-.013-.228l8.038-21.979a.296.296 0 01.424-.149l8.689 5.244 8.768-8.933a.296.296 0 01.377 0l8.634 5.675 8.768-21.602a.29.29 0 01.172-.162.295.295 0 01.236.013l8.909 4.569a.295.295 0 01.157.283.298.298 0 01-.102.198.286.286 0 01-.213.068.291.291 0 01-.109-.031l-8.634-4.42-8.792 21.641a.278.278 0 01-.188.165.272.272 0 01-.122.03.267.267 0 01-.121-.03l-8.713-5.738-8.76 8.925a.294.294 0 01-.173.085.295.295 0 01-.188-.038l-8.58-5.133-7.912 21.609a.31.31 0 01-.29.094z" fill="#455A64"/><path d="M240.43 97.227a1.972 1.972 0 00-.895 1.57c0 .573.4.785.895.518a1.989 1.989 0 00.895-1.57c0-.573-.4-.816-.895-.518zm8.894 5.306a2.004 2.004 0 00-.895 1.57c0 .573.4.785.895.518a1.998 1.998 0 00.894-1.569c.016-.566-.384-.801-.894-.519zm8.924-9.097a2.003 2.003 0 00-.894 1.57c0 .573.4.785.894.518a1.99 1.99 0 00.895-1.57c0-.565-.4-.8-.895-.518zm8.91 5.848a1.976 1.976 0 00-.895 1.57c0 .573.4.785.895.518a1.985 1.985 0 00.894-1.57c0-.518-.4-.777-.894-.518zm8.909-21.908a1.973 1.973 0 00-.895 1.57c0 .573.4.785.895.518a1.995 1.995 0 00.895-1.57c0-.589-.401-.808-.895-.518zm8.91 4.568a1.973 1.973 0 00-.895 1.57c0 .573.4.785.895.518a1.983 1.983 0 00.895-1.57c0-.573-.401-.808-.895-.518z" fill="#83C150"/><path d="M313.588 186.562l-15.809 9.129 15.809 9.129 15.809-9.129-15.809-9.129z" fill="#455A64"/><path d="M329.397 195.675v36.304l-15.809 9.129v-36.281l15.809-9.152z" fill="#37474F"/><path d="M313.588 204.827v36.281l-15.809-9.129v-36.304l15.809 9.152z" fill="#263238"/><path d="M292.786 214.317l-15.808 9.129 15.808 9.129 15.809-9.129-15.809-9.129z" fill="#83C150"/><path opacity=".3" d="M292.786 214.317l-15.808 9.129 15.808 9.129 15.809-9.129-15.809-9.129z" fill="#fff"/><path d="M308.594 223.423v20.565l-15.809 9.129v-20.542l15.809-9.152z" fill="#83C150"/><path d="M292.786 232.575v20.542l-15.808-9.129v-20.557l15.808 9.144z" fill="#83C150"/><path opacity=".1" d="M292.786 232.575v20.542l-15.808-9.129v-20.557l15.808 9.144z" fill="#000"/><path d="M271.985 217.787l-15.809 9.129 15.809 9.129 15.808-9.129-15.808-9.129z" fill="#83C150"/><path opacity=".88" d="M271.985 217.787l-15.809 9.129 15.809 9.129 15.808-9.129-15.808-9.129z" fill="#fff"/><path d="M287.793 226.9v29.098l-15.809 9.129v-29.082l15.809-9.145z" fill="#83C150"/><path opacity=".75" d="M287.793 226.9v29.098l-15.809 9.129v-29.082l15.809-9.145z" fill="#fff"/><path d="M271.985 236.045v29.082l-15.809-9.129V226.9l15.809 9.145z" fill="#83C150"/><path opacity=".6" d="M271.985 236.045v29.082l-15.809-9.129V226.9l15.809 9.145z" fill="#fff"/><path d="M251.184 248.619l-15.809 9.129 15.809 9.129 15.809-9.129-15.809-9.129z" fill="#83C150"/><path opacity=".3" d="M251.184 248.619l-15.809 9.129 15.809 9.129 15.809-9.129-15.809-9.129z" fill="#000"/><path d="M266.992 257.725v10.283l-15.808 9.128v-10.259l15.808-9.152z" fill="#83C150"/><path opacity=".4" d="M266.992 257.725v10.283l-15.808 9.128v-10.259l15.808-9.152z" fill="#000"/><path d="M251.184 266.877v10.259l-15.809-9.128v-10.283l15.809 9.152z" fill="#83C150"/><path opacity=".55" d="M251.184 266.877v10.259l-15.809-9.128v-10.283l15.809 9.152z" fill="#000"/><path d="M165.06 312.475v5.989l-5.911-16.068v-5.974l5.911 16.053z" fill="#263238"/><path d="M165.068 312.483v5.981l24.381-8.462v-5.981l-24.381 8.462z" fill="#37474F"/><path d="M159.149 296.415l5.919 16.067 24.38-8.461c-6.695-5.84-18.336-8.76-30.299-7.606z" fill="#455A64"/><path d="M133.678 313.573c-.004.06-.004.12 0 .18v-.18zm28.956 6.453l-3.579 17.033c-14.781-1.444-25.464-8.917-25.338-17.465v-5.824c0 8.477 10.652 15.879 25.346 17.308l2.48-11.704 1.091.652z" fill="#83C150"/><path opacity=".4" d="M162.634 320.026l-3.579 17.033c-14.781-1.444-25.464-8.917-25.338-17.465v-5.824c0 8.477 10.652 15.879 25.346 17.308l2.48-11.704 1.091.652z" fill="#000"/><path d="M161.786 331.274v5.981a47.166 47.166 0 0017.991-2.488c6.97-2.418 11.892-6.28 13.862-10.809.578-1.317.888-2.737.911-4.176v-6.185s-1.688-.133-3.666-2.237l-4.568 1.57-20.903 7.253-3.627 11.091z" fill="#83C150"/><path opacity=".6" d="M161.786 331.274v5.981a47.166 47.166 0 0017.991-2.488c6.97-2.418 11.892-6.28 13.862-10.809.578-1.317.888-2.737.911-4.176v-6.185s-1.688-.133-3.666-2.237l-4.568 1.57-20.903 7.253-3.627 11.091z" fill="#fff"/><path d="M143.591 306.752l18.163 10.487v-5.981l-18.163-10.487v5.981z" fill="#83C150"/><path opacity=".1" d="M143.591 306.752l18.163 10.487v-5.981l-18.163-10.487v5.981z" fill="#000"/><path d="M133.936 311.611c-1.985 9.349 9.192 17.913 25.119 19.467l3.618-17.033-21.021-12.136c-4.427 2.755-6.931 5.934-7.716 9.702z" fill="#83C150"/><path opacity=".3" d="M133.936 311.611c-1.985 9.349 9.192 17.913 25.119 19.467l3.618-17.033-21.021-12.136c-4.427 2.755-6.931 5.934-7.716 9.702z" fill="#000"/><path d="M161.888 330.779l-.102.495c6.1.354 12.21-.481 17.991-2.457 6.97-2.417 11.892-6.279 13.862-10.809 1.853-4.293.871-8.736-2.755-12.559l-4.568 1.57-20.903 7.253-3.525 16.507z" fill="#83C150"/><path opacity=".75" d="M161.888 330.779l-.102.495c6.1.354 12.21-.481 17.991-2.457 6.97-2.417 11.892-6.279 13.862-10.809 1.853-4.293.871-8.736-2.755-12.559l-4.568 1.57-20.903 7.253-3.525 16.507z" fill="#fff"/><path d="M143.591 300.771l18.163 10.487-5.337-14.506a37.212 37.212 0 00-12.826 4.019zm19.045 19.255v-5.981l-3.626 17.033v5.981l3.626-17.033z" fill="#83C150"/><path opacity=".55" d="M162.636 320.026v-5.981l-3.626 17.033v5.981l3.626-17.033z" fill="#000"/><path d="M185.807 287.443l-3.956 2.284 3.956 2.284 3.956-2.284-3.956-2.284z" fill="#83C150"/><path opacity=".3" d="M185.807 287.443l-3.956 2.284 3.956 2.284 3.956-2.284-3.956-2.284z" fill="#000"/><path d="M189.762 289.727v2.292l-3.956 2.284v-2.292l3.956-2.284z" fill="#83C150"/><path opacity=".4" d="M189.762 289.727v2.292l-3.956 2.284v-2.292l3.956-2.284z" fill="#000"/><path d="M185.807 292.011v2.292l-3.956-2.284v-2.292l3.956 2.284z" fill="#83C150"/><path opacity=".55" d="M185.807 292.011v2.292l-3.956-2.284v-2.292l3.956 2.284z" fill="#000"/><path d="M191.85 285.669l14.663-8.462a3.396 3.396 0 013.069-.055c.785.471.785 1.264-.102 1.774l-14.663 8.462a3.422 3.422 0 01-3.069.055c-.816-.471-.777-1.264.102-1.774z" fill="#E0E0E0"/><path d="M194.723 292.592l-3.956 2.284 3.956 2.284 3.956-2.284-3.956-2.284z" fill="#83C150"/><path opacity=".88" d="M194.723 292.592l-3.956 2.284 3.956 2.284 3.956-2.284-3.956-2.284z" fill="#fff"/><path d="M198.68 294.868v2.292l-3.956 2.285v-2.285l3.956-2.292z" fill="#83C150"/><path opacity=".75" d="M198.68 294.868v2.292l-3.956 2.285v-2.285l3.956-2.292z" fill="#fff"/><path d="M194.723 297.16v2.284l-3.956-2.284v-2.292l3.956 2.292z" fill="#83C150"/><path opacity=".6" d="M194.723 297.16v2.284l-3.956-2.284v-2.292l3.956 2.292z" fill="#fff"/><path d="M200.766 290.81l14.655-8.461a3.383 3.383 0 013.07-.063c.824.479.784 1.271-.095 1.774l-14.662 8.477a3.426 3.426 0 01-3.07.055c-.792-.479-.792-1.272.102-1.782z" fill="#E0E0E0"/><path d="M203.633 297.741l-3.956 2.285 3.964 2.284 3.956-2.284-3.964-2.285z" fill="#83C150"/><path opacity=".3" d="M203.633 297.741l-3.956 2.285 3.964 2.284 3.956-2.284-3.964-2.285z" fill="#fff"/><path d="M207.596 300.018v2.292l-3.956 2.284v-2.284l3.956-2.292z" fill="#83C150"/><path d="M203.641 302.31v2.284l-3.964-2.284v-2.292l3.964 2.292z" fill="#83C150"/><path opacity=".1" d="M203.641 302.31v2.284l-3.964-2.284v-2.292l3.964 2.292z" fill="#000"/><path d="M209.676 295.967l14.663-8.469a3.422 3.422 0 013.069-.055c.824.479.785 1.271-.094 1.774l-14.663 8.462a3.392 3.392 0 01-3.069.062c-.824-.478-.777-1.271.094-1.774z" fill="#E0E0E0"/><path d="M212.548 302.883l-3.956 2.284 3.956 2.284 3.956-2.284-3.956-2.284z" fill="#455A64"/><path d="M216.505 305.167v2.292l-3.956 2.284v-2.292l3.956-2.284z" fill="#37474F"/><path d="M212.548 307.451v2.292l-3.956-2.284v-2.292l3.956 2.284z" fill="#263238"/><path d="M218.591 301.116l14.663-8.469a3.422 3.422 0 013.069-.055c.824.471.785 1.264-.102 1.774l-14.655 8.462a3.395 3.395 0 01-3.069.055c-.824-.471-.777-1.264.094-1.767z" fill="#E0E0E0"/><path d="M336.634 178.94c5.439 0 8.022 1.57 9.984 6.735 1.963 5.165 7.151 17.151 7.253 20.699.11 3.681-11.774 14.843-11.319 14.655.126-.063-3.618-6.766-3.618-6.766l6.672-8.172L341.783 195l-5.149-16.06z" fill="#FFA8A7"/><path d="M343.369 300.897c.338.322.4.628.385 1.79-.016 1.161.478 2.456-.118 3.54-.44.785-2.716 1.365-3.87.785a11.912 11.912 0 01-2.669-2.395 18.56 18.56 0 00-2.354-2.252c-.982-.73-2.12-1.217-3.14-1.884a6.276 6.276 0 01-2.842-4.71 3.04 3.04 0 01.361-1.79 2.047 2.047 0 012.049-.675c1.107.181 4.859 2.277 5.722 2.873 1.131.738 6.131 4.388 6.476 4.718z" fill="#263238"/><path d="M337.858 296.093c-.039.832-3.547-1.115-4.984-.926h-.039c-1.342.643-.228 2.519 1.012 3.477 1.241.958 5.307 3.925 5.307 3.925l.832-4.812-2.128-1.664z" fill="#FFA8A7"/><path d="M322.631 309.649c.652 0 .942 2.135 1.068 3.776.086 1.271.573 3.351.117 4.285-.455.934-2.158 1.515-4.803 1.46-1.719 0-4.404 1.091-6.241 2.088a9.421 9.421 0 01-5.95.746c-2.354-.306-4.772-1.703-5.141-2.677-.369-.973.133-1.444 5.707-3.736.054 0 5.887-2.567 8.634-5.495l6.609-.447z" fill="#263238"/><path d="M307.411 315.591c-.785.314-1.437.597-2.026.848-.149.526.055 1.366 2.52 1.774 3.752.628 14.788-7.685 14.788-7.685s-1.569.44-1.876-.463h-4.796c-2.747 2.959-8.61 5.503-8.61 5.526z" fill="#FFA8A7"/><path d="M345.607 273.597a47.66 47.66 0 00-1.083-10.888s.659-14.019.73-22.826c.149-17.426-.18-19.984-4.035-27.473 0 0-22.504-2.629-23.454 8.336-1.177 13.658-2.551 36.508-2.519 43.015 0 4.843.58 10.095.847 21.076.173 7.064.911 16.97-.094 25.291 1.272 2.135 4.71 2.096 6.672.432.565-8.148 4.616-23.753 5.244-29.192.34-3.93.176-7.887-.487-11.775 0 0 2.983-23.265 3.509-26.805a65.88 65.88 0 011.303 11.366c0 1.569.533 6.726 1.42 15.439.542 5.307 4.294 26.045 5.11 32.709 1.884 1.821 4.318.565 4.427-.22.628-8.132 2.41-23.407 2.41-28.485z" fill="#FFA8A7"/><path opacity=".15" d="M330.959 242.764l1.986-11.295a15.466 15.466 0 008.862-4.647s-1.193 4.513-7.065 6.052l-2.354 10.204-.393 9.317-1.036-9.631z" fill="#000"/><path d="M325.291 175.149l.934 10.235 8.996-.541-.691-11.358-9.239 1.664z" fill="#FFA8A7"/><path d="M343.346 215.134a41.418 41.418 0 00-3.925-7.779c3.846-12.386 5.079-16.554 4.333-21.853-.479-3.367-3.14-6.735-6.405-6.554h-2.465c-.141 2.355-6.664 2.457-9.137.84l-2.284.063c-1.609.573-7.064 8.634-7.692 13.932-.495 4.325 2.904 8.077 2.904 8.077a42.22 42.22 0 01-.322 5.495v15.699s1.264 4.019 14.467 2.763c11.774-1.115 12.025-5.126 12.025-5.126a24.665 24.665 0 00-1.499-5.557z" fill="#83C150"/><path opacity=".3" d="M343.347 215.134a41.418 41.418 0 00-3.925-7.779c3.846-12.386 5.079-16.554 4.333-21.853-.479-3.367-3.14-6.735-6.405-6.554h-2.465c-.141 2.355-6.664 2.457-9.137.84l-2.284.063c-1.609.573-7.064 8.634-7.692 13.932-.495 4.325 2.904 8.077 2.904 8.077a42.22 42.22 0 01-.322 5.495v15.699s1.264 4.019 14.467 2.763c11.774-1.115 12.025-5.126 12.025-5.126a24.665 24.665 0 00-1.499-5.557z" fill="#000"/><path d="M326.65 151.192a8.353 8.353 0 00-7.229 2.622c-4.6 5.181.447 8.995.447 8.995l6.782-11.617z" fill="#263238"/><path d="M318.651 163.893s-2.001 3.006-1.742 3.328c.464.308.98.531 1.523.659l.219-3.987z" fill="#F28F8F"/><path d="M324.76 154.371c-1.939.997-5.291 2.834-6.17 9.961-.903 7.324.722 9.867 1.719 10.832.667.652 4.144.895 5.958.338 2.276-.699 7.198-3.14 9.505-6.892 2.724-4.435 3.305-10.361.181-12.692-4.396-3.258-9.553-2.387-11.193-1.547z" fill="#FFA8A7"/><path d="M323.793 162.794c-4.058-2.065-3.022-7.449-3.022-7.449s5.793-8.281 16.484-2.928c3.697 1.852 5.918 6.06 5.832 10.989 0 3.077-1.223 6.028-3.398 8.204a11.606 11.606 0 01-8.204 3.398 6.766 6.766 0 01-6.766-6.767v-.447l.345.11a3.433 3.433 0 003.14-.84c1.782-1.57 1.994-4.545-.259-5.298-2.253-.754-3.422 1.883-3.422 1.883l-.872 2.355a1.697 1.697 0 01-.962-.879 1.719 1.719 0 01-.058-1.303 1.66 1.66 0 011.162-1.028z" fill="#263238"/><path d="M299.263 164.442l-19.294 9.663 9.074 26.146 18.022-9.701-7.802-26.108z" fill="#83C150"/><path d="M298.346 166.97l-16.186 8.108 8.038 22.489 15.118-8.14-6.97-22.457z" fill="#F5F5F5"/><path opacity=".15" d="M294.923 169.325l-.298-.785c-.165-.44-1.507-.197-2.999.541l-2.849 1.405c-1.484.738-2.559 1.696-2.394 2.143l.298.785 8.242-4.089z" fill="#000"/><path d="M294.663 166.145c-.102-.282-.683-.243-1.303.079l-1.115.573s-.651-1.727-3.218-.581c-2.567 1.146-2.017 3.14-2.017 3.14l-1.186.628c-.651.345-1.122.855-1.051 1.13l.133.51 9.945-4.968-.188-.511z" fill="#37474F"/><path d="M293.58 167.276c-.926.44-1.287.651-1.036 1.334.251.683.557 1.335.557 1.335l-4.396 2.205s-.345-.989-.502-1.365c-.157-.377-.463-.573-1.162-.22l-.259-.283 6.939-3.383-.141.377z" fill="#263238"/><path d="M295.102 169.372l-.291-.785c-.164-.44-1.507-.204-2.998.533l-2.849 1.413c-1.492.738-2.559 1.696-2.394 2.135l.29.785 8.242-4.081z" fill="#37474F"/><path d="M323.438 179.851c-3.038-.047-4.874.219-9.019 6.373-4.144 6.154-11.837 17.458-12.732 18.957-1.255 2.041-1.569 5.173-.518 7.064.95 1.782 2.63 2.402 7.41-2.676 3.532-3.76 10.989-13.745 10.989-13.745s5.77-10.761 3.87-15.973z" fill="#FFA8A7"/><path d="M303.055 213.556c-2.504.785-11.696-10.157-14.247-13.446a38.044 38.044 0 00-7.174-7.284c-3.541-2.708-2.952-6.766-1.327-10.463.565-1.288 2.355-.416 2.355-.416l.62 1.781 1.067 3.085c.746.714 1.178.95 1.225.738.102-.392-.518-2.049-.479-3.768.055-2.064 1.484-.683 1.9.047a25.861 25.861 0 011.468 3.446c.69 1.861.361 3.721 1.224 5 .864 1.28 13.344 11.641 13.344 11.641l.024 9.639z" fill="#FFA8A7"/><path d="M339.454 207.355s-8.799 5.196-21.122 0a180.869 180.869 0 00-2.237 19.529c-.44 8.336-1.406 26.225-1.406 26.225s3.635 4.247 16.618 3.383c12.48-.784 14.678-4.081 14.678-4.081s0-16.068.094-23.093c.087-8.98-1.169-13.862-6.625-21.963z" fill="#83C150"/><path opacity=".5" d="M339.454 207.355s-8.799 5.196-21.122 0a180.869 180.869 0 00-2.237 19.529c-.44 8.336-1.406 26.225-1.406 26.225s3.635 4.247 16.618 3.383c12.48-.784 14.678-4.081 14.678-4.081s0-16.068.094-23.093c.087-8.98-1.169-13.862-6.625-21.963z" fill="#000"/><path d="M343.518 159.952l2.065-1.884a1.808 1.808 0 00-2.999.557 1.808 1.808 0 00-.055 1.186c-.251 0-.51-.039-.785-.039v16.546a8.633 8.633 0 008.595 8.635v-16.594a8.631 8.631 0 00-6.821-8.407z" fill="#263238"/></svg>