<svg width="177" height="50" fill="none" xmlns="http://www.w3.org/2000/svg"><path d="M1.674 23V4.1h5.238v14.31h9.153V23H1.674zm16.638 0V4.1h5.535l4.509 7.317L32.865 4.1H38.4V23h-5.211V12.146l-4.833 7.398h-.108L23.442 12.2V23h-5.13z" fill="#83C150"/><path d="M46.674 23V4.1h5.238v14.31h9.153V23H46.674zm32.324-2.484c-1.944 1.908-4.365 2.862-7.263 2.862-2.898 0-5.32-.945-7.263-2.835-1.926-1.908-2.89-4.239-2.89-6.993 0-2.736.973-5.058 2.917-6.966 1.962-1.908 4.392-2.862 7.29-2.862 2.898 0 5.31.954 7.236 2.862 1.944 1.89 2.916 4.212 2.916 6.966 0 2.736-.981 5.058-2.943 6.966zm-7.21-1.863c1.423 0 2.575-.495 3.457-1.485.9-.99 1.35-2.196 1.35-3.618 0-1.404-.46-2.601-1.377-3.591-.918-1.008-2.08-1.512-3.483-1.512-1.404 0-2.556.495-3.456 1.485-.882.99-1.323 2.196-1.323 3.618 0 1.404.45 2.61 1.35 3.618.918.99 2.079 1.485 3.483 1.485zm22.52 4.725c-2.97 0-5.427-.918-7.37-2.754-1.945-1.854-2.917-4.212-2.917-7.074 0-2.772.963-5.103 2.89-6.993 1.943-1.89 4.373-2.835 7.29-2.835 2.987 0 5.543.918 7.667 2.754l-3.078 3.699c-1.422-1.188-2.943-1.782-4.563-1.782-1.368 0-2.52.504-3.456 1.512-.918 1.008-1.377 2.25-1.377 3.726 0 1.53.477 2.79 1.431 3.78.972.972 2.205 1.458 3.7 1.458 1.223 0 2.231-.261 3.023-.783v-2.295h-3.726v-3.834h8.694v8.505c-2.358 1.944-5.094 2.916-8.208 2.916zm11.22-.378V4.1h5.265V23h-5.265zm16.15.324c-3.564 0-6.516-1.044-8.856-3.132l2.916-3.483c1.89 1.512 3.933 2.268 6.129 2.268 1.44 0 2.16-.45 2.16-1.35 0-.396-.216-.72-.648-.972-.432-.27-1.278-.549-2.538-.837a33.374 33.374 0 01-2.862-.783 12.797 12.797 0 01-2.187-1.053c-.702-.45-1.224-1.017-1.566-1.701-.342-.684-.513-1.503-.513-2.457 0-1.782.657-3.231 1.971-4.347 1.332-1.134 3.114-1.701 5.346-1.701 3.096 0 5.688.837 7.776 2.511l-2.619 3.699c-1.764-1.242-3.528-1.863-5.292-1.863-.612 0-1.08.117-1.404.351-.324.234-.486.54-.486.918 0 .432.216.774.648 1.026.45.252 1.323.522 2.619.81 2.376.522 4.14 1.224 5.292 2.106 1.17.864 1.755 2.142 1.755 3.834 0 1.908-.693 3.411-2.079 4.509-1.386 1.098-3.24 1.647-5.562 1.647zM135.956 23V8.69h-5.67V4.1h16.578v4.59h-5.67V23h-5.238zm13.315 0V4.1h5.265V23h-5.265zm17.824.378c-2.736 0-5.049-.927-6.939-2.781-1.872-1.872-2.808-4.221-2.808-7.047 0-2.772.945-5.103 2.835-6.993 1.908-1.89 4.284-2.835 7.128-2.835 3.366 0 6.012 1.332 7.938 3.996l-3.834 2.97c-1.17-1.458-2.556-2.187-4.158-2.187-1.314 0-2.394.486-3.24 1.458-.846.972-1.269 2.169-1.269 3.591 0 1.44.423 2.646 1.269 3.618.846.954 1.926 1.431 3.24 1.431.918 0 1.701-.189 2.349-.567.648-.396 1.287-.972 1.917-1.728l3.942 2.808c-.99 1.35-2.142 2.403-3.456 3.159-1.314.738-2.952 1.107-4.914 1.107zM6.908 41.312h.948v-.924c2.712 0 4.248-1.44 4.248-3.624s-1.548-3.612-4.248-3.612v-.828h-.948v.828c-2.7 0-4.248 1.428-4.248 3.612s1.536 3.624 4.248 3.624v.924zm0-1.788c-2.076 0-3.264-.96-3.264-2.748 0-1.776 1.188-2.76 3.264-2.76v5.508zm.948 0v-5.508c2.076 0 3.264.984 3.264 2.76 0 1.788-1.188 2.748-3.264 2.748zm7.457 1.62c.996 0 1.885-.528 2.568-1.908l3.325-6.636h-1.032l-2.677 5.484-3.095-5.484h-1.08l3.695 6.432c-.491.936-1.103 1.26-1.68 1.26-.444 0-.732-.072-1.067-.252l-.372.756a2.91 2.91 0 001.415.348zm7.47-.048c1.297 0 2.497-.828 2.497-6.72v-.912h3.576V41h.948v-8.4h-5.436v1.524c0 5.724-1.092 6.12-1.74 6.12-.264 0-.612-.06-.744-.12l-.192.768c.216.084.72.204 1.092.204zm13.231.216h.948v-.924c2.712 0 4.248-1.44 4.248-3.624s-1.548-3.612-4.248-3.612v-.828h-.948v.828c-2.7 0-4.248 1.428-4.248 3.612s1.536 3.624 4.248 3.624v.924zm0-1.788c-2.076 0-3.264-.96-3.264-2.748 0-1.776 1.188-2.76 3.264-2.76v5.508zm.948 0v-5.508c2.076 0 3.264.984 3.264 2.76 0 1.788-1.188 2.748-3.264 2.748zM43.184 41h.924l5.004-6.972V41h.936v-8.4h-.9l-5.016 6.972V32.6h-.948V41zm9.198.096c1.296 0 2.496-.828 2.496-6.72v-.912h3.576V41h.948v-8.4h-5.436v1.524c0 5.724-1.092 6.12-1.74 6.12-.264 0-.612-.06-.744-.12l-.192.768c.216.084.72.204 1.092.204zm9.51-.096h.924v-6.792l3.06 4.488h.048l3.06-4.5V41h.948v-8.4h-.96l-3.06 4.584-3.06-4.584h-.96V41zm10.538 0h6.132v-.864h-5.184v-2.94h4.584v-.864h-4.584v-2.868h5.124V32.6H72.43V41zm8.16 0h.947v-3.78h4.848V41h.948v-8.4h-.948v3.732h-4.848V32.6h-.948V41zm11.457 0h.96v-7.536h2.82V32.6h-6.6v.864h2.82V41zm5.273-3.12h3.336v-.972H97.32v.972zm9.326 3.264c2.556 0 4.296-2.028 4.296-4.344 0-2.34-1.716-4.344-4.272-4.344s-4.296 2.028-4.296 4.344c0 2.34 1.716 4.344 4.272 4.344zm.024-.876c-1.92 0-3.312-1.56-3.312-3.468 0-1.932 1.368-3.468 3.288-3.468 1.92 0 3.312 1.56 3.312 3.468 0 1.932-1.368 3.468-3.288 3.468zm6.392.732h.948v-7.536h4.728V41h.948v-8.4h-6.624V41zm9.12 0h6.132v-.864h-5.184v-2.94h4.584v-.864h-4.584v-2.868h5.124V32.6h-6.072V41zm8.159 0h.948v-2.964h2.04c1.788 0 3.3-.936 3.3-2.748 0-1.68-1.248-2.688-3.144-2.688h-3.144V41zm.948-3.828v-3.696h2.124c1.356 0 2.256.624 2.256 1.824 0 1.128-.912 1.872-2.304 1.872h-2.076zM137.756 41h.972l.996-2.22h4.572l.984 2.22h1.02l-3.828-8.46h-.888L137.756 41zm2.34-3.072l1.92-4.284 1.908 4.284h-3.828zM150.297 41h.96v-7.536h2.82V32.6h-6.6v.864h2.82V41zm9.581.144c2.556 0 4.296-2.028 4.296-4.344 0-2.34-1.716-4.344-4.272-4.344s-4.296 2.028-4.296 4.344c0 2.34 1.716 4.344 4.272 4.344zm.024-.876c-1.92 0-3.312-1.56-3.312-3.468 0-1.932 1.368-3.468 3.288-3.468 1.92 0 3.312 1.56 3.312 3.468 0 1.932-1.368 3.468-3.288 3.468zm6.391.732h.948v-2.964h2.04c1.788 0 3.3-.936 3.3-2.748 0-1.68-1.248-2.688-3.144-2.688h-3.144V41zm.948-3.828v-3.696h2.124c1.356 0 2.256.624 2.256 1.824 0 1.128-.912 1.872-2.304 1.872h-2.076z" fill="#393939"/></svg>