<svg width="23" height="30" fill="none" xmlns="http://www.w3.org/2000/svg"><path d="M11.661 6.27h0c.05.007.265.03.484.048 1.623.143 3.19 1.245 3.998 2.762.216.406.365.746.454 1.137.087.385.11.793.11 1.326 0 .8-.017 1.041-.159 1.498-.521 1.677-1.724 2.911-3.409 3.516L11.661 6.27zm0 0a1.9 1.9 0 00-.316-.001m.316.001l-.316-.001m1.12 10.469c-.228.027-.51.028-.961.028-.451 0-.733 0-.96-.028a2.887 2.887 0 01-.675-.181c-1.685-.605-2.888-1.839-3.409-3.516l6.005 3.697zm0 0c.25-.031.431-.094.674-.181l-.674.18zm-6.006-6.693c-.14.456-.158.7-.158 1.498 0 .8.017 1.041.159 1.498l-.001-2.996zm0 0C7.092 8 8.862 6.515 10.957 6.3L6.46 10.045zm4.886-3.776a8.32 8.32 0 00-.388.03l.388-.03zM10.628.513h0c.16-.02.67-.017 1.245.006.568.023 1.113.061 1.334.098h0c2.315.39 4.39 1.452 6.015 3.074 2.019 2.015 3.151 4.59 3.27 7.433h0c.066 1.551-.28 2.89-1.417 5.217-1.03 2.108-2.446 4.322-4.419 6.9h0c-1.384 1.809-3.665 4.495-4.919 5.797l.36.346-.36-.346-.233.241-.233-.241h0c-1.777-1.844-4.636-5.315-6.164-7.483-1.454-2.064-2.375-3.578-3.174-5.214C1.1 14.635.775 13.69.57 12.431l-.493.08.493-.08c-.25-1.542.184-3.995 1.045-5.724l-.445-.222.445.222c1.278-2.57 3.51-4.594 6.073-5.526h0C8.606.847 9.46.65 10.628.513z" fill="#83C150" stroke="#000"/></svg>