<svg width="386" height="288" viewBox="0 0 386 288" fill="none" xmlns="http://www.w3.org/2000/svg">
<g clip-path="url(#clip0_5_38)">
<path d="M0 48C0 30.327 14.327 16 32 16H354C371.673 16 386 30.327 386 48V288H0V48Z" fill="white"/>
<path d="M91 236H61C52.1634 236 45 243.163 45 252V282C45 290.837 52.1634 298 61 298H91C99.8366 298 107 290.837 107 282V252C107 243.163 99.8366 236 91 236Z" fill="#E1E1E1"/>
<path d="M59 273.259C59 273.259 64.174 267.704 67.13 267.704C70.087 267.704 70.826 272.519 75.261 272.148C79.696 271.778 80.065 264 84.5 264C88.935 264 93 274 93 274" stroke="white" stroke-width="2"/>
<path d="M59 279V254C59 253.448 59.448 253 60 253H92C92.552 253 93 253.448 93 254V279C93 279.552 92.552 280 92 280H60C59.448 280 59 279.552 59 279Z" stroke="white" stroke-width="2"/>
<path d="M73 263C74.1046 263 75 262.105 75 261C75 259.895 74.1046 259 73 259C71.8954 259 71 259.895 71 261C71 262.105 71.8954 263 73 263Z" stroke="white" stroke-width="2"/>
<path d="M169 236H139C130.163 236 123 243.163 123 252V282C123 290.837 130.163 298 139 298H169C177.837 298 185 290.837 185 282V252C185 243.163 177.837 236 169 236Z" fill="#E1E1E1"/>
<path d="M137 273.259C137 273.259 142.174 267.704 145.13 267.704C148.087 267.704 148.826 272.519 153.261 272.148C157.696 271.778 158.065 264 162.5 264C166.935 264 171 274 171 274" stroke="white" stroke-width="2"/>
<path d="M137 279V254C137 253.448 137.448 253 138 253H170C170.552 253 171 253.448 171 254V279C171 279.552 170.552 280 170 280H138C137.448 280 137 279.552 137 279Z" stroke="white" stroke-width="2"/>
<path d="M151 263C152.105 263 153 262.105 153 261C153 259.895 152.105 259 151 259C149.895 259 149 259.895 149 261C149 262.105 149.895 263 151 263Z" stroke="white" stroke-width="2"/>
<path d="M247 236H217C208.163 236 201 243.163 201 252V282C201 290.837 208.163 298 217 298H247C255.837 298 263 290.837 263 282V252C263 243.163 255.837 236 247 236Z" fill="#E1E1E1"/>
<path d="M215 273.259C215 273.259 220.174 267.704 223.13 267.704C226.087 267.704 226.826 272.519 231.261 272.148C235.696 271.778 236.065 264 240.5 264C244.935 264 249 274 249 274" stroke="white" stroke-width="2"/>
<path d="M215 279V254C215 253.448 215.448 253 216 253H248C248.552 253 249 253.448 249 254V279C249 279.552 248.552 280 248 280H216C215.448 280 215 279.552 215 279Z" stroke="white" stroke-width="2"/>
<path d="M229 263C230.105 263 231 262.105 231 261C231 259.895 230.105 259 229 259C227.895 259 227 259.895 227 261C227 262.105 227.895 263 229 263Z" stroke="white" stroke-width="2"/>
<path d="M325 158H295C286.163 158 279 165.163 279 174V204C279 212.837 286.163 220 295 220H325C333.837 220 341 212.837 341 204V174C341 165.163 333.837 158 325 158Z" fill="#E1E1E1"/>
<path d="M293 195.259C293 195.259 298.174 189.704 301.13 189.704C304.087 189.704 304.826 194.519 309.261 194.148C313.696 193.778 314.065 186 318.5 186C322.935 186 327 196 327 196" stroke="white" stroke-width="2"/>
<path d="M293 201V176C293 175.448 293.448 175 294 175H326C326.552 175 327 175.448 327 176V201C327 201.552 326.552 202 326 202H294C293.448 202 293 201.552 293 201Z" stroke="white" stroke-width="2"/>
<path d="M307 185C308.105 185 309 184.105 309 183C309 181.895 308.105 181 307 181C305.895 181 305 181.895 305 183C305 184.105 305.895 185 307 185Z" stroke="white" stroke-width="2"/>
<path d="M325 236H295C286.163 236 279 243.163 279 252V282C279 290.837 286.163 298 295 298H325C333.837 298 341 290.837 341 282V252C341 243.163 333.837 236 325 236Z" fill="#E1E1E1"/>
<path d="M293 273.259C293 273.259 298.174 267.704 301.13 267.704C304.087 267.704 304.826 272.519 309.261 272.148C313.696 271.778 314.065 264 318.5 264C322.935 264 327 274 327 274" stroke="white" stroke-width="2"/>
<path d="M293 279V254C293 253.448 293.448 253 294 253H326C326.552 253 327 253.448 327 254V279C327 279.552 326.552 280 326 280H294C293.448 280 293 279.552 293 279Z" stroke="white" stroke-width="2"/>
<path d="M307 263C308.105 263 309 262.105 309 261C309 259.895 308.105 259 307 259C305.895 259 305 259.895 305 261C305 262.105 305.895 263 307 263Z" stroke="white" stroke-width="2"/>
<path d="M91 80H61C52.1634 80 45 87.1634 45 96V126C45 134.837 52.1634 142 61 142H91C99.8366 142 107 134.837 107 126V96C107 87.1634 99.8366 80 91 80Z" fill="#9CD365"/>
<path d="M59 117.259C59 117.259 64.174 111.704 67.13 111.704C70.087 111.704 70.826 116.519 75.261 116.148C79.696 115.778 80.065 108 84.5 108C88.935 108 93 118 93 118" stroke="white" stroke-width="2"/>
<path d="M59 123V98C59 97.448 59.448 97 60 97H92C92.552 97 93 97.448 93 98V123C93 123.552 92.552 124 92 124H60C59.448 124 59 123.552 59 123Z" stroke="white" stroke-width="2"/>
<path d="M73 107C74.1046 107 75 106.105 75 105C75 103.895 74.1046 103 73 103C71.8954 103 71 103.895 71 105C71 106.105 71.8954 107 73 107Z" stroke="white" stroke-width="2"/>
<path d="M99 80C99 75.5817 95.4183 72 91 72C86.5817 72 83 75.5817 83 80C83 84.4183 86.5817 88 91 88C95.4183 88 99 84.4183 99 80Z" fill="#83C150"/>
<path fill-rule="evenodd" clip-rule="evenodd" d="M90.592 80.401C90.202 80.786 89.576 80.785 89.186 80.4L88.439 79.661C88.175 79.4 87.751 79.4 87.487 79.661C87.219 79.926 87.219 80.359 87.487 80.624L89.186 82.305C89.576 82.69 90.202 82.69 90.592 82.306L94.512 78.434C94.781 78.169 94.781 77.736 94.513 77.471C94.249 77.21 93.825 77.21 93.561 77.47L90.592 80.401Z" fill="white"/>
<path d="M91 158H61C52.1634 158 45 165.163 45 174V204C45 212.837 52.1634 220 61 220H91C99.8366 220 107 212.837 107 204V174C107 165.163 99.8366 158 91 158Z" fill="#9CD365"/>
<path d="M59 195.259C59 195.259 64.174 189.704 67.13 189.704C70.087 189.704 70.826 194.519 75.261 194.148C79.696 193.778 80.065 186 84.5 186C88.935 186 93 196 93 196" stroke="white" stroke-width="2"/>
<path d="M59 201V176C59 175.448 59.448 175 60 175H92C92.552 175 93 175.448 93 176V201C93 201.552 92.552 202 92 202H60C59.448 202 59 201.552 59 201Z" stroke="white" stroke-width="2"/>
<path d="M73 185C74.1046 185 75 184.105 75 183C75 181.895 74.1046 181 73 181C71.8954 181 71 181.895 71 183C71 184.105 71.8954 185 73 185Z" stroke="white" stroke-width="2"/>
<path d="M99 158C99 153.582 95.4183 150 91 150C86.5817 150 83 153.582 83 158C83 162.418 86.5817 166 91 166C95.4183 166 99 162.418 99 158Z" fill="#83C150"/>
<path fill-rule="evenodd" clip-rule="evenodd" d="M90.592 158.401C90.202 158.786 89.576 158.785 89.186 158.4L88.439 157.661C88.175 157.4 87.751 157.4 87.487 157.661C87.219 157.926 87.219 158.359 87.487 158.624L89.186 160.305C89.576 160.69 90.202 160.69 90.592 160.306L94.512 156.434C94.781 156.169 94.781 155.736 94.513 155.471C94.249 155.21 93.825 155.21 93.561 155.47L90.592 158.401Z" fill="white"/>
<path d="M169 158H139C130.163 158 123 165.163 123 174V204C123 212.837 130.163 220 139 220H169C177.837 220 185 212.837 185 204V174C185 165.163 177.837 158 169 158Z" fill="#9CD365"/>
<path d="M137 195.259C137 195.259 142.174 189.704 145.13 189.704C148.087 189.704 148.826 194.519 153.261 194.148C157.696 193.778 158.065 186 162.5 186C166.935 186 171 196 171 196" stroke="white" stroke-width="2"/>
<path d="M137 201V176C137 175.448 137.448 175 138 175H170C170.552 175 171 175.448 171 176V201C171 201.552 170.552 202 170 202H138C137.448 202 137 201.552 137 201Z" stroke="white" stroke-width="2"/>
<path d="M151 185C152.105 185 153 184.105 153 183C153 181.895 152.105 181 151 181C149.895 181 149 181.895 149 183C149 184.105 149.895 185 151 185Z" stroke="white" stroke-width="2"/>
<path d="M177 158C177 153.582 173.418 150 169 150C164.582 150 161 153.582 161 158C161 162.418 164.582 166 169 166C173.418 166 177 162.418 177 158Z" fill="#83C150"/>
<path fill-rule="evenodd" clip-rule="evenodd" d="M168.592 158.401C168.202 158.786 167.576 158.785 167.186 158.4L166.439 157.661C166.175 157.4 165.751 157.4 165.487 157.661C165.219 157.926 165.219 158.359 165.487 158.624L167.186 160.305C167.576 160.69 168.202 160.69 168.592 160.306L172.512 156.434C172.781 156.169 172.781 155.736 172.513 155.471C172.249 155.21 171.825 155.21 171.561 155.47L168.592 158.401Z" fill="white"/>
<path d="M169 80H139C130.163 80 123 87.1634 123 96V126C123 134.837 130.163 142 139 142H169C177.837 142 185 134.837 185 126V96C185 87.1634 177.837 80 169 80Z" fill="#9CD365"/>
<path d="M137 117.259C137 117.259 142.174 111.704 145.13 111.704C148.087 111.704 148.826 116.519 153.261 116.148C157.696 115.778 158.065 108 162.5 108C166.935 108 171 118 171 118" stroke="white" stroke-width="2"/>
<path d="M137 123V98C137 97.448 137.448 97 138 97H170C170.552 97 171 97.448 171 98V123C171 123.552 170.552 124 170 124H138C137.448 124 137 123.552 137 123Z" stroke="white" stroke-width="2"/>
<path d="M151 107C152.105 107 153 106.105 153 105C153 103.895 152.105 103 151 103C149.895 103 149 103.895 149 105C149 106.105 149.895 107 151 107Z" stroke="white" stroke-width="2"/>
<path d="M177 80C177 75.5817 173.418 72 169 72C164.582 72 161 75.5817 161 80C161 84.4183 164.582 88 169 88C173.418 88 177 84.4183 177 80Z" fill="#83C150"/>
<path fill-rule="evenodd" clip-rule="evenodd" d="M168.592 80.401C168.202 80.786 167.576 80.785 167.186 80.4L166.439 79.661C166.175 79.4 165.751 79.4 165.487 79.661C165.219 79.926 165.219 80.359 165.487 80.624L167.186 82.305C167.576 82.69 168.202 82.69 168.592 82.306L172.512 78.434C172.781 78.169 172.781 77.736 172.513 77.471C172.249 77.21 171.825 77.21 171.561 77.47L168.592 80.401Z" fill="white"/>
<path d="M247 80H217C208.163 80 201 87.1634 201 96V126C201 134.837 208.163 142 217 142H247C255.837 142 263 134.837 263 126V96C263 87.1634 255.837 80 247 80Z" fill="#9CD365"/>
<path d="M215 117.259C215 117.259 220.174 111.704 223.13 111.704C226.087 111.704 226.826 116.519 231.261 116.148C235.696 115.778 236.065 108 240.5 108C244.935 108 249 118 249 118" stroke="white" stroke-width="2"/>
<path d="M215 123V98C215 97.448 215.448 97 216 97H248C248.552 97 249 97.448 249 98V123C249 123.552 248.552 124 248 124H216C215.448 124 215 123.552 215 123Z" stroke="white" stroke-width="2"/>
<path d="M229 107C230.105 107 231 106.105 231 105C231 103.895 230.105 103 229 103C227.895 103 227 103.895 227 105C227 106.105 227.895 107 229 107Z" stroke="white" stroke-width="2"/>
<path d="M255 80C255 75.5817 251.418 72 247 72C242.582 72 239 75.5817 239 80C239 84.4183 242.582 88 247 88C251.418 88 255 84.4183 255 80Z" fill="#83C150"/>
<path fill-rule="evenodd" clip-rule="evenodd" d="M246.592 80.401C246.202 80.786 245.576 80.785 245.186 80.4L244.439 79.661C244.175 79.4 243.751 79.4 243.487 79.661C243.219 79.926 243.219 80.359 243.487 80.624L245.186 82.305C245.576 82.69 246.202 82.69 246.592 82.306L250.512 78.434C250.781 78.169 250.781 77.736 250.513 77.471C250.249 77.21 249.825 77.21 249.561 77.47L246.592 80.401Z" fill="white"/>
<path d="M325 80H295C286.163 80 279 87.1634 279 96V126C279 134.837 286.163 142 295 142H325C333.837 142 341 134.837 341 126V96C341 87.1634 333.837 80 325 80Z" fill="#9CD365"/>
<path d="M293 117.259C293 117.259 298.174 111.704 301.13 111.704C304.087 111.704 304.826 116.519 309.261 116.148C313.696 115.778 314.065 108 318.5 108C322.935 108 327 118 327 118" stroke="white" stroke-width="2"/>
<path d="M293 123V98C293 97.448 293.448 97 294 97H326C326.552 97 327 97.448 327 98V123C327 123.552 326.552 124 326 124H294C293.448 124 293 123.552 293 123Z" stroke="white" stroke-width="2"/>
<path d="M307 107C308.105 107 309 106.105 309 105C309 103.895 308.105 103 307 103C305.895 103 305 103.895 305 105C305 106.105 305.895 107 307 107Z" stroke="white" stroke-width="2"/>
<path d="M333 80C333 75.5817 329.418 72 325 72C320.582 72 317 75.5817 317 80C317 84.4183 320.582 88 325 88C329.418 88 333 84.4183 333 80Z" fill="#83C150"/>
<path fill-rule="evenodd" clip-rule="evenodd" d="M324.592 80.401C324.202 80.786 323.576 80.785 323.186 80.4L322.439 79.661C322.175 79.4 321.751 79.4 321.487 79.661C321.219 79.926 321.219 80.359 321.487 80.624L323.186 82.305C323.576 82.69 324.202 82.69 324.592 82.306L328.512 78.434C328.781 78.169 328.781 77.736 328.513 77.471C328.249 77.21 327.825 77.21 327.561 77.47L324.592 80.401Z" fill="white"/>
<path d="M247 158H217C208.163 158 201 165.163 201 174V204C201 212.837 208.163 220 217 220H247C255.837 220 263 212.837 263 204V174C263 165.163 255.837 158 247 158Z" fill="#E1E1E1"/>
<mask id="mask0_5_38" style="mask-type:alpha" maskUnits="userSpaceOnUse" x="201" y="158" width="62" height="62">
<path d="M247 158H217C208.163 158 201 165.163 201 174V204C201 212.837 208.163 220 217 220H247C255.837 220 263 212.837 263 204V174C263 165.163 255.837 158 247 158Z" fill="#E1E1E1"/>
</mask>
<g mask="url(#mask0_5_38)">
<path d="M264 178H201V220H264V178Z" fill="#9CD365"/>
<path d="M215 195.259C215 195.259 220.174 189.704 223.13 189.704C226.087 189.704 226.826 194.519 231.261 194.148C235.696 193.778 236.065 186 240.5 186C244.935 186 249 196 249 196" stroke="white" stroke-width="2"/>
<path d="M215 201V176C215 175.448 215.448 175 216 175H248C248.552 175 249 175.448 249 176V201C249 201.552 248.552 202 248 202H216C215.448 202 215 201.552 215 201Z" stroke="white" stroke-width="2"/>
<path d="M229 185C230.105 185 231 184.105 231 183C231 181.895 230.105 181 229 181C227.895 181 227 181.895 227 183C227 184.105 227.895 185 229 185Z" stroke="white" stroke-width="2"/>
<path d="M215 195.259C215 195.259 220.174 189.704 223.13 189.704C226.087 189.704 226.826 194.519 231.261 194.148C235.696 193.778 236.065 186 240.5 186C244.935 186 249 196 249 196" stroke="white" stroke-width="2"/>
<path d="M215 201V176C215 175.448 215.448 175 216 175H248C248.552 175 249 175.448 249 176V201C249 201.552 248.552 202 248 202H216C215.448 202 215 201.552 215 201Z" stroke="white" stroke-width="2"/>
<path d="M229 185C230.105 185 231 184.105 231 183C231 181.895 230.105 181 229 181C227.895 181 227 181.895 227 183C227 184.105 227.895 185 229 185Z" stroke="white" stroke-width="2"/>
<path d="M247 166C251.418 166 255 162.418 255 158C255 153.582 251.418 150 247 150C242.582 150 239 153.582 239 158C239 162.418 242.582 166 247 166Z" fill="white"/>
<path d="M241 158C241 159.591 241.632 161.117 242.757 162.243C243.883 163.368 245.409 164 247 164C248.591 164 250.117 163.368 251.243 162.243C252.368 161.117 253 159.591 253 158C253 156.409 252.368 154.883 251.243 153.757C250.117 152.632 248.591 152 247 152C245.409 152 243.883 152.632 242.757 153.757C241.632 154.883 241 156.409 241 158ZM239 158C239 155.878 239.843 153.843 241.343 152.343C242.843 150.843 244.878 150 247 150C249.122 150 251.157 150.843 252.657 152.343C254.157 153.843 255 155.878 255 158C255 160.122 254.157 162.157 252.657 163.657C251.157 165.157 249.122 166 247 166C244.878 166 242.843 165.157 241.343 163.657C239.843 162.157 239 160.122 239 158Z" fill="#83C150"/>
<path d="M254 159C254.552 159 255 158.552 255 158C255 157.448 254.552 157 254 157C253.448 157 253 157.448 253 158C253 158.552 253.448 159 254 159Z" fill="#83BF50"/>
</g>
<g filter="url(#filter0_dddd_5_38)">
<path d="M317 0H69C64.5817 0 61 3.58172 61 8V48C61 52.4183 64.5817 56 69 56H317C321.418 56 325 52.4183 325 48V8C325 3.58172 321.418 0 317 0Z" fill="white"/>
<path d="M105 8H81C78.7909 8 77 9.79086 77 12V44C77 46.2091 78.7909 48 81 48H105C107.209 48 109 46.2091 109 44V12C109 9.79086 107.209 8 105 8Z" fill="#E1E1E1"/>
<path d="M77 23H109V44C109 46.209 107.209 48 105 48H81C78.791 48 77 46.209 77 44V23Z" fill="#83C150"/>
<path d="M306 42H119C117.343 42 116 43.3431 116 45C116 46.6569 117.343 48 119 48H306C307.657 48 309 46.6569 309 45C309 43.3431 307.657 42 306 42Z" fill="#F4F5F6"/>
<path d="M198.069 42H118.931C117.312 42 116 43.3123 116 44.931V44.931C116 46.5498 117.312 47.8621 118.931 47.8621H198.069C199.688 47.8621 201 46.5498 201 44.931C201 43.3123 199.688 42 198.069 42Z" fill="#83C150"/>
<path d="M120.565 19.132C122.006 19.132 122.886 18.604 123.689 17.768L122.82 16.888C122.16 17.504 121.555 17.889 120.609 17.889C119.135 17.889 118.068 16.657 118.068 15.15C118.068 13.621 119.135 12.411 120.609 12.411C121.489 12.411 122.149 12.796 122.765 13.368L123.634 12.367C122.897 11.663 122.039 11.168 120.62 11.168C118.288 11.168 116.649 12.961 116.649 15.15C116.649 17.383 118.321 19.132 120.565 19.132ZM124.957 19H126.288V14.336H128.807V19H130.138V13.192H124.957V19ZM131.811 19H133.065L135.826 15.128V19H137.113V13.192H135.859C134.935 14.49 134.022 15.788 133.109 17.086V13.192H131.811V19ZM141.466 19.132C142.599 19.132 143.27 18.681 143.842 18.043L143.039 17.251C142.621 17.68 142.159 17.977 141.532 17.977C140.509 17.977 139.794 17.141 139.794 16.107V16.085C139.794 15.073 140.498 14.237 141.466 14.237C142.137 14.237 142.566 14.534 142.973 14.963L143.798 14.072C143.259 13.478 142.577 13.071 141.477 13.071C139.739 13.071 138.463 14.457 138.463 16.107V16.129C138.463 17.779 139.739 19.132 141.466 19.132ZM147.774 19.132C149.567 19.132 150.887 17.757 150.887 16.107C150.887 14.424 149.578 13.071 147.796 13.071C146.014 13.071 144.694 14.446 144.694 16.107C144.694 17.779 146.003 19.132 147.774 19.132ZM147.796 17.977C146.762 17.977 146.025 17.119 146.025 16.107C146.025 15.073 146.707 14.237 147.774 14.237C148.819 14.237 149.556 15.084 149.556 16.107C149.556 17.13 148.874 17.977 147.796 17.977ZM152.242 19H153.562V17.603L154.508 16.602L156.268 19H157.841L155.399 15.634L157.654 13.192H156.092L153.562 15.975V13.192H152.242V19ZM163.304 19H164.646V14.336H166.516V13.192H161.434V14.336H163.304V19ZM170.332 19.132C172.125 19.132 173.445 17.757 173.445 16.107C173.445 14.424 172.136 13.071 170.354 13.071C168.572 13.071 167.252 14.446 167.252 16.107C167.252 17.779 168.561 19.132 170.332 19.132ZM170.354 17.977C169.32 17.977 168.583 17.119 168.583 16.107C168.583 15.073 169.265 14.237 170.332 14.237C171.377 14.237 172.114 15.084 172.114 16.107C172.114 17.13 171.432 17.977 170.354 17.977ZM174.801 19H177.815C179.135 19 179.96 18.406 179.96 17.427C179.96 16.602 179.465 16.173 178.761 15.975C179.256 15.755 179.696 15.381 179.696 14.644C179.696 13.753 178.937 13.192 177.782 13.192H174.801V19ZM176.11 17.944V16.492H177.551C178.266 16.492 178.607 16.778 178.607 17.196C178.607 17.647 178.266 17.944 177.617 17.944H176.11ZM176.11 15.59V14.215H177.496C178.09 14.215 178.343 14.501 178.343 14.875C178.343 15.293 178.035 15.59 177.474 15.59H176.11ZM186.162 19V15.557C186.162 14.006 185.326 13.104 183.61 13.104C182.664 13.104 182.037 13.302 181.399 13.588L181.762 14.655C182.29 14.435 182.774 14.292 183.423 14.292C184.347 14.292 184.853 14.732 184.853 15.535V15.645C184.402 15.502 183.951 15.403 183.247 15.403C181.894 15.403 180.893 16.019 180.893 17.306C180.893 18.494 181.861 19.121 182.961 19.121C183.841 19.121 184.446 18.758 184.842 18.285V19H186.162ZM184.875 16.899C184.875 17.625 184.215 18.12 183.335 18.12C182.708 18.12 182.213 17.812 182.213 17.262C182.213 16.679 182.708 16.338 183.544 16.338C184.061 16.338 184.534 16.437 184.875 16.569V16.899ZM187.745 20.76H189.076V18.098C189.483 18.637 190.088 19.121 191.045 19.121C192.431 19.121 193.751 18.032 193.751 16.107C193.751 14.16 192.42 13.071 191.045 13.071C190.11 13.071 189.505 13.555 189.076 14.16V13.192H187.745V20.76ZM190.737 17.966C189.835 17.966 189.043 17.229 189.043 16.107C189.043 14.974 189.835 14.226 190.737 14.226C191.639 14.226 192.398 14.963 192.398 16.085C192.398 17.251 191.65 17.966 190.737 17.966ZM197.875 19.132C199.668 19.132 200.988 17.757 200.988 16.107C200.988 14.424 199.679 13.071 197.897 13.071C196.115 13.071 194.795 14.446 194.795 16.107C194.795 17.779 196.104 19.132 197.875 19.132ZM197.897 17.977C196.863 17.977 196.126 17.119 196.126 16.107C196.126 15.073 196.808 14.237 197.875 14.237C198.92 14.237 199.657 15.084 199.657 16.107C199.657 17.13 198.975 17.977 197.897 17.977ZM202.344 19H205.358C206.678 19 207.503 18.406 207.503 17.427C207.503 16.602 207.008 16.173 206.304 15.975C206.799 15.755 207.239 15.381 207.239 14.644C207.239 13.753 206.48 13.192 205.325 13.192H202.344V19ZM203.653 17.944V16.492H205.094C205.809 16.492 206.15 16.778 206.15 17.196C206.15 17.647 205.809 17.944 205.16 17.944H203.653ZM203.653 15.59V14.215H205.039C205.633 14.215 205.886 14.501 205.886 14.875C205.886 15.293 205.578 15.59 205.017 15.59H203.653ZM214.11 19.132C215.518 19.132 216.442 18.34 216.442 17.361C216.442 16.613 216.013 16.173 215.386 15.953C215.892 15.733 216.299 15.337 216.299 14.633C216.299 13.731 215.408 13.071 214.132 13.071C213.186 13.071 212.361 13.39 211.767 13.907L212.361 14.743C212.801 14.358 213.406 14.149 214.011 14.149C214.561 14.149 214.968 14.413 214.968 14.809C214.968 15.249 214.572 15.568 213.945 15.568H213.23V16.525H213.945C214.704 16.525 215.122 16.822 215.122 17.251C215.122 17.735 214.627 18.054 214.022 18.054C213.362 18.054 212.713 17.801 212.196 17.361L211.569 18.241C212.251 18.824 213.076 19.132 214.11 19.132ZM222.696 19V15.557C222.696 14.006 221.86 13.104 220.144 13.104C219.198 13.104 218.571 13.302 217.933 13.588L218.296 14.655C218.824 14.435 219.308 14.292 219.957 14.292C220.881 14.292 221.387 14.732 221.387 15.535V15.645C220.936 15.502 220.485 15.403 219.781 15.403C218.428 15.403 217.427 16.019 217.427 17.306C217.427 18.494 218.395 19.121 219.495 19.121C220.375 19.121 220.98 18.758 221.376 18.285V19H222.696ZM221.409 16.899C221.409 17.625 220.749 18.12 219.869 18.12C219.242 18.12 218.747 17.812 218.747 17.262C218.747 16.679 219.242 16.338 220.078 16.338C220.595 16.338 221.068 16.437 221.409 16.569V16.899ZM230.712 19.132C232.736 19.132 234.078 17.35 234.078 15.15C234.078 12.928 232.747 11.168 230.734 11.168C228.71 11.168 227.368 12.95 227.368 15.15C227.368 17.372 228.688 19.132 230.712 19.132ZM230.734 17.911C229.535 17.911 228.765 16.668 228.765 15.15C228.765 13.599 229.524 12.389 230.712 12.389C231.9 12.389 232.681 13.632 232.681 15.15C232.681 16.69 231.933 17.911 230.734 17.911ZM235.24 19H240.806V17.812H237.143L238.727 16.492C240.08 15.37 240.729 14.721 240.729 13.511C240.729 12.114 239.695 11.19 238.188 11.19C236.813 11.19 236.087 11.773 235.35 12.807L236.307 13.555C236.901 12.785 237.385 12.4 238.089 12.4C238.793 12.4 239.332 12.84 239.332 13.599C239.332 14.292 238.947 14.787 237.891 15.678L235.24 17.933V19ZM242.195 19H243.658V17.493H242.195V19ZM248.372 19.132C250.396 19.132 251.738 17.35 251.738 15.15C251.738 12.928 250.407 11.168 248.394 11.168C246.37 11.168 245.028 12.95 245.028 15.15C245.028 17.372 246.348 19.132 248.372 19.132ZM248.394 17.911C247.195 17.911 246.425 16.668 246.425 15.15C246.425 13.599 247.184 12.389 248.372 12.389C249.56 12.389 250.341 13.632 250.341 15.15C250.341 16.69 249.593 17.911 248.394 17.911ZM256.893 19H258.191V17.273H259.291V16.162H258.191V11.245H257.036L252.757 16.305L253.01 17.273H256.893V19ZM254.363 16.162L256.893 13.115V16.162H254.363ZM260.597 19H262.06V17.493H260.597V19ZM263.342 19H268.908V17.812H265.245L266.829 16.492C268.182 15.37 268.831 14.721 268.831 13.511C268.831 12.114 267.797 11.19 266.29 11.19C264.915 11.19 264.189 11.773 263.452 12.807L264.409 13.555C265.003 12.785 265.487 12.4 266.191 12.4C266.895 12.4 267.434 12.84 267.434 13.599C267.434 14.292 267.049 14.787 265.993 15.678L263.342 17.933V19ZM273.52 19.132C275.544 19.132 276.886 17.35 276.886 15.15C276.886 12.928 275.555 11.168 273.542 11.168C271.518 11.168 270.176 12.95 270.176 15.15C270.176 17.372 271.496 19.132 273.52 19.132ZM273.542 17.911C272.343 17.911 271.573 16.668 271.573 15.15C271.573 13.599 272.332 12.389 273.52 12.389C274.708 12.389 275.489 13.632 275.489 15.15C275.489 16.69 274.741 17.911 273.542 17.911ZM278.048 19H283.614V17.812H279.951L281.535 16.492C282.888 15.37 283.537 14.721 283.537 13.511C283.537 12.114 282.503 11.19 280.996 11.19C279.621 11.19 278.895 11.773 278.158 12.807L279.115 13.555C279.709 12.785 280.193 12.4 280.897 12.4C281.601 12.4 282.14 12.84 282.14 13.599C282.14 14.292 281.755 14.787 280.699 15.678L278.048 17.933V19ZM284.794 19H290.36V17.812H286.697L288.281 16.492C289.634 15.37 290.283 14.721 290.283 13.511C290.283 12.114 289.249 11.19 287.742 11.19C286.367 11.19 285.641 11.773 284.904 12.807L285.861 13.555C286.455 12.785 286.939 12.4 287.643 12.4C288.347 12.4 288.886 12.84 288.886 13.599C288.886 14.292 288.501 14.787 287.445 15.678L284.794 17.933V19ZM291.749 19H293.212V17.493H291.749V19ZM294.285 19H295.704L297.123 16.965L298.553 19H300.005L297.86 16.019L299.917 13.192H298.498L297.156 15.106L295.814 13.192H294.362L296.419 16.052L294.285 19ZM301.249 19H302.58V10.97H301.249V19ZM306.31 19.11C307.52 19.11 308.466 18.505 308.466 17.284C308.466 16.217 307.509 15.832 306.662 15.568C306.629 15.557 306.585 15.546 306.552 15.535C305.914 15.326 305.353 15.15 305.353 14.754C305.353 14.391 305.65 14.149 306.167 14.149C306.651 14.149 307.245 14.358 307.806 14.699L308.334 13.753C307.718 13.346 306.926 13.093 306.2 13.093C305.045 13.093 304.132 13.764 304.132 14.864C304.132 15.997 305.089 16.349 305.947 16.602C305.98 16.613 306.013 16.624 306.046 16.635C306.684 16.822 307.245 16.976 307.245 17.405C307.245 17.812 306.915 18.054 306.343 18.054C305.749 18.054 305.067 17.812 304.44 17.339L303.846 18.241C304.572 18.813 305.485 19.11 306.31 19.11Z" fill="#393939"/>
<path d="M195.456 36V34.672H192.504L192.344 34.216L195.512 30.36H196.064V34.144H196.936V34.672H196.064V36H195.456ZM193.104 34.144H195.456V31.256L193.104 34.144ZM200.823 36V34.672H197.871L197.711 34.216L200.879 30.36H201.431V34.144H202.303V34.672H201.431V36H200.823ZM198.471 34.144H200.823V31.256L198.471 34.144ZM205.326 32.776C205.086 33.059 204.782 33.2 204.414 33.2C204.046 33.2 203.742 33.061 203.502 32.784C203.268 32.501 203.15 32.163 203.15 31.768C203.15 31.379 203.27 31.043 203.51 30.76C203.75 30.477 204.057 30.336 204.43 30.336C204.798 30.336 205.1 30.477 205.334 30.76C205.569 31.037 205.686 31.373 205.686 31.768C205.686 32.157 205.566 32.493 205.326 32.776ZM203.726 36L207.838 30.4H208.406L204.302 36H203.726ZM207.71 36.064C207.342 36.064 207.041 35.925 206.806 35.648C206.572 35.365 206.454 35.027 206.454 34.632C206.454 34.243 206.574 33.907 206.814 33.624C207.054 33.341 207.358 33.2 207.726 33.2C208.094 33.2 208.396 33.341 208.63 33.624C208.865 33.901 208.982 34.237 208.982 34.632C208.982 35.027 208.862 35.365 208.622 35.648C208.388 35.925 208.084 36.064 207.71 36.064ZM204.43 32.752C204.644 32.752 204.817 32.659 204.95 32.472C205.089 32.28 205.158 32.045 205.158 31.768C205.158 31.491 205.086 31.259 204.942 31.072C204.798 30.88 204.622 30.784 204.414 30.784C204.201 30.784 204.025 30.88 203.886 31.072C203.753 31.259 203.686 31.491 203.686 31.768C203.686 32.045 203.758 32.28 203.902 32.472C204.046 32.659 204.222 32.752 204.43 32.752ZM207.726 35.616C207.945 35.616 208.121 35.523 208.254 35.336C208.388 35.149 208.454 34.915 208.454 34.632C208.454 34.355 208.382 34.123 208.238 33.936C208.094 33.744 207.918 33.648 207.71 33.648C207.497 33.648 207.321 33.744 207.182 33.936C207.049 34.123 206.982 34.355 206.982 34.632C206.982 34.909 207.054 35.144 207.198 35.336C207.342 35.523 207.518 35.616 207.726 35.616Z" fill="#A1A1A1"/>
<path d="M93 20V36M93 36L101 28.727M93 36L85 28.727" stroke="white" stroke-width="2" stroke-linecap="round"/>
</g>
</g>
<defs>
<filter id="filter0_dddd_5_38" x="-87" y="-131" width="560" height="352" filterUnits="userSpaceOnUse" color-interpolation-filters="sRGB">
<feFlood flood-opacity="0" result="BackgroundImageFix"/>
<feColorMatrix in="SourceAlpha" type="matrix" values="0 0 0 0 0 0 0 0 0 0 0 0 0 0 0 0 0 0 127 0" result="hardAlpha"/>
<feOffset dy="0.74375"/>
<feGaussianBlur stdDeviation="4.27812"/>
<feColorMatrix type="matrix" values="0 0 0 0 0 0 0 0 0 0 0 0 0 0 0 0 0 0 0.0195 0"/>
<feBlend mode="normal" in2="BackgroundImageFix" result="effect1_dropShadow_5_38"/>
<feColorMatrix in="SourceAlpha" type="matrix" values="0 0 0 0 0 0 0 0 0 0 0 0 0 0 0 0 0 0 127 0" result="hardAlpha"/>
<feOffset dy="3.4"/>
<feGaussianBlur stdDeviation="12.025"/>
<feColorMatrix type="matrix" values="0 0 0 0 0 0 0 0 0 0 0 0 0 0 0 0 0 0 0.03 0"/>
<feBlend mode="normal" in2="effect1_dropShadow_5_38" result="effect2_dropShadow_5_38"/>
<feColorMatrix in="SourceAlpha" type="matrix" values="0 0 0 0 0 0 0 0 0 0 0 0 0 0 0 0 0 0 127 0" result="hardAlpha"/>
<feOffset dy="8.60625"/>
<feGaussianBlur stdDeviation="32.2594"/>
<feColorMatrix type="matrix" values="0 0 0 0 0 0 0 0 0 0 0 0 0 0 0 0 0 0 0.0405 0"/>
<feBlend mode="normal" in2="effect2_dropShadow_5_38" result="effect3_dropShadow_5_38"/>
<feColorMatrix in="SourceAlpha" type="matrix" values="0 0 0 0 0 0 0 0 0 0 0 0 0 0 0 0 0 0 127 0" result="hardAlpha"/>
<feOffset dy="17"/>
<feGaussianBlur stdDeviation="74"/>
<feColorMatrix type="matrix" values="0 0 0 0 0 0 0 0 0 0 0 0 0 0 0 0 0 0 0.06 0"/>
<feBlend mode="normal" in2="effect3_dropShadow_5_38" result="effect4_dropShadow_5_38"/>
<feBlend mode="normal" in="SourceGraphic" in2="effect4_dropShadow_5_38" result="shape"/>
</filter>
<clipPath id="clip0_5_38">
<rect width="386" height="288" fill="white"/>
</clipPath>
</defs>
</svg>
