<svg width="386" height="288" viewBox="0 0 386 288" fill="none" xmlns="http://www.w3.org/2000/svg">
<g clip-path="url(#clip0_5_153)">
<path d="M0 48C0 30.327 14.3269 16 32 16H354C371.673 16 386 30.327 386 48V288H0V48Z" fill="white"/>
<path d="M276 133C276 147.359 264.359 159 250 159C235.641 159 224 147.359 224 133C224 118.641 235.641 107 250 107C264.359 107 276 118.641 276 133ZM228.793 133C228.793 144.712 238.288 154.207 250 154.207C261.712 154.207 271.207 144.712 271.207 133C271.207 121.288 261.712 111.793 250 111.793C238.288 111.793 228.793 121.288 228.793 133Z" fill="#569F29"/>
<path d="M250 107C245.098 107 240.297 108.386 236.148 110.997C232 113.608 228.675 117.339 226.556 121.759C224.436 126.179 223.61 131.108 224.171 135.977C224.732 140.847 226.659 145.458 229.728 149.28C232.797 153.102 236.884 155.978 241.518 157.577C246.151 159.177 251.142 159.433 255.915 158.318C260.688 157.203 265.049 154.761 268.494 151.275C271.939 147.788 274.329 143.398 275.387 138.612L270.707 137.578C269.844 141.481 267.895 145.062 265.085 147.905C262.275 150.749 258.718 152.741 254.825 153.65C250.932 154.56 246.861 154.351 243.081 153.046C239.302 151.742 235.969 149.396 233.465 146.279C230.962 143.161 229.391 139.4 228.933 135.428C228.475 131.457 229.149 127.436 230.878 123.831C232.606 120.226 235.319 117.183 238.702 115.054C242.085 112.924 246.002 111.793 250 111.793V107Z" fill="#9CD365"/>
<path d="M241.707 136.132C243.324 136.132 244.567 135.043 244.567 133.514C244.567 131.952 243.368 131.072 241.872 131.072C240.97 131.072 240.442 131.446 240.035 131.842C240.101 130.434 240.739 129.4 241.883 129.4C242.554 129.4 243.016 129.653 243.555 130.071L244.281 129.026C243.61 128.487 242.928 128.168 241.927 128.168C239.749 128.168 238.627 130.005 238.627 132.359C238.627 133.932 238.979 134.735 239.573 135.329C240.079 135.835 240.761 136.132 241.707 136.132ZM241.674 134.966C240.706 134.966 240.079 134.361 240.079 133.58C240.079 132.821 240.684 132.205 241.641 132.205C242.598 132.205 243.214 132.777 243.214 133.547C243.214 134.361 242.631 134.966 241.674 134.966ZM248.563 136.132C250.268 136.132 251.412 135.098 251.412 133.525C251.412 131.875 250.235 131.083 248.739 131.083C248.222 131.083 247.881 131.171 247.518 131.303L247.639 129.499H251.071V128.3H246.473L246.253 132.073L247.067 132.612C247.463 132.425 247.936 132.271 248.486 132.271C249.421 132.271 250.081 132.766 250.081 133.547C250.081 134.372 249.476 134.9 248.552 134.9C247.837 134.9 247.188 134.548 246.572 133.976L245.736 134.955C246.462 135.659 247.386 136.132 248.563 136.132ZM254.394 132.15C255.483 132.15 256.22 131.248 256.22 130.181C256.22 129.103 255.494 128.212 254.416 128.212C253.327 128.212 252.59 129.114 252.59 130.181C252.59 131.259 253.316 132.15 254.394 132.15ZM253.371 136H254.46L260.092 128.3H259.003L253.371 136ZM259.047 136.088C260.136 136.088 260.873 135.186 260.873 134.119C260.873 133.041 260.147 132.15 259.069 132.15C257.98 132.15 257.243 133.052 257.243 134.119C257.243 135.197 257.969 136.088 259.047 136.088ZM254.416 131.303C253.921 131.303 253.569 130.808 253.569 130.181C253.569 129.565 253.877 129.059 254.394 129.059C254.889 129.059 255.241 129.565 255.241 130.181C255.241 130.797 254.933 131.303 254.416 131.303ZM259.069 135.241C258.574 135.241 258.222 134.746 258.222 134.119C258.222 133.503 258.53 132.997 259.047 132.997C259.542 132.997 259.894 133.503 259.894 134.119C259.894 134.735 259.586 135.241 259.069 135.241Z" fill="#F4F5F6"/>
<path d="M290 133C290 138.142 291.525 143.169 294.382 147.445C297.239 151.721 301.299 155.053 306.05 157.021C310.801 158.989 316.029 159.504 321.072 158.5C326.116 157.497 330.749 155.021 334.385 151.385C338.021 147.749 340.497 143.116 341.5 138.072C342.504 133.029 341.989 127.801 340.021 123.05C338.053 118.299 334.721 114.239 330.445 111.382C326.169 108.525 321.142 107 316 107V111.793C320.194 111.793 324.294 113.037 327.782 115.367C331.269 117.698 333.987 121.01 335.592 124.885C337.197 128.76 337.617 133.024 336.799 137.137C335.981 141.251 333.961 145.03 330.995 147.995C328.03 150.961 324.251 152.981 320.137 153.799C316.024 154.617 311.76 154.197 307.885 152.592C304.01 150.987 300.698 148.269 298.367 144.782C296.037 141.294 294.793 137.194 294.793 133H290Z" fill="#569F29"/>
<path d="M316 107C312.586 107 309.205 107.673 306.05 108.979C302.896 110.286 300.03 112.201 297.615 114.615C295.201 117.03 293.286 119.896 291.979 123.05C290.673 126.205 290 129.586 290 133H294.793C294.793 130.215 295.342 127.457 296.408 124.885C297.473 122.312 299.035 119.974 301.005 118.005C302.974 116.035 305.312 114.473 307.885 113.408C310.457 112.342 313.215 111.793 316 111.793V107Z" fill="#9CD365"/>
<path d="M304.539 136H310.105V134.812H306.442L308.026 133.492C309.379 132.37 310.028 131.721 310.028 130.511C310.028 129.114 308.994 128.19 307.487 128.19C306.112 128.19 305.386 128.773 304.649 129.807L305.606 130.555C306.2 129.785 306.684 129.4 307.388 129.4C308.092 129.4 308.631 129.84 308.631 130.599C308.631 131.292 308.246 131.787 307.19 132.678L304.539 134.933V136ZM314.09 136.132C315.795 136.132 316.939 135.098 316.939 133.525C316.939 131.875 315.762 131.083 314.266 131.083C313.749 131.083 313.408 131.171 313.045 131.303L313.166 129.499H316.598V128.3H312L311.78 132.073L312.594 132.612C312.99 132.425 313.463 132.271 314.013 132.271C314.948 132.271 315.608 132.766 315.608 133.547C315.608 134.372 315.003 134.9 314.079 134.9C313.364 134.9 312.715 134.548 312.099 133.976L311.263 134.955C311.989 135.659 312.913 136.132 314.09 136.132ZM319.921 132.15C321.01 132.15 321.747 131.248 321.747 130.181C321.747 129.103 321.021 128.212 319.943 128.212C318.854 128.212 318.117 129.114 318.117 130.181C318.117 131.259 318.843 132.15 319.921 132.15ZM318.898 136H319.987L325.619 128.3H324.53L318.898 136ZM324.574 136.088C325.663 136.088 326.4 135.186 326.4 134.119C326.4 133.041 325.674 132.15 324.596 132.15C323.507 132.15 322.77 133.052 322.77 134.119C322.77 135.197 323.496 136.088 324.574 136.088ZM319.943 131.303C319.448 131.303 319.096 130.808 319.096 130.181C319.096 129.565 319.404 129.059 319.921 129.059C320.416 129.059 320.768 129.565 320.768 130.181C320.768 130.797 320.46 131.303 319.943 131.303ZM324.596 135.241C324.101 135.241 323.749 134.746 323.749 134.119C323.749 133.503 324.057 132.997 324.574 132.997C325.069 132.997 325.421 133.503 325.421 134.119C325.421 134.735 325.113 135.241 324.596 135.241Z" fill="#F4F5F6"/>
<path d="M346 80H222C213.163 80 206 87.1634 206 96V156C206 164.837 213.163 172 222 172H346C354.837 172 362 164.837 362 156V96C362 87.1634 354.837 80 346 80Z" fill="#F4F5F6"/>
<path d="M176 80H40C31.1634 80 24 87.1634 24 96V156C24 164.837 31.1634 172 40 172H176C184.837 172 192 164.837 192 156V96C192 87.1634 184.837 80 176 80Z" fill="#F4F5F6"/>
<path d="M48 118C48 115.791 46.2091 114 44 114C41.7909 114 40 115.791 40 118V156C40 158.209 41.7909 160 44 160C46.2091 160 48 158.209 48 156V118Z" fill="#9CD365"/>
<path d="M64 112C64 109.791 62.2091 108 60 108C57.7909 108 56 109.791 56 112V156C56 158.209 57.7909 160 60 160C62.2091 160 64 158.209 64 156V112Z" fill="#9CD365"/>
<path d="M80 122C80 119.791 78.2091 118 76 118C73.7909 118 72 119.791 72 122V156C72 158.209 73.7909 160 76 160C78.2091 160 80 158.209 80 156V122Z" fill="#9CD365"/>
<path d="M96 96C96 93.7909 94.2091 92 92 92C89.7909 92 88 93.7909 88 96V156C88 158.209 89.7909 160 92 160C94.2091 160 96 158.209 96 156V96Z" fill="#9CD365"/>
<path d="M112 136C112 133.791 110.209 132 108 132C105.791 132 104 133.791 104 136V156C104 158.209 105.791 160 108 160C110.209 160 112 158.209 112 156V136Z" fill="#9CD365"/>
<path d="M128 102C128 99.7909 126.209 98 124 98C121.791 98 120 99.7909 120 102V156C120 158.209 121.791 160 124 160C126.209 160 128 158.209 128 156V102Z" fill="#9CD365"/>
<path d="M144 129C144 126.791 142.209 125 140 125C137.791 125 136 126.791 136 129V156C136 158.209 137.791 160 140 160C142.209 160 144 158.209 144 156V129Z" fill="#9CD365"/>
<path d="M160 112C160 109.791 158.209 108 156 108C153.791 108 152 109.791 152 112V156C152 158.209 153.791 160 156 160C158.209 160 160 158.209 160 156V112Z" fill="#9CD365"/>
<path d="M176 127C176 124.791 174.209 123 172 123C169.791 123 168 124.791 168 127V156C168 158.209 169.791 160 172 160C174.209 160 176 158.209 176 156V127Z" fill="#9CD365"/>
<path d="M346 186H40C31.1634 186 24 193.163 24 202V281C24 289.837 31.1634 297 40 297H346C354.837 297 362 289.837 362 281V202C362 193.163 354.837 186 346 186Z" fill="#F4F5F6"/>
<path d="M277 126C277 140.359 265.359 152 251 152C236.641 152 225 140.359 225 126C225 111.641 236.641 100 251 100C265.359 100 277 111.641 277 126ZM229.793 126C229.793 137.712 239.288 147.207 251 147.207C262.712 147.207 272.207 137.712 272.207 126C272.207 114.288 262.712 104.793 251 104.793C239.288 104.793 229.793 114.288 229.793 126Z" fill="#9CD365"/>
<path d="M251 100C245.858 100 240.831 101.525 236.555 104.382C232.279 107.239 228.947 111.299 226.979 116.05C225.011 120.801 224.496 126.029 225.5 131.072C226.503 136.116 228.979 140.749 232.615 144.385C236.251 148.021 240.884 150.497 245.928 151.5C250.971 152.504 256.199 151.989 260.95 150.021C265.701 148.053 269.761 144.721 272.618 140.445C275.475 136.169 277 131.142 277 126H272.207C272.207 130.194 270.963 134.294 268.633 137.782C266.302 141.269 262.99 143.987 259.115 145.592C255.24 147.197 250.976 147.617 246.863 146.799C242.749 145.981 238.97 143.961 236.005 140.995C233.039 138.03 231.019 134.251 230.201 130.137C229.383 126.024 229.803 121.76 231.408 117.885C233.013 114.01 235.731 110.698 239.218 108.367C242.706 106.037 246.806 104.793 251 104.793V100Z" fill="white"/>
<path d="M242.663 129.132C241.739 129.132 241.009 128.828 240.474 128.219C239.939 127.61 239.671 126.653 239.671 125.348C239.671 124.145 239.957 123.148 240.529 122.356C241.108 121.564 241.889 121.168 242.872 121.168C243.671 121.168 244.43 121.461 245.149 122.048L244.643 122.719C244.042 122.213 243.437 121.96 242.828 121.96C242.146 121.96 241.6 122.272 241.189 122.895C240.778 123.518 240.573 124.329 240.573 125.326V125.359C241.108 124.574 241.838 124.182 242.762 124.182C243.503 124.182 244.13 124.402 244.643 124.842C245.164 125.282 245.424 125.858 245.424 126.569C245.424 127.31 245.16 127.922 244.632 128.406C244.104 128.89 243.448 129.132 242.663 129.132ZM242.674 128.362C243.231 128.362 243.679 128.193 244.016 127.856C244.361 127.519 244.533 127.093 244.533 126.58C244.533 126.103 244.357 125.711 244.005 125.403C243.653 125.088 243.202 124.93 242.652 124.93C242.095 124.93 241.633 125.102 241.266 125.447C240.907 125.784 240.727 126.18 240.727 126.635C240.727 127.126 240.91 127.537 241.277 127.867C241.644 128.197 242.109 128.362 242.674 128.362ZM249.455 129.132C248.436 129.132 247.519 128.725 246.705 127.911L247.277 127.284C248.003 127.988 248.733 128.34 249.466 128.34C250.016 128.34 250.463 128.179 250.808 127.856C251.153 127.533 251.325 127.119 251.325 126.613C251.325 126.136 251.145 125.748 250.786 125.447C250.434 125.146 249.976 124.996 249.411 124.996C248.883 124.996 248.344 125.143 247.794 125.436L247.211 125.051L247.431 121.3H251.864V122.103H248.19L248.025 124.567C248.546 124.34 249.052 124.226 249.543 124.226C250.313 124.226 250.947 124.442 251.446 124.875C251.952 125.3 252.205 125.876 252.205 126.602C252.205 127.35 251.948 127.959 251.435 128.428C250.922 128.897 250.262 129.132 249.455 129.132ZM256.421 124.567C256.091 124.956 255.673 125.15 255.167 125.15C254.661 125.15 254.243 124.959 253.913 124.578C253.591 124.189 253.429 123.724 253.429 123.181C253.429 122.646 253.594 122.184 253.924 121.795C254.254 121.406 254.676 121.212 255.189 121.212C255.695 121.212 256.11 121.406 256.432 121.795C256.755 122.176 256.916 122.638 256.916 123.181C256.916 123.716 256.751 124.178 256.421 124.567ZM254.221 129L259.875 121.3H260.656L255.013 129H254.221ZM259.699 129.088C259.193 129.088 258.779 128.897 258.456 128.516C258.134 128.127 257.972 127.662 257.972 127.119C257.972 126.584 258.137 126.122 258.467 125.733C258.797 125.344 259.215 125.15 259.721 125.15C260.227 125.15 260.642 125.344 260.964 125.733C261.287 126.114 261.448 126.576 261.448 127.119C261.448 127.662 261.283 128.127 260.953 128.516C260.631 128.897 260.213 129.088 259.699 129.088ZM255.189 124.534C255.483 124.534 255.721 124.406 255.904 124.149C256.095 123.885 256.19 123.562 256.19 123.181C256.19 122.8 256.091 122.481 255.893 122.224C255.695 121.96 255.453 121.828 255.167 121.828C254.874 121.828 254.632 121.96 254.441 122.224C254.258 122.481 254.166 122.8 254.166 123.181C254.166 123.562 254.265 123.885 254.463 124.149C254.661 124.406 254.903 124.534 255.189 124.534ZM259.721 128.472C260.022 128.472 260.264 128.344 260.447 128.087C260.631 127.83 260.722 127.508 260.722 127.119C260.722 126.738 260.623 126.419 260.425 126.162C260.227 125.898 259.985 125.766 259.699 125.766C259.406 125.766 259.164 125.898 258.973 126.162C258.79 126.419 258.698 126.738 258.698 127.119C258.698 127.5 258.797 127.823 258.995 128.087C259.193 128.344 259.435 128.472 259.721 128.472Z" fill="#A1A1A1"/>
<path d="M274.5 129C275.881 129 277 127.881 277 126.5C277 125.119 275.881 124 274.5 124C273.119 124 272 125.119 272 126.5C272 127.881 273.119 129 274.5 129Z" fill="#FEFEFE"/>
<path d="M250.5 105C251.881 105 253 103.881 253 102.5C253 101.119 251.881 100 250.5 100C249.119 100 248 101.119 248 102.5C248 103.881 249.119 105 250.5 105Z" fill="#FEFEFE"/>
<path d="M291 126C291 131.142 292.525 136.169 295.382 140.445C298.239 144.721 302.299 148.053 307.05 150.021C311.801 151.989 317.029 152.504 322.072 151.5C327.116 150.497 331.749 148.021 335.385 144.385C339.021 140.749 341.497 136.116 342.5 131.072C343.504 126.029 342.989 120.801 341.021 116.05C339.053 111.299 335.721 107.239 331.445 104.382C327.169 101.525 322.142 100 317 100V104.793C321.194 104.793 325.294 106.037 328.782 108.367C332.269 110.698 334.987 114.01 336.592 117.885C338.197 121.76 338.617 126.024 337.799 130.137C336.981 134.251 334.961 138.03 331.995 140.995C329.03 143.961 325.251 145.981 321.137 146.799C317.024 147.617 312.76 147.197 308.885 145.592C305.01 143.987 301.698 141.269 299.367 137.782C297.037 134.294 295.793 130.194 295.793 126H291Z" fill="#9CD365"/>
<path d="M317 100C313.586 100 310.205 100.673 307.05 101.979C303.896 103.286 301.03 105.201 298.615 107.615C296.201 110.03 294.286 112.896 292.979 116.05C291.673 119.205 291 122.586 291 126H295.793C295.793 123.215 296.342 120.457 297.408 117.885C298.473 115.312 300.035 112.974 302.005 111.005C303.974 109.035 306.312 107.473 308.885 106.408C311.457 105.342 314.215 104.793 317 104.793V100Z" fill="white"/>
<path d="M305.528 129V128.329L308.322 125.865C308.923 125.337 309.341 124.897 309.576 124.545C309.811 124.193 309.928 123.826 309.928 123.445C309.928 123.005 309.778 122.649 309.477 122.378C309.176 122.107 308.81 121.971 308.377 121.971C307.959 121.971 307.589 122.077 307.266 122.29C306.951 122.503 306.632 122.836 306.309 123.291L305.671 122.829C306.045 122.272 306.441 121.861 306.859 121.597C307.277 121.326 307.805 121.19 308.443 121.19C309.132 121.19 309.701 121.399 310.148 121.817C310.603 122.228 310.83 122.752 310.83 123.39C310.83 123.918 310.687 124.387 310.401 124.798C310.115 125.209 309.609 125.737 308.883 126.382L306.826 128.208H310.907V129H305.528ZM314.918 129.132C313.899 129.132 312.982 128.725 312.168 127.911L312.74 127.284C313.466 127.988 314.196 128.34 314.929 128.34C315.479 128.34 315.926 128.179 316.271 127.856C316.616 127.533 316.788 127.119 316.788 126.613C316.788 126.136 316.608 125.748 316.249 125.447C315.897 125.146 315.439 124.996 314.874 124.996C314.346 124.996 313.807 125.143 313.257 125.436L312.674 125.051L312.894 121.3H317.327V122.103H313.653L313.488 124.567C314.009 124.34 314.515 124.226 315.006 124.226C315.776 124.226 316.41 124.442 316.909 124.875C317.415 125.3 317.668 125.876 317.668 126.602C317.668 127.35 317.411 127.959 316.898 128.428C316.385 128.897 315.725 129.132 314.918 129.132ZM321.884 124.567C321.554 124.956 321.136 125.15 320.63 125.15C320.124 125.15 319.706 124.959 319.376 124.578C319.054 124.189 318.892 123.724 318.892 123.181C318.892 122.646 319.057 122.184 319.387 121.795C319.717 121.406 320.139 121.212 320.652 121.212C321.158 121.212 321.573 121.406 321.895 121.795C322.218 122.176 322.379 122.638 322.379 123.181C322.379 123.716 322.214 124.178 321.884 124.567ZM319.684 129L325.338 121.3H326.119L320.476 129H319.684ZM325.162 129.088C324.656 129.088 324.242 128.897 323.919 128.516C323.597 128.127 323.435 127.662 323.435 127.119C323.435 126.584 323.6 126.122 323.93 125.733C324.26 125.344 324.678 125.15 325.184 125.15C325.69 125.15 326.105 125.344 326.427 125.733C326.75 126.114 326.911 126.576 326.911 127.119C326.911 127.662 326.746 128.127 326.416 128.516C326.094 128.897 325.676 129.088 325.162 129.088ZM320.652 124.534C320.946 124.534 321.184 124.406 321.367 124.149C321.558 123.885 321.653 123.562 321.653 123.181C321.653 122.8 321.554 122.481 321.356 122.224C321.158 121.96 320.916 121.828 320.63 121.828C320.337 121.828 320.095 121.96 319.904 122.224C319.721 122.481 319.629 122.8 319.629 123.181C319.629 123.562 319.728 123.885 319.926 124.149C320.124 124.406 320.366 124.534 320.652 124.534ZM325.184 128.472C325.485 128.472 325.727 128.344 325.91 128.087C326.094 127.83 326.185 127.508 326.185 127.119C326.185 126.738 326.086 126.419 325.888 126.162C325.69 125.898 325.448 125.766 325.162 125.766C324.869 125.766 324.627 125.898 324.436 126.162C324.253 126.419 324.161 126.738 324.161 127.119C324.161 127.5 324.26 127.823 324.458 128.087C324.656 128.344 324.898 128.472 325.184 128.472Z" fill="#A1A1A1"/>
<path d="M293.5 129C294.881 129 296 127.881 296 126.5C296 125.119 294.881 124 293.5 124C292.119 124 291 125.119 291 126.5C291 127.881 292.119 129 293.5 129Z" fill="#FEFEFE"/>
<path d="M317.5 105C318.881 105 320 103.881 320 102.5C320 101.119 318.881 100 317.5 100C316.119 100 315 101.119 315 102.5C315 103.881 316.119 105 317.5 105Z" fill="#FEFEFE"/>
<path d="M50.491 215.966C49.75 216.743 48.808 217.132 47.664 217.132C46.52 217.132 45.581 216.743 44.848 215.966C44.115 215.189 43.748 214.25 43.748 213.15C43.748 212.057 44.118 211.122 44.859 210.345C45.6 209.56 46.542 209.168 47.686 209.168C48.83 209.168 49.769 209.557 50.502 210.334C51.235 211.111 51.602 212.05 51.602 213.15C51.602 214.243 51.232 215.181 50.491 215.966ZM45.508 215.405C46.087 216.021 46.813 216.329 47.686 216.329C48.559 216.329 49.277 216.025 49.842 215.416C50.414 214.8 50.7 214.045 50.7 213.15C50.7 212.263 50.41 211.511 49.831 210.895C49.259 210.279 48.537 209.971 47.664 209.971C46.791 209.971 46.069 210.279 45.497 210.895C44.932 211.504 44.65 212.255 44.65 213.15C44.65 214.037 44.936 214.789 45.508 215.405ZM54.667 217V212.061H52.632V211.313H57.56V212.061H55.525V217H54.667ZM58.792 217V211.313H62.653V212.061H59.639V217H58.792ZM63.884 218.76V211.313H64.731V212.457C65.303 211.614 66.029 211.192 66.909 211.192C67.635 211.192 68.269 211.463 68.812 212.006C69.354 212.541 69.626 213.26 69.626 214.162C69.626 215.049 69.354 215.764 68.812 216.307C68.269 216.85 67.635 217.121 66.909 217.121C66.014 217.121 65.288 216.718 64.731 215.911V218.76H63.884ZM66.755 216.362C67.327 216.362 67.803 216.164 68.185 215.768C68.566 215.365 68.757 214.826 68.757 214.151C68.757 213.498 68.562 212.97 68.174 212.567C67.785 212.156 67.312 211.951 66.755 211.951C66.205 211.951 65.724 212.16 65.314 212.578C64.903 212.996 64.698 213.524 64.698 214.162C64.698 214.8 64.903 215.328 65.314 215.746C65.724 216.157 66.205 216.362 66.755 216.362ZM72.068 218.793C71.658 218.793 71.254 218.698 70.858 218.507L71.144 217.836C71.416 217.975 71.713 218.045 72.035 218.045C72.292 218.045 72.508 217.964 72.684 217.803C72.86 217.649 73.033 217.374 73.201 216.978L70.616 211.313H71.551L73.619 216.054L75.445 211.313H76.347L73.96 217.187C73.718 217.766 73.451 218.177 73.157 218.419C72.864 218.668 72.501 218.793 72.068 218.793ZM79.491 217.132C78.619 217.132 77.834 216.85 77.137 216.285L77.566 215.658C78.146 216.149 78.78 216.395 79.469 216.395C79.858 216.395 80.188 216.307 80.459 216.131C80.738 215.948 80.877 215.698 80.877 215.383C80.877 215.09 80.753 214.862 80.503 214.701C80.254 214.532 79.902 214.448 79.447 214.448H78.688V213.755H79.458C79.832 213.755 80.137 213.667 80.371 213.491C80.606 213.308 80.723 213.069 80.723 212.776C80.723 212.519 80.606 212.314 80.371 212.16C80.144 212.006 79.851 211.929 79.491 211.929C78.817 211.929 78.241 212.12 77.764 212.501L77.346 211.907C77.962 211.43 78.696 211.192 79.546 211.192C80.177 211.192 80.676 211.335 81.042 211.621C81.416 211.9 81.603 212.263 81.603 212.71C81.603 213.333 81.299 213.77 80.69 214.019C81.394 214.268 81.746 214.734 81.746 215.416C81.746 215.893 81.541 216.3 81.13 216.637C80.72 216.967 80.173 217.132 79.491 217.132ZM83.316 217V211.313H84.163V214.591L87.276 211.313H88.321L85.945 213.777L88.387 217H87.386L85.362 214.393L84.163 215.625V217H83.316ZM91.251 217.121C90.672 217.121 90.173 216.963 89.755 216.648C89.337 216.333 89.128 215.893 89.128 215.328C89.128 214.734 89.348 214.276 89.788 213.953C90.228 213.63 90.819 213.469 91.559 213.469C92.146 213.469 92.725 213.55 93.297 213.711V213.535C93.297 213.036 93.151 212.655 92.857 212.391C92.564 212.127 92.15 211.995 91.614 211.995C91.057 211.995 90.481 212.131 89.887 212.402L89.634 211.709C90.338 211.386 91.028 211.225 91.702 211.225C92.509 211.225 93.121 211.434 93.539 211.852C93.935 212.248 94.133 212.805 94.133 213.524V217H93.297V216.153C92.791 216.798 92.109 217.121 91.251 217.121ZM91.416 216.439C91.944 216.439 92.392 216.296 92.758 216.01C93.125 215.724 93.308 215.357 93.308 214.91V214.382C92.751 214.221 92.197 214.14 91.647 214.14C91.127 214.14 90.72 214.246 90.426 214.459C90.133 214.664 89.986 214.947 89.986 215.306C89.986 215.651 90.122 215.926 90.393 216.131C90.672 216.336 91.013 216.439 91.416 216.439Z" fill="#686868"/>
<path d="M133.222 217.132C132.767 217.132 132.335 217.026 131.924 216.813L132.265 216.12C132.551 216.274 132.877 216.351 133.244 216.351C133.867 216.351 134.381 215.966 134.784 215.196L131.396 209.3H132.386L135.224 214.327L137.677 209.3H138.623L135.576 215.383C134.997 216.549 134.212 217.132 133.222 217.132ZM139.96 217V211.313H144.888V217H144.041V212.061H140.807V217H139.96ZM148.475 217.121C147.896 217.121 147.397 216.963 146.979 216.648C146.561 216.333 146.352 215.893 146.352 215.328C146.352 214.734 146.572 214.276 147.012 213.953C147.452 213.63 148.042 213.469 148.783 213.469C149.37 213.469 149.949 213.55 150.521 213.711V213.535C150.521 213.036 150.374 212.655 150.081 212.391C149.788 212.127 149.373 211.995 148.838 211.995C148.281 211.995 147.705 212.131 147.111 212.402L146.858 211.709C147.562 211.386 148.251 211.225 148.926 211.225C149.733 211.225 150.345 211.434 150.763 211.852C151.159 212.248 151.357 212.805 151.357 213.524V217H150.521V216.153C150.015 216.798 149.333 217.121 148.475 217.121ZM148.64 216.439C149.168 216.439 149.615 216.296 149.982 216.01C150.349 215.724 150.532 215.357 150.532 214.91V214.382C149.975 214.221 149.421 214.14 148.871 214.14C148.35 214.14 147.943 214.246 147.65 214.459C147.357 214.664 147.21 214.947 147.21 215.306C147.21 215.651 147.346 215.926 147.617 216.131C147.896 216.336 148.237 216.439 148.64 216.439ZM153.151 217V211.313H153.998V214.591L157.111 211.313H158.156L155.78 213.777L158.222 217H157.221L155.197 214.393L153.998 215.625V217H153.151ZM164.111 216.263C163.539 216.842 162.832 217.132 161.988 217.132C161.145 217.132 160.441 216.842 159.876 216.263C159.319 215.684 159.04 214.983 159.04 214.162C159.04 213.348 159.323 212.651 159.887 212.072C160.459 211.485 161.167 211.192 162.01 211.192C162.854 211.192 163.558 211.482 164.122 212.061C164.687 212.64 164.969 213.341 164.969 214.162C164.969 214.976 164.683 215.676 164.111 216.263ZM162.01 216.373C162.619 216.373 163.118 216.16 163.506 215.735C163.902 215.31 164.1 214.785 164.1 214.162C164.1 213.546 163.895 213.022 163.484 212.589C163.081 212.156 162.582 211.94 161.988 211.94C161.38 211.94 160.881 212.156 160.492 212.589C160.104 213.014 159.909 213.539 159.909 214.162C159.909 214.778 160.111 215.302 160.514 215.735C160.918 216.16 161.416 216.373 162.01 216.373ZM166.504 217V211.313H169.254C169.818 211.313 170.269 211.441 170.607 211.698C170.944 211.955 171.113 212.299 171.113 212.732C171.113 213.341 170.797 213.777 170.167 214.041C171.003 214.268 171.421 214.738 171.421 215.449C171.421 215.926 171.234 216.303 170.86 216.582C170.486 216.861 169.983 217 169.353 217H166.504ZM167.351 216.274H169.243C169.646 216.274 169.965 216.19 170.2 216.021C170.434 215.852 170.552 215.618 170.552 215.317C170.552 215.038 170.427 214.822 170.178 214.668C169.936 214.514 169.587 214.437 169.133 214.437H167.351V216.274ZM167.351 213.755H169.1C169.452 213.755 169.73 213.678 169.936 213.524C170.148 213.363 170.255 213.135 170.255 212.842C170.255 212.6 170.156 212.406 169.958 212.259C169.76 212.112 169.481 212.039 169.122 212.039H167.351V213.755ZM172.949 217V211.313H173.796V214.591L176.909 211.313H177.954L175.578 213.777L178.02 217H177.019L174.995 214.393L173.796 215.625V217H172.949ZM180.884 217.121C180.305 217.121 179.806 216.963 179.388 216.648C178.97 216.333 178.761 215.893 178.761 215.328C178.761 214.734 178.981 214.276 179.421 213.953C179.861 213.63 180.451 213.469 181.192 213.469C181.779 213.469 182.358 213.55 182.93 213.711V213.535C182.93 213.036 182.783 212.655 182.49 212.391C182.197 212.127 181.782 211.995 181.247 211.995C180.69 211.995 180.114 212.131 179.52 212.402L179.267 211.709C179.971 211.386 180.66 211.225 181.335 211.225C182.142 211.225 182.754 211.434 183.172 211.852C183.568 212.248 183.766 212.805 183.766 213.524V217H182.93V216.153C182.424 216.798 181.742 217.121 180.884 217.121ZM181.049 216.439C181.577 216.439 182.024 216.296 182.391 216.01C182.758 215.724 182.941 215.357 182.941 214.91V214.382C182.384 214.221 181.83 214.14 181.28 214.14C180.759 214.14 180.352 214.246 180.059 214.459C179.766 214.664 179.619 214.947 179.619 215.306C179.619 215.651 179.755 215.926 180.026 216.131C180.305 216.336 180.646 216.439 181.049 216.439Z" fill="#686868"/>
<path d="M214.11 218.716V216.208H214.902C215.679 214.969 216.068 213.113 216.068 210.642V209.3H221.106V216.208H222.107L221.975 218.716H221.249V217H215.001L214.847 218.716H214.11ZM215.881 216.208H220.237V210.092H216.904V211.093C216.904 212.105 216.812 213.08 216.629 214.019C216.446 214.958 216.196 215.687 215.881 216.208ZM227.958 216.263C227.386 216.842 226.678 217.132 225.835 217.132C224.992 217.132 224.288 216.842 223.723 216.263C223.166 215.684 222.887 214.983 222.887 214.162C222.887 213.348 223.169 212.651 223.734 212.072C224.306 211.485 225.014 211.192 225.857 211.192C226.7 211.192 227.404 211.482 227.969 212.061C228.534 212.64 228.816 213.341 228.816 214.162C228.816 214.976 228.53 215.676 227.958 216.263ZM225.857 216.373C226.466 216.373 226.964 216.16 227.353 215.735C227.749 215.31 227.947 214.785 227.947 214.162C227.947 213.546 227.742 213.022 227.331 212.589C226.928 212.156 226.429 211.94 225.835 211.94C225.226 211.94 224.728 212.156 224.339 212.589C223.95 213.014 223.756 213.539 223.756 214.162C223.756 214.778 223.958 215.302 224.361 215.735C224.764 216.16 225.263 216.373 225.857 216.373ZM232.913 217.132C232.092 217.132 231.399 216.842 230.834 216.263C230.277 215.676 229.998 214.976 229.998 214.162C229.998 213.348 230.277 212.651 230.834 212.072C231.399 211.485 232.092 211.192 232.913 211.192C233.793 211.192 234.552 211.529 235.19 212.204L234.651 212.776C234.123 212.219 233.54 211.94 232.902 211.94C232.33 211.94 231.846 212.156 231.45 212.589C231.062 213.014 230.867 213.539 230.867 214.162C230.867 214.778 231.065 215.302 231.461 215.735C231.865 216.16 232.363 216.373 232.957 216.373C233.566 216.373 234.138 216.087 234.673 215.515L235.234 216.032C234.574 216.765 233.801 217.132 232.913 217.132ZM238.009 217V212.061H235.974V211.313H240.902V212.061H238.867V217H238.009ZM243.828 217.121C243.249 217.121 242.75 216.963 242.332 216.648C241.914 216.333 241.705 215.893 241.705 215.328C241.705 214.734 241.925 214.276 242.365 213.953C242.805 213.63 243.396 213.469 244.136 213.469C244.723 213.469 245.302 213.55 245.874 213.711V213.535C245.874 213.036 245.728 212.655 245.434 212.391C245.141 212.127 244.727 211.995 244.191 211.995C243.634 211.995 243.058 212.131 242.464 212.402L242.211 211.709C242.915 211.386 243.605 211.225 244.279 211.225C245.086 211.225 245.698 211.434 246.116 211.852C246.512 212.248 246.71 212.805 246.71 213.524V217H245.874V216.153C245.368 216.798 244.686 217.121 243.828 217.121ZM243.993 216.439C244.521 216.439 244.969 216.296 245.335 216.01C245.702 215.724 245.885 215.357 245.885 214.91V214.382C245.328 214.221 244.774 214.14 244.224 214.14C243.704 214.14 243.297 214.246 243.003 214.459C242.71 214.664 242.563 214.947 242.563 215.306C242.563 215.651 242.699 215.926 242.97 216.131C243.249 216.336 243.59 216.439 243.993 216.439ZM248.505 217V211.313H251.255C251.819 211.313 252.27 211.441 252.608 211.698C252.945 211.955 253.114 212.299 253.114 212.732C253.114 213.341 252.798 213.777 252.168 214.041C253.004 214.268 253.422 214.738 253.422 215.449C253.422 215.926 253.235 216.303 252.861 216.582C252.487 216.861 251.984 217 251.354 217H248.505ZM249.352 216.274H251.244C251.647 216.274 251.966 216.19 252.201 216.021C252.435 215.852 252.553 215.618 252.553 215.317C252.553 215.038 252.428 214.822 252.179 214.668C251.937 214.514 251.588 214.437 251.134 214.437H249.352V216.274ZM249.352 213.755H251.101C251.453 213.755 251.731 213.678 251.937 213.524C252.149 213.363 252.256 213.135 252.256 212.842C252.256 212.6 252.157 212.406 251.959 212.259C251.761 212.112 251.482 212.039 251.123 212.039H249.352V213.755ZM254.95 217V211.313H255.797V214.591L258.91 211.313H259.955L257.579 213.777L260.021 217H259.02L256.996 214.393L255.797 215.625V217H254.95ZM262.885 217.121C262.306 217.121 261.807 216.963 261.389 216.648C260.971 216.333 260.762 215.893 260.762 215.328C260.762 214.734 260.982 214.276 261.422 213.953C261.862 213.63 262.452 213.469 263.193 213.469C263.78 213.469 264.359 213.55 264.931 213.711V213.535C264.931 213.036 264.784 212.655 264.491 212.391C264.198 212.127 263.783 211.995 263.248 211.995C262.691 211.995 262.115 212.131 261.521 212.402L261.268 211.709C261.972 211.386 262.661 211.225 263.336 211.225C264.143 211.225 264.755 211.434 265.173 211.852C265.569 212.248 265.767 212.805 265.767 213.524V217H264.931V216.153C264.425 216.798 263.743 217.121 262.885 217.121ZM263.05 216.439C263.578 216.439 264.025 216.296 264.392 216.01C264.759 215.724 264.942 215.357 264.942 214.91V214.382C264.385 214.221 263.831 214.14 263.281 214.14C262.76 214.14 262.353 214.246 262.06 214.459C261.767 214.664 261.62 214.947 261.62 215.306C261.62 215.651 261.756 215.926 262.027 216.131C262.306 216.336 262.647 216.439 263.05 216.439Z" fill="#686868"/>
<path d="M311.089 217V209.3H314.367C315.269 209.3 315.94 209.527 316.38 209.982C316.71 210.327 316.875 210.745 316.875 211.236C316.875 212.072 316.468 212.666 315.654 213.018C316.754 213.348 317.304 213.975 317.304 214.899C317.304 215.552 317.051 216.065 316.545 216.439C316.039 216.813 315.361 217 314.51 217H311.089ZM311.947 216.219H314.532C315.119 216.219 315.581 216.098 315.918 215.856C316.255 215.607 316.424 215.262 316.424 214.822C316.424 214.397 316.248 214.07 315.896 213.843C315.551 213.616 315.045 213.502 314.378 213.502H311.947V216.219ZM311.947 212.732H314.224C314.759 212.732 315.188 212.611 315.511 212.369C315.834 212.127 315.995 211.782 315.995 211.335C315.995 210.946 315.845 210.642 315.544 210.422C315.251 210.195 314.833 210.081 314.29 210.081H311.947V212.732ZM321.447 217.132C320.626 217.132 319.933 216.842 319.368 216.263C318.811 215.676 318.532 214.976 318.532 214.162C318.532 213.348 318.811 212.651 319.368 212.072C319.933 211.485 320.626 211.192 321.447 211.192C322.327 211.192 323.086 211.529 323.724 212.204L323.185 212.776C322.657 212.219 322.074 211.94 321.436 211.94C320.864 211.94 320.38 212.156 319.984 212.589C319.596 213.014 319.401 213.539 319.401 214.162C319.401 214.778 319.599 215.302 319.995 215.735C320.399 216.16 320.897 216.373 321.491 216.373C322.1 216.373 322.672 216.087 323.207 215.515L323.768 216.032C323.108 216.765 322.335 217.132 321.447 217.132ZM327.655 217.132C326.855 217.132 326.181 216.857 325.631 216.307C325.088 215.75 324.817 215.035 324.817 214.162C324.817 213.333 325.077 212.633 325.598 212.061C326.118 211.482 326.767 211.192 327.545 211.192C328.359 211.192 329.004 211.478 329.481 212.05C329.957 212.622 330.196 213.341 330.196 214.206C330.196 214.316 330.192 214.415 330.185 214.503H325.675C325.733 215.082 325.95 215.544 326.324 215.889C326.705 216.226 327.156 216.395 327.677 216.395C328.359 216.395 328.956 216.127 329.47 215.592L329.998 216.065C329.36 216.776 328.579 217.132 327.655 217.132ZM325.675 213.821H329.338C329.286 213.271 329.103 212.816 328.788 212.457C328.48 212.09 328.058 211.907 327.523 211.907C327.039 211.907 326.624 212.087 326.28 212.446C325.935 212.805 325.733 213.264 325.675 213.821ZM331.678 217V211.313H335.539V212.061H332.525V217H331.678ZM341.489 216.263C340.917 216.842 340.21 217.132 339.366 217.132C338.523 217.132 337.819 216.842 337.254 216.263C336.697 215.684 336.418 214.983 336.418 214.162C336.418 213.348 336.701 212.651 337.265 212.072C337.837 211.485 338.545 211.192 339.388 211.192C340.232 211.192 340.936 211.482 341.5 212.061C342.065 212.64 342.347 213.341 342.347 214.162C342.347 214.976 342.061 215.676 341.489 216.263ZM339.388 216.373C339.997 216.373 340.496 216.16 340.884 215.735C341.28 215.31 341.478 214.785 341.478 214.162C341.478 213.546 341.273 213.022 340.862 212.589C340.459 212.156 339.96 211.94 339.366 211.94C338.758 211.94 338.259 212.156 337.87 212.589C337.482 213.014 337.287 213.539 337.287 214.162C337.287 214.778 337.489 215.302 337.892 215.735C338.296 216.16 338.794 216.373 339.388 216.373Z" fill="#686868"/>
<path d="M218.752 244V242.174H214.693L214.473 241.547L218.829 236.245H219.588V241.448H220.787V242.174H219.588V244H218.752ZM215.518 241.448H218.752V237.477L215.518 241.448ZM226.913 243.505C226.363 243.908 225.674 244.11 224.845 244.11C224.016 244.11 223.327 243.905 222.777 243.494C222.227 243.083 221.952 242.555 221.952 241.91C221.952 241.47 222.095 241.089 222.381 240.766C222.667 240.443 223.052 240.194 223.536 240.018C222.656 239.615 222.216 239.017 222.216 238.225C222.216 237.646 222.473 237.162 222.986 236.773C223.507 236.384 224.126 236.19 224.845 236.19C225.564 236.19 226.18 236.384 226.693 236.773C227.214 237.162 227.474 237.653 227.474 238.247C227.474 239.024 227.034 239.615 226.154 240.018C227.21 240.414 227.738 241.048 227.738 241.921C227.738 242.566 227.463 243.094 226.913 243.505ZM223.591 239.314C223.928 239.578 224.346 239.71 224.845 239.71C225.344 239.71 225.762 239.578 226.099 239.314C226.436 239.05 226.605 238.705 226.605 238.28C226.605 237.899 226.436 237.583 226.099 237.334C225.762 237.077 225.344 236.949 224.845 236.949C224.339 236.949 223.917 237.077 223.58 237.334C223.25 237.583 223.085 237.906 223.085 238.302C223.085 238.713 223.254 239.05 223.591 239.314ZM223.371 242.933C223.738 243.212 224.229 243.351 224.845 243.351C225.461 243.351 225.949 243.212 226.308 242.933C226.675 242.654 226.858 242.306 226.858 241.888C226.858 241.463 226.664 241.114 226.275 240.843C225.886 240.564 225.41 240.425 224.845 240.425C224.273 240.425 223.793 240.564 223.404 240.843C223.023 241.122 222.832 241.477 222.832 241.91C222.832 242.313 223.012 242.654 223.371 242.933ZM237.139 243.505C236.589 243.908 235.9 244.11 235.071 244.11C234.243 244.11 233.553 243.905 233.003 243.494C232.453 243.083 232.178 242.555 232.178 241.91C232.178 241.47 232.321 241.089 232.607 240.766C232.893 240.443 233.278 240.194 233.762 240.018C232.882 239.615 232.442 239.017 232.442 238.225C232.442 237.646 232.699 237.162 233.212 236.773C233.733 236.384 234.353 236.19 235.071 236.19C235.79 236.19 236.406 236.384 236.919 236.773C237.44 237.162 237.7 237.653 237.7 238.247C237.7 239.024 237.26 239.615 236.38 240.018C237.436 240.414 237.964 241.048 237.964 241.921C237.964 242.566 237.689 243.094 237.139 243.505ZM233.817 239.314C234.155 239.578 234.573 239.71 235.071 239.71C235.57 239.71 235.988 239.578 236.325 239.314C236.663 239.05 236.831 238.705 236.831 238.28C236.831 237.899 236.663 237.583 236.325 237.334C235.988 237.077 235.57 236.949 235.071 236.949C234.565 236.949 234.144 237.077 233.806 237.334C233.476 237.583 233.311 237.906 233.311 238.302C233.311 238.713 233.48 239.05 233.817 239.314ZM233.597 242.933C233.964 243.212 234.455 243.351 235.071 243.351C235.687 243.351 236.175 243.212 236.534 242.933C236.901 242.654 237.084 242.306 237.084 241.888C237.084 241.463 236.89 241.114 236.501 240.843C236.113 240.564 235.636 240.425 235.071 240.425C234.499 240.425 234.019 240.564 233.63 240.843C233.249 241.122 233.058 241.477 233.058 241.91C233.058 242.313 233.238 242.654 233.597 242.933ZM244.816 242.977C244.215 243.747 243.43 244.132 242.462 244.132C241.494 244.132 240.709 243.751 240.108 242.988C239.514 242.218 239.217 241.272 239.217 240.15C239.217 239.043 239.518 238.104 240.119 237.334C240.728 236.557 241.516 236.168 242.484 236.168C243.452 236.168 244.233 236.553 244.827 237.323C245.421 238.086 245.718 239.028 245.718 240.15C245.718 241.257 245.417 242.2 244.816 242.977ZM240.779 242.405C241.219 243.028 241.787 243.34 242.484 243.34C243.181 243.34 243.742 243.032 244.167 242.416C244.6 241.793 244.816 241.037 244.816 240.15C244.816 239.277 244.596 238.529 244.156 237.906C243.723 237.275 243.159 236.96 242.462 236.96C241.765 236.96 241.201 237.272 240.768 237.895C240.335 238.511 240.119 239.263 240.119 240.15C240.119 241.023 240.339 241.774 240.779 242.405ZM252.679 242.977C252.078 243.747 251.293 244.132 250.325 244.132C249.357 244.132 248.573 243.751 247.971 242.988C247.377 242.218 247.08 241.272 247.08 240.15C247.08 239.043 247.381 238.104 247.982 237.334C248.591 236.557 249.379 236.168 250.347 236.168C251.315 236.168 252.096 236.553 252.69 237.323C253.284 238.086 253.581 239.028 253.581 240.15C253.581 241.257 253.281 242.2 252.679 242.977ZM248.642 242.405C249.082 243.028 249.651 243.34 250.347 243.34C251.044 243.34 251.605 243.032 252.03 242.416C252.463 241.793 252.679 241.037 252.679 240.15C252.679 239.277 252.459 238.529 252.019 237.906C251.587 237.275 251.022 236.96 250.325 236.96C249.629 236.96 249.064 237.272 248.631 237.895C248.199 238.511 247.982 239.263 247.982 240.15C247.982 241.023 248.202 241.774 248.642 242.405ZM259.44 241.415V242.086H261.915V242.57H259.44V244H258.626V242.57H257.471V242.086H258.626V236.3H261.508C262.498 236.3 263.268 236.524 263.818 236.971C264.375 237.411 264.654 238.038 264.654 238.852C264.654 239.673 264.375 240.308 263.818 240.755C263.268 241.195 262.498 241.415 261.508 241.415H259.44ZM259.44 237.004V240.722H261.519C262.267 240.722 262.839 240.561 263.235 240.238C263.638 239.915 263.84 239.457 263.84 238.863C263.84 238.269 263.638 237.811 263.235 237.488C262.839 237.165 262.267 237.004 261.519 237.004H259.44Z" fill="#393939"/>
<path d="M44.969 244V237.147L43.517 237.598L43.308 236.894L45.189 236.245H45.827V244H44.969ZM47.47 244V243.329L50.264 240.865C50.866 240.337 51.284 239.897 51.518 239.545C51.753 239.193 51.87 238.826 51.87 238.445C51.87 238.005 51.72 237.649 51.419 237.378C51.119 237.107 50.752 236.971 50.319 236.971C49.901 236.971 49.531 237.077 49.208 237.29C48.893 237.503 48.574 237.836 48.251 238.291L47.613 237.829C47.987 237.272 48.383 236.861 48.801 236.597C49.219 236.326 49.747 236.19 50.385 236.19C51.075 236.19 51.643 236.399 52.09 236.817C52.545 237.228 52.772 237.752 52.772 238.39C52.772 238.918 52.629 239.387 52.343 239.798C52.057 240.209 51.551 240.737 50.825 241.382L48.768 243.208H52.849V244H47.47ZM60.488 244.132C59.564 244.132 58.835 243.828 58.299 243.219C57.764 242.61 57.496 241.653 57.496 240.348C57.496 239.145 57.782 238.148 58.354 237.356C58.934 236.564 59.715 236.168 60.697 236.168C61.497 236.168 62.256 236.461 62.974 237.048L62.468 237.719C61.867 237.213 61.262 236.96 60.653 236.96C59.971 236.96 59.425 237.272 59.014 237.895C58.604 238.518 58.398 239.329 58.398 240.326V240.359C58.934 239.574 59.663 239.182 60.587 239.182C61.328 239.182 61.955 239.402 62.468 239.842C62.989 240.282 63.249 240.858 63.249 241.569C63.249 242.31 62.985 242.922 62.457 243.406C61.929 243.89 61.273 244.132 60.488 244.132ZM60.499 243.362C61.057 243.362 61.504 243.193 61.841 242.856C62.186 242.519 62.358 242.093 62.358 241.58C62.358 241.103 62.182 240.711 61.83 240.403C61.478 240.088 61.027 239.93 60.477 239.93C59.92 239.93 59.458 240.102 59.091 240.447C58.732 240.784 58.552 241.18 58.552 241.635C58.552 242.126 58.736 242.537 59.102 242.867C59.469 243.197 59.935 243.362 60.499 243.362ZM70.228 242.977C69.627 243.747 68.842 244.132 67.874 244.132C66.906 244.132 66.122 243.751 65.52 242.988C64.926 242.218 64.629 241.272 64.629 240.15C64.629 239.043 64.93 238.104 65.531 237.334C66.14 236.557 66.928 236.168 67.896 236.168C68.864 236.168 69.645 236.553 70.239 237.323C70.833 238.086 71.13 239.028 71.13 240.15C71.13 241.257 70.83 242.2 70.228 242.977ZM66.191 242.405C66.631 243.028 67.2 243.34 67.896 243.34C68.593 243.34 69.154 243.032 69.579 242.416C70.012 241.793 70.228 241.037 70.228 240.15C70.228 239.277 70.008 238.529 69.568 237.906C69.136 237.275 68.571 236.96 67.874 236.96C67.178 236.96 66.613 237.272 66.18 237.895C65.748 238.511 65.531 239.263 65.531 240.15C65.531 241.023 65.751 241.774 66.191 242.405ZM78.092 242.977C77.49 243.747 76.706 244.132 75.738 244.132C74.77 244.132 73.985 243.751 73.384 242.988C72.79 242.218 72.493 241.272 72.493 240.15C72.493 239.043 72.793 238.104 73.395 237.334C74.003 236.557 74.792 236.168 75.76 236.168C76.728 236.168 77.509 236.553 78.103 237.323C78.697 238.086 78.994 239.028 78.994 240.15C78.994 241.257 78.693 242.2 78.092 242.977ZM74.055 242.405C74.495 243.028 75.063 243.34 75.76 243.34C76.456 243.34 77.017 243.032 77.443 242.416C77.875 241.793 78.092 241.037 78.092 240.15C78.092 239.277 77.872 238.529 77.432 237.906C76.999 237.275 76.434 236.96 75.738 236.96C75.041 236.96 74.476 237.272 74.044 237.895C73.611 238.511 73.395 239.263 73.395 240.15C73.395 241.023 73.615 241.774 74.055 242.405ZM84.852 241.415V242.086H87.327V242.57H84.852V244H84.038V242.57H82.883V242.086H84.038V236.3H86.92C87.91 236.3 88.68 236.524 89.23 236.971C89.787 237.411 90.066 238.038 90.066 238.852C90.066 239.673 89.787 240.308 89.23 240.755C88.68 241.195 87.91 241.415 86.92 241.415H84.852ZM84.852 237.004V240.722H86.931C87.679 240.722 88.251 240.561 88.647 240.238C89.05 239.915 89.252 239.457 89.252 238.863C89.252 238.269 89.05 237.811 88.647 237.488C88.251 237.165 87.679 237.004 86.931 237.004H84.852Z" fill="#393939"/>
<path d="M135.663 244.132C134.739 244.132 134.009 243.828 133.474 243.219C132.939 242.61 132.671 241.653 132.671 240.348C132.671 239.145 132.957 238.148 133.529 237.356C134.108 236.564 134.889 236.168 135.872 236.168C136.671 236.168 137.43 236.461 138.149 237.048L137.643 237.719C137.042 237.213 136.437 236.96 135.828 236.96C135.146 236.96 134.6 237.272 134.189 237.895C133.778 238.518 133.573 239.329 133.573 240.326V240.359C134.108 239.574 134.838 239.182 135.762 239.182C136.503 239.182 137.13 239.402 137.643 239.842C138.164 240.282 138.424 240.858 138.424 241.569C138.424 242.31 138.16 242.922 137.632 243.406C137.104 243.89 136.448 244.132 135.663 244.132ZM135.674 243.362C136.231 243.362 136.679 243.193 137.016 242.856C137.361 242.519 137.533 242.093 137.533 241.58C137.533 241.103 137.357 240.711 137.005 240.403C136.653 240.088 136.202 239.93 135.652 239.93C135.095 239.93 134.633 240.102 134.266 240.447C133.907 240.784 133.727 241.18 133.727 241.635C133.727 242.126 133.91 242.537 134.277 242.867C134.644 243.197 135.109 243.362 135.674 243.362ZM148.701 242.977C148.1 243.747 147.315 244.132 146.347 244.132C145.379 244.132 144.594 243.751 143.993 242.988C143.399 242.218 143.102 241.272 143.102 240.15C143.102 239.043 143.403 238.104 144.004 237.334C144.613 236.557 145.401 236.168 146.369 236.168C147.337 236.168 148.118 236.553 148.712 237.323C149.306 238.086 149.603 239.028 149.603 240.15C149.603 241.257 149.302 242.2 148.701 242.977ZM144.664 242.405C145.104 243.028 145.672 243.34 146.369 243.34C147.066 243.34 147.627 243.032 148.052 242.416C148.485 241.793 148.701 241.037 148.701 240.15C148.701 239.277 148.481 238.529 148.041 237.906C147.608 237.275 147.044 236.96 146.347 236.96C145.65 236.96 145.086 237.272 144.653 237.895C144.22 238.511 144.004 239.263 144.004 240.15C144.004 241.023 144.224 241.774 144.664 242.405ZM156.564 242.977C155.963 243.747 155.178 244.132 154.21 244.132C153.242 244.132 152.458 243.751 151.856 242.988C151.262 242.218 150.965 241.272 150.965 240.15C150.965 239.043 151.266 238.104 151.867 237.334C152.476 236.557 153.264 236.168 154.232 236.168C155.2 236.168 155.981 236.553 156.575 237.323C157.169 238.086 157.466 239.028 157.466 240.15C157.466 241.257 157.166 242.2 156.564 242.977ZM152.527 242.405C152.967 243.028 153.536 243.34 154.232 243.34C154.929 243.34 155.49 243.032 155.915 242.416C156.348 241.793 156.564 241.037 156.564 240.15C156.564 239.277 156.344 238.529 155.904 237.906C155.472 237.275 154.907 236.96 154.21 236.96C153.514 236.96 152.949 237.272 152.516 237.895C152.084 238.511 151.867 239.263 151.867 240.15C151.867 241.023 152.087 241.774 152.527 242.405ZM164.427 242.977C163.826 243.747 163.041 244.132 162.073 244.132C161.105 244.132 160.321 243.751 159.719 242.988C159.125 242.218 158.828 241.272 158.828 240.15C158.828 239.043 159.129 238.104 159.73 237.334C160.339 236.557 161.127 236.168 162.095 236.168C163.063 236.168 163.844 236.553 164.438 237.323C165.032 238.086 165.329 239.028 165.329 240.15C165.329 241.257 165.029 242.2 164.427 242.977ZM160.39 242.405C160.83 243.028 161.399 243.34 162.095 243.34C162.792 243.34 163.353 243.032 163.778 242.416C164.211 241.793 164.427 241.037 164.427 240.15C164.427 239.277 164.207 238.529 163.767 237.906C163.335 237.275 162.77 236.96 162.073 236.96C161.377 236.96 160.812 237.272 160.379 237.895C159.947 238.511 159.73 239.263 159.73 240.15C159.73 241.023 159.95 241.774 160.39 242.405ZM171.188 241.415V242.086H173.663V242.57H171.188V244H170.374V242.57H169.219V242.086H170.374V236.3H173.256C174.246 236.3 175.016 236.524 175.566 236.971C176.123 237.411 176.402 238.038 176.402 238.852C176.402 239.673 176.123 240.308 175.566 240.755C175.016 241.195 174.246 241.415 173.256 241.415H171.188ZM171.188 237.004V240.722H173.267C174.015 240.722 174.587 240.561 174.983 240.238C175.386 239.915 175.588 239.457 175.588 238.863C175.588 238.269 175.386 237.811 174.983 237.488C174.587 237.165 174.015 237.004 173.267 237.004H171.188Z" fill="#393939"/>
<path d="M295.82 244.132C294.896 244.132 294.167 243.828 293.631 243.219C293.096 242.61 292.828 241.653 292.828 240.348C292.828 239.145 293.114 238.148 293.686 237.356C294.266 236.564 295.047 236.168 296.029 236.168C296.829 236.168 297.588 236.461 298.306 237.048L297.8 237.719C297.199 237.213 296.594 236.96 295.985 236.96C295.303 236.96 294.757 237.272 294.346 237.895C293.936 238.518 293.73 239.329 293.73 240.326V240.359C294.266 239.574 294.995 239.182 295.919 239.182C296.66 239.182 297.287 239.402 297.8 239.842C298.321 240.282 298.581 240.858 298.581 241.569C298.581 242.31 298.317 242.922 297.789 243.406C297.261 243.89 296.605 244.132 295.82 244.132ZM295.831 243.362C296.389 243.362 296.836 243.193 297.173 242.856C297.518 242.519 297.69 242.093 297.69 241.58C297.69 241.103 297.514 240.711 297.162 240.403C296.81 240.088 296.359 239.93 295.809 239.93C295.252 239.93 294.79 240.102 294.423 240.447C294.064 240.784 293.884 241.18 293.884 241.635C293.884 242.126 294.068 242.537 294.434 242.867C294.801 243.197 295.267 243.362 295.831 243.362ZM300.539 244L304.015 237.092H299.78V236.3H305.005V236.949L301.507 244H300.539ZM313.635 244V242.174H309.576L309.356 241.547L313.712 236.245H314.471V241.448H315.67V242.174H314.471V244H313.635ZM310.401 241.448H313.635V237.477L310.401 241.448ZM322.544 242.977C321.942 243.747 321.158 244.132 320.19 244.132C319.222 244.132 318.437 243.751 317.836 242.988C317.242 242.218 316.945 241.272 316.945 240.15C316.945 239.043 317.245 238.104 317.847 237.334C318.455 236.557 319.244 236.168 320.212 236.168C321.18 236.168 321.961 236.553 322.555 237.323C323.149 238.086 323.446 239.028 323.446 240.15C323.446 241.257 323.145 242.2 322.544 242.977ZM318.507 242.405C318.947 243.028 319.515 243.34 320.212 243.34C320.908 243.34 321.469 243.032 321.895 242.416C322.327 241.793 322.544 241.037 322.544 240.15C322.544 239.277 322.324 238.529 321.884 237.906C321.451 237.275 320.886 236.96 320.19 236.96C319.493 236.96 318.928 237.272 318.496 237.895C318.063 238.511 317.847 239.263 317.847 240.15C317.847 241.023 318.067 241.774 318.507 242.405ZM330.407 242.977C329.806 243.747 329.021 244.132 328.053 244.132C327.085 244.132 326.3 243.751 325.699 242.988C325.105 242.218 324.808 241.272 324.808 240.15C324.808 239.043 325.109 238.104 325.71 237.334C326.319 236.557 327.107 236.168 328.075 236.168C329.043 236.168 329.824 236.553 330.418 237.323C331.012 238.086 331.309 239.028 331.309 240.15C331.309 241.257 331.008 242.2 330.407 242.977ZM326.37 242.405C326.81 243.028 327.378 243.34 328.075 243.34C328.772 243.34 329.333 243.032 329.758 242.416C330.191 241.793 330.407 241.037 330.407 240.15C330.407 239.277 330.187 238.529 329.747 237.906C329.314 237.275 328.75 236.96 328.053 236.96C327.356 236.96 326.792 237.272 326.359 237.895C325.926 238.511 325.71 239.263 325.71 240.15C325.71 241.023 325.93 241.774 326.37 242.405ZM337.167 241.415V242.086H339.642V242.57H337.167V244H336.353V242.57H335.198V242.086H336.353V236.3H339.235C340.225 236.3 340.995 236.524 341.545 236.971C342.102 237.411 342.381 238.038 342.381 238.852C342.381 239.673 342.102 240.308 341.545 240.755C340.995 241.195 340.225 241.415 339.235 241.415H337.167ZM337.167 237.004V240.722H339.246C339.994 240.722 340.566 240.561 340.962 240.238C341.365 239.915 341.567 239.457 341.567 238.863C341.567 238.269 341.365 237.811 340.962 237.488C340.566 237.165 339.994 237.004 339.246 237.004H337.167Z" fill="#393939"/>
<path d="M217.333 266.132C216.314 266.132 215.397 265.725 214.583 264.911L215.155 264.284C215.881 264.988 216.611 265.34 217.344 265.34C217.894 265.34 218.341 265.179 218.686 264.856C219.031 264.533 219.203 264.119 219.203 263.613C219.203 263.136 219.023 262.748 218.664 262.447C218.312 262.146 217.854 261.996 217.289 261.996C216.761 261.996 216.222 262.143 215.672 262.436L215.089 262.051L215.309 258.3H219.742V259.103H216.068L215.903 261.567C216.424 261.34 216.93 261.226 217.421 261.226C218.191 261.226 218.825 261.442 219.324 261.875C219.83 262.3 220.083 262.876 220.083 263.602C220.083 264.35 219.826 264.959 219.313 265.428C218.8 265.897 218.14 266.132 217.333 266.132ZM224.398 266.132C223.474 266.132 222.745 265.828 222.209 265.219C221.674 264.61 221.406 263.653 221.406 262.348C221.406 261.145 221.692 260.148 222.264 259.356C222.844 258.564 223.625 258.168 224.607 258.168C225.407 258.168 226.166 258.461 226.884 259.048L226.378 259.719C225.777 259.213 225.172 258.96 224.563 258.96C223.881 258.96 223.335 259.272 222.924 259.895C222.514 260.518 222.308 261.329 222.308 262.326V262.359C222.844 261.574 223.573 261.182 224.497 261.182C225.238 261.182 225.865 261.402 226.378 261.842C226.899 262.282 227.159 262.858 227.159 263.569C227.159 264.31 226.895 264.922 226.367 265.406C225.839 265.89 225.183 266.132 224.398 266.132ZM224.409 265.362C224.967 265.362 225.414 265.193 225.751 264.856C226.096 264.519 226.268 264.093 226.268 263.58C226.268 263.103 226.092 262.711 225.74 262.403C225.388 262.088 224.937 261.93 224.387 261.93C223.83 261.93 223.368 262.102 223.001 262.447C222.642 262.784 222.462 263.18 222.462 263.635C222.462 264.126 222.646 264.537 223.012 264.867C223.379 265.197 223.845 265.362 224.409 265.362ZM234.818 266.132C233.894 266.132 233.165 265.828 232.629 265.219C232.094 264.61 231.826 263.653 231.826 262.348C231.826 261.145 232.112 260.148 232.684 259.356C233.264 258.564 234.045 258.168 235.027 258.168C235.827 258.168 236.586 258.461 237.304 259.048L236.798 259.719C236.197 259.213 235.592 258.96 234.983 258.96C234.301 258.96 233.755 259.272 233.344 259.895C232.934 260.518 232.728 261.329 232.728 262.326V262.359C233.264 261.574 233.993 261.182 234.917 261.182C235.658 261.182 236.285 261.402 236.798 261.842C237.319 262.282 237.579 262.858 237.579 263.569C237.579 264.31 237.315 264.922 236.787 265.406C236.259 265.89 235.603 266.132 234.818 266.132ZM234.829 265.362C235.387 265.362 235.834 265.193 236.171 264.856C236.516 264.519 236.688 264.093 236.688 263.58C236.688 263.103 236.512 262.711 236.16 262.403C235.808 262.088 235.357 261.93 234.807 261.93C234.25 261.93 233.788 262.102 233.421 262.447C233.062 262.784 232.882 263.18 232.882 263.635C232.882 264.126 233.066 264.537 233.432 264.867C233.799 265.197 234.265 265.362 234.829 265.362ZM243.029 266V264.174H238.97L238.75 263.547L243.106 258.245H243.865V263.448H245.064V264.174H243.865V266H243.029ZM239.795 263.448H243.029V259.477L239.795 263.448ZM251.938 264.977C251.337 265.747 250.552 266.132 249.584 266.132C248.616 266.132 247.832 265.751 247.23 264.988C246.636 264.218 246.339 263.272 246.339 262.15C246.339 261.043 246.64 260.104 247.241 259.334C247.85 258.557 248.638 258.168 249.606 258.168C250.574 258.168 251.355 258.553 251.949 259.323C252.543 260.086 252.84 261.028 252.84 262.15C252.84 263.257 252.54 264.2 251.938 264.977ZM247.901 264.405C248.341 265.028 248.91 265.34 249.606 265.34C250.303 265.34 250.864 265.032 251.289 264.416C251.722 263.793 251.938 263.037 251.938 262.15C251.938 261.277 251.718 260.529 251.278 259.906C250.846 259.275 250.281 258.96 249.584 258.96C248.888 258.96 248.323 259.272 247.89 259.895C247.458 260.511 247.241 261.263 247.241 262.15C247.241 263.023 247.461 263.774 247.901 264.405ZM258.698 263.415V264.086H261.173V264.57H258.698V266H257.884V264.57H256.729V264.086H257.884V258.3H260.766C261.756 258.3 262.526 258.524 263.076 258.971C263.634 259.411 263.912 260.038 263.912 260.852C263.912 261.673 263.634 262.308 263.076 262.755C262.526 263.195 261.756 263.415 260.766 263.415H258.698ZM258.698 259.004V262.722H260.777C261.525 262.722 262.097 262.561 262.493 262.238C262.897 261.915 263.098 261.457 263.098 260.863C263.098 260.269 262.897 259.811 262.493 259.488C262.097 259.165 261.525 259.004 260.777 259.004H258.698Z" fill="#393939"/>
<path d="M43.969 266V259.147L42.517 259.598L42.308 258.894L44.189 258.245H44.827V266H43.969ZM50.694 266V264.174H46.635L46.415 263.547L50.771 258.245H51.53V263.448H52.729V264.174H51.53V266H50.694ZM47.46 263.448H50.694V259.477L47.46 263.448ZM60.283 266.132C59.359 266.132 58.629 265.828 58.094 265.219C57.559 264.611 57.291 263.654 57.291 262.348C57.291 261.146 57.577 260.148 58.149 259.356C58.728 258.564 59.509 258.168 60.492 258.168C61.291 258.168 62.05 258.462 62.769 259.048L62.263 259.719C61.662 259.213 61.057 258.96 60.448 258.96C59.766 258.96 59.22 259.272 58.809 259.895C58.398 260.519 58.193 261.329 58.193 262.326V262.359C58.728 261.575 59.458 261.182 60.382 261.182C61.123 261.182 61.75 261.402 62.263 261.842C62.784 262.282 63.044 262.858 63.044 263.569C63.044 264.31 62.78 264.922 62.252 265.406C61.724 265.89 61.068 266.132 60.283 266.132ZM60.294 265.362C60.851 265.362 61.299 265.194 61.636 264.856C61.981 264.519 62.153 264.094 62.153 263.58C62.153 263.104 61.977 262.711 61.625 262.403C61.273 262.088 60.822 261.93 60.272 261.93C59.715 261.93 59.253 262.103 58.886 262.447C58.527 262.785 58.347 263.181 58.347 263.635C58.347 264.127 58.53 264.537 58.897 264.867C59.264 265.197 59.729 265.362 60.294 265.362ZM69.275 265.505C68.725 265.909 68.036 266.11 67.207 266.11C66.379 266.11 65.689 265.905 65.139 265.494C64.589 265.084 64.314 264.556 64.314 263.91C64.314 263.47 64.457 263.089 64.743 262.766C65.029 262.444 65.414 262.194 65.898 262.018C65.018 261.615 64.578 261.017 64.578 260.225C64.578 259.646 64.835 259.162 65.348 258.773C65.869 258.385 66.489 258.19 67.207 258.19C67.926 258.19 68.542 258.385 69.055 258.773C69.576 259.162 69.836 259.653 69.836 260.247C69.836 261.025 69.396 261.615 68.516 262.018C69.572 262.414 70.1 263.049 70.1 263.921C70.1 264.567 69.825 265.095 69.275 265.505ZM65.953 261.314C66.291 261.578 66.709 261.71 67.207 261.71C67.706 261.71 68.124 261.578 68.461 261.314C68.799 261.05 68.967 260.706 68.967 260.28C68.967 259.899 68.799 259.584 68.461 259.334C68.124 259.078 67.706 258.949 67.207 258.949C66.701 258.949 66.28 259.078 65.942 259.334C65.612 259.584 65.447 259.906 65.447 260.302C65.447 260.713 65.616 261.05 65.953 261.314ZM65.733 264.933C66.1 265.212 66.591 265.351 67.207 265.351C67.823 265.351 68.311 265.212 68.67 264.933C69.037 264.655 69.22 264.306 69.22 263.888C69.22 263.463 69.026 263.115 68.637 262.843C68.249 262.565 67.772 262.425 67.207 262.425C66.635 262.425 66.155 262.565 65.766 262.843C65.385 263.122 65.194 263.478 65.194 263.91C65.194 264.314 65.374 264.655 65.733 264.933ZM76.952 264.977C76.351 265.747 75.566 266.132 74.598 266.132C73.63 266.132 72.845 265.751 72.244 264.988C71.65 264.218 71.353 263.272 71.353 262.15C71.353 261.043 71.654 260.104 72.255 259.334C72.864 258.557 73.652 258.168 74.62 258.168C75.588 258.168 76.369 258.553 76.963 259.323C77.557 260.086 77.854 261.028 77.854 262.15C77.854 263.258 77.553 264.2 76.952 264.977ZM72.915 264.405C73.355 265.029 73.923 265.34 74.62 265.34C75.317 265.34 75.878 265.032 76.303 264.416C76.736 263.793 76.952 263.038 76.952 262.15C76.952 261.278 76.732 260.53 76.292 259.906C75.859 259.276 75.295 258.96 74.598 258.96C73.901 258.96 73.337 259.272 72.904 259.895C72.471 260.511 72.255 261.263 72.255 262.15C72.255 263.023 72.475 263.775 72.915 264.405ZM84.131 263.415V264.086H86.606V264.57H84.131V266H83.317V264.57H82.162V264.086H83.317V258.3H86.199C87.189 258.3 87.959 258.524 88.509 258.971C89.066 259.411 89.345 260.038 89.345 260.852C89.345 261.674 89.066 262.308 88.509 262.755C87.959 263.195 87.189 263.415 86.199 263.415H84.131ZM84.131 259.004V262.722H86.21C86.958 262.722 87.53 262.561 87.926 262.238C88.329 261.916 88.531 261.457 88.531 260.863C88.531 260.269 88.329 259.811 87.926 259.488C87.53 259.166 86.958 259.004 86.21 259.004H84.131Z" fill="#393939"/>
<path d="M131.528 266V265.329L134.322 262.865C134.923 262.337 135.341 261.897 135.576 261.545C135.811 261.193 135.928 260.826 135.928 260.445C135.928 260.005 135.778 259.649 135.477 259.378C135.176 259.107 134.81 258.971 134.377 258.971C133.959 258.971 133.589 259.077 133.266 259.29C132.951 259.503 132.632 259.836 132.309 260.291L131.671 259.829C132.045 259.272 132.441 258.861 132.859 258.597C133.277 258.326 133.805 258.19 134.443 258.19C135.132 258.19 135.701 258.399 136.148 258.817C136.603 259.228 136.83 259.752 136.83 260.39C136.83 260.918 136.687 261.387 136.401 261.798C136.115 262.209 135.609 262.737 134.883 263.382L132.826 265.208H136.907V266H131.528ZM144.216 266.132C143.196 266.132 142.28 265.725 141.466 264.911L142.038 264.284C142.764 264.988 143.493 265.34 144.227 265.34C144.777 265.34 145.224 265.179 145.569 264.856C145.913 264.533 146.086 264.119 146.086 263.613C146.086 263.136 145.906 262.748 145.547 262.447C145.195 262.146 144.736 261.996 144.172 261.996C143.644 261.996 143.105 262.143 142.555 262.436L141.972 262.051L142.192 258.3H146.625V259.103H142.951L142.786 261.567C143.306 261.34 143.812 261.226 144.304 261.226C145.074 261.226 145.708 261.442 146.207 261.875C146.713 262.3 146.966 262.876 146.966 263.602C146.966 264.35 146.709 264.959 146.196 265.428C145.682 265.897 145.022 266.132 144.216 266.132ZM151.281 266.132C150.357 266.132 149.627 265.828 149.092 265.219C148.557 264.61 148.289 263.653 148.289 262.348C148.289 261.145 148.575 260.148 149.147 259.356C149.726 258.564 150.507 258.168 151.49 258.168C152.289 258.168 153.048 258.461 153.767 259.048L153.261 259.719C152.66 259.213 152.055 258.96 151.446 258.96C150.764 258.96 150.218 259.272 149.807 259.895C149.396 260.518 149.191 261.329 149.191 262.326V262.359C149.726 261.574 150.456 261.182 151.38 261.182C152.121 261.182 152.748 261.402 153.261 261.842C153.782 262.282 154.042 262.858 154.042 263.569C154.042 264.31 153.778 264.922 153.25 265.406C152.722 265.89 152.066 266.132 151.281 266.132ZM151.292 265.362C151.849 265.362 152.297 265.193 152.634 264.856C152.979 264.519 153.151 264.093 153.151 263.58C153.151 263.103 152.975 262.711 152.623 262.403C152.271 262.088 151.82 261.93 151.27 261.93C150.713 261.93 150.251 262.102 149.884 262.447C149.525 262.784 149.345 263.18 149.345 263.635C149.345 264.126 149.528 264.537 149.895 264.867C150.262 265.197 150.727 265.362 151.292 265.362ZM161.021 264.977C160.42 265.747 159.635 266.132 158.667 266.132C157.699 266.132 156.915 265.751 156.313 264.988C155.719 264.218 155.422 263.272 155.422 262.15C155.422 261.043 155.723 260.104 156.324 259.334C156.933 258.557 157.721 258.168 158.689 258.168C159.657 258.168 160.438 258.553 161.032 259.323C161.626 260.086 161.923 261.028 161.923 262.15C161.923 263.257 161.623 264.2 161.021 264.977ZM156.984 264.405C157.424 265.028 157.993 265.34 158.689 265.34C159.386 265.34 159.947 265.032 160.372 264.416C160.805 263.793 161.021 263.037 161.021 262.15C161.021 261.277 160.801 260.529 160.361 259.906C159.929 259.275 159.364 258.96 158.667 258.96C157.971 258.96 157.406 259.272 156.973 259.895C156.541 260.511 156.324 261.263 156.324 262.15C156.324 263.023 156.544 263.774 156.984 264.405ZM167.781 263.415V264.086H170.256V264.57H167.781V266H166.967V264.57H165.812V264.086H166.967V258.3H169.849C170.839 258.3 171.609 258.524 172.159 258.971C172.717 259.411 172.995 260.038 172.995 260.852C172.995 261.673 172.717 262.308 172.159 262.755C171.609 263.195 170.839 263.415 169.849 263.415H167.781ZM167.781 259.004V262.722H169.86C170.608 262.722 171.18 262.561 171.576 262.238C171.98 261.915 172.181 261.457 172.181 260.863C172.181 260.269 171.98 259.811 171.576 259.488C171.18 259.165 170.608 259.004 169.86 259.004H167.781Z" fill="#393939"/>
<path d="M294.394 266L297.87 259.092H293.635V258.3H298.86V258.949L295.362 266H294.394ZM302.646 266.132C301.436 266.132 300.479 265.674 299.775 264.757L300.402 264.196C301.025 264.959 301.777 265.34 302.657 265.34C303.133 265.34 303.533 265.201 303.856 264.922C304.178 264.643 304.34 264.277 304.34 263.822C304.34 263.353 304.142 262.99 303.746 262.733C303.35 262.469 302.829 262.337 302.184 262.337H301.689L301.513 261.82L303.944 259.081H300.182V258.3H305.099V258.938L302.679 261.622C303.412 261.681 304.017 261.893 304.494 262.26C304.978 262.619 305.22 263.136 305.22 263.811C305.22 264.486 304.97 265.043 304.472 265.483C303.98 265.916 303.372 266.132 302.646 266.132ZM314.802 265.505C314.252 265.908 313.562 266.11 312.734 266.11C311.905 266.11 311.216 265.905 310.666 265.494C310.116 265.083 309.841 264.555 309.841 263.91C309.841 263.47 309.984 263.089 310.27 262.766C310.556 262.443 310.941 262.194 311.425 262.018C310.545 261.615 310.105 261.017 310.105 260.225C310.105 259.646 310.361 259.162 310.875 258.773C311.395 258.384 312.015 258.19 312.734 258.19C313.452 258.19 314.068 258.384 314.582 258.773C315.102 259.162 315.363 259.653 315.363 260.247C315.363 261.024 314.923 261.615 314.043 262.018C315.099 262.414 315.627 263.048 315.627 263.921C315.627 264.566 315.352 265.094 314.802 265.505ZM311.48 261.314C311.817 261.578 312.235 261.71 312.734 261.71C313.232 261.71 313.65 261.578 313.988 261.314C314.325 261.05 314.494 260.705 314.494 260.28C314.494 259.899 314.325 259.583 313.988 259.334C313.65 259.077 313.232 258.949 312.734 258.949C312.228 258.949 311.806 259.077 311.469 259.334C311.139 259.583 310.974 259.906 310.974 260.302C310.974 260.713 311.142 261.05 311.48 261.314ZM311.26 264.933C311.626 265.212 312.118 265.351 312.734 265.351C313.35 265.351 313.837 265.212 314.197 264.933C314.563 264.654 314.747 264.306 314.747 263.888C314.747 263.463 314.552 263.114 314.164 262.843C313.775 262.564 313.298 262.425 312.734 262.425C312.162 262.425 311.681 262.564 311.293 262.843C310.911 263.122 310.721 263.477 310.721 263.91C310.721 264.313 310.9 264.654 311.26 264.933ZM321.73 265.505C321.18 265.908 320.491 266.11 319.662 266.11C318.834 266.11 318.144 265.905 317.594 265.494C317.044 265.083 316.769 264.555 316.769 263.91C316.769 263.47 316.912 263.089 317.198 262.766C317.484 262.443 317.869 262.194 318.353 262.018C317.473 261.615 317.033 261.017 317.033 260.225C317.033 259.646 317.29 259.162 317.803 258.773C318.324 258.384 318.944 258.19 319.662 258.19C320.381 258.19 320.997 258.384 321.51 258.773C322.031 259.162 322.291 259.653 322.291 260.247C322.291 261.024 321.851 261.615 320.971 262.018C322.027 262.414 322.555 263.048 322.555 263.921C322.555 264.566 322.28 265.094 321.73 265.505ZM318.408 261.314C318.746 261.578 319.164 261.71 319.662 261.71C320.161 261.71 320.579 261.578 320.916 261.314C321.254 261.05 321.422 260.705 321.422 260.28C321.422 259.899 321.254 259.583 320.916 259.334C320.579 259.077 320.161 258.949 319.662 258.949C319.156 258.949 318.735 259.077 318.397 259.334C318.067 259.583 317.902 259.906 317.902 260.302C317.902 260.713 318.071 261.05 318.408 261.314ZM318.188 264.933C318.555 265.212 319.046 265.351 319.662 265.351C320.278 265.351 320.766 265.212 321.125 264.933C321.492 264.654 321.675 264.306 321.675 263.888C321.675 263.463 321.481 263.114 321.092 262.843C320.704 262.564 320.227 262.425 319.662 262.425C319.09 262.425 318.61 262.564 318.221 262.843C317.84 263.122 317.649 263.477 317.649 263.91C317.649 264.313 317.829 264.654 318.188 264.933ZM329.407 264.977C328.806 265.747 328.021 266.132 327.053 266.132C326.085 266.132 325.3 265.751 324.699 264.988C324.105 264.218 323.808 263.272 323.808 262.15C323.808 261.043 324.109 260.104 324.71 259.334C325.319 258.557 326.107 258.168 327.075 258.168C328.043 258.168 328.824 258.553 329.418 259.323C330.012 260.086 330.309 261.028 330.309 262.15C330.309 263.257 330.008 264.2 329.407 264.977ZM325.37 264.405C325.81 265.028 326.378 265.34 327.075 265.34C327.772 265.34 328.333 265.032 328.758 264.416C329.191 263.793 329.407 263.037 329.407 262.15C329.407 261.277 329.187 260.529 328.747 259.906C328.314 259.275 327.75 258.96 327.053 258.96C326.356 258.96 325.792 259.272 325.359 259.895C324.926 260.511 324.71 261.263 324.71 262.15C324.71 263.023 324.93 263.774 325.37 264.405ZM336.167 263.415V264.086H338.642V264.57H336.167V266H335.353V264.57H334.198V264.086H335.353V258.3H338.235C339.225 258.3 339.995 258.524 340.545 258.971C341.102 259.411 341.381 260.038 341.381 260.852C341.381 261.673 341.102 262.308 340.545 262.755C339.995 263.195 339.225 263.415 338.235 263.415H336.167ZM336.167 259.004V262.722H338.246C338.994 262.722 339.566 262.561 339.962 262.238C340.365 261.915 340.567 261.457 340.567 260.863C340.567 260.269 340.365 259.811 339.962 259.488C339.566 259.165 338.994 259.004 338.246 259.004H336.167Z" fill="#393939"/>
<g filter="url(#filter0_dddd_5_153)">
<path d="M307 0H80C75.5817 0 72 3.58172 72 8V48C72 52.4183 75.5817 56 80 56H307C311.418 56 315 52.4183 315 48V8C315 3.58172 311.418 0 307 0Z" fill="white"/>
<path d="M115.5 8H90.5C89.1193 8 88 9.11929 88 10.5V45.5C88 46.8807 89.1193 48 90.5 48H115.5C116.881 48 118 46.8807 118 45.5V10.5C118 9.11929 116.881 8 115.5 8Z" fill="#83C150"/>
<path d="M97.65 17.306L98.633 19.114L99.644 17.306H101.33L99.649 20.212L101.407 23.25H99.715L98.644 21.338L97.573 23.25H95.881L97.639 20.212L95.958 17.306H97.65ZM103.769 14.812V23.25H102.182V14.812H103.769ZM108.29 21.608C108.29 21.494 108.257 21.391 108.191 21.3C108.125 21.208 108.002 21.124 107.823 21.047C107.647 20.967 107.393 20.893 107.059 20.828C106.759 20.762 106.479 20.679 106.219 20.58C105.963 20.478 105.739 20.355 105.549 20.212C105.362 20.069 105.216 19.901 105.109 19.707C105.003 19.509 104.95 19.284 104.95 19.031C104.95 18.782 105.003 18.548 105.109 18.328C105.219 18.108 105.375 17.914 105.576 17.746C105.781 17.574 106.03 17.44 106.323 17.345C106.62 17.246 106.953 17.197 107.323 17.197C107.839 17.197 108.283 17.279 108.652 17.444C109.026 17.609 109.312 17.836 109.509 18.125C109.711 18.411 109.812 18.736 109.812 19.103H108.229C108.229 18.949 108.197 18.812 108.131 18.691C108.068 18.566 107.969 18.469 107.834 18.4C107.702 18.326 107.53 18.29 107.318 18.29C107.142 18.29 106.99 18.321 106.862 18.383C106.734 18.442 106.635 18.522 106.565 18.625C106.499 18.724 106.466 18.833 106.466 18.954C106.466 19.046 106.484 19.128 106.521 19.202C106.561 19.271 106.625 19.335 106.713 19.394C106.801 19.452 106.915 19.507 107.054 19.559C107.197 19.606 107.373 19.65 107.581 19.69C108.01 19.778 108.392 19.894 108.729 20.036C109.066 20.176 109.334 20.366 109.531 20.608C109.729 20.846 109.828 21.159 109.828 21.547C109.828 21.811 109.769 22.052 109.652 22.272C109.535 22.492 109.367 22.684 109.147 22.849C108.927 23.01 108.663 23.136 108.356 23.228C108.052 23.316 107.709 23.36 107.329 23.36C106.776 23.36 106.307 23.261 105.922 23.063C105.542 22.865 105.252 22.615 105.054 22.311C104.86 22.003 104.763 21.688 104.763 21.366H106.263C106.27 21.582 106.325 21.756 106.428 21.888C106.534 22.02 106.668 22.115 106.829 22.173C106.994 22.232 107.171 22.261 107.362 22.261C107.567 22.261 107.737 22.234 107.872 22.179C108.008 22.12 108.11 22.043 108.18 21.948C108.253 21.849 108.29 21.736 108.29 21.608Z" fill="white"/>
<path d="M114.25 26.75H91.75V28H114.25V26.75Z" fill="white" fill-opacity="0.5"/>
<path d="M114.25 30.5H91.75V31.75H114.25V30.5Z" fill="white" fill-opacity="0.5"/>
<path d="M114.25 34.25H91.75V35.5H114.25V34.25Z" fill="white" fill-opacity="0.5"/>
<path d="M105.5 38H91.75V39.25H105.5V38Z" fill="white" fill-opacity="0.5"/>
<path d="M131.664 19.132C134.029 19.132 135.701 17.317 135.701 15.15C135.701 12.961 134.051 11.168 131.686 11.168C129.321 11.168 127.649 12.983 127.649 15.15C127.649 17.339 129.299 19.132 131.664 19.132ZM131.686 17.889C130.157 17.889 129.068 16.646 129.068 15.15C129.068 13.632 130.135 12.411 131.664 12.411C133.193 12.411 134.282 13.654 134.282 15.15C134.282 16.668 133.215 17.889 131.686 17.889ZM138.425 19H139.767V14.336H141.637V13.192H136.555V14.336H138.425V19ZM146.223 19H147.554V13.192H146.223V15.755C145.838 15.975 145.321 16.14 144.804 16.14C144.21 16.14 143.847 15.656 143.847 15.128V13.192H142.516V15.447C142.516 16.635 143.341 17.273 144.496 17.273C145.123 17.273 145.816 17.042 146.223 16.833V19ZM151.886 19.132C152.953 19.132 153.712 18.703 154.262 18.043L153.481 17.35C153.019 17.801 152.557 18.043 151.908 18.043C151.05 18.043 150.379 17.515 150.236 16.569H154.504C154.515 16.503 154.526 16.283 154.526 16.195C154.526 14.523 153.591 13.071 151.743 13.071C150.082 13.071 148.905 14.435 148.905 16.096C148.905 17.911 150.203 19.132 151.886 19.132ZM150.225 15.689C150.346 14.787 150.918 14.16 151.732 14.16C152.612 14.16 153.118 14.831 153.206 15.689H150.225ZM157.105 19H158.447V14.336H160.317V13.192H155.235V14.336H157.105V19ZM164.671 19H166.002V14.336H168.521V19H169.852V13.192H164.671V19ZM174.285 19.132C176.078 19.132 177.398 17.757 177.398 16.107C177.398 14.424 176.089 13.071 174.307 13.071C172.525 13.071 171.205 14.446 171.205 16.107C171.205 17.779 172.514 19.132 174.285 19.132ZM174.307 17.977C173.273 17.977 172.536 17.119 172.536 16.107C172.536 15.073 173.218 14.237 174.285 14.237C175.33 14.237 176.067 15.084 176.067 16.107C176.067 17.13 175.385 17.977 174.307 17.977ZM182.052 19H183.306L186.067 15.128V19H187.354V13.192H186.1C185.176 14.49 184.263 15.788 183.35 17.086V13.192H182.052V19ZM190.267 19H191.609V14.336H193.479V13.192H188.397V14.336H190.267V19ZM197.295 19.132C199.088 19.132 200.408 17.757 200.408 16.107C200.408 14.424 199.099 13.071 197.317 13.071C195.535 13.071 194.215 14.446 194.215 16.107C194.215 17.779 195.524 19.132 197.295 19.132ZM197.317 17.977C196.283 17.977 195.546 17.119 195.546 16.107C195.546 15.073 196.228 14.237 197.295 14.237C198.34 14.237 199.077 15.084 199.077 16.107C199.077 17.13 198.395 17.977 197.317 17.977ZM201.764 19H203.095V14.336H205.878V13.192H201.764V19ZM211.804 19V15.557C211.804 14.006 210.968 13.104 209.252 13.104C208.306 13.104 207.679 13.302 207.041 13.588L207.404 14.655C207.932 14.435 208.416 14.292 209.065 14.292C209.989 14.292 210.495 14.732 210.495 15.535V15.645C210.044 15.502 209.593 15.403 208.889 15.403C207.536 15.403 206.535 16.019 206.535 17.306C206.535 18.494 207.503 19.121 208.603 19.121C209.483 19.121 210.088 18.758 210.484 18.285V19H211.804ZM210.517 16.899C210.517 17.625 209.857 18.12 208.977 18.12C208.35 18.12 207.855 17.812 207.855 17.262C207.855 16.679 208.35 16.338 209.186 16.338C209.703 16.338 210.176 16.437 210.517 16.569V16.899ZM213.387 19H214.685V15.15L216.5 17.735L218.326 15.128V19H219.668V13.192H218.348L216.522 15.887L214.707 13.192H213.387V19ZM224.865 19H226.218V11.3H224.865V19ZM230.82 19.055H232.008L235.209 11.3H233.746L231.436 17.218L229.115 11.3H227.619L230.82 19.055ZM239.673 19H240.993V17.603L241.939 16.602L243.699 19H245.272L242.83 15.634L245.085 13.192H243.523L240.993 15.975V13.192H239.673V19ZM246.193 19H249.207C250.527 19 251.352 18.406 251.352 17.427C251.352 16.602 250.857 16.173 250.153 15.975C250.648 15.755 251.088 15.381 251.088 14.644C251.088 13.753 250.329 13.192 249.174 13.192H246.193V19ZM247.502 17.944V16.492H248.943C249.658 16.492 249.999 16.778 249.999 17.196C249.999 17.647 249.658 17.944 249.009 17.944H247.502ZM247.502 15.59V14.215H248.888C249.482 14.215 249.735 14.501 249.735 14.875C249.735 15.293 249.427 15.59 248.866 15.59H247.502ZM257.555 19V15.557C257.555 14.006 256.719 13.104 255.003 13.104C254.057 13.104 253.43 13.302 252.792 13.588L253.155 14.655C253.683 14.435 254.167 14.292 254.816 14.292C255.74 14.292 256.246 14.732 256.246 15.535V15.645C255.795 15.502 255.344 15.403 254.64 15.403C253.287 15.403 252.286 16.019 252.286 17.306C252.286 18.494 253.254 19.121 254.354 19.121C255.234 19.121 255.839 18.758 256.235 18.285V19H257.555ZM256.268 16.899C256.268 17.625 255.608 18.12 254.728 18.12C254.101 18.12 253.606 17.812 253.606 17.262C253.606 16.679 254.101 16.338 254.937 16.338C255.454 16.338 255.927 16.437 256.268 16.569V16.899ZM259.138 20.76H260.469V18.098C260.876 18.637 261.481 19.121 262.438 19.121C263.824 19.121 265.144 18.032 265.144 16.107C265.144 14.16 263.813 13.071 262.438 13.071C261.503 13.071 260.898 13.555 260.469 14.16V13.192H259.138V20.76ZM262.13 17.966C261.228 17.966 260.436 17.229 260.436 16.107C260.436 14.974 261.228 14.226 262.13 14.226C263.032 14.226 263.791 14.963 263.791 16.085C263.791 17.251 263.043 17.966 262.13 17.966ZM267.75 19H269.092V14.336H270.962V13.192H265.88V14.336H267.75V19ZM276.891 19V15.557C276.891 14.006 276.055 13.104 274.339 13.104C273.393 13.104 272.766 13.302 272.128 13.588L272.491 14.655C273.019 14.435 273.503 14.292 274.152 14.292C275.076 14.292 275.582 14.732 275.582 15.535V15.645C275.131 15.502 274.68 15.403 273.976 15.403C272.623 15.403 271.622 16.019 271.622 17.306C271.622 18.494 272.59 19.121 273.69 19.121C274.57 19.121 275.175 18.758 275.571 18.285V19H276.891ZM275.604 16.899C275.604 17.625 274.944 18.12 274.064 18.12C273.437 18.12 272.942 17.812 272.942 17.262C272.942 16.679 273.437 16.338 274.273 16.338C274.79 16.338 275.263 16.437 275.604 16.569V16.899ZM278.43 19.066C279.717 19.066 280.509 18.549 280.509 14.336H282.324V19H283.655V13.192H279.266C279.266 17.614 278.804 17.944 278.133 17.944C278.045 17.944 277.836 17.922 277.748 17.9L277.649 18.989C277.847 19.022 278.221 19.066 278.43 19.066ZM290.2 19V15.557C290.2 14.006 289.364 13.104 287.648 13.104C286.702 13.104 286.075 13.302 285.437 13.588L285.8 14.655C286.328 14.435 286.812 14.292 287.461 14.292C288.385 14.292 288.891 14.732 288.891 15.535V15.645C288.44 15.502 287.989 15.403 287.285 15.403C285.932 15.403 284.931 16.019 284.931 17.306C284.931 18.494 285.899 19.121 286.999 19.121C287.879 19.121 288.484 18.758 288.88 18.285V19H290.2ZM288.913 16.899C288.913 17.625 288.253 18.12 287.373 18.12C286.746 18.12 286.251 17.812 286.251 17.262C286.251 16.679 286.746 16.338 287.582 16.338C288.099 16.338 288.572 16.437 288.913 16.569V16.899Z" fill="#393939"/>
<path d="M132.665 38.263C132.093 38.842 131.385 39.132 130.542 39.132C129.699 39.132 128.995 38.842 128.43 38.263C127.873 37.684 127.594 36.983 127.594 36.162C127.594 35.348 127.876 34.651 128.441 34.072C129.013 33.485 129.721 33.192 130.564 33.192C131.407 33.192 132.111 33.482 132.676 34.061C133.241 34.64 133.523 35.341 133.523 36.162C133.523 36.976 133.237 37.676 132.665 38.263ZM130.564 38.373C131.173 38.373 131.671 38.16 132.06 37.735C132.456 37.31 132.654 36.785 132.654 36.162C132.654 35.546 132.449 35.022 132.038 34.589C131.635 34.156 131.136 33.94 130.542 33.94C129.933 33.94 129.435 34.156 129.046 34.589C128.657 35.014 128.463 35.539 128.463 36.162C128.463 36.778 128.665 37.302 129.068 37.735C129.471 38.16 129.97 38.373 130.564 38.373ZM136.432 39V34.061H134.397V33.313H139.325V34.061H137.29V39H136.432ZM140.557 39V33.313H144.418V34.061H141.404V39H140.557ZM145.649 40.76V33.313H146.496V34.457C147.068 33.614 147.794 33.192 148.674 33.192C149.4 33.192 150.034 33.463 150.577 34.006C151.12 34.541 151.391 35.26 151.391 36.162C151.391 37.049 151.12 37.764 150.577 38.307C150.034 38.85 149.4 39.121 148.674 39.121C147.779 39.121 147.053 38.718 146.496 37.911V40.76H145.649ZM148.52 38.362C149.092 38.362 149.569 38.164 149.95 37.768C150.331 37.365 150.522 36.826 150.522 36.151C150.522 35.498 150.328 34.97 149.939 34.567C149.55 34.156 149.077 33.951 148.52 33.951C147.97 33.951 147.49 34.16 147.079 34.578C146.668 34.996 146.463 35.524 146.463 36.162C146.463 36.8 146.668 37.328 147.079 37.746C147.49 38.157 147.97 38.362 148.52 38.362ZM153.834 40.793C153.423 40.793 153.02 40.698 152.624 40.507L152.91 39.836C153.181 39.975 153.478 40.045 153.801 40.045C154.057 40.045 154.274 39.964 154.45 39.803C154.626 39.649 154.798 39.374 154.967 38.978L152.382 33.313H153.317L155.385 38.054L157.211 33.313H158.113L155.726 39.187C155.484 39.766 155.216 40.177 154.923 40.419C154.629 40.668 154.266 40.793 153.834 40.793ZM161.257 39.132C160.384 39.132 159.6 38.85 158.903 38.285L159.332 37.658C159.911 38.149 160.546 38.395 161.235 38.395C161.624 38.395 161.954 38.307 162.225 38.131C162.504 37.948 162.643 37.698 162.643 37.383C162.643 37.09 162.518 36.862 162.269 36.701C162.02 36.532 161.668 36.448 161.213 36.448H160.454V35.755H161.224C161.598 35.755 161.902 35.667 162.137 35.491C162.372 35.308 162.489 35.069 162.489 34.776C162.489 34.519 162.372 34.314 162.137 34.16C161.91 34.006 161.616 33.929 161.257 33.929C160.582 33.929 160.007 34.12 159.53 34.501L159.112 33.907C159.728 33.43 160.461 33.192 161.312 33.192C161.943 33.192 162.441 33.335 162.808 33.621C163.182 33.9 163.369 34.263 163.369 34.71C163.369 35.333 163.065 35.77 162.456 36.019C163.16 36.268 163.512 36.734 163.512 37.416C163.512 37.893 163.307 38.3 162.896 38.637C162.485 38.967 161.939 39.132 161.257 39.132ZM165.082 39V33.313H165.929V36.591L169.042 33.313H170.087L167.711 35.777L170.153 39H169.152L167.128 36.393L165.929 37.625V39H165.082ZM173.017 39.121C172.438 39.121 171.939 38.963 171.521 38.648C171.103 38.333 170.894 37.893 170.894 37.328C170.894 36.734 171.114 36.276 171.554 35.953C171.994 35.63 172.584 35.469 173.325 35.469C173.912 35.469 174.491 35.55 175.063 35.711V35.535C175.063 35.036 174.916 34.655 174.623 34.391C174.33 34.127 173.915 33.995 173.38 33.995C172.823 33.995 172.247 34.131 171.653 34.402L171.4 33.709C172.104 33.386 172.793 33.225 173.468 33.225C174.275 33.225 174.887 33.434 175.305 33.852C175.701 34.248 175.899 34.805 175.899 35.524V39H175.063V38.153C174.557 38.798 173.875 39.121 173.017 39.121ZM173.182 38.439C173.71 38.439 174.157 38.296 174.524 38.01C174.891 37.724 175.074 37.357 175.074 36.91V36.382C174.517 36.221 173.963 36.14 173.413 36.14C172.892 36.14 172.485 36.246 172.192 36.459C171.899 36.664 171.752 36.947 171.752 37.306C171.752 37.651 171.888 37.926 172.159 38.131C172.438 38.336 172.779 38.439 173.182 38.439ZM177.385 40.342L177.253 39.957C177.744 39.774 177.99 39.491 177.99 39.11V39H177.594V37.845H178.606V38.835C178.606 39.275 178.507 39.612 178.309 39.847C178.118 40.082 177.81 40.247 177.385 40.342ZM184.567 40.793C184.157 40.793 183.753 40.698 183.357 40.507L183.643 39.836C183.915 39.975 184.212 40.045 184.534 40.045C184.791 40.045 185.007 39.964 185.183 39.803C185.359 39.649 185.532 39.374 185.7 38.978L183.115 33.313H184.05L186.118 38.054L187.944 33.313H188.846L186.459 39.187C186.217 39.766 185.95 40.177 185.656 40.419C185.363 40.668 185 40.793 184.567 40.793ZM190.186 39V33.313H195.114V39H194.267V34.061H191.033V39H190.186ZM198.702 39.121C198.122 39.121 197.624 38.963 197.206 38.648C196.788 38.333 196.579 37.893 196.579 37.328C196.579 36.734 196.799 36.276 197.239 35.953C197.679 35.63 198.269 35.469 199.01 35.469C199.596 35.469 200.176 35.55 200.748 35.711V35.535C200.748 35.036 200.601 34.655 200.308 34.391C200.014 34.127 199.6 33.995 199.065 33.995C198.507 33.995 197.932 34.131 197.338 34.402L197.085 33.709C197.789 33.386 198.478 33.225 199.153 33.225C199.959 33.225 200.572 33.434 200.99 33.852C201.386 34.248 201.584 34.805 201.584 35.524V39H200.748V38.153C200.242 38.798 199.56 39.121 198.702 39.121ZM198.867 38.439C199.395 38.439 199.842 38.296 200.209 38.01C200.575 37.724 200.759 37.357 200.759 36.91V36.382C200.201 36.221 199.648 36.14 199.098 36.14C198.577 36.14 198.17 36.246 197.877 36.459C197.583 36.664 197.437 36.947 197.437 37.306C197.437 37.651 197.572 37.926 197.844 38.131C198.122 38.336 198.463 38.439 198.867 38.439ZM203.378 39V33.313H204.225V36.591L207.338 33.313H208.383L206.007 35.777L208.449 39H207.448L205.424 36.393L204.225 37.625V39H203.378ZM214.338 38.263C213.766 38.842 213.058 39.132 212.215 39.132C211.372 39.132 210.668 38.842 210.103 38.263C209.546 37.684 209.267 36.983 209.267 36.162C209.267 35.348 209.549 34.651 210.114 34.072C210.686 33.485 211.394 33.192 212.237 33.192C213.08 33.192 213.784 33.482 214.349 34.061C214.914 34.64 215.196 35.341 215.196 36.162C215.196 36.976 214.91 37.676 214.338 38.263ZM212.237 38.373C212.846 38.373 213.344 38.16 213.733 37.735C214.129 37.31 214.327 36.785 214.327 36.162C214.327 35.546 214.122 35.022 213.711 34.589C213.308 34.156 212.809 33.94 212.215 33.94C211.606 33.94 211.108 34.156 210.719 34.589C210.33 35.014 210.136 35.539 210.136 36.162C210.136 36.778 210.338 37.302 210.741 37.735C211.144 38.16 211.643 38.373 212.237 38.373ZM216.73 39V33.313H219.48C220.045 33.313 220.496 33.441 220.833 33.698C221.171 33.955 221.339 34.299 221.339 34.732C221.339 35.341 221.024 35.777 220.393 36.041C221.229 36.268 221.647 36.738 221.647 37.449C221.647 37.926 221.46 38.303 221.086 38.582C220.712 38.861 220.21 39 219.579 39H216.73ZM217.577 38.274H219.469C219.873 38.274 220.192 38.19 220.426 38.021C220.661 37.852 220.778 37.618 220.778 37.317C220.778 37.038 220.654 36.822 220.404 36.668C220.162 36.514 219.814 36.437 219.359 36.437H217.577V38.274ZM217.577 35.755H219.326C219.678 35.755 219.957 35.678 220.162 35.524C220.375 35.363 220.481 35.135 220.481 34.842C220.481 34.6 220.382 34.406 220.184 34.259C219.986 34.112 219.708 34.039 219.348 34.039H217.577V35.755ZM223.175 39V33.313H224.022V36.591L227.135 33.313H228.18L225.804 35.777L228.246 39H227.245L225.221 36.393L224.022 37.625V39H223.175ZM231.111 39.121C230.531 39.121 230.033 38.963 229.615 38.648C229.197 38.333 228.988 37.893 228.988 37.328C228.988 36.734 229.208 36.276 229.648 35.953C230.088 35.63 230.678 35.469 231.419 35.469C232.005 35.469 232.585 35.55 233.157 35.711V35.535C233.157 35.036 233.01 34.655 232.717 34.391C232.423 34.127 232.009 33.995 231.474 33.995C230.916 33.995 230.341 34.131 229.747 34.402L229.494 33.709C230.198 33.386 230.887 33.225 231.562 33.225C232.368 33.225 232.981 33.434 233.399 33.852C233.795 34.248 233.993 34.805 233.993 35.524V39H233.157V38.153C232.651 38.798 231.969 39.121 231.111 39.121ZM231.276 38.439C231.804 38.439 232.251 38.296 232.618 38.01C232.984 37.724 233.168 37.357 233.168 36.91V36.382C232.61 36.221 232.057 36.14 231.507 36.14C230.986 36.14 230.579 36.246 230.286 36.459C229.992 36.664 229.846 36.947 229.846 37.306C229.846 37.651 229.981 37.926 230.253 38.131C230.531 38.336 230.872 38.439 231.276 38.439ZM235.479 40.342L235.347 39.957C235.838 39.774 236.084 39.491 236.084 39.11V39H235.688V37.845H236.7V38.835C236.7 39.275 236.601 39.612 236.403 39.847C236.212 40.082 235.904 40.247 235.479 40.342ZM240.945 40.419V38.252H241.561C242.067 37.321 242.32 36.004 242.32 34.303V33.313H246.368V38.252H247.226L247.094 40.419H246.39V39H241.792L241.638 40.419H240.945ZM242.463 38.252H245.521V34.061H243.134V34.853C243.134 36.283 242.91 37.416 242.463 38.252ZM253.106 38.263C252.534 38.842 251.827 39.132 250.983 39.132C250.14 39.132 249.436 38.842 248.871 38.263C248.314 37.684 248.035 36.983 248.035 36.162C248.035 35.348 248.318 34.651 248.882 34.072C249.454 33.485 250.162 33.192 251.005 33.192C251.849 33.192 252.553 33.482 253.117 34.061C253.682 34.64 253.964 35.341 253.964 36.162C253.964 36.976 253.678 37.676 253.106 38.263ZM251.005 38.373C251.614 38.373 252.113 38.16 252.501 37.735C252.897 37.31 253.095 36.785 253.095 36.162C253.095 35.546 252.89 35.022 252.479 34.589C252.076 34.156 251.577 33.94 250.983 33.94C250.375 33.94 249.876 34.156 249.487 34.589C249.099 35.014 248.904 35.539 248.904 36.162C248.904 36.778 249.106 37.302 249.509 37.735C249.913 38.16 250.411 38.373 251.005 38.373ZM258.062 39.132C257.24 39.132 256.547 38.842 255.983 38.263C255.425 37.676 255.147 36.976 255.147 36.162C255.147 35.348 255.425 34.651 255.983 34.072C256.547 33.485 257.24 33.192 258.062 33.192C258.942 33.192 259.701 33.529 260.339 34.204L259.8 34.776C259.272 34.219 258.689 33.94 258.051 33.94C257.479 33.94 256.995 34.156 256.599 34.589C256.21 35.014 256.016 35.539 256.016 36.162C256.016 36.778 256.214 37.302 256.61 37.735C257.013 38.16 257.512 38.373 258.106 38.373C258.714 38.373 259.286 38.087 259.822 37.515L260.383 38.032C259.723 38.765 258.949 39.132 258.062 39.132ZM263.158 39V34.061H261.123V33.313H266.051V34.061H264.016V39H263.158ZM268.977 39.121C268.398 39.121 267.899 38.963 267.481 38.648C267.063 38.333 266.854 37.893 266.854 37.328C266.854 36.734 267.074 36.276 267.514 35.953C267.954 35.63 268.544 35.469 269.285 35.469C269.872 35.469 270.451 35.55 271.023 35.711V35.535C271.023 35.036 270.876 34.655 270.583 34.391C270.29 34.127 269.875 33.995 269.34 33.995C268.783 33.995 268.207 34.131 267.613 34.402L267.36 33.709C268.064 33.386 268.753 33.225 269.428 33.225C270.235 33.225 270.847 33.434 271.265 33.852C271.661 34.248 271.859 34.805 271.859 35.524V39H271.023V38.153C270.517 38.798 269.835 39.121 268.977 39.121ZM269.142 38.439C269.67 38.439 270.117 38.296 270.484 38.01C270.851 37.724 271.034 37.357 271.034 36.91V36.382C270.477 36.221 269.923 36.14 269.373 36.14C268.852 36.14 268.445 36.246 268.152 36.459C267.859 36.664 267.712 36.947 267.712 37.306C267.712 37.651 267.848 37.926 268.119 38.131C268.398 38.336 268.739 38.439 269.142 38.439ZM273.653 39V33.313H276.403C276.968 33.313 277.419 33.441 277.756 33.698C278.093 33.955 278.262 34.299 278.262 34.732C278.262 35.341 277.947 35.777 277.316 36.041C278.152 36.268 278.57 36.738 278.57 37.449C278.57 37.926 278.383 38.303 278.009 38.582C277.635 38.861 277.133 39 276.502 39H273.653ZM274.5 38.274H276.392C276.795 38.274 277.114 38.19 277.349 38.021C277.584 37.852 277.701 37.618 277.701 37.317C277.701 37.038 277.576 36.822 277.327 36.668C277.085 36.514 276.737 36.437 276.282 36.437H274.5V38.274ZM274.5 35.755H276.249C276.601 35.755 276.88 35.678 277.085 35.524C277.298 35.363 277.404 35.135 277.404 34.842C277.404 34.6 277.305 34.406 277.107 34.259C276.909 34.112 276.63 34.039 276.271 34.039H274.5V35.755ZM280.098 39V33.313H280.945V36.591L284.058 33.313H285.103L282.727 35.777L285.169 39H284.168L282.144 36.393L280.945 37.625V39H280.098ZM288.034 39.121C287.454 39.121 286.956 38.963 286.538 38.648C286.12 38.333 285.911 37.893 285.911 37.328C285.911 36.734 286.131 36.276 286.571 35.953C287.011 35.63 287.601 35.469 288.342 35.469C288.928 35.469 289.508 35.55 290.08 35.711V35.535C290.08 35.036 289.933 34.655 289.64 34.391C289.346 34.127 288.932 33.995 288.397 33.995C287.839 33.995 287.264 34.131 286.67 34.402L286.417 33.709C287.121 33.386 287.81 33.225 288.485 33.225C289.291 33.225 289.904 33.434 290.322 33.852C290.718 34.248 290.916 34.805 290.916 35.524V39H290.08V38.153C289.574 38.798 288.892 39.121 288.034 39.121ZM288.199 38.439C288.727 38.439 289.174 38.296 289.541 38.01C289.907 37.724 290.091 37.357 290.091 36.91V36.382C289.533 36.221 288.98 36.14 288.43 36.14C287.909 36.14 287.502 36.246 287.209 36.459C286.915 36.664 286.769 36.947 286.769 37.306C286.769 37.651 286.904 37.926 287.176 38.131C287.454 38.336 287.795 38.439 288.199 38.439Z" fill="#686868"/>
</g>
</g>
<defs>
<filter id="filter0_dddd_5_153" x="-76" y="-131" width="539" height="352" filterUnits="userSpaceOnUse" color-interpolation-filters="sRGB">
<feFlood flood-opacity="0" result="BackgroundImageFix"/>
<feColorMatrix in="SourceAlpha" type="matrix" values="0 0 0 0 0 0 0 0 0 0 0 0 0 0 0 0 0 0 127 0" result="hardAlpha"/>
<feOffset dy="0.74375"/>
<feGaussianBlur stdDeviation="4.27812"/>
<feColorMatrix type="matrix" values="0 0 0 0 0 0 0 0 0 0 0 0 0 0 0 0 0 0 0.0195 0"/>
<feBlend mode="normal" in2="BackgroundImageFix" result="effect1_dropShadow_5_153"/>
<feColorMatrix in="SourceAlpha" type="matrix" values="0 0 0 0 0 0 0 0 0 0 0 0 0 0 0 0 0 0 127 0" result="hardAlpha"/>
<feOffset dy="3.4"/>
<feGaussianBlur stdDeviation="12.025"/>
<feColorMatrix type="matrix" values="0 0 0 0 0 0 0 0 0 0 0 0 0 0 0 0 0 0 0.03 0"/>
<feBlend mode="normal" in2="effect1_dropShadow_5_153" result="effect2_dropShadow_5_153"/>
<feColorMatrix in="SourceAlpha" type="matrix" values="0 0 0 0 0 0 0 0 0 0 0 0 0 0 0 0 0 0 127 0" result="hardAlpha"/>
<feOffset dy="8.60625"/>
<feGaussianBlur stdDeviation="32.2594"/>
<feColorMatrix type="matrix" values="0 0 0 0 0 0 0 0 0 0 0 0 0 0 0 0 0 0 0.0405 0"/>
<feBlend mode="normal" in2="effect2_dropShadow_5_153" result="effect3_dropShadow_5_153"/>
<feColorMatrix in="SourceAlpha" type="matrix" values="0 0 0 0 0 0 0 0 0 0 0 0 0 0 0 0 0 0 127 0" result="hardAlpha"/>
<feOffset dy="17"/>
<feGaussianBlur stdDeviation="74"/>
<feColorMatrix type="matrix" values="0 0 0 0 0 0 0 0 0 0 0 0 0 0 0 0 0 0 0.06 0"/>
<feBlend mode="normal" in2="effect3_dropShadow_5_153" result="effect4_dropShadow_5_153"/>
<feBlend mode="normal" in="SourceGraphic" in2="effect4_dropShadow_5_153" result="shape"/>
</filter>
<clipPath id="clip0_5_153">
<rect width="386" height="288" fill="white"/>
</clipPath>
</defs>
</svg>
